<svg width="418" height="328" viewBox="0 0 418 328" fill="none" xmlns="http://www.w3.org/2000/svg">
<rect width="418" height="328" fill="#ECEFF1"/>
<path d="M96.755 187.18C96.175 187.18 95.66 187.12 95.21 187C94.76 186.87 94.37 186.695 94.04 186.475C93.71 186.245 93.44 185.995 93.23 185.725C93.02 185.445 92.865 185.15 92.765 184.84L93.98 184.42C94.13 184.86 94.43 185.245 94.88 185.575C95.34 185.895 95.9 186.055 96.56 186.055C97.37 186.055 98.005 185.895 98.465 185.575C98.925 185.255 99.155 184.83 99.155 184.3C99.155 183.81 98.95 183.415 98.54 183.115C98.13 182.805 97.59 182.565 96.92 182.395L95.765 182.095C95.295 181.975 94.86 181.8 94.46 181.57C94.07 181.33 93.755 181.03 93.515 180.67C93.285 180.3 93.17 179.86 93.17 179.35C93.17 178.4 93.475 177.66 94.085 177.13C94.705 176.59 95.595 176.32 96.755 176.32C97.445 176.32 98.04 176.435 98.54 176.665C99.04 176.885 99.445 177.17 99.755 177.52C100.075 177.86 100.3 178.23 100.43 178.63L99.23 179.05C99.04 178.55 98.72 178.16 98.27 177.88C97.82 177.59 97.275 177.445 96.635 177.445C95.965 177.445 95.43 177.61 95.03 177.94C94.64 178.26 94.445 178.7 94.445 179.26C94.445 179.74 94.6 180.11 94.91 180.37C95.22 180.62 95.625 180.805 96.125 180.925L97.28 181.21C98.3 181.45 99.08 181.85 99.62 182.41C100.17 182.96 100.445 183.555 100.445 184.195C100.445 184.745 100.305 185.25 100.025 185.71C99.745 186.16 99.33 186.52 98.78 186.79C98.24 187.05 97.565 187.18 96.755 187.18ZM102.264 187V176.305H103.464V187H102.264ZM107.544 187V183.16L108.744 182.71V187H107.544ZM107.544 183.16C107.544 182.42 107.454 181.855 107.274 181.465C107.104 181.075 106.869 180.81 106.569 180.67C106.269 180.52 105.929 180.445 105.549 180.445C104.889 180.445 104.374 180.68 104.004 181.15C103.644 181.61 103.464 182.265 103.464 183.115H102.879C102.879 182.325 102.994 181.645 103.224 181.075C103.454 180.505 103.789 180.07 104.229 179.77C104.669 179.47 105.199 179.32 105.819 179.32C106.719 179.32 107.434 179.6 107.964 180.16C108.494 180.72 108.754 181.57 108.744 182.71L107.544 183.16ZM113.988 187.18C113.258 187.18 112.608 187.015 112.038 186.685C111.468 186.345 111.023 185.88 110.703 185.29C110.383 184.7 110.223 184.02 110.223 183.25C110.223 182.48 110.378 181.8 110.688 181.21C111.008 180.62 111.453 180.16 112.023 179.83C112.593 179.49 113.238 179.32 113.958 179.32C114.698 179.32 115.348 179.49 115.908 179.83C116.478 180.16 116.918 180.62 117.228 181.21C117.548 181.8 117.708 182.48 117.708 183.25C117.708 184.02 117.548 184.7 117.228 185.29C116.918 185.88 116.483 186.345 115.923 186.685C115.363 187.015 114.718 187.18 113.988 187.18ZM113.988 186.04C114.478 186.04 114.908 185.925 115.278 185.695C115.648 185.455 115.938 185.125 116.148 184.705C116.358 184.285 116.463 183.8 116.463 183.25C116.463 182.7 116.353 182.215 116.133 181.795C115.923 181.375 115.628 181.05 115.248 180.82C114.878 180.58 114.448 180.46 113.958 180.46C113.468 180.46 113.038 180.58 112.668 180.82C112.298 181.05 112.003 181.375 111.783 181.795C111.573 182.215 111.468 182.7 111.468 183.25C111.468 183.8 111.573 184.285 111.783 184.705C112.003 185.125 112.303 185.455 112.683 185.695C113.063 185.925 113.498 186.04 113.988 186.04ZM119.478 190V179.5H120.603L120.678 180.88V190H119.478ZM123.213 187.18C122.583 187.18 122.028 187.015 121.548 186.685C121.078 186.355 120.713 185.895 120.453 185.305C120.193 184.705 120.063 184.02 120.063 183.25C120.063 182.47 120.193 181.785 120.453 181.195C120.713 180.605 121.078 180.145 121.548 179.815C122.028 179.485 122.583 179.32 123.213 179.32C123.883 179.32 124.473 179.485 124.983 179.815C125.493 180.145 125.888 180.605 126.168 181.195C126.458 181.785 126.603 182.47 126.603 183.25C126.603 184.02 126.458 184.705 126.168 185.305C125.888 185.895 125.493 186.355 124.983 186.685C124.473 187.015 123.883 187.18 123.213 187.18ZM122.943 186.085C123.413 186.085 123.828 185.965 124.188 185.725C124.558 185.485 124.848 185.15 125.058 184.72C125.278 184.29 125.388 183.8 125.388 183.25C125.388 182.7 125.283 182.21 125.073 181.78C124.873 181.35 124.588 181.015 124.218 180.775C123.848 180.535 123.428 180.415 122.958 180.415C122.518 180.415 122.123 180.535 121.773 180.775C121.433 181.015 121.163 181.35 120.963 181.78C120.773 182.21 120.678 182.7 120.678 183.25C120.678 183.8 120.773 184.29 120.963 184.72C121.163 185.15 121.433 185.485 121.773 185.725C122.113 185.965 122.503 186.085 122.943 186.085ZM136.666 187L136.546 183.04C136.526 182.45 136.451 181.965 136.321 181.585C136.191 181.195 135.991 180.905 135.721 180.715C135.451 180.515 135.091 180.415 134.641 180.415C134.211 180.415 133.836 180.5 133.516 180.67C133.206 180.84 132.951 181.105 132.751 181.465L131.686 181.03C131.876 180.68 132.111 180.38 132.391 180.13C132.671 179.87 133.001 179.67 133.381 179.53C133.761 179.39 134.186 179.32 134.656 179.32C135.346 179.32 135.921 179.455 136.381 179.725C136.841 179.995 137.181 180.4 137.401 180.94C137.631 181.47 137.746 182.135 137.746 182.935V187H136.666ZM134.386 187.18C133.496 187.18 132.801 186.98 132.301 186.58C131.811 186.17 131.566 185.605 131.566 184.885C131.566 184.125 131.816 183.545 132.316 183.145C132.826 182.735 133.536 182.53 134.446 182.53H137.086V183.535H134.716C134.016 183.535 133.516 183.65 133.216 183.88C132.926 184.11 132.781 184.44 132.781 184.87C132.781 185.26 132.926 185.57 133.216 185.8C133.506 186.02 133.911 186.13 134.431 186.13C134.871 186.13 135.251 186.03 135.571 185.83C135.891 185.63 136.136 185.36 136.306 185.02C136.476 184.67 136.561 184.275 136.561 183.835H137.296C137.296 184.855 137.046 185.67 136.546 186.28C136.046 186.88 135.326 187.18 134.386 187.18ZM142.617 187.18C141.887 187.18 141.322 186.99 140.922 186.61C140.522 186.23 140.322 185.695 140.322 185.005V177.16H141.522V184.885C141.522 185.265 141.622 185.56 141.822 185.77C142.032 185.97 142.322 186.07 142.692 186.07C142.812 186.07 142.927 186.055 143.037 186.025C143.157 185.985 143.312 185.895 143.502 185.755L143.967 186.73C143.707 186.9 143.472 187.015 143.262 187.075C143.052 187.145 142.837 187.18 142.617 187.18ZM139.017 180.565V179.5H143.772V180.565H139.017ZM152.484 187.18C151.754 187.18 151.104 187.015 150.534 186.685C149.964 186.345 149.519 185.88 149.199 185.29C148.879 184.7 148.719 184.02 148.719 183.25C148.719 182.48 148.874 181.8 149.184 181.21C149.504 180.62 149.949 180.16 150.519 179.83C151.089 179.49 151.734 179.32 152.454 179.32C153.194 179.32 153.844 179.49 154.404 179.83C154.974 180.16 155.414 180.62 155.724 181.21C156.044 181.8 156.204 182.48 156.204 183.25C156.204 184.02 156.044 184.7 155.724 185.29C155.414 185.88 154.979 186.345 154.419 186.685C153.859 187.015 153.214 187.18 152.484 187.18ZM152.484 186.04C152.974 186.04 153.404 185.925 153.774 185.695C154.144 185.455 154.434 185.125 154.644 184.705C154.854 184.285 154.959 183.8 154.959 183.25C154.959 182.7 154.849 182.215 154.629 181.795C154.419 181.375 154.124 181.05 153.744 180.82C153.374 180.58 152.944 180.46 152.454 180.46C151.964 180.46 151.534 180.58 151.164 180.82C150.794 181.05 150.499 181.375 150.279 181.795C150.069 182.215 149.964 182.7 149.964 183.25C149.964 183.8 150.069 184.285 150.279 184.705C150.499 185.125 150.799 185.455 151.179 185.695C151.559 185.925 151.994 186.04 152.484 186.04ZM163.044 187L162.969 185.62V179.5H164.169V187H163.044ZM157.704 183.79V179.5H158.904V183.34L157.704 183.79ZM158.904 183.34C158.904 184.08 158.989 184.645 159.159 185.035C159.329 185.425 159.564 185.695 159.864 185.845C160.174 185.985 160.519 186.055 160.899 186.055C161.549 186.055 162.054 185.82 162.414 185.35C162.784 184.88 162.969 184.225 162.969 183.385H163.554C163.554 184.175 163.439 184.855 163.209 185.425C162.979 185.995 162.644 186.43 162.204 186.73C161.774 187.03 161.249 187.18 160.629 187.18C159.719 187.18 158.999 186.9 158.469 186.34C157.949 185.78 157.694 184.93 157.704 183.79L158.904 183.34ZM166.923 182.935C166.923 182.125 167.078 181.47 167.388 180.97C167.698 180.46 168.093 180.085 168.573 179.845C169.063 179.595 169.578 179.47 170.118 179.47V180.595C169.678 180.595 169.253 180.67 168.843 180.82C168.443 180.96 168.113 181.195 167.853 181.525C167.593 181.855 167.463 182.305 167.463 182.875L166.923 182.935ZM166.263 187V179.5H167.463V187H166.263ZM177.662 187.18C177.112 187.18 176.632 187.1 176.222 186.94C175.812 186.77 175.467 186.55 175.187 186.28C174.917 186.01 174.722 185.715 174.602 185.395L175.652 184.96C175.822 185.29 176.077 185.56 176.417 185.77C176.757 185.98 177.132 186.085 177.542 186.085C178.012 186.085 178.402 185.995 178.712 185.815C179.032 185.625 179.192 185.365 179.192 185.035C179.192 184.725 179.072 184.475 178.832 184.285C178.602 184.095 178.262 183.94 177.812 183.82L177.092 183.625C176.412 183.445 175.882 183.175 175.502 182.815C175.122 182.445 174.932 182.03 174.932 181.57C174.932 180.86 175.162 180.31 175.622 179.92C176.092 179.52 176.787 179.32 177.707 179.32C178.147 179.32 178.547 179.385 178.907 179.515C179.267 179.645 179.577 179.83 179.837 180.07C180.097 180.3 180.287 180.575 180.407 180.895L179.357 181.36C179.227 181.02 179.012 180.78 178.712 180.64C178.412 180.49 178.047 180.415 177.617 180.415C177.157 180.415 176.797 180.51 176.537 180.7C176.277 180.89 176.147 181.16 176.147 181.51C176.147 181.71 176.252 181.9 176.462 182.08C176.682 182.25 177.002 182.39 177.422 182.5L178.172 182.695C178.662 182.815 179.072 182.995 179.402 183.235C179.732 183.465 179.982 183.73 180.152 184.03C180.322 184.33 180.407 184.65 180.407 184.99C180.407 185.44 180.287 185.83 180.047 186.16C179.807 186.49 179.482 186.745 179.072 186.925C178.662 187.095 178.192 187.18 177.662 187.18ZM182.025 187V176.305H183.225V187H182.025ZM187.305 187V183.16L188.505 182.71V187H187.305ZM187.305 183.16C187.305 182.42 187.215 181.855 187.035 181.465C186.865 181.075 186.63 180.81 186.33 180.67C186.03 180.52 185.69 180.445 185.31 180.445C184.65 180.445 184.135 180.68 183.765 181.15C183.405 181.61 183.225 182.265 183.225 183.115H182.64C182.64 182.325 182.755 181.645 182.985 181.075C183.215 180.505 183.55 180.07 183.99 179.77C184.43 179.47 184.96 179.32 185.58 179.32C186.48 179.32 187.195 179.6 187.725 180.16C188.255 180.72 188.515 181.57 188.505 182.71L187.305 183.16ZM193.749 187.18C193.019 187.18 192.369 187.015 191.799 186.685C191.229 186.345 190.784 185.88 190.464 185.29C190.144 184.7 189.984 184.02 189.984 183.25C189.984 182.48 190.139 181.8 190.449 181.21C190.769 180.62 191.214 180.16 191.784 179.83C192.354 179.49 192.999 179.32 193.719 179.32C194.459 179.32 195.109 179.49 195.669 179.83C196.239 180.16 196.679 180.62 196.989 181.21C197.309 181.8 197.469 182.48 197.469 183.25C197.469 184.02 197.309 184.7 196.989 185.29C196.679 185.88 196.244 186.345 195.684 186.685C195.124 187.015 194.479 187.18 193.749 187.18ZM193.749 186.04C194.239 186.04 194.669 185.925 195.039 185.695C195.409 185.455 195.699 185.125 195.909 184.705C196.119 184.285 196.224 183.8 196.224 183.25C196.224 182.7 196.114 182.215 195.894 181.795C195.684 181.375 195.389 181.05 195.009 180.82C194.639 180.58 194.209 180.46 193.719 180.46C193.229 180.46 192.799 180.58 192.429 180.82C192.059 181.05 191.764 181.375 191.544 181.795C191.334 182.215 191.229 182.7 191.229 183.25C191.229 183.8 191.334 184.285 191.544 184.705C191.764 185.125 192.064 185.455 192.444 185.695C192.824 185.925 193.259 186.04 193.749 186.04ZM205.783 187L208.318 179.5H209.533L206.983 187H205.783ZM200.683 187L203.218 179.5H204.343L201.838 187H200.683ZM200.623 187L198.073 179.5H199.288L201.793 187H200.623ZM205.783 187L203.278 179.5H204.418L206.923 187H205.783ZM211.396 182.935C211.396 182.125 211.551 181.47 211.861 180.97C212.171 180.46 212.566 180.085 213.046 179.845C213.536 179.595 214.051 179.47 214.591 179.47V180.595C214.151 180.595 213.726 180.67 213.316 180.82C212.916 180.96 212.586 181.195 212.326 181.525C212.066 181.855 211.936 182.305 211.936 182.875L211.396 182.935ZM210.736 187V179.5H211.936V187H210.736ZM219.164 187.18C218.434 187.18 217.784 187.015 217.214 186.685C216.644 186.345 216.199 185.88 215.879 185.29C215.559 184.7 215.399 184.02 215.399 183.25C215.399 182.48 215.554 181.8 215.864 181.21C216.184 180.62 216.629 180.16 217.199 179.83C217.769 179.49 218.414 179.32 219.134 179.32C219.874 179.32 220.524 179.49 221.084 179.83C221.654 180.16 222.094 180.62 222.404 181.21C222.724 181.8 222.884 182.48 222.884 183.25C222.884 184.02 222.724 184.7 222.404 185.29C222.094 185.88 221.659 186.345 221.099 186.685C220.539 187.015 219.894 187.18 219.164 187.18ZM219.164 186.04C219.654 186.04 220.084 185.925 220.454 185.695C220.824 185.455 221.114 185.125 221.324 184.705C221.534 184.285 221.639 183.8 221.639 183.25C221.639 182.7 221.529 182.215 221.309 181.795C221.099 181.375 220.804 181.05 220.424 180.82C220.054 180.58 219.624 180.46 219.134 180.46C218.644 180.46 218.214 180.58 217.844 180.82C217.474 181.05 217.179 181.375 216.959 181.795C216.749 182.215 216.644 182.7 216.644 183.25C216.644 183.8 216.749 184.285 216.959 184.705C217.179 185.125 217.479 185.455 217.859 185.695C218.239 185.925 218.674 186.04 219.164 186.04ZM227.938 187.18C227.208 187.18 226.558 187.015 225.988 186.685C225.418 186.345 224.973 185.88 224.653 185.29C224.333 184.7 224.173 184.02 224.173 183.25C224.173 182.48 224.328 181.8 224.638 181.21C224.958 180.62 225.403 180.16 225.973 179.83C226.543 179.49 227.188 179.32 227.908 179.32C228.648 179.32 229.298 179.49 229.858 179.83C230.428 180.16 230.868 180.62 231.178 181.21C231.498 181.8 231.658 182.48 231.658 183.25C231.658 184.02 231.498 184.7 231.178 185.29C230.868 185.88 230.433 186.345 229.873 186.685C229.313 187.015 228.668 187.18 227.938 187.18ZM227.938 186.04C228.428 186.04 228.858 185.925 229.228 185.695C229.598 185.455 229.888 185.125 230.098 184.705C230.308 184.285 230.413 183.8 230.413 183.25C230.413 182.7 230.303 182.215 230.083 181.795C229.873 181.375 229.578 181.05 229.198 180.82C228.828 180.58 228.398 180.46 227.908 180.46C227.418 180.46 226.988 180.58 226.618 180.82C226.248 181.05 225.953 181.375 225.733 181.795C225.523 182.215 225.418 182.7 225.418 183.25C225.418 183.8 225.523 184.285 225.733 184.705C225.953 185.125 226.253 185.455 226.633 185.695C227.013 185.925 227.448 186.04 227.938 186.04ZM233.353 187V179.5H234.478L234.553 180.88V187H233.353ZM238.618 187V183.16L239.818 182.71V187H238.618ZM243.898 187V183.16L245.098 182.71V187H243.898ZM238.618 183.16C238.618 182.42 238.533 181.855 238.363 181.465C238.193 181.075 237.958 180.81 237.658 180.67C237.358 180.52 237.018 180.445 236.638 180.445C235.978 180.445 235.463 180.68 235.093 181.15C234.733 181.61 234.553 182.265 234.553 183.115H233.968C233.968 182.325 234.083 181.645 234.313 181.075C234.543 180.505 234.873 180.07 235.303 179.77C235.743 179.47 236.273 179.32 236.893 179.32C237.803 179.32 238.518 179.6 239.038 180.16C239.568 180.72 239.828 181.57 239.818 182.71L238.618 183.16ZM243.898 183.16C243.898 182.42 243.808 181.855 243.628 181.465C243.458 181.075 243.223 180.81 242.923 180.67C242.623 180.52 242.283 180.445 241.903 180.445C241.243 180.445 240.728 180.68 240.358 181.15C239.998 181.61 239.818 182.265 239.818 183.115H239.233C239.233 182.325 239.348 181.645 239.578 181.075C239.808 180.505 240.143 180.07 240.583 179.77C241.023 179.47 241.553 179.32 242.173 179.32C243.073 179.32 243.783 179.6 244.303 180.16C244.833 180.72 245.098 181.57 245.098 182.71L243.898 183.16ZM251.446 187V178.645C251.446 177.865 251.626 177.28 251.986 176.89C252.356 176.49 252.916 176.29 253.666 176.29C253.866 176.29 254.091 176.325 254.341 176.395C254.591 176.465 254.856 176.565 255.136 176.695L254.686 177.64C254.456 177.55 254.261 177.48 254.101 177.43C253.941 177.38 253.806 177.355 253.696 177.355C253.346 177.355 253.081 177.47 252.901 177.7C252.731 177.92 252.646 178.265 252.646 178.735V187H251.446ZM250.066 180.535V179.5H254.821V180.535H250.066ZM259.594 187.18C258.864 187.18 258.214 187.015 257.644 186.685C257.074 186.345 256.629 185.88 256.309 185.29C255.989 184.7 255.829 184.02 255.829 183.25C255.829 182.48 255.984 181.8 256.294 181.21C256.614 180.62 257.059 180.16 257.629 179.83C258.199 179.49 258.844 179.32 259.564 179.32C260.304 179.32 260.954 179.49 261.514 179.83C262.084 180.16 262.524 180.62 262.834 181.21C263.154 181.8 263.314 182.48 263.314 183.25C263.314 184.02 263.154 184.7 262.834 185.29C262.524 185.88 262.089 186.345 261.529 186.685C260.969 187.015 260.324 187.18 259.594 187.18ZM259.594 186.04C260.084 186.04 260.514 185.925 260.884 185.695C261.254 185.455 261.544 185.125 261.754 184.705C261.964 184.285 262.069 183.8 262.069 183.25C262.069 182.7 261.959 182.215 261.739 181.795C261.529 181.375 261.234 181.05 260.854 180.82C260.484 180.58 260.054 180.46 259.564 180.46C259.074 180.46 258.644 180.58 258.274 180.82C257.904 181.05 257.609 181.375 257.389 181.795C257.179 182.215 257.074 182.7 257.074 183.25C257.074 183.8 257.179 184.285 257.389 184.705C257.609 185.125 257.909 185.455 258.289 185.695C258.669 185.925 259.104 186.04 259.594 186.04ZM265.668 182.935C265.668 182.125 265.823 181.47 266.133 180.97C266.443 180.46 266.838 180.085 267.318 179.845C267.808 179.595 268.323 179.47 268.863 179.47V180.595C268.423 180.595 267.998 180.67 267.588 180.82C267.188 180.96 266.858 181.195 266.598 181.525C266.338 181.855 266.208 182.305 266.208 182.875L265.668 182.935ZM265.008 187V179.5H266.208V187H265.008ZM276.752 187.18C276.022 187.18 275.457 186.99 275.057 186.61C274.657 186.23 274.457 185.695 274.457 185.005V177.16H275.657V184.885C275.657 185.265 275.757 185.56 275.957 185.77C276.167 185.97 276.457 186.07 276.827 186.07C276.947 186.07 277.062 186.055 277.172 186.025C277.292 185.985 277.447 185.895 277.637 185.755L278.102 186.73C277.842 186.9 277.607 187.015 277.397 187.075C277.187 187.145 276.972 187.18 276.752 187.18ZM273.152 180.565V179.5H277.907V180.565H273.152ZM279.554 187V176.305H280.754V187H279.554ZM284.834 187V183.16L286.034 182.71V187H284.834ZM284.834 183.16C284.834 182.42 284.744 181.855 284.564 181.465C284.394 181.075 284.159 180.81 283.859 180.67C283.559 180.52 283.219 180.445 282.839 180.445C282.179 180.445 281.664 180.68 281.294 181.15C280.934 181.61 280.754 182.265 280.754 183.115H280.169C280.169 182.325 280.284 181.645 280.514 181.075C280.744 180.505 281.079 180.07 281.519 179.77C281.959 179.47 282.489 179.32 283.109 179.32C284.009 179.32 284.724 179.6 285.254 180.16C285.784 180.72 286.044 181.57 286.034 182.71L284.834 183.16ZM291.233 187.18C290.503 187.18 289.858 187.015 289.298 186.685C288.748 186.345 288.313 185.88 287.993 185.29C287.673 184.7 287.513 184.02 287.513 183.25C287.513 182.48 287.668 181.8 287.978 181.21C288.298 180.62 288.738 180.16 289.298 179.83C289.858 179.49 290.493 179.32 291.203 179.32C291.903 179.32 292.508 179.495 293.018 179.845C293.528 180.185 293.923 180.665 294.203 181.285C294.483 181.905 294.623 182.635 294.623 183.475H293.423C293.423 182.835 293.338 182.29 293.168 181.84C292.998 181.38 292.748 181.025 292.418 180.775C292.088 180.525 291.678 180.4 291.188 180.4C290.698 180.4 290.268 180.52 289.898 180.76C289.538 180.99 289.258 181.32 289.058 181.75C288.858 182.18 288.758 182.685 288.758 183.265C288.758 183.835 288.868 184.33 289.088 184.75C289.308 185.16 289.608 185.485 289.988 185.725C290.368 185.955 290.803 186.07 291.293 186.07C291.823 186.07 292.268 185.945 292.628 185.695C292.988 185.445 293.268 185.12 293.468 184.72L294.533 185.245C294.333 185.635 294.073 185.975 293.753 186.265C293.443 186.555 293.078 186.78 292.658 186.94C292.238 187.1 291.763 187.18 291.233 187.18ZM288.323 183.475V182.44H293.888V183.475H288.323ZM93.05 212V204.5H94.175L94.25 205.88V212H93.05ZM98.315 212V208.16L99.515 207.71V212H98.315ZM103.595 212V208.16L104.795 207.71V212H103.595ZM98.315 208.16C98.315 207.42 98.23 206.855 98.06 206.465C97.89 206.075 97.655 205.81 97.355 205.67C97.055 205.52 96.715 205.445 96.335 205.445C95.675 205.445 95.16 205.68 94.79 206.15C94.43 206.61 94.25 207.265 94.25 208.115H93.665C93.665 207.325 93.78 206.645 94.01 206.075C94.24 205.505 94.57 205.07 95 204.77C95.44 204.47 95.97 204.32 96.59 204.32C97.5 204.32 98.215 204.6 98.735 205.16C99.265 205.72 99.525 206.57 99.515 207.71L98.315 208.16ZM103.595 208.16C103.595 207.42 103.505 206.855 103.325 206.465C103.155 206.075 102.92 205.81 102.62 205.67C102.32 205.52 101.98 205.445 101.6 205.445C100.94 205.445 100.425 205.68 100.055 206.15C99.695 206.61 99.515 207.265 99.515 208.115H98.93C98.93 207.325 99.045 206.645 99.275 206.075C99.505 205.505 99.84 205.07 100.28 204.77C100.72 204.47 101.25 204.32 101.87 204.32C102.77 204.32 103.48 204.6 104 205.16C104.53 205.72 104.795 206.57 104.795 207.71L103.595 208.16ZM110.048 212.18C109.318 212.18 108.668 212.015 108.098 211.685C107.528 211.345 107.083 210.88 106.763 210.29C106.443 209.7 106.283 209.02 106.283 208.25C106.283 207.48 106.438 206.8 106.748 206.21C107.068 205.62 107.513 205.16 108.083 204.83C108.653 204.49 109.298 204.32 110.018 204.32C110.758 204.32 111.408 204.49 111.968 204.83C112.538 205.16 112.978 205.62 113.288 206.21C113.608 206.8 113.768 207.48 113.768 208.25C113.768 209.02 113.608 209.7 113.288 210.29C112.978 210.88 112.543 211.345 111.983 211.685C111.423 212.015 110.778 212.18 110.048 212.18ZM110.048 211.04C110.538 211.04 110.968 210.925 111.338 210.695C111.708 210.455 111.998 210.125 112.208 209.705C112.418 209.285 112.523 208.8 112.523 208.25C112.523 207.7 112.413 207.215 112.193 206.795C111.983 206.375 111.688 206.05 111.308 205.82C110.938 205.58 110.508 205.46 110.018 205.46C109.528 205.46 109.098 205.58 108.728 205.82C108.358 206.05 108.063 206.375 107.843 206.795C107.633 207.215 107.528 207.7 107.528 208.25C107.528 208.8 107.633 209.285 107.843 209.705C108.063 210.125 108.363 210.455 108.743 210.695C109.123 210.925 109.558 211.04 110.048 211.04ZM118.087 212.18C117.537 212.18 117.057 212.1 116.647 211.94C116.237 211.77 115.892 211.55 115.612 211.28C115.342 211.01 115.147 210.715 115.027 210.395L116.077 209.96C116.247 210.29 116.502 210.56 116.842 210.77C117.182 210.98 117.557 211.085 117.967 211.085C118.437 211.085 118.827 210.995 119.137 210.815C119.457 210.625 119.617 210.365 119.617 210.035C119.617 209.725 119.497 209.475 119.257 209.285C119.027 209.095 118.687 208.94 118.237 208.82L117.517 208.625C116.837 208.445 116.307 208.175 115.927 207.815C115.547 207.445 115.357 207.03 115.357 206.57C115.357 205.86 115.587 205.31 116.047 204.92C116.517 204.52 117.212 204.32 118.132 204.32C118.572 204.32 118.972 204.385 119.332 204.515C119.692 204.645 120.002 204.83 120.262 205.07C120.522 205.3 120.712 205.575 120.832 205.895L119.782 206.36C119.652 206.02 119.437 205.78 119.137 205.64C118.837 205.49 118.472 205.415 118.042 205.415C117.582 205.415 117.222 205.51 116.962 205.7C116.702 205.89 116.572 206.16 116.572 206.51C116.572 206.71 116.677 206.9 116.887 207.08C117.107 207.25 117.427 207.39 117.847 207.5L118.597 207.695C119.087 207.815 119.497 207.995 119.827 208.235C120.157 208.465 120.407 208.73 120.577 209.03C120.747 209.33 120.832 209.65 120.832 209.99C120.832 210.44 120.712 210.83 120.472 211.16C120.232 211.49 119.907 211.745 119.497 211.925C119.087 212.095 118.617 212.18 118.087 212.18ZM125.419 212.18C124.689 212.18 124.124 211.99 123.724 211.61C123.324 211.23 123.124 210.695 123.124 210.005V202.16H124.324V209.885C124.324 210.265 124.424 210.56 124.624 210.77C124.834 210.97 125.124 211.07 125.494 211.07C125.614 211.07 125.729 211.055 125.839 211.025C125.959 210.985 126.114 210.895 126.304 210.755L126.769 211.73C126.509 211.9 126.274 212.015 126.064 212.075C125.854 212.145 125.639 212.18 125.419 212.18ZM121.819 205.565V204.5H126.574V205.565H121.819ZM131.927 212V201.305H133.127V212H131.927ZM137.207 212V208.16L138.407 207.71V212H137.207ZM137.207 208.16C137.207 207.42 137.117 206.855 136.937 206.465C136.767 206.075 136.532 205.81 136.232 205.67C135.932 205.52 135.592 205.445 135.212 205.445C134.552 205.445 134.037 205.68 133.667 206.15C133.307 206.61 133.127 207.265 133.127 208.115H132.542C132.542 207.325 132.657 206.645 132.887 206.075C133.117 205.505 133.452 205.07 133.892 204.77C134.332 204.47 134.862 204.32 135.482 204.32C136.382 204.32 137.097 204.6 137.627 205.16C138.157 205.72 138.417 206.57 138.407 207.71L137.207 208.16ZM143.606 212.18C142.876 212.18 142.231 212.015 141.671 211.685C141.121 211.345 140.686 210.88 140.366 210.29C140.046 209.7 139.886 209.02 139.886 208.25C139.886 207.48 140.041 206.8 140.351 206.21C140.671 205.62 141.111 205.16 141.671 204.83C142.231 204.49 142.866 204.32 143.576 204.32C144.276 204.32 144.881 204.495 145.391 204.845C145.901 205.185 146.296 205.665 146.576 206.285C146.856 206.905 146.996 207.635 146.996 208.475H145.796C145.796 207.835 145.711 207.29 145.541 206.84C145.371 206.38 145.121 206.025 144.791 205.775C144.461 205.525 144.051 205.4 143.561 205.4C143.071 205.4 142.641 205.52 142.271 205.76C141.911 205.99 141.631 206.32 141.431 206.75C141.231 207.18 141.131 207.685 141.131 208.265C141.131 208.835 141.241 209.33 141.461 209.75C141.681 210.16 141.981 210.485 142.361 210.725C142.741 210.955 143.176 211.07 143.666 211.07C144.196 211.07 144.641 210.945 145.001 210.695C145.361 210.445 145.641 210.12 145.841 209.72L146.906 210.245C146.706 210.635 146.446 210.975 146.126 211.265C145.816 211.555 145.451 211.78 145.031 211.94C144.611 212.1 144.136 212.18 143.606 212.18ZM140.696 208.475V207.44H146.261V208.475H140.696ZM148.553 212L148.583 201.5H149.783L149.753 212H148.553ZM151.953 215V204.5H153.078L153.153 205.88V215H151.953ZM155.688 212.18C155.058 212.18 154.503 212.015 154.023 211.685C153.553 211.355 153.188 210.895 152.928 210.305C152.668 209.705 152.538 209.02 152.538 208.25C152.538 207.47 152.668 206.785 152.928 206.195C153.188 205.605 153.553 205.145 154.023 204.815C154.503 204.485 155.058 204.32 155.688 204.32C156.358 204.32 156.948 204.485 157.458 204.815C157.968 205.145 158.363 205.605 158.643 206.195C158.933 206.785 159.078 207.47 159.078 208.25C159.078 209.02 158.933 209.705 158.643 210.305C158.363 210.895 157.968 211.355 157.458 211.685C156.948 212.015 156.358 212.18 155.688 212.18ZM155.418 211.085C155.888 211.085 156.303 210.965 156.663 210.725C157.033 210.485 157.323 210.15 157.533 209.72C157.753 209.29 157.863 208.8 157.863 208.25C157.863 207.7 157.758 207.21 157.548 206.78C157.348 206.35 157.063 206.015 156.693 205.775C156.323 205.535 155.903 205.415 155.433 205.415C154.993 205.415 154.598 205.535 154.248 205.775C153.908 206.015 153.638 206.35 153.438 206.78C153.248 207.21 153.153 207.7 153.153 208.25C153.153 208.8 153.248 209.29 153.438 209.72C153.638 210.15 153.908 210.485 154.248 210.725C154.588 210.965 154.978 211.085 155.418 211.085ZM161.49 212V203.645C161.49 202.865 161.67 202.28 162.03 201.89C162.4 201.49 162.96 201.29 163.71 201.29C163.91 201.29 164.135 201.325 164.385 201.395C164.635 201.465 164.9 201.565 165.18 201.695L164.73 202.64C164.5 202.55 164.305 202.48 164.145 202.43C163.985 202.38 163.85 202.355 163.74 202.355C163.39 202.355 163.125 202.47 162.945 202.7C162.775 202.92 162.69 203.265 162.69 203.735V212H161.49ZM160.11 205.535V204.5H164.865V205.535H160.11ZM171.423 212L171.348 210.62V204.5H172.548V212H171.423ZM166.083 208.79V204.5H167.283V208.34L166.083 208.79ZM167.283 208.34C167.283 209.08 167.368 209.645 167.538 210.035C167.708 210.425 167.943 210.695 168.243 210.845C168.553 210.985 168.898 211.055 169.278 211.055C169.928 211.055 170.433 210.82 170.793 210.35C171.163 209.88 171.348 209.225 171.348 208.385H171.933C171.933 209.175 171.818 209.855 171.588 210.425C171.358 210.995 171.023 211.43 170.583 211.73C170.153 212.03 169.628 212.18 169.008 212.18C168.098 212.18 167.378 211.9 166.848 211.34C166.328 210.78 166.073 209.93 166.083 208.79L167.283 208.34ZM174.642 212L174.672 201.5H175.872L175.842 212H174.642ZM181.748 212L181.778 204.5H182.978L182.948 212H181.748ZM182.363 202.76C182.163 202.76 181.988 202.685 181.838 202.535C181.688 202.385 181.613 202.21 181.613 202.01C181.613 201.8 181.688 201.625 181.838 201.485C181.988 201.335 182.163 201.26 182.363 201.26C182.573 201.26 182.748 201.335 182.888 201.485C183.038 201.625 183.113 201.8 183.113 202.01C183.113 202.21 183.038 202.385 182.888 202.535C182.748 202.685 182.573 202.76 182.363 202.76ZM185.159 212V204.5H186.284L186.359 205.88V212H185.159ZM190.424 212V208.16L191.624 207.71V212H190.424ZM190.424 208.16C190.424 207.42 190.339 206.855 190.169 206.465C189.999 206.075 189.764 205.81 189.464 205.67C189.164 205.52 188.824 205.445 188.444 205.445C187.784 205.445 187.269 205.68 186.899 206.15C186.539 206.61 186.359 207.265 186.359 208.115H185.774C185.774 207.325 185.889 206.645 186.119 206.075C186.349 205.505 186.679 205.07 187.109 204.77C187.549 204.47 188.079 204.32 188.699 204.32C189.609 204.32 190.324 204.6 190.844 205.16C191.374 205.72 191.634 206.57 191.624 207.71L190.424 208.16ZM193.344 208.085V206.99H197.844V208.085H193.344ZM202.404 212.18C201.854 212.18 201.374 212.1 200.964 211.94C200.554 211.77 200.209 211.55 199.929 211.28C199.659 211.01 199.464 210.715 199.344 210.395L200.394 209.96C200.564 210.29 200.819 210.56 201.159 210.77C201.499 210.98 201.874 211.085 202.284 211.085C202.754 211.085 203.144 210.995 203.454 210.815C203.774 210.625 203.934 210.365 203.934 210.035C203.934 209.725 203.814 209.475 203.574 209.285C203.344 209.095 203.004 208.94 202.554 208.82L201.834 208.625C201.154 208.445 200.624 208.175 200.244 207.815C199.864 207.445 199.674 207.03 199.674 206.57C199.674 205.86 199.904 205.31 200.364 204.92C200.834 204.52 201.529 204.32 202.449 204.32C202.889 204.32 203.289 204.385 203.649 204.515C204.009 204.645 204.319 204.83 204.579 205.07C204.839 205.3 205.029 205.575 205.149 205.895L204.099 206.36C203.969 206.02 203.754 205.78 203.454 205.64C203.154 205.49 202.789 205.415 202.359 205.415C201.899 205.415 201.539 205.51 201.279 205.7C201.019 205.89 200.889 206.16 200.889 206.51C200.889 206.71 200.994 206.9 201.204 207.08C201.424 207.25 201.744 207.39 202.164 207.5L202.914 207.695C203.404 207.815 203.814 207.995 204.144 208.235C204.474 208.465 204.724 208.73 204.894 209.03C205.064 209.33 205.149 209.65 205.149 209.99C205.149 210.44 205.029 210.83 204.789 211.16C204.549 211.49 204.224 211.745 203.814 211.925C203.404 212.095 202.934 212.18 202.404 212.18ZM209.736 212.18C209.006 212.18 208.441 211.99 208.041 211.61C207.641 211.23 207.441 210.695 207.441 210.005V202.16H208.641V209.885C208.641 210.265 208.741 210.56 208.941 210.77C209.151 210.97 209.441 211.07 209.811 211.07C209.931 211.07 210.046 211.055 210.156 211.025C210.276 210.985 210.431 210.895 210.621 210.755L211.086 211.73C210.826 211.9 210.591 212.015 210.381 212.075C210.171 212.145 209.956 212.18 209.736 212.18ZM206.136 205.565V204.5H210.891V205.565H206.136ZM215.897 212.18C215.167 212.18 214.517 212.015 213.947 211.685C213.377 211.345 212.932 210.88 212.612 210.29C212.292 209.7 212.132 209.02 212.132 208.25C212.132 207.48 212.287 206.8 212.597 206.21C212.917 205.62 213.362 205.16 213.932 204.83C214.502 204.49 215.147 204.32 215.867 204.32C216.607 204.32 217.257 204.49 217.817 204.83C218.387 205.16 218.827 205.62 219.137 206.21C219.457 206.8 219.617 207.48 219.617 208.25C219.617 209.02 219.457 209.7 219.137 210.29C218.827 210.88 218.392 211.345 217.832 211.685C217.272 212.015 216.627 212.18 215.897 212.18ZM215.897 211.04C216.387 211.04 216.817 210.925 217.187 210.695C217.557 210.455 217.847 210.125 218.057 209.705C218.267 209.285 218.372 208.8 218.372 208.25C218.372 207.7 218.262 207.215 218.042 206.795C217.832 206.375 217.537 206.05 217.157 205.82C216.787 205.58 216.357 205.46 215.867 205.46C215.377 205.46 214.947 205.58 214.577 205.82C214.207 206.05 213.912 206.375 213.692 206.795C213.482 207.215 213.377 207.7 213.377 208.25C213.377 208.8 213.482 209.285 213.692 209.705C213.912 210.125 214.212 210.455 214.592 210.695C214.972 210.925 215.407 211.04 215.897 211.04ZM221.972 207.935C221.972 207.125 222.127 206.47 222.437 205.97C222.747 205.46 223.142 205.085 223.622 204.845C224.112 204.595 224.627 204.47 225.167 204.47V205.595C224.727 205.595 224.302 205.67 223.892 205.82C223.492 205.96 223.162 206.195 222.902 206.525C222.642 206.855 222.512 207.305 222.512 207.875L221.972 207.935ZM221.312 212V204.5H222.512V212H221.312ZM229.695 212.18C228.965 212.18 228.32 212.015 227.76 211.685C227.21 211.345 226.775 210.88 226.455 210.29C226.135 209.7 225.975 209.02 225.975 208.25C225.975 207.48 226.13 206.8 226.44 206.21C226.76 205.62 227.2 205.16 227.76 204.83C228.32 204.49 228.955 204.32 229.665 204.32C230.365 204.32 230.97 204.495 231.48 204.845C231.99 205.185 232.385 205.665 232.665 206.285C232.945 206.905 233.085 207.635 233.085 208.475H231.885C231.885 207.835 231.8 207.29 231.63 206.84C231.46 206.38 231.21 206.025 230.88 205.775C230.55 205.525 230.14 205.4 229.65 205.4C229.16 205.4 228.73 205.52 228.36 205.76C228 205.99 227.72 206.32 227.52 206.75C227.32 207.18 227.22 207.685 227.22 208.265C227.22 208.835 227.33 209.33 227.55 209.75C227.77 210.16 228.07 210.485 228.45 210.725C228.83 210.955 229.265 211.07 229.755 211.07C230.285 211.07 230.73 210.945 231.09 210.695C231.45 210.445 231.73 210.12 231.93 209.72L232.995 210.245C232.795 210.635 232.535 210.975 232.215 211.265C231.905 211.555 231.54 211.78 231.12 211.94C230.7 212.1 230.225 212.18 229.695 212.18ZM226.785 208.475V207.44H232.35V208.475H226.785ZM96.365 237.18C95.635 237.18 94.99 237.015 94.43 236.685C93.88 236.345 93.445 235.88 93.125 235.29C92.805 234.7 92.645 234.02 92.645 233.25C92.645 232.48 92.8 231.8 93.11 231.21C93.43 230.62 93.87 230.16 94.43 229.83C94.99 229.49 95.625 229.32 96.335 229.32C97.035 229.32 97.64 229.495 98.15 229.845C98.66 230.185 99.055 230.665 99.335 231.285C99.615 231.905 99.755 232.635 99.755 233.475H98.555C98.555 232.835 98.47 232.29 98.3 231.84C98.13 231.38 97.88 231.025 97.55 230.775C97.22 230.525 96.81 230.4 96.32 230.4C95.83 230.4 95.4 230.52 95.03 230.76C94.67 230.99 94.39 231.32 94.19 231.75C93.99 232.18 93.89 232.685 93.89 233.265C93.89 233.835 94 234.33 94.22 234.75C94.44 235.16 94.74 235.485 95.12 235.725C95.5 235.955 95.935 236.07 96.425 236.07C96.955 236.07 97.4 235.945 97.76 235.695C98.12 235.445 98.4 235.12 98.6 234.72L99.665 235.245C99.465 235.635 99.205 235.975 98.885 236.265C98.575 236.555 98.21 236.78 97.79 236.94C97.37 237.1 96.895 237.18 96.365 237.18ZM93.455 233.475V232.44H99.02V233.475H93.455ZM100.161 237L103.221 232.695L105.381 229.5H106.806L103.956 233.55L101.616 237H100.161ZM105.546 237L103.236 233.55L100.356 229.5H101.781L103.956 232.695L106.986 237H105.546ZM108.198 240V229.5H109.323L109.398 230.88V240H108.198ZM111.933 237.18C111.303 237.18 110.748 237.015 110.268 236.685C109.798 236.355 109.433 235.895 109.173 235.305C108.913 234.705 108.783 234.02 108.783 233.25C108.783 232.47 108.913 231.785 109.173 231.195C109.433 230.605 109.798 230.145 110.268 229.815C110.748 229.485 111.303 229.32 111.933 229.32C112.603 229.32 113.193 229.485 113.703 229.815C114.213 230.145 114.608 230.605 114.888 231.195C115.178 231.785 115.323 232.47 115.323 233.25C115.323 234.02 115.178 234.705 114.888 235.305C114.608 235.895 114.213 236.355 113.703 236.685C113.193 237.015 112.603 237.18 111.933 237.18ZM111.663 236.085C112.133 236.085 112.548 235.965 112.908 235.725C113.278 235.485 113.568 235.15 113.778 234.72C113.998 234.29 114.108 233.8 114.108 233.25C114.108 232.7 114.003 232.21 113.793 231.78C113.593 231.35 113.308 231.015 112.938 230.775C112.568 230.535 112.148 230.415 111.678 230.415C111.238 230.415 110.843 230.535 110.493 230.775C110.153 231.015 109.883 231.35 109.683 231.78C109.493 232.21 109.398 232.7 109.398 233.25C109.398 233.8 109.493 234.29 109.683 234.72C109.883 235.15 110.153 235.485 110.493 235.725C110.833 235.965 111.223 236.085 111.663 236.085ZM120.301 237.18C119.571 237.18 118.926 237.015 118.366 236.685C117.816 236.345 117.381 235.88 117.061 235.29C116.741 234.7 116.581 234.02 116.581 233.25C116.581 232.48 116.736 231.8 117.046 231.21C117.366 230.62 117.806 230.16 118.366 229.83C118.926 229.49 119.561 229.32 120.271 229.32C120.971 229.32 121.576 229.495 122.086 229.845C122.596 230.185 122.991 230.665 123.271 231.285C123.551 231.905 123.691 232.635 123.691 233.475H122.491C122.491 232.835 122.406 232.29 122.236 231.84C122.066 231.38 121.816 231.025 121.486 230.775C121.156 230.525 120.746 230.4 120.256 230.4C119.766 230.4 119.336 230.52 118.966 230.76C118.606 230.99 118.326 231.32 118.126 231.75C117.926 232.18 117.826 232.685 117.826 233.265C117.826 233.835 117.936 234.33 118.156 234.75C118.376 235.16 118.676 235.485 119.056 235.725C119.436 235.955 119.871 236.07 120.361 236.07C120.891 236.07 121.336 235.945 121.696 235.695C122.056 235.445 122.336 235.12 122.536 234.72L123.601 235.245C123.401 235.635 123.141 235.975 122.821 236.265C122.511 236.555 122.146 236.78 121.726 236.94C121.306 237.1 120.831 237.18 120.301 237.18ZM117.391 233.475V232.44H122.956V233.475H117.391ZM125.907 232.935C125.907 232.125 126.062 231.47 126.372 230.97C126.682 230.46 127.077 230.085 127.557 229.845C128.047 229.595 128.562 229.47 129.102 229.47V230.595C128.662 230.595 128.237 230.67 127.827 230.82C127.427 230.96 127.097 231.195 126.837 231.525C126.577 231.855 126.447 232.305 126.447 232.875L125.907 232.935ZM125.247 237V229.5H126.447V237H125.247ZM130.391 237L130.421 229.5H131.621L131.591 237H130.391ZM131.006 227.76C130.806 227.76 130.631 227.685 130.481 227.535C130.331 227.385 130.256 227.21 130.256 227.01C130.256 226.8 130.331 226.625 130.481 226.485C130.631 226.335 130.806 226.26 131.006 226.26C131.216 226.26 131.391 226.335 131.531 226.485C131.681 226.625 131.756 226.8 131.756 227.01C131.756 227.21 131.681 227.385 131.531 227.535C131.391 227.685 131.216 227.76 131.006 227.76ZM137.117 237.18C136.387 237.18 135.742 237.015 135.182 236.685C134.632 236.345 134.197 235.88 133.877 235.29C133.557 234.7 133.397 234.02 133.397 233.25C133.397 232.48 133.552 231.8 133.862 231.21C134.182 230.62 134.622 230.16 135.182 229.83C135.742 229.49 136.377 229.32 137.087 229.32C137.787 229.32 138.392 229.495 138.902 229.845C139.412 230.185 139.807 230.665 140.087 231.285C140.367 231.905 140.507 232.635 140.507 233.475H139.307C139.307 232.835 139.222 232.29 139.052 231.84C138.882 231.38 138.632 231.025 138.302 230.775C137.972 230.525 137.562 230.4 137.072 230.4C136.582 230.4 136.152 230.52 135.782 230.76C135.422 230.99 135.142 231.32 134.942 231.75C134.742 232.18 134.642 232.685 134.642 233.265C134.642 233.835 134.752 234.33 134.972 234.75C135.192 235.16 135.492 235.485 135.872 235.725C136.252 235.955 136.687 236.07 137.177 236.07C137.707 236.07 138.152 235.945 138.512 235.695C138.872 235.445 139.152 235.12 139.352 234.72L140.417 235.245C140.217 235.635 139.957 235.975 139.637 236.265C139.327 236.555 138.962 236.78 138.542 236.94C138.122 237.1 137.647 237.18 137.117 237.18ZM134.207 233.475V232.44H139.772V233.475H134.207ZM142.064 237V229.5H143.189L143.264 230.88V237H142.064ZM147.329 237V233.16L148.529 232.71V237H147.329ZM147.329 233.16C147.329 232.42 147.244 231.855 147.074 231.465C146.904 231.075 146.669 230.81 146.369 230.67C146.069 230.52 145.729 230.445 145.349 230.445C144.689 230.445 144.174 230.68 143.804 231.15C143.444 231.61 143.264 232.265 143.264 233.115H142.679C142.679 232.325 142.794 231.645 143.024 231.075C143.254 230.505 143.584 230.07 144.014 229.77C144.454 229.47 144.984 229.32 145.604 229.32C146.514 229.32 147.229 229.6 147.749 230.16C148.279 230.72 148.539 231.57 148.529 232.71L147.329 233.16ZM153.773 237.18C153.033 237.18 152.378 237.015 151.808 236.685C151.238 236.345 150.793 235.88 150.473 235.29C150.153 234.7 149.993 234.02 149.993 233.25C149.993 232.48 150.148 231.8 150.458 231.21C150.778 230.62 151.223 230.16 151.793 229.83C152.363 229.49 153.013 229.32 153.743 229.32C154.463 229.32 155.108 229.485 155.678 229.815C156.248 230.145 156.683 230.61 156.983 231.21L155.888 231.705C155.688 231.305 155.398 230.995 155.018 230.775C154.638 230.545 154.203 230.43 153.713 230.43C153.223 230.43 152.788 230.55 152.408 230.79C152.038 231.03 151.743 231.365 151.523 231.795C151.313 232.215 151.208 232.7 151.208 233.25C151.208 233.8 151.313 234.29 151.523 234.72C151.743 235.14 152.043 235.47 152.423 235.71C152.813 235.95 153.253 236.07 153.743 236.07C154.233 236.07 154.668 235.945 155.048 235.695C155.438 235.445 155.733 235.095 155.933 234.645L157.028 235.14C156.728 235.78 156.293 236.28 155.723 236.64C155.153 237 154.503 237.18 153.773 237.18ZM161.858 237.18C161.128 237.18 160.483 237.015 159.923 236.685C159.373 236.345 158.938 235.88 158.618 235.29C158.298 234.7 158.138 234.02 158.138 233.25C158.138 232.48 158.293 231.8 158.603 231.21C158.923 230.62 159.363 230.16 159.923 229.83C160.483 229.49 161.118 229.32 161.828 229.32C162.528 229.32 163.133 229.495 163.643 229.845C164.153 230.185 164.548 230.665 164.828 231.285C165.108 231.905 165.248 232.635 165.248 233.475H164.048C164.048 232.835 163.963 232.29 163.793 231.84C163.623 231.38 163.373 231.025 163.043 230.775C162.713 230.525 162.303 230.4 161.813 230.4C161.323 230.4 160.893 230.52 160.523 230.76C160.163 230.99 159.883 231.32 159.683 231.75C159.483 232.18 159.383 232.685 159.383 233.265C159.383 233.835 159.493 234.33 159.713 234.75C159.933 235.16 160.233 235.485 160.613 235.725C160.993 235.955 161.428 236.07 161.918 236.07C162.448 236.07 162.893 235.945 163.253 235.695C163.613 235.445 163.893 235.12 164.093 234.72L165.158 235.245C164.958 235.635 164.698 235.975 164.378 236.265C164.068 236.555 163.703 236.78 163.283 236.94C162.863 237.1 162.388 237.18 161.858 237.18ZM158.948 233.475V232.44H164.513V233.475H158.948ZM167.315 237.21C167.085 237.21 166.885 237.13 166.715 236.97C166.555 236.8 166.475 236.605 166.475 236.385C166.475 236.155 166.555 235.96 166.715 235.8C166.885 235.63 167.085 235.545 167.315 235.545C167.545 235.545 167.74 235.63 167.9 235.8C168.06 235.96 168.14 236.155 168.14 236.385C168.14 236.605 168.06 236.8 167.9 236.97C167.74 237.13 167.545 237.21 167.315 237.21Z" fill="#263238"/>
<path d="M205.602 107V94.4H207.366V107H205.602ZM210.163 107V98H211.765L211.873 99.656V107H210.163ZM216.391 107V102.392L218.101 101.852V107H216.391ZM216.391 102.392C216.391 101.576 216.295 100.958 216.103 100.538C215.923 100.106 215.665 99.806 215.329 99.638C215.005 99.47 214.627 99.38 214.195 99.368C213.463 99.368 212.893 99.626 212.485 100.142C212.077 100.658 211.873 101.384 211.873 102.32H211.135C211.135 101.372 211.273 100.562 211.549 99.89C211.825 99.206 212.221 98.684 212.737 98.324C213.265 97.964 213.895 97.784 214.627 97.784C215.707 97.784 216.553 98.12 217.165 98.792C217.789 99.452 218.101 100.472 218.101 101.852L216.391 102.392ZM220.09 102.392V100.898H225.49V102.392H220.09ZM232.188 107.216C231.516 107.216 230.904 107.138 230.352 106.982C229.812 106.826 229.338 106.616 228.93 106.352C228.534 106.076 228.204 105.77 227.94 105.434C227.676 105.098 227.49 104.744 227.382 104.372L229.092 103.814C229.272 104.306 229.614 104.732 230.118 105.092C230.622 105.452 231.24 105.638 231.972 105.65C232.86 105.65 233.556 105.476 234.06 105.128C234.576 104.768 234.834 104.294 234.834 103.706C234.834 103.166 234.612 102.728 234.168 102.392C233.724 102.044 233.136 101.78 232.404 101.6L230.946 101.222C230.37 101.066 229.842 100.844 229.362 100.556C228.894 100.268 228.522 99.902 228.246 99.458C227.97 99.014 227.832 98.48 227.832 97.856C227.832 96.704 228.204 95.804 228.948 95.156C229.704 94.508 230.79 94.184 232.206 94.184C233.022 94.184 233.73 94.316 234.33 94.58C234.93 94.832 235.422 95.168 235.806 95.588C236.202 96.008 236.484 96.47 236.652 96.974L234.942 97.55C234.738 97.01 234.39 96.578 233.898 96.254C233.406 95.918 232.8 95.75 232.08 95.75C231.324 95.75 230.724 95.93 230.28 96.29C229.848 96.65 229.632 97.142 229.632 97.766C229.632 98.294 229.8 98.702 230.136 98.99C230.484 99.266 230.946 99.476 231.522 99.62L232.98 99.98C234.156 100.268 235.062 100.748 235.698 101.42C236.346 102.08 236.67 102.806 236.67 103.598C236.67 104.282 236.496 104.9 236.148 105.452C235.812 105.992 235.308 106.424 234.636 106.748C233.976 107.06 233.16 107.216 232.188 107.216ZM242.381 107.216C241.481 107.216 240.785 106.988 240.293 106.532C239.801 106.064 239.555 105.398 239.555 104.534V95.192H241.265V104.282C241.265 104.726 241.373 105.068 241.589 105.308C241.817 105.536 242.141 105.65 242.561 105.65C242.681 105.65 242.813 105.626 242.957 105.578C243.101 105.53 243.275 105.434 243.479 105.29L244.127 106.622C243.815 106.826 243.515 106.976 243.227 107.072C242.951 107.168 242.669 107.216 242.381 107.216ZM238.025 99.476V98H243.821V99.476H238.025ZM249.898 107.216C249.01 107.216 248.218 107.018 247.522 106.622C246.838 106.214 246.298 105.656 245.902 104.948C245.518 104.24 245.326 103.424 245.326 102.5C245.326 101.576 245.518 100.76 245.902 100.052C246.286 99.344 246.82 98.792 247.504 98.396C248.2 97.988 248.986 97.784 249.862 97.784C250.762 97.784 251.554 97.988 252.238 98.396C252.922 98.792 253.456 99.344 253.84 100.052C254.236 100.76 254.434 101.576 254.434 102.5C254.434 103.424 254.236 104.24 253.84 104.948C253.456 105.656 252.922 106.214 252.238 106.622C251.566 107.018 250.786 107.216 249.898 107.216ZM249.898 105.596C250.438 105.596 250.912 105.464 251.32 105.2C251.728 104.936 252.046 104.576 252.274 104.12C252.514 103.652 252.634 103.112 252.634 102.5C252.634 101.9 252.514 101.366 252.274 100.898C252.046 100.43 251.722 100.064 251.302 99.8C250.882 99.536 250.402 99.404 249.862 99.404C249.334 99.404 248.86 99.536 248.44 99.8C248.032 100.064 247.708 100.43 247.468 100.898C247.24 101.354 247.126 101.888 247.126 102.5C247.126 103.1 247.24 103.634 247.468 104.102C247.708 104.57 248.038 104.936 248.458 105.2C248.878 105.464 249.358 105.596 249.898 105.596ZM257.42 102.158C257.42 101.186 257.606 100.394 257.978 99.782C258.35 99.17 258.83 98.714 259.418 98.414C260.006 98.114 260.624 97.964 261.272 97.964V99.584C260.732 99.584 260.216 99.668 259.724 99.836C259.244 99.992 258.848 100.256 258.536 100.628C258.236 100.988 258.086 101.48 258.086 102.104L257.42 102.158ZM256.375 107V98H258.086V107H256.375ZM266.701 107.216C265.825 107.216 265.051 107.018 264.379 106.622C263.707 106.214 263.179 105.656 262.795 104.948C262.411 104.24 262.219 103.424 262.219 102.5C262.219 101.576 262.411 100.76 262.795 100.052C263.179 99.344 263.707 98.792 264.379 98.396C265.063 97.988 265.843 97.784 266.719 97.784C267.535 97.784 268.255 97.994 268.879 98.414C269.515 98.822 270.007 99.41 270.355 100.178C270.715 100.934 270.895 101.828 270.895 102.86H269.185C269.185 102.092 269.089 101.444 268.897 100.916C268.705 100.388 268.417 99.992 268.033 99.728C267.661 99.452 267.205 99.314 266.665 99.314C266.125 99.314 265.651 99.446 265.243 99.71C264.847 99.962 264.535 100.328 264.307 100.808C264.091 101.276 263.983 101.852 263.983 102.536C263.983 103.172 264.109 103.724 264.361 104.192C264.613 104.648 264.949 105.008 265.369 105.272C265.801 105.524 266.287 105.65 266.827 105.65C267.415 105.65 267.901 105.512 268.285 105.236C268.681 104.96 268.993 104.606 269.221 104.174L270.751 104.876C270.499 105.344 270.181 105.758 269.797 106.118C269.425 106.466 268.975 106.736 268.447 106.928C267.931 107.12 267.349 107.216 266.701 107.216ZM263.335 102.86L263.353 101.456H269.941V102.86H263.335ZM205.602 135V122.4H207.366V135H205.602ZM207.078 135V133.38H213.216V135H207.078ZM207.078 129.348V127.764H212.604V129.348H207.078ZM207.078 124.02V122.4H213.18V124.02H207.078ZM214.743 135L218.433 129.834L221.007 126H223.041L219.567 130.914L216.813 135H214.743ZM221.205 135L218.487 130.914L214.977 126H217.011L219.603 129.834L223.257 135H221.205ZM224.649 138.6V126H226.251L226.359 127.656V138.6H224.649ZM229.311 135.216C228.555 135.216 227.895 135.018 227.331 134.622C226.779 134.226 226.353 133.674 226.053 132.966C225.753 132.258 225.603 131.436 225.603 130.5C225.603 129.552 225.753 128.73 226.053 128.034C226.353 127.326 226.779 126.774 227.331 126.378C227.895 125.982 228.555 125.784 229.311 125.784C230.115 125.784 230.823 125.982 231.435 126.378C232.047 126.774 232.521 127.326 232.857 128.034C233.205 128.73 233.379 129.552 233.379 130.5C233.379 131.436 233.205 132.258 232.857 132.966C232.521 133.674 232.047 134.226 231.435 134.622C230.823 135.018 230.115 135.216 229.311 135.216ZM228.897 133.668C229.437 133.668 229.911 133.536 230.319 133.272C230.727 132.996 231.045 132.624 231.273 132.156C231.513 131.676 231.633 131.124 231.633 130.5C231.633 129.876 231.519 129.33 231.291 128.862C231.063 128.382 230.745 128.01 230.337 127.746C229.929 127.47 229.455 127.332 228.915 127.332C228.423 127.332 227.979 127.47 227.583 127.746C227.199 128.01 226.899 128.382 226.683 128.862C226.467 129.342 226.359 129.888 226.359 130.5C226.359 131.124 226.467 131.676 226.683 132.156C226.899 132.624 227.199 132.996 227.583 133.272C227.967 133.536 228.405 133.668 228.897 133.668ZM239.297 135.216C238.421 135.216 237.647 135.018 236.975 134.622C236.303 134.214 235.775 133.656 235.391 132.948C235.007 132.24 234.815 131.424 234.815 130.5C234.815 129.576 235.007 128.76 235.391 128.052C235.775 127.344 236.303 126.792 236.975 126.396C237.659 125.988 238.439 125.784 239.315 125.784C240.131 125.784 240.851 125.994 241.475 126.414C242.111 126.822 242.603 127.41 242.951 128.178C243.311 128.934 243.491 129.828 243.491 130.86H241.781C241.781 130.092 241.685 129.444 241.493 128.916C241.301 128.388 241.013 127.992 240.629 127.728C240.257 127.452 239.801 127.314 239.261 127.314C238.721 127.314 238.247 127.446 237.839 127.71C237.443 127.962 237.131 128.328 236.903 128.808C236.687 129.276 236.579 129.852 236.579 130.536C236.579 131.172 236.705 131.724 236.957 132.192C237.209 132.648 237.545 133.008 237.965 133.272C238.397 133.524 238.883 133.65 239.423 133.65C240.011 133.65 240.497 133.512 240.881 133.236C241.277 132.96 241.589 132.606 241.817 132.174L243.347 132.876C243.095 133.344 242.777 133.758 242.393 134.118C242.021 134.466 241.571 134.736 241.043 134.928C240.527 135.12 239.945 135.216 239.297 135.216ZM235.931 130.86L235.949 129.456H242.537V130.86H235.931ZM246.293 130.158C246.293 129.186 246.479 128.394 246.851 127.782C247.223 127.17 247.703 126.714 248.291 126.414C248.879 126.114 249.497 125.964 250.145 125.964V127.584C249.605 127.584 249.089 127.668 248.597 127.836C248.117 127.992 247.721 128.256 247.409 128.628C247.109 128.988 246.959 129.48 246.959 130.104L246.293 130.158ZM245.249 135V126H246.959V135H245.249ZM251.632 135L251.668 126H253.36L253.342 135H251.632ZM252.496 124.092C252.22 124.092 251.98 123.99 251.776 123.786C251.572 123.57 251.47 123.324 251.47 123.048C251.47 122.76 251.572 122.52 251.776 122.328C251.98 122.124 252.22 122.022 252.496 122.022C252.784 122.022 253.024 122.124 253.216 122.328C253.42 122.52 253.522 122.76 253.522 123.048C253.522 123.324 253.42 123.57 253.216 123.786C253.024 123.99 252.784 124.092 252.496 124.092ZM259.898 135.216C259.022 135.216 258.248 135.018 257.576 134.622C256.904 134.214 256.376 133.656 255.992 132.948C255.608 132.24 255.416 131.424 255.416 130.5C255.416 129.576 255.608 128.76 255.992 128.052C256.376 127.344 256.904 126.792 257.576 126.396C258.26 125.988 259.04 125.784 259.916 125.784C260.732 125.784 261.452 125.994 262.076 126.414C262.712 126.822 263.204 127.41 263.552 128.178C263.912 128.934 264.092 129.828 264.092 130.86H262.382C262.382 130.092 262.286 129.444 262.094 128.916C261.902 128.388 261.614 127.992 261.23 127.728C260.858 127.452 260.402 127.314 259.862 127.314C259.322 127.314 258.848 127.446 258.44 127.71C258.044 127.962 257.732 128.328 257.504 128.808C257.288 129.276 257.18 129.852 257.18 130.536C257.18 131.172 257.306 131.724 257.558 132.192C257.81 132.648 258.146 133.008 258.566 133.272C258.998 133.524 259.484 133.65 260.024 133.65C260.612 133.65 261.098 133.512 261.482 133.236C261.878 132.96 262.19 132.606 262.418 132.174L263.948 132.876C263.696 133.344 263.378 133.758 262.994 134.118C262.622 134.466 262.172 134.736 261.644 134.928C261.128 135.12 260.546 135.216 259.898 135.216ZM256.532 130.86L256.55 129.456H263.138V130.86H256.532ZM265.85 135V126H267.452L267.56 127.656V135H265.85ZM272.078 135V130.392L273.788 129.852V135H272.078ZM272.078 130.392C272.078 129.576 271.982 128.958 271.79 128.538C271.61 128.106 271.352 127.806 271.016 127.638C270.692 127.47 270.314 127.38 269.882 127.368C269.15 127.368 268.58 127.626 268.172 128.142C267.764 128.658 267.56 129.384 267.56 130.32H266.822C266.822 129.372 266.96 128.562 267.236 127.89C267.512 127.206 267.908 126.684 268.424 126.324C268.952 125.964 269.582 125.784 270.314 125.784C271.394 125.784 272.24 126.12 272.852 126.792C273.476 127.452 273.788 128.472 273.788 129.852L272.078 130.392ZM280.044 135.216C279.144 135.216 278.346 135.018 277.65 134.622C276.954 134.214 276.408 133.656 276.012 132.948C275.628 132.24 275.436 131.424 275.436 130.5C275.436 129.576 275.628 128.76 276.012 128.052C276.408 127.344 276.948 126.792 277.632 126.396C278.328 125.988 279.12 125.784 280.008 125.784C280.884 125.784 281.67 125.988 282.366 126.396C283.074 126.804 283.602 127.386 283.95 128.142L282.402 128.79C282.174 128.346 281.844 127.998 281.412 127.746C280.992 127.494 280.506 127.368 279.954 127.368C279.414 127.368 278.934 127.5 278.514 127.764C278.094 128.028 277.764 128.4 277.524 128.88C277.284 129.348 277.164 129.888 277.164 130.5C277.164 131.112 277.284 131.652 277.524 132.12C277.764 132.588 278.1 132.96 278.532 133.236C278.964 133.5 279.45 133.632 279.99 133.632C280.542 133.632 281.034 133.494 281.466 133.218C281.898 132.93 282.222 132.546 282.438 132.066L284.004 132.696C283.656 133.488 283.128 134.106 282.42 134.55C281.724 134.994 280.932 135.216 280.044 135.216ZM289.746 135.216C288.87 135.216 288.096 135.018 287.424 134.622C286.752 134.214 286.224 133.656 285.84 132.948C285.456 132.24 285.264 131.424 285.264 130.5C285.264 129.576 285.456 128.76 285.84 128.052C286.224 127.344 286.752 126.792 287.424 126.396C288.108 125.988 288.888 125.784 289.764 125.784C290.58 125.784 291.3 125.994 291.924 126.414C292.56 126.822 293.052 127.41 293.4 128.178C293.76 128.934 293.94 129.828 293.94 130.86H292.23C292.23 130.092 292.134 129.444 291.942 128.916C291.75 128.388 291.462 127.992 291.078 127.728C290.706 127.452 290.25 127.314 289.71 127.314C289.17 127.314 288.696 127.446 288.288 127.71C287.892 127.962 287.58 128.328 287.352 128.808C287.136 129.276 287.028 129.852 287.028 130.536C287.028 131.172 287.154 131.724 287.406 132.192C287.658 132.648 287.994 133.008 288.414 133.272C288.846 133.524 289.332 133.65 289.872 133.65C290.46 133.65 290.946 133.512 291.33 133.236C291.726 132.96 292.038 132.606 292.266 132.174L293.796 132.876C293.544 133.344 293.226 133.758 292.842 134.118C292.47 134.466 292.02 134.736 291.492 134.928C290.976 135.12 290.394 135.216 289.746 135.216ZM286.38 130.86L286.398 129.456H292.986V130.86H286.38Z" fill="#263238"/>
<path d="M106.023 144H92.384C92.3335 144 92.2835 143.99 92.2369 143.971C92.1903 143.952 92.1479 143.924 92.1122 143.888C92.0766 143.853 92.0483 143.81 92.029 143.764C92.0098 143.717 91.9999 143.667 92 143.617V110.059C92.0016 108.91 92.4597 107.808 93.2739 106.995C94.0881 106.183 95.1919 105.726 96.3431 105.725H102.064C103.216 105.726 104.319 106.183 105.134 106.995C105.948 107.808 106.406 108.91 106.407 110.059V143.617C106.408 143.667 106.398 143.717 106.378 143.764C106.359 143.81 106.331 143.853 106.295 143.888C106.259 143.924 106.217 143.952 106.17 143.971C106.123 143.991 106.073 144 106.023 144ZM92.7679 143.234H105.64V110.059C105.638 109.113 105.261 108.206 104.591 107.537C103.921 106.868 103.012 106.492 102.064 106.491H96.3431C95.3954 106.492 94.4867 106.868 93.8164 107.537C93.1462 108.206 92.7691 109.113 92.7679 110.059V143.234Z" fill="#263238" stroke="#263238" stroke-width="1.5" stroke-miterlimit="10"/>
<path d="M175.779 106.489C175.677 106.489 175.579 106.449 175.507 106.377C175.435 106.305 175.395 106.208 175.395 106.106V97.4904C175.391 94.1169 174.047 90.8827 171.657 88.4974C169.268 86.112 166.028 84.7703 162.649 84.7666H112.334C108.955 84.7705 105.715 86.1122 103.326 88.4976C100.937 90.8829 99.5923 94.117 99.5882 97.4904V106.108C99.5882 106.21 99.5477 106.307 99.4757 106.379C99.4037 106.451 99.3061 106.491 99.2042 106.491C99.1024 106.491 99.0048 106.451 98.9328 106.379C98.8608 106.307 98.8203 106.21 98.8203 106.108V97.4904C98.8244 93.9137 100.25 90.4846 102.783 87.9555C105.316 85.4265 108.751 84.0039 112.334 84H162.649C166.231 84.0041 169.666 85.4267 172.199 87.9558C174.733 90.4848 176.158 93.9138 176.162 97.4904V106.108C176.161 106.209 176.121 106.306 176.049 106.377C175.977 106.449 175.88 106.489 175.779 106.489Z" fill="#263238" stroke="#263238" stroke-width="1.5" stroke-miterlimit="10"/>
<path d="M182.849 144H169.212C169.162 144 169.112 143.99 169.065 143.971C169.018 143.952 168.976 143.924 168.94 143.888C168.905 143.853 168.876 143.81 168.857 143.764C168.838 143.717 168.828 143.667 168.828 143.617V110.059C168.83 108.91 169.288 107.808 170.102 106.995C170.916 106.183 172.02 105.726 173.171 105.725H178.892C180.043 105.726 181.147 106.183 181.961 106.995C182.775 107.808 183.234 108.91 183.235 110.059V143.617C183.235 143.667 183.225 143.717 183.206 143.764C183.186 143.811 183.158 143.853 183.122 143.889C183.086 143.924 183.044 143.952 182.997 143.972C182.95 143.991 182.9 144 182.849 144ZM169.595 143.234H182.466V110.059C182.465 109.113 182.088 108.206 181.418 107.537C180.747 106.868 179.839 106.492 178.891 106.491H173.171C172.223 106.492 171.314 106.868 170.644 107.537C169.974 108.206 169.596 109.113 169.595 110.059L169.595 143.234Z" fill="#263238" stroke="#263238" stroke-width="1.5" stroke-miterlimit="10"/>
<path d="M137.617 144H106.023C105.972 144 105.922 143.99 105.876 143.971C105.829 143.952 105.787 143.924 105.751 143.888C105.715 143.852 105.687 143.81 105.668 143.763C105.648 143.717 105.639 143.667 105.639 143.617V124.878C105.639 122.234 108.709 120.078 112.484 120.078H131.157C134.929 120.078 138.001 122.231 138.001 124.878V143.614C138.001 143.665 137.992 143.715 137.972 143.762C137.953 143.809 137.925 143.851 137.889 143.887C137.854 143.923 137.811 143.951 137.764 143.971C137.718 143.99 137.667 144 137.617 144ZM106.407 143.233H137.233V124.878C137.233 122.657 134.508 120.848 131.157 120.848H112.484C109.133 120.848 106.407 122.657 106.407 124.878V143.233Z" fill="#263238" stroke="#263238" stroke-width="1.5" stroke-miterlimit="10"/>
<path d="M137.617 132.423H106.023C105.921 132.423 105.823 132.383 105.751 132.311C105.679 132.239 105.639 132.141 105.639 132.04C105.639 131.938 105.679 131.841 105.751 131.769C105.823 131.697 105.921 131.656 106.023 131.656H137.617C137.719 131.656 137.816 131.697 137.888 131.769C137.96 131.841 138.001 131.938 138.001 132.04C138.001 132.141 137.96 132.239 137.888 132.311C137.816 132.383 137.719 132.423 137.617 132.423Z" fill="#263238" stroke="#263238" stroke-width="1.5" stroke-miterlimit="10"/>
<path d="M169.213 144H137.616C137.566 144 137.516 143.99 137.469 143.971C137.423 143.952 137.38 143.924 137.345 143.888C137.309 143.852 137.281 143.81 137.261 143.763C137.242 143.717 137.232 143.667 137.232 143.617V124.878C137.232 122.234 140.303 120.078 144.077 120.078H162.75C166.523 120.078 169.595 122.231 169.595 124.878V143.614C169.596 143.665 169.586 143.715 169.567 143.762C169.548 143.808 169.52 143.851 169.484 143.887C169.449 143.922 169.407 143.951 169.36 143.97C169.313 143.99 169.263 144 169.213 144ZM138.001 143.233H168.828V124.878C168.828 122.657 166.102 120.848 162.751 120.848H144.079C140.728 120.848 138.001 122.657 138.001 124.878V143.233Z" fill="#263238" stroke="#263238" stroke-width="1.5" stroke-miterlimit="10"/>
<path d="M169.213 132.423H137.616C137.515 132.423 137.417 132.383 137.345 132.311C137.273 132.239 137.232 132.141 137.232 132.04C137.232 131.938 137.273 131.841 137.345 131.769C137.417 131.697 137.515 131.656 137.616 131.656H169.211C169.313 131.656 169.411 131.697 169.483 131.769C169.555 131.841 169.595 131.938 169.595 132.04C169.595 132.141 169.555 132.239 169.483 132.311C169.411 132.383 169.313 132.423 169.211 132.423H169.213Z" fill="#263238" stroke="#263238" stroke-width="1.5" stroke-miterlimit="10"/>
<path d="M131.48 99.0593C131.169 99.0593 130.865 98.9673 130.607 98.7948C130.348 98.6224 130.147 98.3773 130.028 98.0905C129.909 97.8038 129.878 97.4883 129.938 97.1838C129.999 96.8794 130.149 96.5998 130.369 96.3803C130.589 96.1608 130.869 96.0114 131.174 95.9508C131.478 95.8903 131.795 95.9213 132.082 96.0401C132.369 96.1589 132.615 96.36 132.787 96.6181C132.96 96.8762 133.052 97.1796 133.052 97.49C133.052 97.9061 132.886 98.305 132.591 98.5992C132.297 98.8935 131.897 99.0589 131.48 99.0593ZM131.48 96.688C131.321 96.6881 131.166 96.7353 131.034 96.8235C130.902 96.9117 130.799 97.037 130.738 97.1836C130.678 97.3301 130.662 97.4914 130.693 97.6469C130.724 97.8024 130.801 97.9453 130.913 98.0574C131.026 98.1694 131.169 98.2458 131.324 98.2766C131.48 98.3075 131.642 98.2916 131.789 98.2309C131.935 98.1702 132.061 98.0673 132.149 97.9355C132.237 97.8036 132.284 97.6486 132.284 97.49C132.284 97.2773 132.199 97.0734 132.048 96.923C131.898 96.7727 131.693 96.6882 131.48 96.688Z" fill="#263238" stroke="#263238" stroke-width="1.5" stroke-miterlimit="10"/>
<path d="M121.82 99.0593C121.509 99.0593 121.205 98.9673 120.947 98.7948C120.688 98.6224 120.487 98.3773 120.368 98.0905C120.249 97.8038 120.218 97.4883 120.278 97.1838C120.339 96.8794 120.489 96.5998 120.708 96.3803C120.928 96.1608 121.208 96.0114 121.513 95.9508C121.818 95.8903 122.134 95.9213 122.422 96.0401C122.709 96.1589 122.954 96.36 123.127 96.6181C123.3 96.8762 123.392 97.1796 123.392 97.49C123.392 97.9061 123.226 98.305 122.931 98.5992C122.636 98.8935 122.237 99.0589 121.82 99.0593ZM121.82 96.688C121.661 96.6883 121.506 96.7355 121.374 96.8238C121.242 96.9121 121.139 97.0375 121.079 97.1841C121.018 97.3306 121.003 97.4919 121.034 97.6474C121.065 97.8028 121.142 97.9456 121.254 98.0576C121.366 98.1696 121.51 98.2459 121.665 98.2767C121.821 98.3075 121.983 98.2916 122.129 98.2308C122.276 98.1701 122.401 98.0673 122.49 97.9354C122.578 97.8036 122.625 97.6486 122.625 97.49C122.624 97.2771 122.54 97.0731 122.389 96.9228C122.238 96.7724 122.033 96.688 121.82 96.688Z" fill="#263238" stroke="#263238" stroke-width="1.5" stroke-miterlimit="10"/>
<path d="M112.16 99.0596C111.849 99.0596 111.545 98.9675 111.287 98.7951C111.028 98.6226 110.827 98.3775 110.708 98.0908C110.589 97.804 110.557 97.4885 110.618 97.1841C110.679 96.8797 110.828 96.6 111.048 96.3805C111.268 96.1611 111.548 96.0116 111.853 95.9511C112.158 95.8905 112.474 95.9216 112.761 96.0404C113.049 96.1591 113.294 96.3603 113.467 96.6183C113.64 96.8764 113.732 97.1799 113.732 97.4902C113.731 97.9063 113.566 98.3053 113.271 98.5995C112.976 98.8937 112.577 99.0592 112.16 99.0596ZM112.16 96.6882C112.001 96.6882 111.846 96.7352 111.714 96.8234C111.581 96.9115 111.478 97.0368 111.418 97.1833C111.357 97.3299 111.341 97.4911 111.372 97.6467C111.403 97.8023 111.479 97.9452 111.592 98.0573C111.704 98.1695 111.847 98.2459 112.003 98.2768C112.159 98.3078 112.321 98.2919 112.467 98.2312C112.614 98.1705 112.74 98.0677 112.828 97.9358C112.916 97.8039 112.963 97.6489 112.963 97.4902C112.963 97.2777 112.878 97.0741 112.727 96.9238C112.577 96.7735 112.373 96.6888 112.16 96.6882Z" fill="#263238" stroke="#263238" stroke-width="1.5" stroke-miterlimit="10"/>
<path d="M131.48 107.894C131.169 107.894 130.865 107.802 130.607 107.629C130.348 107.457 130.147 107.212 130.028 106.925C129.909 106.638 129.878 106.322 129.938 106.018C129.999 105.714 130.149 105.434 130.369 105.215C130.589 104.995 130.869 104.846 131.174 104.785C131.479 104.725 131.795 104.756 132.082 104.875C132.37 104.994 132.615 105.195 132.788 105.453C132.96 105.711 133.052 106.015 133.052 106.325C133.051 106.741 132.886 107.14 132.591 107.434C132.296 107.728 131.897 107.893 131.48 107.894ZM131.48 105.521C131.321 105.521 131.166 105.568 131.034 105.656C130.901 105.744 130.798 105.87 130.737 106.016C130.677 106.163 130.661 106.324 130.691 106.48C130.722 106.635 130.799 106.779 130.911 106.891C131.023 107.003 131.167 107.08 131.322 107.111C131.478 107.142 131.64 107.126 131.787 107.066C131.934 107.005 132.06 106.903 132.148 106.771C132.237 106.639 132.284 106.484 132.284 106.325C132.284 106.112 132.199 105.908 132.049 105.758C131.898 105.607 131.693 105.522 131.48 105.522V105.521Z" fill="#263238" stroke="#263238" stroke-width="1.5" stroke-miterlimit="10"/>
<path d="M121.82 107.894C121.509 107.894 121.205 107.802 120.947 107.629C120.688 107.457 120.487 107.212 120.368 106.925C120.249 106.638 120.218 106.322 120.278 106.018C120.339 105.714 120.489 105.434 120.709 105.215C120.929 104.995 121.209 104.846 121.514 104.785C121.819 104.725 122.135 104.756 122.422 104.875C122.709 104.994 122.955 105.195 123.127 105.453C123.3 105.711 123.392 106.015 123.392 106.325C123.391 106.741 123.225 107.14 122.931 107.434C122.636 107.728 122.237 107.893 121.82 107.894ZM121.82 105.521C121.661 105.521 121.506 105.568 121.374 105.657C121.242 105.745 121.139 105.87 121.078 106.017C121.017 106.163 121.001 106.325 121.032 106.48C121.063 106.636 121.14 106.779 121.252 106.891C121.364 107.003 121.507 107.08 121.663 107.111C121.819 107.142 121.981 107.126 122.128 107.066C122.275 107.005 122.4 106.903 122.489 106.771C122.577 106.639 122.625 106.484 122.625 106.325C122.625 106.112 122.54 105.908 122.389 105.757C122.238 105.607 122.033 105.522 121.82 105.522V105.521Z" fill="#263238" stroke="#263238" stroke-width="1.5" stroke-miterlimit="10"/>
<path d="M112.16 107.894C111.849 107.894 111.545 107.802 111.286 107.629C111.028 107.457 110.826 107.212 110.707 106.925C110.589 106.638 110.557 106.322 110.618 106.018C110.679 105.714 110.829 105.434 111.049 105.215C111.269 104.995 111.549 104.846 111.854 104.785C112.159 104.725 112.475 104.756 112.762 104.875C113.049 104.994 113.295 105.195 113.467 105.453C113.64 105.711 113.732 106.015 113.732 106.325C113.731 106.741 113.565 107.14 113.271 107.434C112.976 107.728 112.577 107.893 112.16 107.894ZM112.16 105.521C112.001 105.521 111.845 105.568 111.713 105.656C111.581 105.744 111.478 105.869 111.417 106.016C111.356 106.162 111.339 106.324 111.37 106.479C111.401 106.635 111.477 106.778 111.59 106.891C111.702 107.003 111.845 107.08 112.001 107.111C112.157 107.142 112.319 107.126 112.466 107.066C112.613 107.005 112.738 106.903 112.827 106.771C112.916 106.639 112.963 106.484 112.963 106.325C112.963 106.112 112.878 105.908 112.728 105.758C112.577 105.607 112.373 105.522 112.16 105.522V105.521Z" fill="#263238" stroke="#263238" stroke-width="1.5" stroke-miterlimit="10"/>
<path d="M131.48 116.726C131.169 116.726 130.865 116.634 130.607 116.462C130.348 116.289 130.147 116.044 130.028 115.757C129.909 115.471 129.878 115.155 129.938 114.851C129.999 114.546 130.149 114.266 130.369 114.047C130.589 113.828 130.869 113.678 131.174 113.618C131.479 113.557 131.795 113.588 132.082 113.707C132.37 113.826 132.615 114.028 132.788 114.286C132.96 114.544 133.052 114.847 133.052 115.158C133.051 115.574 132.886 115.972 132.591 116.266C132.296 116.56 131.897 116.726 131.48 116.726ZM131.48 114.355C131.321 114.355 131.166 114.402 131.033 114.49C130.901 114.578 130.798 114.704 130.737 114.851C130.676 114.997 130.661 115.159 130.692 115.314C130.723 115.47 130.799 115.613 130.912 115.725C131.024 115.838 131.167 115.914 131.323 115.945C131.479 115.976 131.641 115.96 131.788 115.899C131.935 115.839 132.06 115.736 132.149 115.604C132.237 115.472 132.284 115.317 132.284 115.158C132.284 114.945 132.2 114.741 132.049 114.59C131.898 114.44 131.693 114.355 131.48 114.355Z" fill="#263238" stroke="#263238" stroke-width="1.5" stroke-miterlimit="10"/>
<path d="M121.82 116.726C121.509 116.726 121.205 116.634 120.947 116.462C120.688 116.289 120.487 116.044 120.368 115.757C120.249 115.471 120.218 115.155 120.278 114.851C120.339 114.546 120.489 114.266 120.709 114.047C120.929 113.828 121.209 113.678 121.514 113.618C121.819 113.557 122.135 113.588 122.422 113.707C122.709 113.826 122.955 114.028 123.127 114.286C123.3 114.544 123.392 114.847 123.392 115.158C123.391 115.574 123.225 115.972 122.931 116.266C122.636 116.56 122.237 116.726 121.82 116.726ZM121.82 114.355C121.661 114.355 121.506 114.402 121.373 114.491C121.241 114.579 121.138 114.704 121.078 114.851C121.017 114.998 121.001 115.159 121.032 115.315C121.063 115.47 121.14 115.613 121.252 115.726C121.365 115.838 121.508 115.914 121.664 115.945C121.82 115.976 121.982 115.96 122.129 115.899C122.276 115.839 122.401 115.736 122.489 115.604C122.578 115.472 122.625 115.316 122.625 115.158C122.625 115.052 122.604 114.948 122.564 114.85C122.523 114.753 122.464 114.664 122.389 114.59C122.314 114.515 122.226 114.456 122.128 114.416C122.03 114.376 121.926 114.355 121.82 114.355Z" fill="#263238" stroke="#263238" stroke-width="1.5" stroke-miterlimit="10"/>
<path d="M112.16 116.726C111.849 116.726 111.545 116.634 111.286 116.462C111.028 116.289 110.826 116.044 110.707 115.757C110.589 115.471 110.557 115.155 110.618 114.851C110.679 114.546 110.829 114.266 111.049 114.047C111.269 113.828 111.549 113.678 111.854 113.618C112.159 113.557 112.475 113.588 112.762 113.707C113.049 113.826 113.295 114.028 113.467 114.286C113.64 114.544 113.732 114.847 113.732 115.158C113.731 115.574 113.565 115.972 113.271 116.267C112.976 116.561 112.577 116.726 112.16 116.726ZM112.16 114.355C112.001 114.355 111.845 114.402 111.713 114.49C111.581 114.578 111.477 114.703 111.416 114.85C111.355 114.997 111.339 115.158 111.37 115.314C111.401 115.47 111.478 115.613 111.59 115.725C111.703 115.837 111.846 115.914 112.002 115.945C112.158 115.976 112.32 115.96 112.467 115.899C112.614 115.839 112.739 115.736 112.828 115.604C112.916 115.472 112.963 115.317 112.963 115.158C112.963 114.945 112.878 114.741 112.728 114.591C112.577 114.44 112.373 114.355 112.16 114.355Z" fill="#263238" stroke="#263238" stroke-width="1.5" stroke-miterlimit="10"/>
<path d="M163.075 99.0593C162.764 99.0595 162.46 98.9676 162.201 98.7952C161.943 98.6229 161.741 98.3778 161.622 98.0911C161.503 97.8043 161.471 97.4888 161.532 97.1843C161.593 96.8798 161.742 96.6001 161.962 96.3806C162.182 96.161 162.462 96.0115 162.767 95.9509C163.072 95.8903 163.388 95.9213 163.675 96.04C163.963 96.1588 164.208 96.3599 164.381 96.618C164.554 96.8761 164.646 97.1796 164.646 97.49C164.646 97.906 164.48 98.3048 164.185 98.599C163.891 98.8932 163.491 99.0588 163.075 99.0593ZM163.075 96.688C162.916 96.688 162.76 96.735 162.628 96.8231C162.496 96.9112 162.393 97.0365 162.332 97.1831C162.272 97.3296 162.256 97.4909 162.287 97.6465C162.318 97.802 162.394 97.9449 162.507 98.0571C162.619 98.1693 162.762 98.2457 162.918 98.2766C163.074 98.3076 163.235 98.2917 163.382 98.231C163.529 98.1702 163.654 98.0675 163.743 97.9356C163.831 97.8037 163.878 97.6486 163.878 97.49C163.878 97.2774 163.793 97.0736 163.642 96.9233C163.492 96.773 163.288 96.6884 163.075 96.688Z" fill="#263238" stroke="#263238" stroke-width="1.5" stroke-miterlimit="10"/>
<path d="M153.415 99.0593C153.104 99.0595 152.8 98.9676 152.541 98.7952C152.282 98.6229 152.081 98.3778 151.962 98.0911C151.843 97.8043 151.811 97.4888 151.872 97.1843C151.932 96.8798 152.082 96.6001 152.302 96.3806C152.522 96.161 152.802 96.0115 153.107 95.9509C153.412 95.8903 153.728 95.9213 154.015 96.04C154.302 96.1588 154.548 96.3599 154.721 96.618C154.894 96.8761 154.986 97.1796 154.986 97.49C154.985 97.906 154.82 98.3048 154.525 98.599C154.231 98.8932 153.831 99.0588 153.415 99.0593ZM153.415 96.688C153.256 96.688 153.1 96.735 152.968 96.8231C152.836 96.9112 152.733 97.0365 152.672 97.1831C152.611 97.3296 152.596 97.4909 152.627 97.6465C152.658 97.802 152.734 97.9449 152.846 98.0571C152.959 98.1693 153.102 98.2457 153.258 98.2766C153.414 98.3076 153.575 98.2917 153.722 98.231C153.869 98.1702 153.994 98.0675 154.083 97.9356C154.171 97.8037 154.218 97.6486 154.218 97.49C154.217 97.2775 154.132 97.0738 153.982 96.9235C153.831 96.7733 153.627 96.6886 153.415 96.688Z" fill="#263238" stroke="#263238" stroke-width="1.5" stroke-miterlimit="10"/>
<path d="M143.754 99.0596C143.443 99.0597 143.139 98.9678 142.881 98.7954C142.622 98.6231 142.421 98.3781 142.302 98.0913C142.182 97.8046 142.151 97.489 142.212 97.1846C142.272 96.8801 142.422 96.6004 142.642 96.3808C142.862 96.1613 143.142 96.0117 143.447 95.9511C143.752 95.8905 144.068 95.9215 144.355 96.0403C144.642 96.159 144.888 96.3602 145.061 96.6183C145.233 96.8764 145.326 97.1798 145.326 97.4902C145.325 97.9062 145.16 98.305 144.865 98.5992C144.57 98.8934 144.171 99.059 143.754 99.0596ZM143.754 96.6882C143.595 96.6882 143.44 96.7352 143.308 96.8234C143.176 96.9115 143.073 97.0368 143.012 97.1833C142.951 97.3299 142.935 97.4911 142.966 97.6467C142.997 97.8023 143.074 97.9452 143.186 98.0573C143.299 98.1695 143.442 98.2459 143.598 98.2769C143.753 98.3078 143.915 98.2919 144.062 98.2312C144.209 98.1705 144.334 98.0677 144.422 97.9358C144.511 97.8039 144.558 97.6489 144.558 97.4902C144.557 97.2777 144.473 97.0739 144.322 96.9236C144.171 96.7732 143.967 96.6886 143.754 96.6882Z" fill="#263238" stroke="#263238" stroke-width="1.5" stroke-miterlimit="10"/>
<path d="M163.075 107.894C162.764 107.894 162.46 107.802 162.201 107.63C161.942 107.457 161.741 107.212 161.622 106.925C161.503 106.639 161.471 106.323 161.532 106.018C161.593 105.714 161.742 105.434 161.962 105.215C162.182 104.995 162.462 104.846 162.767 104.785C163.072 104.725 163.389 104.756 163.676 104.875C163.963 104.994 164.209 105.195 164.381 105.453C164.554 105.711 164.646 106.015 164.646 106.325C164.645 106.741 164.479 107.14 164.185 107.434C163.89 107.728 163.491 107.893 163.075 107.894ZM163.075 105.521C162.916 105.521 162.76 105.568 162.628 105.656C162.496 105.744 162.392 105.869 162.331 106.016C162.27 106.162 162.254 106.324 162.285 106.479C162.316 106.635 162.392 106.778 162.505 106.891C162.617 107.003 162.76 107.08 162.916 107.111C163.072 107.142 163.233 107.126 163.38 107.066C163.527 107.005 163.653 106.903 163.742 106.771C163.83 106.639 163.878 106.484 163.878 106.325C163.878 106.112 163.793 105.908 163.643 105.758C163.492 105.607 163.288 105.522 163.075 105.522V105.521Z" fill="#263238" stroke="#263238" stroke-width="1.5" stroke-miterlimit="10"/>
<path d="M153.415 107.894C153.104 107.894 152.8 107.802 152.541 107.63C152.282 107.457 152.081 107.212 151.962 106.925C151.843 106.639 151.811 106.323 151.872 106.018C151.933 105.714 152.082 105.434 152.302 105.215C152.522 104.995 152.802 104.846 153.107 104.785C153.412 104.725 153.728 104.756 154.016 104.875C154.303 104.994 154.548 105.195 154.721 105.453C154.894 105.711 154.986 106.015 154.986 106.325C154.985 106.741 154.819 107.14 154.525 107.434C154.23 107.728 153.831 107.893 153.415 107.894ZM153.415 105.521C153.256 105.521 153.1 105.568 152.968 105.656C152.835 105.744 152.732 105.869 152.671 106.016C152.61 106.162 152.594 106.324 152.625 106.479C152.656 106.635 152.732 106.778 152.844 106.891C152.957 107.003 153.1 107.08 153.256 107.111C153.412 107.142 153.573 107.126 153.72 107.066C153.867 107.005 153.993 106.903 154.082 106.771C154.17 106.639 154.218 106.484 154.218 106.325C154.218 106.112 154.133 105.908 153.982 105.758C153.832 105.607 153.628 105.522 153.415 105.522V105.521Z" fill="#263238" stroke="#263238" stroke-width="1.5" stroke-miterlimit="10"/>
<path d="M143.754 107.894C143.443 107.894 143.139 107.802 142.881 107.63C142.622 107.457 142.421 107.212 142.301 106.925C142.182 106.639 142.151 106.323 142.212 106.018C142.272 105.714 142.422 105.434 142.642 105.215C142.862 104.995 143.142 104.846 143.447 104.785C143.752 104.725 144.068 104.756 144.356 104.875C144.643 104.994 144.888 105.195 145.061 105.453C145.234 105.711 145.326 106.015 145.326 106.325C145.325 106.741 145.159 107.14 144.865 107.434C144.57 107.728 144.171 107.893 143.754 107.894ZM143.754 105.521C143.595 105.521 143.44 105.568 143.308 105.656C143.175 105.744 143.072 105.869 143.011 106.016C142.95 106.162 142.934 106.324 142.965 106.479C142.996 106.635 143.072 106.778 143.184 106.891C143.297 107.003 143.44 107.08 143.596 107.111C143.751 107.142 143.913 107.126 144.06 107.066C144.207 107.005 144.333 106.903 144.421 106.771C144.51 106.639 144.557 106.484 144.558 106.325C144.558 106.112 144.473 105.908 144.322 105.758C144.172 105.607 143.967 105.522 143.754 105.522V105.521Z" fill="#263238" stroke="#263238" stroke-width="1.5" stroke-miterlimit="10"/>
<path d="M163.075 116.726C162.764 116.726 162.46 116.635 162.201 116.462C161.942 116.29 161.741 116.045 161.622 115.758C161.503 115.471 161.471 115.155 161.532 114.851C161.593 114.546 161.742 114.267 161.962 114.047C162.182 113.828 162.462 113.678 162.767 113.618C163.072 113.557 163.389 113.588 163.676 113.707C163.963 113.826 164.209 114.027 164.381 114.286C164.554 114.544 164.646 114.847 164.646 115.158C164.645 115.573 164.479 115.972 164.185 116.266C163.89 116.56 163.491 116.726 163.075 116.726ZM163.075 114.355C162.916 114.355 162.76 114.402 162.628 114.49C162.495 114.578 162.392 114.703 162.331 114.85C162.27 114.997 162.254 115.158 162.285 115.314C162.316 115.47 162.393 115.613 162.505 115.725C162.618 115.837 162.761 115.914 162.917 115.945C163.073 115.976 163.234 115.96 163.381 115.899C163.528 115.839 163.654 115.736 163.742 115.604C163.831 115.472 163.878 115.317 163.878 115.158C163.878 114.945 163.793 114.741 163.643 114.59C163.492 114.44 163.288 114.355 163.075 114.355Z" fill="#263238" stroke="#263238" stroke-width="1.5" stroke-miterlimit="10"/>
<path d="M153.415 116.726C153.104 116.726 152.8 116.635 152.541 116.462C152.282 116.29 152.081 116.045 151.962 115.758C151.843 115.471 151.811 115.155 151.872 114.851C151.933 114.546 152.082 114.267 152.302 114.047C152.522 113.828 152.802 113.678 153.107 113.618C153.412 113.557 153.728 113.588 154.016 113.707C154.303 113.826 154.548 114.027 154.721 114.286C154.894 114.544 154.986 114.847 154.986 115.158C154.985 115.573 154.819 115.972 154.525 116.266C154.23 116.56 153.831 116.726 153.415 116.726ZM153.415 114.355C153.255 114.355 153.1 114.402 152.968 114.49C152.835 114.578 152.732 114.703 152.671 114.85C152.61 114.997 152.594 115.158 152.625 115.314C152.656 115.47 152.733 115.613 152.845 115.725C152.957 115.837 153.101 115.914 153.257 115.945C153.413 115.976 153.574 115.96 153.721 115.899C153.868 115.839 153.994 115.736 154.082 115.604C154.171 115.472 154.218 115.317 154.218 115.158C154.218 114.945 154.133 114.741 153.982 114.591C153.832 114.44 153.628 114.355 153.415 114.355Z" fill="#263238" stroke="#263238" stroke-width="1.5" stroke-miterlimit="10"/>
<path d="M143.754 116.726C143.443 116.726 143.139 116.635 142.881 116.462C142.622 116.29 142.421 116.045 142.301 115.758C142.182 115.471 142.151 115.155 142.212 114.851C142.272 114.546 142.422 114.267 142.642 114.047C142.862 113.828 143.142 113.678 143.447 113.618C143.752 113.557 144.068 113.588 144.356 113.707C144.643 113.826 144.888 114.027 145.061 114.286C145.234 114.544 145.326 114.847 145.326 115.158C145.325 115.573 145.159 115.972 144.865 116.266C144.57 116.56 144.171 116.726 143.754 116.726ZM143.754 114.355C143.595 114.355 143.44 114.402 143.307 114.49C143.175 114.578 143.072 114.703 143.011 114.85C142.95 114.997 142.934 115.158 142.965 115.314C142.996 115.47 143.072 115.613 143.185 115.725C143.297 115.837 143.44 115.914 143.596 115.945C143.752 115.976 143.914 115.96 144.061 115.899C144.208 115.839 144.334 115.736 144.422 115.604C144.511 115.472 144.558 115.317 144.558 115.158C144.558 114.945 144.473 114.741 144.322 114.59C144.172 114.44 143.967 114.355 143.754 114.355Z" fill="#263238" stroke="#263238" stroke-width="1.5" stroke-miterlimit="10"/>
</svg>
