<svg width="350" height="220" viewBox="0 0 350 220" fill="none" xmlns="http://www.w3.org/2000/svg">
<rect width="350" height="220" fill="#ECEFF1"/>
<path d="M131.602 73V60.4H133.366V73H131.602ZM136.163 73V64H137.765L137.873 65.656V73H136.163ZM142.391 73V68.392L144.101 67.852V73H142.391ZM142.391 68.392C142.391 67.576 142.295 66.958 142.103 66.538C141.923 66.106 141.665 65.806 141.329 65.638C141.005 65.47 140.627 65.38 140.195 65.368C139.463 65.368 138.893 65.626 138.485 66.142C138.077 66.658 137.873 67.384 137.873 68.32H137.135C137.135 67.372 137.273 66.562 137.549 65.89C137.825 65.206 138.221 64.684 138.737 64.324C139.265 63.964 139.895 63.784 140.627 63.784C141.707 63.784 142.553 64.12 143.165 64.792C143.789 65.452 144.101 66.472 144.101 67.852L142.391 68.392ZM146.09 68.392V66.898H151.49V68.392H146.09ZM158.188 73.216C157.516 73.216 156.904 73.138 156.352 72.982C155.812 72.826 155.338 72.616 154.93 72.352C154.534 72.076 154.204 71.77 153.94 71.434C153.676 71.098 153.49 70.744 153.382 70.372L155.092 69.814C155.272 70.306 155.614 70.732 156.118 71.092C156.622 71.452 157.24 71.638 157.972 71.65C158.86 71.65 159.556 71.476 160.06 71.128C160.576 70.768 160.834 70.294 160.834 69.706C160.834 69.166 160.612 68.728 160.168 68.392C159.724 68.044 159.136 67.78 158.404 67.6L156.946 67.222C156.37 67.066 155.842 66.844 155.362 66.556C154.894 66.268 154.522 65.902 154.246 65.458C153.97 65.014 153.832 64.48 153.832 63.856C153.832 62.704 154.204 61.804 154.948 61.156C155.704 60.508 156.79 60.184 158.206 60.184C159.022 60.184 159.73 60.316 160.33 60.58C160.93 60.832 161.422 61.168 161.806 61.588C162.202 62.008 162.484 62.47 162.652 62.974L160.942 63.55C160.738 63.01 160.39 62.578 159.898 62.254C159.406 61.918 158.8 61.75 158.08 61.75C157.324 61.75 156.724 61.93 156.28 62.29C155.848 62.65 155.632 63.142 155.632 63.766C155.632 64.294 155.8 64.702 156.136 64.99C156.484 65.266 156.946 65.476 157.522 65.62L158.98 65.98C160.156 66.268 161.062 66.748 161.698 67.42C162.346 68.08 162.67 68.806 162.67 69.598C162.67 70.282 162.496 70.9 162.148 71.452C161.812 71.992 161.308 72.424 160.636 72.748C159.976 73.06 159.16 73.216 158.188 73.216ZM168.381 73.216C167.481 73.216 166.785 72.988 166.293 72.532C165.801 72.064 165.555 71.398 165.555 70.534V61.192H167.265V70.282C167.265 70.726 167.373 71.068 167.589 71.308C167.817 71.536 168.141 71.65 168.561 71.65C168.681 71.65 168.813 71.626 168.957 71.578C169.101 71.53 169.275 71.434 169.479 71.29L170.127 72.622C169.815 72.826 169.515 72.976 169.227 73.072C168.951 73.168 168.669 73.216 168.381 73.216ZM164.025 65.476V64H169.821V65.476H164.025ZM175.898 73.216C175.01 73.216 174.218 73.018 173.522 72.622C172.838 72.214 172.298 71.656 171.902 70.948C171.518 70.24 171.326 69.424 171.326 68.5C171.326 67.576 171.518 66.76 171.902 66.052C172.286 65.344 172.82 64.792 173.504 64.396C174.2 63.988 174.986 63.784 175.862 63.784C176.762 63.784 177.554 63.988 178.238 64.396C178.922 64.792 179.456 65.344 179.84 66.052C180.236 66.76 180.434 67.576 180.434 68.5C180.434 69.424 180.236 70.24 179.84 70.948C179.456 71.656 178.922 72.214 178.238 72.622C177.566 73.018 176.786 73.216 175.898 73.216ZM175.898 71.596C176.438 71.596 176.912 71.464 177.32 71.2C177.728 70.936 178.046 70.576 178.274 70.12C178.514 69.652 178.634 69.112 178.634 68.5C178.634 67.9 178.514 67.366 178.274 66.898C178.046 66.43 177.722 66.064 177.302 65.8C176.882 65.536 176.402 65.404 175.862 65.404C175.334 65.404 174.86 65.536 174.44 65.8C174.032 66.064 173.708 66.43 173.468 66.898C173.24 67.354 173.126 67.888 173.126 68.5C173.126 69.1 173.24 69.634 173.468 70.102C173.708 70.57 174.038 70.936 174.458 71.2C174.878 71.464 175.358 71.596 175.898 71.596ZM183.42 68.158C183.42 67.186 183.606 66.394 183.978 65.782C184.35 65.17 184.83 64.714 185.418 64.414C186.006 64.114 186.624 63.964 187.272 63.964V65.584C186.732 65.584 186.216 65.668 185.724 65.836C185.244 65.992 184.848 66.256 184.536 66.628C184.236 66.988 184.086 67.48 184.086 68.104L183.42 68.158ZM182.375 73V64H184.086V73H182.375ZM192.701 73.216C191.825 73.216 191.051 73.018 190.379 72.622C189.707 72.214 189.179 71.656 188.795 70.948C188.411 70.24 188.219 69.424 188.219 68.5C188.219 67.576 188.411 66.76 188.795 66.052C189.179 65.344 189.707 64.792 190.379 64.396C191.063 63.988 191.843 63.784 192.719 63.784C193.535 63.784 194.255 63.994 194.879 64.414C195.515 64.822 196.007 65.41 196.355 66.178C196.715 66.934 196.895 67.828 196.895 68.86H195.185C195.185 68.092 195.089 67.444 194.897 66.916C194.705 66.388 194.417 65.992 194.033 65.728C193.661 65.452 193.205 65.314 192.665 65.314C192.125 65.314 191.651 65.446 191.243 65.71C190.847 65.962 190.535 66.328 190.307 66.808C190.091 67.276 189.983 67.852 189.983 68.536C189.983 69.172 190.109 69.724 190.361 70.192C190.613 70.648 190.949 71.008 191.369 71.272C191.801 71.524 192.287 71.65 192.827 71.65C193.415 71.65 193.901 71.512 194.285 71.236C194.681 70.96 194.993 70.606 195.221 70.174L196.751 70.876C196.499 71.344 196.181 71.758 195.797 72.118C195.425 72.466 194.975 72.736 194.447 72.928C193.931 73.12 193.349 73.216 192.701 73.216ZM189.335 68.86L189.353 67.456H195.941V68.86H189.335ZM131.602 95V82.4H133.366V95H131.602ZM133.078 95V93.38H139.216V95H133.078ZM133.078 89.348V87.764H138.604V89.348H133.078ZM133.078 84.02V82.4H139.18V84.02H133.078ZM140.743 95L144.433 89.834L147.007 86H149.041L145.567 90.914L142.813 95H140.743ZM147.205 95L144.487 90.914L140.977 86H143.011L145.603 89.834L149.257 95H147.205ZM150.649 98.6V86H152.251L152.359 87.656V98.6H150.649ZM155.311 95.216C154.555 95.216 153.895 95.018 153.331 94.622C152.779 94.226 152.353 93.674 152.053 92.966C151.753 92.258 151.603 91.436 151.603 90.5C151.603 89.552 151.753 88.73 152.053 88.034C152.353 87.326 152.779 86.774 153.331 86.378C153.895 85.982 154.555 85.784 155.311 85.784C156.115 85.784 156.823 85.982 157.435 86.378C158.047 86.774 158.521 87.326 158.857 88.034C159.205 88.73 159.379 89.552 159.379 90.5C159.379 91.436 159.205 92.258 158.857 92.966C158.521 93.674 158.047 94.226 157.435 94.622C156.823 95.018 156.115 95.216 155.311 95.216ZM154.897 93.668C155.437 93.668 155.911 93.536 156.319 93.272C156.727 92.996 157.045 92.624 157.273 92.156C157.513 91.676 157.633 91.124 157.633 90.5C157.633 89.876 157.519 89.33 157.291 88.862C157.063 88.382 156.745 88.01 156.337 87.746C155.929 87.47 155.455 87.332 154.915 87.332C154.423 87.332 153.979 87.47 153.583 87.746C153.199 88.01 152.899 88.382 152.683 88.862C152.467 89.342 152.359 89.888 152.359 90.5C152.359 91.124 152.467 91.676 152.683 92.156C152.899 92.624 153.199 92.996 153.583 93.272C153.967 93.536 154.405 93.668 154.897 93.668ZM165.297 95.216C164.421 95.216 163.647 95.018 162.975 94.622C162.303 94.214 161.775 93.656 161.391 92.948C161.007 92.24 160.815 91.424 160.815 90.5C160.815 89.576 161.007 88.76 161.391 88.052C161.775 87.344 162.303 86.792 162.975 86.396C163.659 85.988 164.439 85.784 165.315 85.784C166.131 85.784 166.851 85.994 167.475 86.414C168.111 86.822 168.603 87.41 168.951 88.178C169.311 88.934 169.491 89.828 169.491 90.86H167.781C167.781 90.092 167.685 89.444 167.493 88.916C167.301 88.388 167.013 87.992 166.629 87.728C166.257 87.452 165.801 87.314 165.261 87.314C164.721 87.314 164.247 87.446 163.839 87.71C163.443 87.962 163.131 88.328 162.903 88.808C162.687 89.276 162.579 89.852 162.579 90.536C162.579 91.172 162.705 91.724 162.957 92.192C163.209 92.648 163.545 93.008 163.965 93.272C164.397 93.524 164.883 93.65 165.423 93.65C166.011 93.65 166.497 93.512 166.881 93.236C167.277 92.96 167.589 92.606 167.817 92.174L169.347 92.876C169.095 93.344 168.777 93.758 168.393 94.118C168.021 94.466 167.571 94.736 167.043 94.928C166.527 95.12 165.945 95.216 165.297 95.216ZM161.931 90.86L161.949 89.456H168.537V90.86H161.931ZM172.293 90.158C172.293 89.186 172.479 88.394 172.851 87.782C173.223 87.17 173.703 86.714 174.291 86.414C174.879 86.114 175.497 85.964 176.145 85.964V87.584C175.605 87.584 175.089 87.668 174.597 87.836C174.117 87.992 173.721 88.256 173.409 88.628C173.109 88.988 172.959 89.48 172.959 90.104L172.293 90.158ZM171.249 95V86H172.959V95H171.249ZM177.632 95L177.668 86H179.36L179.342 95H177.632ZM178.496 84.092C178.22 84.092 177.98 83.99 177.776 83.786C177.572 83.57 177.47 83.324 177.47 83.048C177.47 82.76 177.572 82.52 177.776 82.328C177.98 82.124 178.22 82.022 178.496 82.022C178.784 82.022 179.024 82.124 179.216 82.328C179.42 82.52 179.522 82.76 179.522 83.048C179.522 83.324 179.42 83.57 179.216 83.786C179.024 83.99 178.784 84.092 178.496 84.092ZM185.898 95.216C185.022 95.216 184.248 95.018 183.576 94.622C182.904 94.214 182.376 93.656 181.992 92.948C181.608 92.24 181.416 91.424 181.416 90.5C181.416 89.576 181.608 88.76 181.992 88.052C182.376 87.344 182.904 86.792 183.576 86.396C184.26 85.988 185.04 85.784 185.916 85.784C186.732 85.784 187.452 85.994 188.076 86.414C188.712 86.822 189.204 87.41 189.552 88.178C189.912 88.934 190.092 89.828 190.092 90.86H188.382C188.382 90.092 188.286 89.444 188.094 88.916C187.902 88.388 187.614 87.992 187.23 87.728C186.858 87.452 186.402 87.314 185.862 87.314C185.322 87.314 184.848 87.446 184.44 87.71C184.044 87.962 183.732 88.328 183.504 88.808C183.288 89.276 183.18 89.852 183.18 90.536C183.18 91.172 183.306 91.724 183.558 92.192C183.81 92.648 184.146 93.008 184.566 93.272C184.998 93.524 185.484 93.65 186.024 93.65C186.612 93.65 187.098 93.512 187.482 93.236C187.878 92.96 188.19 92.606 188.418 92.174L189.948 92.876C189.696 93.344 189.378 93.758 188.994 94.118C188.622 94.466 188.172 94.736 187.644 94.928C187.128 95.12 186.546 95.216 185.898 95.216ZM182.532 90.86L182.55 89.456H189.138V90.86H182.532ZM191.85 95V86H193.452L193.56 87.656V95H191.85ZM198.078 95V90.392L199.788 89.852V95H198.078ZM198.078 90.392C198.078 89.576 197.982 88.958 197.79 88.538C197.61 88.106 197.352 87.806 197.016 87.638C196.692 87.47 196.314 87.38 195.882 87.368C195.15 87.368 194.58 87.626 194.172 88.142C193.764 88.658 193.56 89.384 193.56 90.32H192.822C192.822 89.372 192.96 88.562 193.236 87.89C193.512 87.206 193.908 86.684 194.424 86.324C194.952 85.964 195.582 85.784 196.314 85.784C197.394 85.784 198.24 86.12 198.852 86.792C199.476 87.452 199.788 88.472 199.788 89.852L198.078 90.392ZM206.044 95.216C205.144 95.216 204.346 95.018 203.65 94.622C202.954 94.214 202.408 93.656 202.012 92.948C201.628 92.24 201.436 91.424 201.436 90.5C201.436 89.576 201.628 88.76 202.012 88.052C202.408 87.344 202.948 86.792 203.632 86.396C204.328 85.988 205.12 85.784 206.008 85.784C206.884 85.784 207.67 85.988 208.366 86.396C209.074 86.804 209.602 87.386 209.95 88.142L208.402 88.79C208.174 88.346 207.844 87.998 207.412 87.746C206.992 87.494 206.506 87.368 205.954 87.368C205.414 87.368 204.934 87.5 204.514 87.764C204.094 88.028 203.764 88.4 203.524 88.88C203.284 89.348 203.164 89.888 203.164 90.5C203.164 91.112 203.284 91.652 203.524 92.12C203.764 92.588 204.1 92.96 204.532 93.236C204.964 93.5 205.45 93.632 205.99 93.632C206.542 93.632 207.034 93.494 207.466 93.218C207.898 92.93 208.222 92.546 208.438 92.066L210.004 92.696C209.656 93.488 209.128 94.106 208.42 94.55C207.724 94.994 206.932 95.216 206.044 95.216ZM215.746 95.216C214.87 95.216 214.096 95.018 213.424 94.622C212.752 94.214 212.224 93.656 211.84 92.948C211.456 92.24 211.264 91.424 211.264 90.5C211.264 89.576 211.456 88.76 211.84 88.052C212.224 87.344 212.752 86.792 213.424 86.396C214.108 85.988 214.888 85.784 215.764 85.784C216.58 85.784 217.3 85.994 217.924 86.414C218.56 86.822 219.052 87.41 219.4 88.178C219.76 88.934 219.94 89.828 219.94 90.86H218.23C218.23 90.092 218.134 89.444 217.942 88.916C217.75 88.388 217.462 87.992 217.078 87.728C216.706 87.452 216.25 87.314 215.71 87.314C215.17 87.314 214.696 87.446 214.288 87.71C213.892 87.962 213.58 88.328 213.352 88.808C213.136 89.276 213.028 89.852 213.028 90.536C213.028 91.172 213.154 91.724 213.406 92.192C213.658 92.648 213.994 93.008 214.414 93.272C214.846 93.524 215.332 93.65 215.872 93.65C216.46 93.65 216.946 93.512 217.33 93.236C217.726 92.96 218.038 92.606 218.266 92.174L219.796 92.876C219.544 93.344 219.226 93.758 218.842 94.118C218.47 94.466 218.02 94.736 217.492 94.928C216.976 95.12 216.394 95.216 215.746 95.216ZM212.38 90.86L212.398 89.456H218.986V90.86H212.38Z" fill="#263238"/>
<path d="M30.755 150.18C30.175 150.18 29.66 150.12 29.21 150C28.76 149.87 28.37 149.695 28.04 149.475C27.71 149.245 27.44 148.995 27.23 148.725C27.02 148.445 26.865 148.15 26.765 147.84L27.98 147.42C28.13 147.86 28.43 148.245 28.88 148.575C29.34 148.895 29.9 149.055 30.56 149.055C31.37 149.055 32.005 148.895 32.465 148.575C32.925 148.255 33.155 147.83 33.155 147.3C33.155 146.81 32.95 146.415 32.54 146.115C32.13 145.805 31.59 145.565 30.92 145.395L29.765 145.095C29.295 144.975 28.86 144.8 28.46 144.57C28.07 144.33 27.755 144.03 27.515 143.67C27.285 143.3 27.17 142.86 27.17 142.35C27.17 141.4 27.475 140.66 28.085 140.13C28.705 139.59 29.595 139.32 30.755 139.32C31.445 139.32 32.04 139.435 32.54 139.665C33.04 139.885 33.445 140.17 33.755 140.52C34.075 140.86 34.3 141.23 34.43 141.63L33.23 142.05C33.04 141.55 32.72 141.16 32.27 140.88C31.82 140.59 31.275 140.445 30.635 140.445C29.965 140.445 29.43 140.61 29.03 140.94C28.64 141.26 28.445 141.7 28.445 142.26C28.445 142.74 28.6 143.11 28.91 143.37C29.22 143.62 29.625 143.805 30.125 143.925L31.28 144.21C32.3 144.45 33.08 144.85 33.62 145.41C34.17 145.96 34.445 146.555 34.445 147.195C34.445 147.745 34.305 148.25 34.025 148.71C33.745 149.16 33.33 149.52 32.78 149.79C32.24 150.05 31.565 150.18 30.755 150.18ZM36.2639 150V139.305H37.4639V150H36.2639ZM41.5439 150V146.16L42.7439 145.71V150H41.5439ZM41.5439 146.16C41.5439 145.42 41.4539 144.855 41.2739 144.465C41.1039 144.075 40.8689 143.81 40.5689 143.67C40.2689 143.52 39.9289 143.445 39.5489 143.445C38.8889 143.445 38.3739 143.68 38.0039 144.15C37.6439 144.61 37.4639 145.265 37.4639 146.115H36.8789C36.8789 145.325 36.9939 144.645 37.2239 144.075C37.4539 143.505 37.7889 143.07 38.2289 142.77C38.6689 142.47 39.1989 142.32 39.8189 142.32C40.7189 142.32 41.4339 142.6 41.9639 143.16C42.4939 143.72 42.7539 144.57 42.7439 145.71L41.5439 146.16ZM47.9881 150.18C47.2581 150.18 46.6081 150.015 46.0381 149.685C45.4681 149.345 45.0231 148.88 44.7031 148.29C44.3831 147.7 44.2231 147.02 44.2231 146.25C44.2231 145.48 44.3781 144.8 44.6881 144.21C45.0081 143.62 45.4531 143.16 46.0231 142.83C46.5931 142.49 47.2381 142.32 47.9581 142.32C48.6981 142.32 49.3481 142.49 49.9081 142.83C50.4781 143.16 50.9181 143.62 51.2281 144.21C51.5481 144.8 51.7081 145.48 51.7081 146.25C51.7081 147.02 51.5481 147.7 51.2281 148.29C50.9181 148.88 50.4831 149.345 49.9231 149.685C49.3631 150.015 48.7181 150.18 47.9881 150.18ZM47.9881 149.04C48.4781 149.04 48.9081 148.925 49.2781 148.695C49.6481 148.455 49.9381 148.125 50.1481 147.705C50.3581 147.285 50.4631 146.8 50.4631 146.25C50.4631 145.7 50.3531 145.215 50.1331 144.795C49.9231 144.375 49.6281 144.05 49.2481 143.82C48.8781 143.58 48.4481 143.46 47.9581 143.46C47.4681 143.46 47.0381 143.58 46.6681 143.82C46.2981 144.05 46.0031 144.375 45.7831 144.795C45.5731 145.215 45.4681 145.7 45.4681 146.25C45.4681 146.8 45.5731 147.285 45.7831 147.705C46.0031 148.125 46.3031 148.455 46.6831 148.695C47.0631 148.925 47.4981 149.04 47.9881 149.04ZM53.4775 153V142.5H54.6025L54.6775 143.88V153H53.4775ZM57.2125 150.18C56.5825 150.18 56.0275 150.015 55.5475 149.685C55.0775 149.355 54.7125 148.895 54.4525 148.305C54.1925 147.705 54.0625 147.02 54.0625 146.25C54.0625 145.47 54.1925 144.785 54.4525 144.195C54.7125 143.605 55.0775 143.145 55.5475 142.815C56.0275 142.485 56.5825 142.32 57.2125 142.32C57.8825 142.32 58.4725 142.485 58.9825 142.815C59.4925 143.145 59.8875 143.605 60.1675 144.195C60.4575 144.785 60.6025 145.47 60.6025 146.25C60.6025 147.02 60.4575 147.705 60.1675 148.305C59.8875 148.895 59.4925 149.355 58.9825 149.685C58.4725 150.015 57.8825 150.18 57.2125 150.18ZM56.9425 149.085C57.4125 149.085 57.8275 148.965 58.1875 148.725C58.5575 148.485 58.8475 148.15 59.0575 147.72C59.2775 147.29 59.3875 146.8 59.3875 146.25C59.3875 145.7 59.2825 145.21 59.0725 144.78C58.8725 144.35 58.5875 144.015 58.2175 143.775C57.8475 143.535 57.4275 143.415 56.9575 143.415C56.5175 143.415 56.1225 143.535 55.7725 143.775C55.4325 144.015 55.1625 144.35 54.9625 144.78C54.7725 145.21 54.6775 145.7 54.6775 146.25C54.6775 146.8 54.7725 147.29 54.9625 147.72C55.1625 148.15 55.4325 148.485 55.7725 148.725C56.1125 148.965 56.5025 149.085 56.9425 149.085ZM70.6659 150L70.5459 146.04C70.5259 145.45 70.4509 144.965 70.3209 144.585C70.1909 144.195 69.9909 143.905 69.7209 143.715C69.4509 143.515 69.0909 143.415 68.6409 143.415C68.2109 143.415 67.8359 143.5 67.5159 143.67C67.2059 143.84 66.9509 144.105 66.7509 144.465L65.6859 144.03C65.8759 143.68 66.1109 143.38 66.3909 143.13C66.6709 142.87 67.0009 142.67 67.3809 142.53C67.7609 142.39 68.1859 142.32 68.6559 142.32C69.3459 142.32 69.9209 142.455 70.3809 142.725C70.8409 142.995 71.1809 143.4 71.4009 143.94C71.6309 144.47 71.7459 145.135 71.7459 145.935V150H70.6659ZM68.3859 150.18C67.4959 150.18 66.8009 149.98 66.3009 149.58C65.8109 149.17 65.5659 148.605 65.5659 147.885C65.5659 147.125 65.8159 146.545 66.3159 146.145C66.8259 145.735 67.5359 145.53 68.4459 145.53H71.0859V146.535H68.7159C68.0159 146.535 67.5159 146.65 67.2159 146.88C66.9259 147.11 66.7809 147.44 66.7809 147.87C66.7809 148.26 66.9259 148.57 67.2159 148.8C67.5059 149.02 67.9109 149.13 68.4309 149.13C68.8709 149.13 69.2509 149.03 69.5709 148.83C69.8909 148.63 70.1359 148.36 70.3059 148.02C70.4759 147.67 70.5609 147.275 70.5609 146.835H71.2959C71.2959 147.855 71.0459 148.67 70.5459 149.28C70.0459 149.88 69.3259 150.18 68.3859 150.18ZM76.6167 150.18C75.8867 150.18 75.3217 149.99 74.9217 149.61C74.5217 149.23 74.3217 148.695 74.3217 148.005V140.16H75.5217V147.885C75.5217 148.265 75.6217 148.56 75.8217 148.77C76.0317 148.97 76.3217 149.07 76.6917 149.07C76.8117 149.07 76.9267 149.055 77.0367 149.025C77.1567 148.985 77.3117 148.895 77.5017 148.755L77.9667 149.73C77.7067 149.9 77.4717 150.015 77.2617 150.075C77.0517 150.145 76.8367 150.18 76.6167 150.18ZM73.0167 143.565V142.5H77.7717V143.565H73.0167ZM86.4842 150.18C85.7542 150.18 85.1042 150.015 84.5342 149.685C83.9642 149.345 83.5192 148.88 83.1992 148.29C82.8792 147.7 82.7192 147.02 82.7192 146.25C82.7192 145.48 82.8742 144.8 83.1842 144.21C83.5042 143.62 83.9492 143.16 84.5192 142.83C85.0892 142.49 85.7342 142.32 86.4542 142.32C87.1942 142.32 87.8442 142.49 88.4042 142.83C88.9742 143.16 89.4142 143.62 89.7242 144.21C90.0442 144.8 90.2042 145.48 90.2042 146.25C90.2042 147.02 90.0442 147.7 89.7242 148.29C89.4142 148.88 88.9792 149.345 88.4192 149.685C87.8592 150.015 87.2142 150.18 86.4842 150.18ZM86.4842 149.04C86.9742 149.04 87.4042 148.925 87.7742 148.695C88.1442 148.455 88.4342 148.125 88.6442 147.705C88.8542 147.285 88.9592 146.8 88.9592 146.25C88.9592 145.7 88.8492 145.215 88.6292 144.795C88.4192 144.375 88.1242 144.05 87.7442 143.82C87.3742 143.58 86.9442 143.46 86.4542 143.46C85.9642 143.46 85.5342 143.58 85.1642 143.82C84.7942 144.05 84.4992 144.375 84.2792 144.795C84.0692 145.215 83.9642 145.7 83.9642 146.25C83.9642 146.8 84.0692 147.285 84.2792 147.705C84.4992 148.125 84.7992 148.455 85.1792 148.695C85.5592 148.925 85.9942 149.04 86.4842 149.04ZM97.0436 150L96.9686 148.62V142.5H98.1686V150H97.0436ZM91.7036 146.79V142.5H92.9036V146.34L91.7036 146.79ZM92.9036 146.34C92.9036 147.08 92.9886 147.645 93.1586 148.035C93.3286 148.425 93.5636 148.695 93.8636 148.845C94.1736 148.985 94.5186 149.055 94.8986 149.055C95.5486 149.055 96.0536 148.82 96.4136 148.35C96.7836 147.88 96.9686 147.225 96.9686 146.385H97.5536C97.5536 147.175 97.4386 147.855 97.2086 148.425C96.9786 148.995 96.6436 149.43 96.2036 149.73C95.7736 150.03 95.2486 150.18 94.6286 150.18C93.7186 150.18 92.9986 149.9 92.4686 149.34C91.9486 148.78 91.6936 147.93 91.7036 146.79L92.9036 146.34ZM100.923 145.935C100.923 145.125 101.078 144.47 101.388 143.97C101.698 143.46 102.093 143.085 102.573 142.845C103.063 142.595 103.578 142.47 104.118 142.47V143.595C103.678 143.595 103.253 143.67 102.843 143.82C102.443 143.96 102.113 144.195 101.853 144.525C101.593 144.855 101.463 145.305 101.463 145.875L100.923 145.935ZM100.263 150V142.5H101.463V150H100.263ZM111.662 150.18C111.112 150.18 110.632 150.1 110.222 149.94C109.812 149.77 109.467 149.55 109.187 149.28C108.917 149.01 108.722 148.715 108.602 148.395L109.652 147.96C109.822 148.29 110.077 148.56 110.417 148.77C110.757 148.98 111.132 149.085 111.542 149.085C112.012 149.085 112.402 148.995 112.712 148.815C113.032 148.625 113.192 148.365 113.192 148.035C113.192 147.725 113.072 147.475 112.832 147.285C112.602 147.095 112.262 146.94 111.812 146.82L111.092 146.625C110.412 146.445 109.882 146.175 109.502 145.815C109.122 145.445 108.932 145.03 108.932 144.57C108.932 143.86 109.162 143.31 109.622 142.92C110.092 142.52 110.787 142.32 111.707 142.32C112.147 142.32 112.547 142.385 112.907 142.515C113.267 142.645 113.577 142.83 113.837 143.07C114.097 143.3 114.287 143.575 114.407 143.895L113.357 144.36C113.227 144.02 113.012 143.78 112.712 143.64C112.412 143.49 112.047 143.415 111.617 143.415C111.157 143.415 110.797 143.51 110.537 143.7C110.277 143.89 110.147 144.16 110.147 144.51C110.147 144.71 110.252 144.9 110.462 145.08C110.682 145.25 111.002 145.39 111.422 145.5L112.172 145.695C112.662 145.815 113.072 145.995 113.402 146.235C113.732 146.465 113.982 146.73 114.152 147.03C114.322 147.33 114.407 147.65 114.407 147.99C114.407 148.44 114.287 148.83 114.047 149.16C113.807 149.49 113.482 149.745 113.072 149.925C112.662 150.095 112.192 150.18 111.662 150.18ZM116.025 150V139.305H117.225V150H116.025ZM121.305 150V146.16L122.505 145.71V150H121.305ZM121.305 146.16C121.305 145.42 121.215 144.855 121.035 144.465C120.865 144.075 120.63 143.81 120.33 143.67C120.03 143.52 119.69 143.445 119.31 143.445C118.65 143.445 118.135 143.68 117.765 144.15C117.405 144.61 117.225 145.265 117.225 146.115H116.64C116.64 145.325 116.755 144.645 116.985 144.075C117.215 143.505 117.55 143.07 117.99 142.77C118.43 142.47 118.96 142.32 119.58 142.32C120.48 142.32 121.195 142.6 121.725 143.16C122.255 143.72 122.515 144.57 122.505 145.71L121.305 146.16ZM127.749 150.18C127.019 150.18 126.369 150.015 125.799 149.685C125.229 149.345 124.784 148.88 124.464 148.29C124.144 147.7 123.984 147.02 123.984 146.25C123.984 145.48 124.139 144.8 124.449 144.21C124.769 143.62 125.214 143.16 125.784 142.83C126.354 142.49 126.999 142.32 127.719 142.32C128.459 142.32 129.109 142.49 129.669 142.83C130.239 143.16 130.679 143.62 130.989 144.21C131.309 144.8 131.469 145.48 131.469 146.25C131.469 147.02 131.309 147.7 130.989 148.29C130.679 148.88 130.244 149.345 129.684 149.685C129.124 150.015 128.479 150.18 127.749 150.18ZM127.749 149.04C128.239 149.04 128.669 148.925 129.039 148.695C129.409 148.455 129.699 148.125 129.909 147.705C130.119 147.285 130.224 146.8 130.224 146.25C130.224 145.7 130.114 145.215 129.894 144.795C129.684 144.375 129.389 144.05 129.009 143.82C128.639 143.58 128.209 143.46 127.719 143.46C127.229 143.46 126.799 143.58 126.429 143.82C126.059 144.05 125.764 144.375 125.544 144.795C125.334 145.215 125.229 145.7 125.229 146.25C125.229 146.8 125.334 147.285 125.544 147.705C125.764 148.125 126.064 148.455 126.444 148.695C126.824 148.925 127.259 149.04 127.749 149.04ZM139.783 150L142.318 142.5H143.533L140.983 150H139.783ZM134.683 150L137.218 142.5H138.343L135.838 150H134.683ZM134.623 150L132.073 142.5H133.288L135.793 150H134.623ZM139.783 150L137.278 142.5H138.418L140.923 150H139.783ZM145.396 145.935C145.396 145.125 145.551 144.47 145.861 143.97C146.171 143.46 146.566 143.085 147.046 142.845C147.536 142.595 148.051 142.47 148.591 142.47V143.595C148.151 143.595 147.726 143.67 147.316 143.82C146.916 143.96 146.586 144.195 146.326 144.525C146.066 144.855 145.936 145.305 145.936 145.875L145.396 145.935ZM144.736 150V142.5H145.936V150H144.736ZM153.164 150.18C152.434 150.18 151.784 150.015 151.214 149.685C150.644 149.345 150.199 148.88 149.879 148.29C149.559 147.7 149.399 147.02 149.399 146.25C149.399 145.48 149.554 144.8 149.864 144.21C150.184 143.62 150.629 143.16 151.199 142.83C151.769 142.49 152.414 142.32 153.134 142.32C153.874 142.32 154.524 142.49 155.084 142.83C155.654 143.16 156.094 143.62 156.404 144.21C156.724 144.8 156.884 145.48 156.884 146.25C156.884 147.02 156.724 147.7 156.404 148.29C156.094 148.88 155.659 149.345 155.099 149.685C154.539 150.015 153.894 150.18 153.164 150.18ZM153.164 149.04C153.654 149.04 154.084 148.925 154.454 148.695C154.824 148.455 155.114 148.125 155.324 147.705C155.534 147.285 155.639 146.8 155.639 146.25C155.639 145.7 155.529 145.215 155.309 144.795C155.099 144.375 154.804 144.05 154.424 143.82C154.054 143.58 153.624 143.46 153.134 143.46C152.644 143.46 152.214 143.58 151.844 143.82C151.474 144.05 151.179 144.375 150.959 144.795C150.749 145.215 150.644 145.7 150.644 146.25C150.644 146.8 150.749 147.285 150.959 147.705C151.179 148.125 151.479 148.455 151.859 148.695C152.239 148.925 152.674 149.04 153.164 149.04ZM161.938 150.18C161.208 150.18 160.558 150.015 159.988 149.685C159.418 149.345 158.973 148.88 158.653 148.29C158.333 147.7 158.173 147.02 158.173 146.25C158.173 145.48 158.328 144.8 158.638 144.21C158.958 143.62 159.403 143.16 159.973 142.83C160.543 142.49 161.188 142.32 161.908 142.32C162.648 142.32 163.298 142.49 163.858 142.83C164.428 143.16 164.868 143.62 165.178 144.21C165.498 144.8 165.658 145.48 165.658 146.25C165.658 147.02 165.498 147.7 165.178 148.29C164.868 148.88 164.433 149.345 163.873 149.685C163.313 150.015 162.668 150.18 161.938 150.18ZM161.938 149.04C162.428 149.04 162.858 148.925 163.228 148.695C163.598 148.455 163.888 148.125 164.098 147.705C164.308 147.285 164.413 146.8 164.413 146.25C164.413 145.7 164.303 145.215 164.083 144.795C163.873 144.375 163.578 144.05 163.198 143.82C162.828 143.58 162.398 143.46 161.908 143.46C161.418 143.46 160.988 143.58 160.618 143.82C160.248 144.05 159.953 144.375 159.733 144.795C159.523 145.215 159.418 145.7 159.418 146.25C159.418 146.8 159.523 147.285 159.733 147.705C159.953 148.125 160.253 148.455 160.633 148.695C161.013 148.925 161.448 149.04 161.938 149.04ZM167.353 150V142.5H168.478L168.553 143.88V150H167.353ZM172.618 150V146.16L173.818 145.71V150H172.618ZM177.898 150V146.16L179.098 145.71V150H177.898ZM172.618 146.16C172.618 145.42 172.533 144.855 172.363 144.465C172.193 144.075 171.958 143.81 171.658 143.67C171.358 143.52 171.018 143.445 170.638 143.445C169.978 143.445 169.463 143.68 169.093 144.15C168.733 144.61 168.553 145.265 168.553 146.115H167.968C167.968 145.325 168.083 144.645 168.313 144.075C168.543 143.505 168.873 143.07 169.303 142.77C169.743 142.47 170.273 142.32 170.893 142.32C171.803 142.32 172.518 142.6 173.038 143.16C173.568 143.72 173.828 144.57 173.818 145.71L172.618 146.16ZM177.898 146.16C177.898 145.42 177.808 144.855 177.628 144.465C177.458 144.075 177.223 143.81 176.923 143.67C176.623 143.52 176.283 143.445 175.903 143.445C175.243 143.445 174.728 143.68 174.358 144.15C173.998 144.61 173.818 145.265 173.818 146.115H173.233C173.233 145.325 173.348 144.645 173.578 144.075C173.808 143.505 174.143 143.07 174.583 142.77C175.023 142.47 175.553 142.32 176.173 142.32C177.073 142.32 177.783 142.6 178.303 143.16C178.833 143.72 179.098 144.57 179.098 145.71L177.898 146.16ZM185.446 150V141.645C185.446 140.865 185.626 140.28 185.986 139.89C186.356 139.49 186.916 139.29 187.666 139.29C187.866 139.29 188.091 139.325 188.341 139.395C188.591 139.465 188.856 139.565 189.136 139.695L188.686 140.64C188.456 140.55 188.261 140.48 188.101 140.43C187.941 140.38 187.806 140.355 187.696 140.355C187.346 140.355 187.081 140.47 186.901 140.7C186.731 140.92 186.646 141.265 186.646 141.735V150H185.446ZM184.066 143.535V142.5H188.821V143.535H184.066ZM193.594 150.18C192.864 150.18 192.214 150.015 191.644 149.685C191.074 149.345 190.629 148.88 190.309 148.29C189.989 147.7 189.829 147.02 189.829 146.25C189.829 145.48 189.984 144.8 190.294 144.21C190.614 143.62 191.059 143.16 191.629 142.83C192.199 142.49 192.844 142.32 193.564 142.32C194.304 142.32 194.954 142.49 195.514 142.83C196.084 143.16 196.524 143.62 196.834 144.21C197.154 144.8 197.314 145.48 197.314 146.25C197.314 147.02 197.154 147.7 196.834 148.29C196.524 148.88 196.089 149.345 195.529 149.685C194.969 150.015 194.324 150.18 193.594 150.18ZM193.594 149.04C194.084 149.04 194.514 148.925 194.884 148.695C195.254 148.455 195.544 148.125 195.754 147.705C195.964 147.285 196.069 146.8 196.069 146.25C196.069 145.7 195.959 145.215 195.739 144.795C195.529 144.375 195.234 144.05 194.854 143.82C194.484 143.58 194.054 143.46 193.564 143.46C193.074 143.46 192.644 143.58 192.274 143.82C191.904 144.05 191.609 144.375 191.389 144.795C191.179 145.215 191.074 145.7 191.074 146.25C191.074 146.8 191.179 147.285 191.389 147.705C191.609 148.125 191.909 148.455 192.289 148.695C192.669 148.925 193.104 149.04 193.594 149.04ZM199.668 145.935C199.668 145.125 199.823 144.47 200.133 143.97C200.443 143.46 200.838 143.085 201.318 142.845C201.808 142.595 202.323 142.47 202.863 142.47V143.595C202.423 143.595 201.998 143.67 201.588 143.82C201.188 143.96 200.858 144.195 200.598 144.525C200.338 144.855 200.208 145.305 200.208 145.875L199.668 145.935ZM199.008 150V142.5H200.208V150H199.008ZM210.752 150.18C210.022 150.18 209.457 149.99 209.057 149.61C208.657 149.23 208.457 148.695 208.457 148.005V140.16H209.657V147.885C209.657 148.265 209.757 148.56 209.957 148.77C210.167 148.97 210.457 149.07 210.827 149.07C210.947 149.07 211.062 149.055 211.172 149.025C211.292 148.985 211.447 148.895 211.637 148.755L212.102 149.73C211.842 149.9 211.607 150.015 211.397 150.075C211.187 150.145 210.972 150.18 210.752 150.18ZM207.152 143.565V142.5H211.907V143.565H207.152ZM213.554 150V139.305H214.754V150H213.554ZM218.834 150V146.16L220.034 145.71V150H218.834ZM218.834 146.16C218.834 145.42 218.744 144.855 218.564 144.465C218.394 144.075 218.159 143.81 217.859 143.67C217.559 143.52 217.219 143.445 216.839 143.445C216.179 143.445 215.664 143.68 215.294 144.15C214.934 144.61 214.754 145.265 214.754 146.115H214.169C214.169 145.325 214.284 144.645 214.514 144.075C214.744 143.505 215.079 143.07 215.519 142.77C215.959 142.47 216.489 142.32 217.109 142.32C218.009 142.32 218.724 142.6 219.254 143.16C219.784 143.72 220.044 144.57 220.034 145.71L218.834 146.16ZM225.233 150.18C224.503 150.18 223.858 150.015 223.298 149.685C222.748 149.345 222.313 148.88 221.993 148.29C221.673 147.7 221.513 147.02 221.513 146.25C221.513 145.48 221.668 144.8 221.978 144.21C222.298 143.62 222.738 143.16 223.298 142.83C223.858 142.49 224.493 142.32 225.203 142.32C225.903 142.32 226.508 142.495 227.018 142.845C227.528 143.185 227.923 143.665 228.203 144.285C228.483 144.905 228.623 145.635 228.623 146.475H227.423C227.423 145.835 227.338 145.29 227.168 144.84C226.998 144.38 226.748 144.025 226.418 143.775C226.088 143.525 225.678 143.4 225.188 143.4C224.698 143.4 224.268 143.52 223.898 143.76C223.538 143.99 223.258 144.32 223.058 144.75C222.858 145.18 222.758 145.685 222.758 146.265C222.758 146.835 222.868 147.33 223.088 147.75C223.308 148.16 223.608 148.485 223.988 148.725C224.368 148.955 224.803 149.07 225.293 149.07C225.823 149.07 226.268 148.945 226.628 148.695C226.988 148.445 227.268 148.12 227.468 147.72L228.533 148.245C228.333 148.635 228.073 148.975 227.753 149.265C227.443 149.555 227.078 149.78 226.658 149.94C226.238 150.1 225.763 150.18 225.233 150.18ZM222.323 146.475V145.44H227.888V146.475H222.323ZM233.886 150V142.5H235.011L235.086 143.88V150H233.886ZM239.151 150V146.16L240.351 145.71V150H239.151ZM244.431 150V146.16L245.631 145.71V150H244.431ZM239.151 146.16C239.151 145.42 239.066 144.855 238.896 144.465C238.726 144.075 238.491 143.81 238.191 143.67C237.891 143.52 237.551 143.445 237.171 143.445C236.511 143.445 235.996 143.68 235.626 144.15C235.266 144.61 235.086 145.265 235.086 146.115H234.501C234.501 145.325 234.616 144.645 234.846 144.075C235.076 143.505 235.406 143.07 235.836 142.77C236.276 142.47 236.806 142.32 237.426 142.32C238.336 142.32 239.051 142.6 239.571 143.16C240.101 143.72 240.361 144.57 240.351 145.71L239.151 146.16ZM244.431 146.16C244.431 145.42 244.341 144.855 244.161 144.465C243.991 144.075 243.756 143.81 243.456 143.67C243.156 143.52 242.816 143.445 242.436 143.445C241.776 143.445 241.261 143.68 240.891 144.15C240.531 144.61 240.351 145.265 240.351 146.115H239.766C239.766 145.325 239.881 144.645 240.111 144.075C240.341 143.505 240.676 143.07 241.116 142.77C241.556 142.47 242.086 142.32 242.706 142.32C243.606 142.32 244.316 142.6 244.836 143.16C245.366 143.72 245.631 144.57 245.631 145.71L244.431 146.16ZM250.884 150.18C250.154 150.18 249.504 150.015 248.934 149.685C248.364 149.345 247.919 148.88 247.599 148.29C247.279 147.7 247.119 147.02 247.119 146.25C247.119 145.48 247.274 144.8 247.584 144.21C247.904 143.62 248.349 143.16 248.919 142.83C249.489 142.49 250.134 142.32 250.854 142.32C251.594 142.32 252.244 142.49 252.804 142.83C253.374 143.16 253.814 143.62 254.124 144.21C254.444 144.8 254.604 145.48 254.604 146.25C254.604 147.02 254.444 147.7 254.124 148.29C253.814 148.88 253.379 149.345 252.819 149.685C252.259 150.015 251.614 150.18 250.884 150.18ZM250.884 149.04C251.374 149.04 251.804 148.925 252.174 148.695C252.544 148.455 252.834 148.125 253.044 147.705C253.254 147.285 253.359 146.8 253.359 146.25C253.359 145.7 253.249 145.215 253.029 144.795C252.819 144.375 252.524 144.05 252.144 143.82C251.774 143.58 251.344 143.46 250.854 143.46C250.364 143.46 249.934 143.58 249.564 143.82C249.194 144.05 248.899 144.375 248.679 144.795C248.469 145.215 248.364 145.7 248.364 146.25C248.364 146.8 248.469 147.285 248.679 147.705C248.899 148.125 249.199 148.455 249.579 148.695C249.959 148.925 250.394 149.04 250.884 149.04ZM258.923 150.18C258.373 150.18 257.893 150.1 257.483 149.94C257.073 149.77 256.728 149.55 256.448 149.28C256.178 149.01 255.983 148.715 255.863 148.395L256.913 147.96C257.083 148.29 257.338 148.56 257.678 148.77C258.018 148.98 258.393 149.085 258.803 149.085C259.273 149.085 259.663 148.995 259.973 148.815C260.293 148.625 260.453 148.365 260.453 148.035C260.453 147.725 260.333 147.475 260.093 147.285C259.863 147.095 259.523 146.94 259.073 146.82L258.353 146.625C257.673 146.445 257.143 146.175 256.763 145.815C256.383 145.445 256.193 145.03 256.193 144.57C256.193 143.86 256.423 143.31 256.883 142.92C257.353 142.52 258.048 142.32 258.968 142.32C259.408 142.32 259.808 142.385 260.168 142.515C260.528 142.645 260.838 142.83 261.098 143.07C261.358 143.3 261.548 143.575 261.668 143.895L260.618 144.36C260.488 144.02 260.273 143.78 259.973 143.64C259.673 143.49 259.308 143.415 258.878 143.415C258.418 143.415 258.058 143.51 257.798 143.7C257.538 143.89 257.408 144.16 257.408 144.51C257.408 144.71 257.513 144.9 257.723 145.08C257.943 145.25 258.263 145.39 258.683 145.5L259.433 145.695C259.923 145.815 260.333 145.995 260.663 146.235C260.993 146.465 261.243 146.73 261.413 147.03C261.583 147.33 261.668 147.65 261.668 147.99C261.668 148.44 261.548 148.83 261.308 149.16C261.068 149.49 260.743 149.745 260.333 149.925C259.923 150.095 259.453 150.18 258.923 150.18ZM266.255 150.18C265.525 150.18 264.96 149.99 264.56 149.61C264.16 149.23 263.96 148.695 263.96 148.005V140.16H265.16V147.885C265.16 148.265 265.26 148.56 265.46 148.77C265.67 148.97 265.96 149.07 266.33 149.07C266.45 149.07 266.565 149.055 266.675 149.025C266.795 148.985 266.95 148.895 267.14 148.755L267.605 149.73C267.345 149.9 267.11 150.015 266.9 150.075C266.69 150.145 266.475 150.18 266.255 150.18ZM262.655 143.565V142.5H267.41V143.565H262.655ZM272.763 150V139.305H273.963V150H272.763ZM278.043 150V146.16L279.243 145.71V150H278.043ZM278.043 146.16C278.043 145.42 277.953 144.855 277.773 144.465C277.603 144.075 277.368 143.81 277.068 143.67C276.768 143.52 276.428 143.445 276.048 143.445C275.388 143.445 274.873 143.68 274.503 144.15C274.143 144.61 273.963 145.265 273.963 146.115H273.378C273.378 145.325 273.493 144.645 273.723 144.075C273.953 143.505 274.288 143.07 274.728 142.77C275.168 142.47 275.698 142.32 276.318 142.32C277.218 142.32 277.933 142.6 278.463 143.16C278.993 143.72 279.253 144.57 279.243 145.71L278.043 146.16ZM284.442 150.18C283.712 150.18 283.067 150.015 282.507 149.685C281.957 149.345 281.522 148.88 281.202 148.29C280.882 147.7 280.722 147.02 280.722 146.25C280.722 145.48 280.877 144.8 281.187 144.21C281.507 143.62 281.947 143.16 282.507 142.83C283.067 142.49 283.702 142.32 284.412 142.32C285.112 142.32 285.717 142.495 286.227 142.845C286.737 143.185 287.132 143.665 287.412 144.285C287.692 144.905 287.832 145.635 287.832 146.475H286.632C286.632 145.835 286.547 145.29 286.377 144.84C286.207 144.38 285.957 144.025 285.627 143.775C285.297 143.525 284.887 143.4 284.397 143.4C283.907 143.4 283.477 143.52 283.107 143.76C282.747 143.99 282.467 144.32 282.267 144.75C282.067 145.18 281.967 145.685 281.967 146.265C281.967 146.835 282.077 147.33 282.297 147.75C282.517 148.16 282.817 148.485 283.197 148.725C283.577 148.955 284.012 149.07 284.502 149.07C285.032 149.07 285.477 148.945 285.837 148.695C286.197 148.445 286.477 148.12 286.677 147.72L287.742 148.245C287.542 148.635 287.282 148.975 286.962 149.265C286.652 149.555 286.287 149.78 285.867 149.94C285.447 150.1 284.972 150.18 284.442 150.18ZM281.532 146.475V145.44H287.097V146.475H281.532ZM289.389 150L289.419 139.5H290.619L290.589 150H289.389ZM292.789 153V142.5H293.914L293.989 143.88V153H292.789ZM296.524 150.18C295.894 150.18 295.339 150.015 294.859 149.685C294.389 149.355 294.024 148.895 293.764 148.305C293.504 147.705 293.374 147.02 293.374 146.25C293.374 145.47 293.504 144.785 293.764 144.195C294.024 143.605 294.389 143.145 294.859 142.815C295.339 142.485 295.894 142.32 296.524 142.32C297.194 142.32 297.784 142.485 298.294 142.815C298.804 143.145 299.199 143.605 299.479 144.195C299.769 144.785 299.914 145.47 299.914 146.25C299.914 147.02 299.769 147.705 299.479 148.305C299.199 148.895 298.804 149.355 298.294 149.685C297.784 150.015 297.194 150.18 296.524 150.18ZM296.254 149.085C296.724 149.085 297.139 148.965 297.499 148.725C297.869 148.485 298.159 148.15 298.369 147.72C298.589 147.29 298.699 146.8 298.699 146.25C298.699 145.7 298.594 145.21 298.384 144.78C298.184 144.35 297.899 144.015 297.529 143.775C297.159 143.535 296.739 143.415 296.269 143.415C295.829 143.415 295.434 143.535 295.084 143.775C294.744 144.015 294.474 144.35 294.274 144.78C294.084 145.21 293.989 145.7 293.989 146.25C293.989 146.8 294.084 147.29 294.274 147.72C294.474 148.15 294.744 148.485 295.084 148.725C295.424 148.965 295.814 149.085 296.254 149.085ZM302.326 150V141.645C302.326 140.865 302.506 140.28 302.866 139.89C303.236 139.49 303.796 139.29 304.546 139.29C304.746 139.29 304.971 139.325 305.221 139.395C305.471 139.465 305.736 139.565 306.016 139.695L305.566 140.64C305.336 140.55 305.141 140.48 304.981 140.43C304.821 140.38 304.686 140.355 304.576 140.355C304.226 140.355 303.961 140.47 303.781 140.7C303.611 140.92 303.526 141.265 303.526 141.735V150H302.326ZM300.946 143.535V142.5H305.701V143.535H300.946ZM312.258 150L312.183 148.62V142.5H313.383V150H312.258ZM306.918 146.79V142.5H308.118V146.34L306.918 146.79ZM308.118 146.34C308.118 147.08 308.203 147.645 308.373 148.035C308.543 148.425 308.778 148.695 309.078 148.845C309.388 148.985 309.733 149.055 310.113 149.055C310.763 149.055 311.268 148.82 311.628 148.35C311.998 147.88 312.183 147.225 312.183 146.385H312.768C312.768 147.175 312.653 147.855 312.423 148.425C312.193 148.995 311.858 149.43 311.418 149.73C310.988 150.03 310.463 150.18 309.843 150.18C308.933 150.18 308.213 149.9 307.683 149.34C307.163 148.78 306.908 147.93 306.918 146.79L308.118 146.34ZM315.478 150L315.508 139.5H316.708L316.678 150H315.478ZM27.125 175L27.155 167.5H28.355L28.325 175H27.125ZM27.74 165.76C27.54 165.76 27.365 165.685 27.215 165.535C27.065 165.385 26.99 165.21 26.99 165.01C26.99 164.8 27.065 164.625 27.215 164.485C27.365 164.335 27.54 164.26 27.74 164.26C27.95 164.26 28.125 164.335 28.265 164.485C28.415 164.625 28.49 164.8 28.49 165.01C28.49 165.21 28.415 165.385 28.265 165.535C28.125 165.685 27.95 165.76 27.74 165.76ZM30.5363 175V167.5H31.6613L31.7363 168.88V175H30.5363ZM35.8013 175V171.16L37.0013 170.71V175H35.8013ZM35.8013 171.16C35.8013 170.42 35.7163 169.855 35.5463 169.465C35.3763 169.075 35.1413 168.81 34.8413 168.67C34.5413 168.52 34.2013 168.445 33.8213 168.445C33.1613 168.445 32.6463 168.68 32.2763 169.15C31.9163 169.61 31.7363 170.265 31.7363 171.115H31.1513C31.1513 170.325 31.2663 169.645 31.4963 169.075C31.7263 168.505 32.0563 168.07 32.4863 167.77C32.9263 167.47 33.4563 167.32 34.0763 167.32C34.9863 167.32 35.7013 167.6 36.2213 168.16C36.7513 168.72 37.0113 169.57 37.0013 170.71L35.8013 171.16ZM38.7206 171.085V169.99H43.2206V171.085H38.7206ZM47.7805 175.18C47.2305 175.18 46.7505 175.1 46.3405 174.94C45.9305 174.77 45.5855 174.55 45.3055 174.28C45.0355 174.01 44.8405 173.715 44.7205 173.395L45.7705 172.96C45.9405 173.29 46.1955 173.56 46.5355 173.77C46.8755 173.98 47.2505 174.085 47.6605 174.085C48.1305 174.085 48.5205 173.995 48.8305 173.815C49.1505 173.625 49.3105 173.365 49.3105 173.035C49.3105 172.725 49.1905 172.475 48.9505 172.285C48.7205 172.095 48.3805 171.94 47.9305 171.82L47.2105 171.625C46.5305 171.445 46.0005 171.175 45.6205 170.815C45.2405 170.445 45.0505 170.03 45.0505 169.57C45.0505 168.86 45.2805 168.31 45.7405 167.92C46.2105 167.52 46.9055 167.32 47.8255 167.32C48.2655 167.32 48.6655 167.385 49.0255 167.515C49.3855 167.645 49.6955 167.83 49.9555 168.07C50.2155 168.3 50.4055 168.575 50.5255 168.895L49.4755 169.36C49.3455 169.02 49.1305 168.78 48.8305 168.64C48.5305 168.49 48.1655 168.415 47.7355 168.415C47.2755 168.415 46.9155 168.51 46.6555 168.7C46.3955 168.89 46.2655 169.16 46.2655 169.51C46.2655 169.71 46.3705 169.9 46.5805 170.08C46.8005 170.25 47.1205 170.39 47.5405 170.5L48.2905 170.695C48.7805 170.815 49.1905 170.995 49.5205 171.235C49.8505 171.465 50.1005 171.73 50.2705 172.03C50.4405 172.33 50.5255 172.65 50.5255 172.99C50.5255 173.44 50.4055 173.83 50.1655 174.16C49.9255 174.49 49.6005 174.745 49.1905 174.925C48.7805 175.095 48.3105 175.18 47.7805 175.18ZM55.1128 175.18C54.3828 175.18 53.8178 174.99 53.4178 174.61C53.0178 174.23 52.8178 173.695 52.8178 173.005V165.16H54.0178V172.885C54.0178 173.265 54.1178 173.56 54.3178 173.77C54.5278 173.97 54.8178 174.07 55.1878 174.07C55.3078 174.07 55.4228 174.055 55.5328 174.025C55.6528 173.985 55.8078 173.895 55.9978 173.755L56.4628 174.73C56.2028 174.9 55.9678 175.015 55.7578 175.075C55.5478 175.145 55.3328 175.18 55.1128 175.18ZM51.5128 168.565V167.5H56.2678V168.565H51.5128ZM61.2743 175.18C60.5443 175.18 59.8943 175.015 59.3243 174.685C58.7543 174.345 58.3093 173.88 57.9893 173.29C57.6693 172.7 57.5093 172.02 57.5093 171.25C57.5093 170.48 57.6643 169.8 57.9743 169.21C58.2943 168.62 58.7393 168.16 59.3093 167.83C59.8793 167.49 60.5243 167.32 61.2443 167.32C61.9843 167.32 62.6343 167.49 63.1943 167.83C63.7643 168.16 64.2043 168.62 64.5143 169.21C64.8343 169.8 64.9943 170.48 64.9943 171.25C64.9943 172.02 64.8343 172.7 64.5143 173.29C64.2043 173.88 63.7693 174.345 63.2093 174.685C62.6493 175.015 62.0043 175.18 61.2743 175.18ZM61.2743 174.04C61.7643 174.04 62.1943 173.925 62.5643 173.695C62.9343 173.455 63.2243 173.125 63.4343 172.705C63.6443 172.285 63.7493 171.8 63.7493 171.25C63.7493 170.7 63.6393 170.215 63.4193 169.795C63.2093 169.375 62.9143 169.05 62.5343 168.82C62.1643 168.58 61.7343 168.46 61.2443 168.46C60.7543 168.46 60.3243 168.58 59.9543 168.82C59.5843 169.05 59.2893 169.375 59.0693 169.795C58.8593 170.215 58.7543 170.7 58.7543 171.25C58.7543 171.8 58.8593 172.285 59.0693 172.705C59.2893 173.125 59.5893 173.455 59.9693 173.695C60.3493 173.925 60.7843 174.04 61.2743 174.04ZM67.3487 170.935C67.3487 170.125 67.5037 169.47 67.8137 168.97C68.1237 168.46 68.5187 168.085 68.9987 167.845C69.4887 167.595 70.0037 167.47 70.5437 167.47V168.595C70.1037 168.595 69.6787 168.67 69.2687 168.82C68.8687 168.96 68.5387 169.195 68.2787 169.525C68.0187 169.855 67.8887 170.305 67.8887 170.875L67.3487 170.935ZM66.6887 175V167.5H67.8887V175H66.6887ZM75.072 175.18C74.342 175.18 73.697 175.015 73.137 174.685C72.587 174.345 72.152 173.88 71.832 173.29C71.512 172.7 71.352 172.02 71.352 171.25C71.352 170.48 71.507 169.8 71.817 169.21C72.137 168.62 72.577 168.16 73.137 167.83C73.697 167.49 74.332 167.32 75.042 167.32C75.742 167.32 76.347 167.495 76.857 167.845C77.367 168.185 77.762 168.665 78.042 169.285C78.322 169.905 78.462 170.635 78.462 171.475H77.262C77.262 170.835 77.177 170.29 77.007 169.84C76.837 169.38 76.587 169.025 76.257 168.775C75.927 168.525 75.517 168.4 75.027 168.4C74.537 168.4 74.107 168.52 73.737 168.76C73.377 168.99 73.097 169.32 72.897 169.75C72.697 170.18 72.597 170.685 72.597 171.265C72.597 171.835 72.707 172.33 72.927 172.75C73.147 173.16 73.447 173.485 73.827 173.725C74.207 173.955 74.642 174.07 75.132 174.07C75.662 174.07 76.107 173.945 76.467 173.695C76.827 173.445 77.107 173.12 77.307 172.72L78.372 173.245C78.172 173.635 77.912 173.975 77.592 174.265C77.282 174.555 76.917 174.78 76.497 174.94C76.077 175.1 75.602 175.18 75.072 175.18ZM72.162 171.475V170.44H77.727V171.475H72.162ZM87.0398 175.18C86.3098 175.18 85.6648 175.015 85.1048 174.685C84.5548 174.345 84.1198 173.88 83.7998 173.29C83.4798 172.7 83.3198 172.02 83.3198 171.25C83.3198 170.48 83.4748 169.8 83.7848 169.21C84.1048 168.62 84.5448 168.16 85.1048 167.83C85.6648 167.49 86.2998 167.32 87.0098 167.32C87.7098 167.32 88.3148 167.495 88.8248 167.845C89.3348 168.185 89.7298 168.665 90.0098 169.285C90.2898 169.905 90.4298 170.635 90.4298 171.475H89.2298C89.2298 170.835 89.1448 170.29 88.9748 169.84C88.8048 169.38 88.5548 169.025 88.2248 168.775C87.8948 168.525 87.4848 168.4 86.9948 168.4C86.5048 168.4 86.0748 168.52 85.7048 168.76C85.3448 168.99 85.0648 169.32 84.8648 169.75C84.6648 170.18 84.5648 170.685 84.5648 171.265C84.5648 171.835 84.6748 172.33 84.8948 172.75C85.1148 173.16 85.4148 173.485 85.7948 173.725C86.1748 173.955 86.6098 174.07 87.0998 174.07C87.6298 174.07 88.0748 173.945 88.4348 173.695C88.7948 173.445 89.0748 173.12 89.2748 172.72L90.3398 173.245C90.1398 173.635 89.8798 173.975 89.5598 174.265C89.2498 174.555 88.8848 174.78 88.4648 174.94C88.0448 175.1 87.5698 175.18 87.0398 175.18ZM84.1298 171.475V170.44H89.6948V171.475H84.1298ZM90.8361 175L93.8961 170.695L96.0561 167.5H97.4811L94.6311 171.55L92.2911 175H90.8361ZM96.2211 175L93.9111 171.55L91.0311 167.5H92.4561L94.6311 170.695L97.6611 175H96.2211ZM98.873 178V167.5H99.998L100.073 168.88V178H98.873ZM102.608 175.18C101.978 175.18 101.423 175.015 100.943 174.685C100.473 174.355 100.108 173.895 99.848 173.305C99.588 172.705 99.458 172.02 99.458 171.25C99.458 170.47 99.588 169.785 99.848 169.195C100.108 168.605 100.473 168.145 100.943 167.815C101.423 167.485 101.978 167.32 102.608 167.32C103.278 167.32 103.868 167.485 104.378 167.815C104.888 168.145 105.283 168.605 105.563 169.195C105.853 169.785 105.998 170.47 105.998 171.25C105.998 172.02 105.853 172.705 105.563 173.305C105.283 173.895 104.888 174.355 104.378 174.685C103.868 175.015 103.278 175.18 102.608 175.18ZM102.338 174.085C102.808 174.085 103.223 173.965 103.583 173.725C103.953 173.485 104.243 173.15 104.453 172.72C104.673 172.29 104.783 171.8 104.783 171.25C104.783 170.7 104.678 170.21 104.468 169.78C104.268 169.35 103.983 169.015 103.613 168.775C103.243 168.535 102.823 168.415 102.353 168.415C101.913 168.415 101.518 168.535 101.168 168.775C100.828 169.015 100.558 169.35 100.358 169.78C100.168 170.21 100.073 170.7 100.073 171.25C100.073 171.8 100.168 172.29 100.358 172.72C100.558 173.15 100.828 173.485 101.168 173.725C101.508 173.965 101.898 174.085 102.338 174.085ZM110.975 175.18C110.245 175.18 109.6 175.015 109.04 174.685C108.49 174.345 108.055 173.88 107.735 173.29C107.415 172.7 107.255 172.02 107.255 171.25C107.255 170.48 107.41 169.8 107.72 169.21C108.04 168.62 108.48 168.16 109.04 167.83C109.6 167.49 110.235 167.32 110.945 167.32C111.645 167.32 112.25 167.495 112.76 167.845C113.27 168.185 113.665 168.665 113.945 169.285C114.225 169.905 114.365 170.635 114.365 171.475H113.165C113.165 170.835 113.08 170.29 112.91 169.84C112.74 169.38 112.49 169.025 112.16 168.775C111.83 168.525 111.42 168.4 110.93 168.4C110.44 168.4 110.01 168.52 109.64 168.76C109.28 168.99 109 169.32 108.8 169.75C108.6 170.18 108.5 170.685 108.5 171.265C108.5 171.835 108.61 172.33 108.83 172.75C109.05 173.16 109.35 173.485 109.73 173.725C110.11 173.955 110.545 174.07 111.035 174.07C111.565 174.07 112.01 173.945 112.37 173.695C112.73 173.445 113.01 173.12 113.21 172.72L114.275 173.245C114.075 173.635 113.815 173.975 113.495 174.265C113.185 174.555 112.82 174.78 112.4 174.94C111.98 175.1 111.505 175.18 110.975 175.18ZM108.065 171.475V170.44H113.63V171.475H108.065ZM116.582 170.935C116.582 170.125 116.737 169.47 117.047 168.97C117.357 168.46 117.752 168.085 118.232 167.845C118.722 167.595 119.237 167.47 119.777 167.47V168.595C119.337 168.595 118.912 168.67 118.502 168.82C118.102 168.96 117.772 169.195 117.512 169.525C117.252 169.855 117.122 170.305 117.122 170.875L116.582 170.935ZM115.922 175V167.5H117.122V175H115.922ZM121.065 175L121.095 167.5H122.295L122.265 175H121.065ZM121.68 165.76C121.48 165.76 121.305 165.685 121.155 165.535C121.005 165.385 120.93 165.21 120.93 165.01C120.93 164.8 121.005 164.625 121.155 164.485C121.305 164.335 121.48 164.26 121.68 164.26C121.89 164.26 122.065 164.335 122.205 164.485C122.355 164.625 122.43 164.8 122.43 165.01C122.43 165.21 122.355 165.385 122.205 165.535C122.065 165.685 121.89 165.76 121.68 165.76ZM127.792 175.18C127.062 175.18 126.417 175.015 125.857 174.685C125.307 174.345 124.872 173.88 124.552 173.29C124.232 172.7 124.072 172.02 124.072 171.25C124.072 170.48 124.227 169.8 124.537 169.21C124.857 168.62 125.297 168.16 125.857 167.83C126.417 167.49 127.052 167.32 127.762 167.32C128.462 167.32 129.067 167.495 129.577 167.845C130.087 168.185 130.482 168.665 130.762 169.285C131.042 169.905 131.182 170.635 131.182 171.475H129.982C129.982 170.835 129.897 170.29 129.727 169.84C129.557 169.38 129.307 169.025 128.977 168.775C128.647 168.525 128.237 168.4 127.747 168.4C127.257 168.4 126.827 168.52 126.457 168.76C126.097 168.99 125.817 169.32 125.617 169.75C125.417 170.18 125.317 170.685 125.317 171.265C125.317 171.835 125.427 172.33 125.647 172.75C125.867 173.16 126.167 173.485 126.547 173.725C126.927 173.955 127.362 174.07 127.852 174.07C128.382 174.07 128.827 173.945 129.187 173.695C129.547 173.445 129.827 173.12 130.027 172.72L131.092 173.245C130.892 173.635 130.632 173.975 130.312 174.265C130.002 174.555 129.637 174.78 129.217 174.94C128.797 175.1 128.322 175.18 127.792 175.18ZM124.882 171.475V170.44H130.447V171.475H124.882ZM132.738 175V167.5H133.863L133.938 168.88V175H132.738ZM138.003 175V171.16L139.203 170.71V175H138.003ZM138.003 171.16C138.003 170.42 137.918 169.855 137.748 169.465C137.578 169.075 137.343 168.81 137.043 168.67C136.743 168.52 136.403 168.445 136.023 168.445C135.363 168.445 134.848 168.68 134.478 169.15C134.118 169.61 133.938 170.265 133.938 171.115H133.353C133.353 170.325 133.468 169.645 133.698 169.075C133.928 168.505 134.258 168.07 134.688 167.77C135.128 167.47 135.658 167.32 136.278 167.32C137.188 167.32 137.903 167.6 138.423 168.16C138.953 168.72 139.213 169.57 139.203 170.71L138.003 171.16ZM144.448 175.18C143.708 175.18 143.053 175.015 142.483 174.685C141.913 174.345 141.468 173.88 141.148 173.29C140.828 172.7 140.668 172.02 140.668 171.25C140.668 170.48 140.823 169.8 141.133 169.21C141.453 168.62 141.898 168.16 142.468 167.83C143.038 167.49 143.688 167.32 144.418 167.32C145.138 167.32 145.783 167.485 146.353 167.815C146.923 168.145 147.358 168.61 147.658 169.21L146.563 169.705C146.363 169.305 146.073 168.995 145.693 168.775C145.313 168.545 144.878 168.43 144.388 168.43C143.898 168.43 143.463 168.55 143.083 168.79C142.713 169.03 142.418 169.365 142.198 169.795C141.988 170.215 141.883 170.7 141.883 171.25C141.883 171.8 141.988 172.29 142.198 172.72C142.418 173.14 142.718 173.47 143.098 173.71C143.488 173.95 143.928 174.07 144.418 174.07C144.908 174.07 145.343 173.945 145.723 173.695C146.113 173.445 146.408 173.095 146.608 172.645L147.703 173.14C147.403 173.78 146.968 174.28 146.398 174.64C145.828 175 145.178 175.18 144.448 175.18ZM152.533 175.18C151.803 175.18 151.158 175.015 150.598 174.685C150.048 174.345 149.613 173.88 149.293 173.29C148.973 172.7 148.813 172.02 148.813 171.25C148.813 170.48 148.968 169.8 149.278 169.21C149.598 168.62 150.038 168.16 150.598 167.83C151.158 167.49 151.793 167.32 152.503 167.32C153.203 167.32 153.808 167.495 154.318 167.845C154.828 168.185 155.223 168.665 155.503 169.285C155.783 169.905 155.923 170.635 155.923 171.475H154.723C154.723 170.835 154.638 170.29 154.468 169.84C154.298 169.38 154.048 169.025 153.718 168.775C153.388 168.525 152.978 168.4 152.488 168.4C151.998 168.4 151.568 168.52 151.198 168.76C150.838 168.99 150.558 169.32 150.358 169.75C150.158 170.18 150.058 170.685 150.058 171.265C150.058 171.835 150.168 172.33 150.388 172.75C150.608 173.16 150.908 173.485 151.288 173.725C151.668 173.955 152.103 174.07 152.593 174.07C153.123 174.07 153.568 173.945 153.928 173.695C154.288 173.445 154.568 173.12 154.768 172.72L155.833 173.245C155.633 173.635 155.373 173.975 155.053 174.265C154.743 174.555 154.378 174.78 153.958 174.94C153.538 175.1 153.063 175.18 152.533 175.18ZM149.623 171.475V170.44H155.188V171.475H149.623ZM157.99 175.21C157.76 175.21 157.56 175.13 157.39 174.97C157.23 174.8 157.15 174.605 157.15 174.385C157.15 174.155 157.23 173.96 157.39 173.8C157.56 173.63 157.76 173.545 157.99 173.545C158.22 173.545 158.415 173.63 158.575 173.8C158.735 173.96 158.815 174.155 158.815 174.385C158.815 174.605 158.735 174.8 158.575 174.97C158.415 175.13 158.22 175.21 157.99 175.21Z" fill="#263238"/>
<path d="M39.8348 102.638H28.3241C28.2815 102.638 28.2393 102.63 28.1999 102.614C28.1606 102.598 28.1248 102.574 28.0947 102.544C28.0646 102.514 28.0408 102.478 28.0245 102.439C28.0082 102.399 27.9999 102.357 28 102.315V73.993C28.0013 73.023 28.388 72.0931 29.0751 71.4074C29.7623 70.7216 30.6939 70.336 31.6655 70.335H36.494C37.4657 70.336 38.3972 70.7216 39.0844 71.4074C39.7715 72.0931 40.1582 73.023 40.1595 73.993V102.315C40.1596 102.357 40.1512 102.4 40.1349 102.439C40.1186 102.478 40.0947 102.514 40.0645 102.544C40.0343 102.574 39.9985 102.598 39.9591 102.614C39.9197 102.63 39.8774 102.639 39.8348 102.638ZM28.6481 101.991H39.5114V73.993C39.5103 73.1945 39.1919 72.4291 38.6263 71.8647C38.0606 71.3002 37.2938 70.9827 36.494 70.9819H31.6655C30.8656 70.9826 30.0987 71.3 29.533 71.8645C28.9673 72.429 28.6491 73.1945 28.6481 73.993V101.991Z" fill="#263238" stroke="#263238" stroke-width="1.5" stroke-miterlimit="10"/>
<path d="M98.7063 70.9802C98.6203 70.9802 98.5379 70.9461 98.4772 70.8854C98.4164 70.8247 98.3822 70.7425 98.3822 70.6567V63.3855C98.3789 60.5384 97.2445 57.8088 95.2278 55.7956C93.2112 53.7825 90.4769 52.6501 87.625 52.647H45.1611C42.3093 52.6503 39.5751 53.7827 37.5585 55.7958C35.5419 57.8089 34.4074 60.5384 34.4039 63.3855V70.6585C34.4039 70.7443 34.3698 70.8266 34.309 70.8873C34.2482 70.9479 34.1658 70.982 34.0799 70.982C33.9939 70.982 33.9115 70.9479 33.8508 70.8873C33.79 70.8266 33.7559 70.7443 33.7559 70.6585V63.3855C33.7593 60.3668 34.9621 57.4728 37.1002 55.3383C39.2384 53.2039 42.1374 52.0033 45.1611 52H87.625C90.6487 52.0035 93.5475 53.2041 95.6855 55.3386C97.8235 57.473 99.0262 60.3669 99.0297 63.3855V70.6585C99.0292 70.7439 98.9949 70.8256 98.9343 70.8859C98.8737 70.9461 98.7918 70.98 98.7063 70.9802Z" fill="#263238" stroke="#263238" stroke-width="1.5" stroke-miterlimit="10"/>
<path d="M104.675 102.638H93.1654C93.1228 102.638 93.0806 102.63 93.0413 102.614C93.0019 102.598 92.9661 102.574 92.936 102.544C92.9059 102.514 92.8821 102.478 92.8658 102.439C92.8496 102.399 92.8412 102.357 92.8413 102.315V73.993C92.8426 73.023 93.2293 72.0931 93.9164 71.4074C94.6036 70.7216 95.5352 70.336 96.5068 70.335H101.335C102.306 70.3358 103.238 70.7214 103.925 71.4072C104.612 72.093 104.999 73.0229 105 73.993V102.315C105 102.357 104.992 102.4 104.976 102.439C104.959 102.478 104.935 102.514 104.905 102.544C104.875 102.574 104.839 102.598 104.799 102.614C104.76 102.63 104.718 102.639 104.675 102.638ZM93.4881 101.991H104.351V73.993C104.35 73.1945 104.032 72.4291 103.466 71.8647C102.901 71.3002 102.134 70.9827 101.334 70.9819H96.5062C95.7063 70.9826 94.9394 71.3 94.3737 71.8645C93.808 72.429 93.4898 73.1945 93.4888 73.993L93.4881 101.991Z" fill="#263238" stroke="#263238" stroke-width="1.5" stroke-miterlimit="10"/>
<path d="M66.4998 102.638H39.8353C39.7927 102.638 39.7505 102.63 39.7112 102.614C39.6718 102.597 39.6361 102.574 39.606 102.543C39.5759 102.513 39.552 102.478 39.5357 102.438C39.5195 102.399 39.5111 102.357 39.5112 102.315V86.5001C39.5112 84.2681 42.1029 82.4487 45.2882 82.4487H61.0476C64.2316 82.4487 66.8238 84.2656 66.8238 86.5001V102.313C66.8242 102.355 66.8161 102.398 66.7999 102.437C66.7838 102.477 66.7599 102.513 66.7298 102.543C66.6997 102.573 66.6638 102.597 66.6244 102.613C66.5849 102.63 66.5426 102.638 66.4998 102.638ZM40.1593 101.991H66.1758V86.5001C66.1758 84.6252 63.8758 83.0988 61.0476 83.0988H45.2882C42.46 83.0988 40.1593 84.6252 40.1593 86.5001V101.991Z" fill="#263238" stroke="#263238" stroke-width="1.5" stroke-miterlimit="10"/>
<path d="M66.4998 92.8677H39.8353C39.7493 92.8677 39.6669 92.8336 39.6062 92.7729C39.5454 92.7123 39.5112 92.63 39.5112 92.5442C39.5112 92.4584 39.5454 92.3761 39.6062 92.3155C39.6669 92.2548 39.7493 92.2207 39.8353 92.2207H66.4998C66.5858 92.2207 66.6682 92.2548 66.729 92.3155C66.7897 92.3761 66.8238 92.4584 66.8238 92.5442C66.8238 92.63 66.7897 92.7123 66.729 92.7729C66.6682 92.8336 66.5858 92.8677 66.4998 92.8677Z" fill="#263238" stroke="#263238" stroke-width="1.5" stroke-miterlimit="10"/>
<path d="M93.1653 102.638H66.4988C66.4562 102.638 66.4141 102.63 66.3747 102.614C66.3354 102.597 66.2996 102.574 66.2695 102.543C66.2394 102.513 66.2156 102.478 66.1993 102.438C66.1831 102.399 66.1747 102.357 66.1748 102.315V86.5001C66.1748 84.2681 68.7664 82.4487 71.9517 82.4487H87.7111C90.8952 82.4487 93.488 84.2656 93.488 86.5001V102.313C93.4884 102.355 93.4803 102.397 93.4642 102.437C93.4481 102.476 93.4244 102.512 93.3944 102.542C93.3644 102.573 93.3287 102.597 93.2894 102.613C93.2501 102.629 93.2079 102.638 93.1653 102.638ZM66.8235 101.991H92.8406V86.5001C92.8406 84.6252 90.54 83.0988 87.7117 83.0988H71.953C69.1248 83.0988 66.8235 84.6252 66.8235 86.5001V101.991Z" fill="#263238" stroke="#263238" stroke-width="1.5" stroke-miterlimit="10"/>
<path d="M93.1653 92.8677H66.4988C66.4129 92.8677 66.3305 92.8336 66.2697 92.7729C66.209 92.7123 66.1748 92.63 66.1748 92.5442C66.1748 92.4584 66.209 92.3761 66.2697 92.3155C66.3305 92.2548 66.4129 92.2207 66.4988 92.2207H93.164C93.2499 92.2207 93.3324 92.2548 93.3931 92.3155C93.4539 92.3761 93.488 92.4584 93.488 92.5442C93.488 92.63 93.4539 92.7123 93.3931 92.7729C93.3324 92.8336 93.2499 92.8677 93.164 92.8677H93.1653Z" fill="#263238" stroke="#263238" stroke-width="1.5" stroke-miterlimit="10"/>
<path d="M61.3204 64.71C61.058 64.71 60.8014 64.6323 60.5833 64.4868C60.3651 64.3412 60.1951 64.1344 60.0946 63.8923C59.9942 63.6503 59.968 63.3841 60.0191 63.1271C60.0703 62.8702 60.1967 62.6342 60.3823 62.449C60.5678 62.2637 60.8042 62.1376 61.0615 62.0865C61.3189 62.0354 61.5857 62.0616 61.8281 62.1618C62.0705 62.2621 62.2777 62.4319 62.4235 62.6497C62.5693 62.8675 62.6471 63.1236 62.6471 63.3855C62.6467 63.7367 62.5068 64.0734 62.2581 64.3217C62.0094 64.57 61.6721 64.7097 61.3204 64.71ZM61.3204 62.7086C61.1863 62.7088 61.0552 62.7485 60.9438 62.823C60.8324 62.8974 60.7456 63.0032 60.6944 63.1269C60.6432 63.2506 60.6298 63.3867 60.6561 63.5179C60.6823 63.6492 60.7469 63.7697 60.8418 63.8643C60.9366 63.9589 61.0574 64.0234 61.1889 64.0494C61.3204 64.0755 61.4567 64.0621 61.5806 64.0108C61.7044 63.9596 61.8103 63.8728 61.8848 63.7615C61.9593 63.6502 61.999 63.5194 61.999 63.3855C61.9987 63.206 61.9271 63.0339 61.7998 62.907C61.6726 62.7801 61.5002 62.7088 61.3204 62.7086Z" fill="#263238" stroke="#263238" stroke-width="1.5" stroke-miterlimit="10"/>
<path d="M53.168 64.71C52.9056 64.71 52.6491 64.6323 52.431 64.4868C52.2128 64.3412 52.0427 64.1344 51.9423 63.8923C51.8419 63.6503 51.8156 63.3841 51.8668 63.1271C51.918 62.8702 52.0444 62.6342 52.2299 62.449C52.4154 62.2637 52.6518 62.1376 52.9092 62.0865C53.1665 62.0354 53.4333 62.0616 53.6757 62.1618C53.9182 62.2621 54.1254 62.4319 54.2711 62.6497C54.4169 62.8675 54.4947 63.1236 54.4947 63.3855C54.4944 63.7367 54.3545 64.0734 54.1058 64.3217C53.857 64.57 53.5198 64.7097 53.168 64.71ZM53.168 62.7086C53.034 62.7089 52.903 62.7488 52.7917 62.8233C52.6803 62.8978 52.5936 63.0036 52.5425 63.1273C52.4914 63.251 52.4781 63.3871 52.5044 63.5183C52.5307 63.6495 52.5954 63.77 52.6903 63.8646C52.7851 63.9591 52.906 64.0234 53.0375 64.0495C53.1689 64.0755 53.3052 64.062 53.429 64.0107C53.5529 63.9595 53.6587 63.8727 53.7331 63.7614C53.8076 63.6502 53.8473 63.5193 53.8473 63.3855C53.847 63.2059 53.7753 63.0337 53.6479 62.9068C53.5206 62.7799 53.3479 62.7086 53.168 62.7086Z" fill="#263238" stroke="#263238" stroke-width="1.5" stroke-miterlimit="10"/>
<path d="M45.0147 64.71C44.7523 64.71 44.4958 64.6323 44.2776 64.4868C44.0594 64.3412 43.8894 64.1344 43.789 63.8923C43.6886 63.6503 43.6623 63.3841 43.7135 63.1271C43.7647 62.8702 43.891 62.6342 44.0766 62.449C44.2621 62.2637 44.4985 62.1376 44.7558 62.0865C45.0132 62.0354 45.28 62.0616 45.5224 62.1618C45.7648 62.2621 45.972 62.4319 46.1178 62.6497C46.2636 62.8675 46.3414 63.1236 46.3414 63.3855C46.3411 63.7367 46.2012 64.0734 45.9524 64.3217C45.7037 64.57 45.3665 64.7097 45.0147 64.71ZM45.0147 62.7086C44.8806 62.7086 44.7495 62.7483 44.638 62.8227C44.5265 62.8971 44.4396 63.0028 44.3883 63.1265C44.3369 63.2502 44.3235 63.3863 44.3497 63.5176C44.3759 63.6489 44.4404 63.7695 44.5352 63.8641C44.6301 63.9588 44.7509 64.0233 44.8824 64.0494C45.0139 64.0755 45.1503 64.0621 45.2742 64.0108C45.3981 63.9596 45.5039 63.8729 45.5784 63.7616C45.6529 63.6502 45.6927 63.5194 45.6927 63.3855C45.6922 63.2061 45.6206 63.0343 45.4936 62.9074C45.3665 62.7806 45.1944 62.7091 45.0147 62.7086Z" fill="#263238" stroke="#263238" stroke-width="1.5" stroke-miterlimit="10"/>
<path d="M61.3204 72.166C61.0579 72.166 60.8014 72.0884 60.5832 71.9428C60.365 71.7972 60.195 71.5903 60.0946 71.3483C59.9942 71.1062 59.9679 70.8399 60.0192 70.583C60.0704 70.326 60.1968 70.09 60.3825 69.9048C60.5681 69.7196 60.8045 69.5935 61.0619 69.5425C61.3193 69.4914 61.5861 69.5177 61.8285 69.6181C62.0709 69.7184 62.2781 69.8883 62.4238 70.1062C62.5695 70.3241 62.6472 70.5802 62.6471 70.8422C62.6464 71.1932 62.5064 71.5296 62.2577 71.7778C62.0091 72.0259 61.672 72.1655 61.3204 72.166ZM61.3204 70.1635C61.1862 70.1635 61.055 70.2032 60.9435 70.2775C60.8319 70.3519 60.7449 70.4577 60.6935 70.5814C60.6421 70.7051 60.6286 70.8413 60.6547 70.9727C60.6808 71.104 60.7452 71.2248 60.84 71.3196C60.9348 71.4144 61.0557 71.479 61.1872 71.5053C61.3188 71.5316 61.4552 71.5183 61.5792 71.4672C61.7032 71.4162 61.8093 71.3295 61.884 71.2183C61.9587 71.107 61.9988 70.9762 61.999 70.8422C61.9989 70.6625 61.9273 70.4902 61.8001 70.3631C61.6729 70.236 61.5004 70.1644 61.3204 70.1641V70.1635Z" fill="#263238" stroke="#263238" stroke-width="1.5" stroke-miterlimit="10"/>
<path d="M53.168 72.166C52.9056 72.166 52.649 72.0884 52.4309 71.9428C52.2127 71.7972 52.0426 71.5903 51.9422 71.3483C51.8418 71.1062 51.8156 70.8399 51.8669 70.583C51.9181 70.326 52.0445 70.09 52.2301 69.9048C52.4157 69.7196 52.6522 69.5935 52.9095 69.5425C53.1669 69.4914 53.4337 69.5177 53.6761 69.6181C53.9185 69.7184 54.1257 69.8883 54.2714 70.1062C54.4171 70.3241 54.4948 70.5802 54.4947 70.8422C54.494 71.1932 54.354 71.5296 54.1054 71.7778C53.8567 72.0259 53.5196 72.1655 53.168 72.166ZM53.168 70.1635C53.0338 70.1636 52.9028 70.2034 52.7913 70.2779C52.6798 70.3523 52.5929 70.4581 52.5416 70.5818C52.4903 70.7055 52.4768 70.8417 52.503 70.973C52.5292 71.1044 52.5937 71.225 52.6885 71.3198C52.7833 71.4145 52.9041 71.4791 53.0357 71.5053C53.1672 71.5316 53.3036 71.5183 53.4276 71.4672C53.5516 71.4161 53.6576 71.3295 53.7323 71.2182C53.807 71.107 53.847 70.9761 53.8473 70.8422C53.8471 70.6624 53.7755 70.49 53.6481 70.3629C53.5208 70.2357 53.3481 70.1642 53.168 70.1641V70.1635Z" fill="#263238" stroke="#263238" stroke-width="1.5" stroke-miterlimit="10"/>
<path d="M45.0147 72.166C44.7523 72.166 44.4957 72.0884 44.2775 71.9428C44.0594 71.7972 43.8893 71.5903 43.7889 71.3483C43.6885 71.1062 43.6623 70.8399 43.7135 70.583C43.7648 70.326 43.8912 70.09 44.0768 69.9048C44.2624 69.7196 44.4988 69.5935 44.7562 69.5425C45.0136 69.4914 45.2804 69.5177 45.5228 69.6181C45.7653 69.7184 45.9724 69.8883 46.1181 70.1062C46.2638 70.3241 46.3415 70.5802 46.3414 70.8422C46.3409 71.1933 46.2009 71.5298 45.9522 71.778C45.7035 72.0261 45.3664 72.1657 45.0147 72.166ZM45.0147 70.1635C44.8805 70.1633 44.7493 70.2029 44.6376 70.2772C44.5259 70.3516 44.4389 70.4573 44.3874 70.581C44.3359 70.7047 44.3223 70.8408 44.3483 70.9723C44.3743 71.1037 44.4388 71.2245 44.5335 71.3194C44.6283 71.4142 44.7491 71.4789 44.8807 71.5052C45.0123 71.5316 45.1487 71.5184 45.2728 71.4673C45.3968 71.4162 45.5029 71.3296 45.5777 71.2183C45.6524 71.1071 45.6925 70.9762 45.6927 70.8422C45.6926 70.6626 45.6211 70.4904 45.494 70.3633C45.3669 70.2362 45.1946 70.1646 45.0147 70.1641V70.1635Z" fill="#263238" stroke="#263238" stroke-width="1.5" stroke-miterlimit="10"/>
<path d="M61.3204 79.6201C61.0579 79.6201 60.8014 79.5425 60.5832 79.3969C60.365 79.2513 60.195 79.0444 60.0946 78.8024C59.9942 78.5603 59.9679 78.294 60.0192 78.0371C60.0704 77.7801 60.1968 77.5441 60.3825 77.3589C60.5681 77.1737 60.8045 77.0476 61.0619 76.9966C61.3193 76.9455 61.5861 76.9719 61.8285 77.0722C62.0709 77.1725 62.2781 77.3424 62.4238 77.5603C62.5695 77.7782 62.6472 78.0343 62.6471 78.2963C62.6464 78.6473 62.5064 78.9837 62.2577 79.2319C62.0091 79.48 61.672 79.6196 61.3204 79.6201ZM61.3204 77.6188C61.1861 77.6188 61.0549 77.6585 60.9433 77.733C60.8317 77.8074 60.7447 77.9132 60.6934 78.037C60.642 78.1608 60.6286 78.297 60.6548 78.4285C60.6809 78.5599 60.7456 78.6806 60.8405 78.7754C60.9354 78.8701 61.0563 78.9346 61.188 78.9608C61.3196 78.9869 61.4561 78.9735 61.5801 78.9223C61.7041 78.871 61.8101 78.7841 61.8846 78.6727C61.9592 78.5613 61.999 78.4303 61.999 78.2963C61.999 78.1166 61.9275 77.9443 61.8002 77.8172C61.673 77.6902 61.5003 77.6188 61.3204 77.6188Z" fill="#263238" stroke="#263238" stroke-width="1.5" stroke-miterlimit="10"/>
<path d="M53.168 79.6201C52.9056 79.6201 52.649 79.5425 52.4309 79.3969C52.2127 79.2513 52.0426 79.0444 51.9422 78.8024C51.8418 78.5603 51.8156 78.294 51.8669 78.0371C51.9181 77.7801 52.0445 77.5441 52.2301 77.3589C52.4157 77.1737 52.6522 77.0476 52.9095 76.9966C53.1669 76.9455 53.4337 76.9719 53.6761 77.0722C53.9185 77.1725 54.1257 77.3424 54.2714 77.5603C54.4171 77.7782 54.4948 78.0343 54.4947 78.2963C54.494 78.6473 54.354 78.9837 54.1054 79.2319C53.8567 79.48 53.5196 79.6196 53.168 79.6201ZM53.168 77.6188C53.0338 77.6189 52.9026 77.6588 52.7911 77.7333C52.6796 77.8078 52.5927 77.9137 52.5414 78.0375C52.4902 78.1613 52.4769 78.2975 52.5031 78.4288C52.5294 78.5602 52.594 78.6809 52.689 78.7756C52.7839 78.8703 52.9048 78.9347 53.0364 78.9608C53.1681 78.9869 53.3045 78.9735 53.4285 78.9222C53.5524 78.8709 53.6584 78.784 53.7329 78.6726C53.8075 78.5612 53.8473 78.4303 53.8473 78.2963C53.8473 78.2073 53.8297 78.1191 53.7956 78.0369C53.7614 77.9547 53.7114 77.8799 53.6483 77.817C53.5852 77.7541 53.5103 77.7042 53.4279 77.6702C53.3455 77.6362 53.2572 77.6187 53.168 77.6188Z" fill="#263238" stroke="#263238" stroke-width="1.5" stroke-miterlimit="10"/>
<path d="M45.0147 79.6201C44.7523 79.6201 44.4957 79.5425 44.2775 79.3969C44.0594 79.2513 43.8893 79.0444 43.7889 78.8024C43.6885 78.5603 43.6623 78.294 43.7135 78.0371C43.7648 77.7801 43.8912 77.5441 44.0768 77.3589C44.2624 77.1737 44.4988 77.0476 44.7562 76.9966C45.0136 76.9455 45.2804 76.9719 45.5228 77.0722C45.7653 77.1725 45.9724 77.3424 46.1181 77.5603C46.2638 77.7782 46.3415 78.0343 46.3414 78.2963C46.3409 78.6474 46.2009 78.9839 45.9522 79.2321C45.7035 79.4802 45.3664 79.6198 45.0147 79.6201ZM45.0147 77.6188C44.8805 77.6187 44.7492 77.6583 44.6375 77.7327C44.5258 77.807 44.4387 77.9128 44.3872 78.0366C44.3358 78.1604 44.3223 78.2966 44.3484 78.4281C44.3745 78.5596 44.4391 78.6803 44.534 78.7751C44.6288 78.87 44.7498 78.9346 44.8814 78.9608C45.0131 78.9869 45.1496 78.9736 45.2736 78.9223C45.3977 78.871 45.5037 78.7842 45.5783 78.6728C45.6529 78.5613 45.6927 78.4303 45.6927 78.2963C45.6926 78.1168 45.6211 77.9446 45.494 77.8176C45.3669 77.6906 45.1945 77.6191 45.0147 77.6188Z" fill="#263238" stroke="#263238" stroke-width="1.5" stroke-miterlimit="10"/>
<path d="M87.985 64.71C87.7226 64.7101 87.466 64.6325 87.2478 64.4871C87.0295 64.3416 86.8594 64.1348 86.7589 63.8928C86.6584 63.6508 86.632 63.3845 86.6831 63.1275C86.7343 62.8706 86.8605 62.6345 87.0461 62.4492C87.2316 62.2639 87.468 62.1377 87.7253 62.0865C87.9827 62.0354 88.2495 62.0616 88.492 62.1618C88.7344 62.262 88.9417 62.4318 89.0875 62.6496C89.2333 62.8674 89.3111 63.1235 89.3111 63.3855C89.3108 63.7366 89.171 64.0732 88.9224 64.3215C88.6738 64.5698 88.3367 64.7095 87.985 64.71ZM87.985 62.7086C87.8509 62.7086 87.7198 62.7483 87.6083 62.8227C87.4968 62.8971 87.4099 63.0028 87.3586 63.1265C87.3073 63.2502 87.2939 63.3863 87.32 63.5176C87.3462 63.6489 87.4108 63.7695 87.5056 63.8641C87.6004 63.9588 87.7212 64.0233 87.8528 64.0494C87.9843 64.0755 88.1206 64.0621 88.2445 64.0109C88.3684 63.9596 88.4743 63.8729 88.5488 63.7616C88.6233 63.6503 88.663 63.5194 88.663 63.3855C88.6627 63.2061 88.5912 63.0341 88.4641 62.9073C88.337 62.7804 88.1647 62.709 87.985 62.7086Z" fill="#263238" stroke="#263238" stroke-width="1.5" stroke-miterlimit="10"/>
<path d="M79.8322 64.71C79.5698 64.7101 79.3133 64.6325 79.095 64.4871C78.8767 64.3416 78.7066 64.1348 78.6061 63.8928C78.5055 63.6508 78.4792 63.3845 78.5303 63.1275C78.5814 62.8706 78.7077 62.6345 78.8933 62.4492C79.0788 62.2639 79.3152 62.1377 79.5725 62.0865C79.8299 62.0354 80.0967 62.0616 80.3392 62.1618C80.5816 62.262 80.7889 62.4318 80.9347 62.6496C81.0805 62.8674 81.1583 63.1235 81.1583 63.3855C81.158 63.7366 81.0182 64.0732 80.7696 64.3215C80.521 64.5698 80.1839 64.7095 79.8322 64.71ZM79.8322 62.7086C79.6981 62.7086 79.5671 62.7483 79.4556 62.8227C79.3441 62.8971 79.2571 63.0028 79.2058 63.1265C79.1545 63.2502 79.1411 63.3863 79.1672 63.5176C79.1934 63.6489 79.258 63.7695 79.3528 63.8641C79.4476 63.9588 79.5684 64.0233 79.7 64.0494C79.8315 64.0755 79.9678 64.0621 80.0917 64.0109C80.2156 63.9596 80.3215 63.8729 80.396 63.7616C80.4705 63.6503 80.5103 63.5194 80.5103 63.3855C80.5098 63.2062 80.4382 63.0343 80.3111 62.9074C80.1841 62.7806 80.0119 62.7091 79.8322 62.7086Z" fill="#263238" stroke="#263238" stroke-width="1.5" stroke-miterlimit="10"/>
<path d="M71.6789 64.71C71.4165 64.7101 71.1599 64.6325 70.9416 64.4871C70.7234 64.3416 70.5532 64.1348 70.4527 63.8928C70.3522 63.6508 70.3259 63.3845 70.377 63.1275C70.4281 62.8706 70.5544 62.6345 70.7399 62.4492C70.9255 62.2639 71.1618 62.1377 71.4192 62.0865C71.6766 62.0354 71.9434 62.0616 72.1858 62.1618C72.4283 62.262 72.6355 62.4318 72.7813 62.6496C72.9271 62.8674 73.005 63.1235 73.005 63.3855C73.0046 63.7366 72.8648 64.0732 72.6162 64.3215C72.3676 64.5698 72.0305 64.7095 71.6789 64.71ZM71.6789 62.7086C71.5448 62.7086 71.4137 62.7483 71.3022 62.8227C71.1907 62.8971 71.1038 63.0028 71.0525 63.1265C71.0012 63.2502 70.9877 63.3863 71.0139 63.5176C71.04 63.6489 71.1046 63.7695 71.1995 63.8641C71.2943 63.9588 71.4151 64.0233 71.5466 64.0494C71.6781 64.0755 71.8144 64.0621 71.9383 64.0109C72.0622 63.9596 72.1682 63.8729 72.2427 63.7616C72.3172 63.6503 72.3569 63.5194 72.3569 63.3855C72.3566 63.2061 72.285 63.0341 72.1579 62.9073C72.0309 62.7804 71.8586 62.709 71.6789 62.7086Z" fill="#263238" stroke="#263238" stroke-width="1.5" stroke-miterlimit="10"/>
<path d="M87.985 72.166C87.7226 72.1661 87.466 72.0886 87.2477 71.9431C87.0295 71.7976 86.8593 71.5907 86.7588 71.3487C86.6583 71.1066 86.632 70.8403 86.6832 70.5833C86.7344 70.3263 86.8607 70.0903 87.0463 69.905C87.2319 69.7197 87.4683 69.5936 87.7257 69.5425C87.9831 69.4914 88.25 69.5177 88.4924 69.618C88.7349 69.7183 88.9421 69.8882 89.0878 70.1061C89.2335 70.324 89.3113 70.5802 89.3111 70.8422C89.3105 71.1931 89.1705 71.5294 88.922 71.7776C88.6734 72.0257 88.3365 72.1653 87.985 72.166ZM87.985 70.1634C87.8508 70.1633 87.7196 70.2029 87.608 70.2772C87.4963 70.3515 87.4092 70.4572 87.3577 70.5809C87.3062 70.7047 87.2926 70.8408 87.3186 70.9722C87.3447 71.1037 87.4091 71.2245 87.5039 71.3193C87.5986 71.4142 87.7194 71.4789 87.851 71.5052C87.9826 71.5315 88.119 71.5184 88.2431 71.4673C88.3672 71.4162 88.4733 71.3296 88.5481 71.2183C88.6228 71.107 88.6628 70.9762 88.6631 70.8422C88.6629 70.6626 88.5915 70.4904 88.4644 70.3633C88.3373 70.2362 88.1649 70.1645 87.985 70.164V70.1634Z" fill="#263238" stroke="#263238" stroke-width="1.5" stroke-miterlimit="10"/>
<path d="M79.8322 72.166C79.5698 72.1661 79.3132 72.0886 79.0949 71.9431C78.8766 71.7976 78.7065 71.5907 78.606 71.3487C78.5055 71.1066 78.4792 70.8403 78.5303 70.5833C78.5815 70.3263 78.7079 70.0903 78.8935 69.905C79.079 69.7197 79.3155 69.5936 79.5729 69.5425C79.8303 69.4914 80.0971 69.5177 80.3396 69.618C80.582 69.7183 80.7892 69.8882 80.935 70.1061C81.0807 70.324 81.1584 70.5802 81.1583 70.8422C81.1576 71.1931 81.0177 71.5294 80.7692 71.7776C80.5206 72.0257 80.1837 72.1653 79.8322 72.166ZM79.8322 70.1634C79.698 70.1633 79.5668 70.2029 79.4551 70.2772C79.3434 70.3515 79.2564 70.4572 79.2049 70.5809C79.1534 70.7047 79.1398 70.8408 79.1658 70.9722C79.1918 71.1037 79.2563 71.2245 79.351 71.3193C79.4458 71.4142 79.5666 71.4789 79.6982 71.5052C79.8298 71.5315 79.9662 71.5184 80.0903 71.4673C80.2143 71.4162 80.3204 71.3296 80.3952 71.2183C80.4699 71.107 80.51 70.9762 80.5102 70.8422C80.5101 70.6626 80.4386 70.4904 80.3115 70.3633C80.1845 70.2362 80.0121 70.1645 79.8322 70.164V70.1634Z" fill="#263238" stroke="#263238" stroke-width="1.5" stroke-miterlimit="10"/>
<path d="M71.6789 72.166C71.4164 72.1661 71.1598 72.0886 70.9416 71.9431C70.7233 71.7976 70.5532 71.5907 70.4527 71.3487C70.3522 71.1066 70.3259 70.8403 70.377 70.5833C70.4282 70.3263 70.5546 70.0903 70.7401 69.905C70.9257 69.7197 71.1622 69.5936 71.4196 69.5425C71.677 69.4914 71.9438 69.5177 72.1863 69.618C72.4287 69.7183 72.6359 69.8882 72.7816 70.1061C72.9274 70.324 73.0051 70.5802 73.005 70.8422C73.0043 71.1931 72.8644 71.5294 72.6158 71.7776C72.3673 72.0257 72.0304 72.1653 71.6789 72.166ZM71.6789 70.1634C71.5447 70.1633 71.4135 70.2029 71.3018 70.2772C71.1902 70.3515 71.1031 70.4572 71.0516 70.5809C71.0001 70.7047 70.9865 70.8408 71.0125 70.9722C71.0385 71.1037 71.103 71.2245 71.1977 71.3193C71.2925 71.4142 71.4133 71.4789 71.5449 71.5052C71.6764 71.5315 71.8129 71.5184 71.937 71.4673C72.061 71.4162 72.1672 71.3296 72.2419 71.2183C72.3167 71.107 72.3567 70.9762 72.3569 70.8422C72.3567 70.6626 72.2853 70.4904 72.1582 70.3633C72.0311 70.2362 71.8588 70.1645 71.6789 70.164V70.1634Z" fill="#263238" stroke="#263238" stroke-width="1.5" stroke-miterlimit="10"/>
<path d="M87.985 79.6201C87.7226 79.6202 87.466 79.5427 87.2477 79.3972C87.0295 79.2517 86.8593 79.0448 86.7588 78.8028C86.6583 78.5607 86.632 78.2944 86.6832 78.0374C86.7344 77.7804 86.8607 77.5444 87.0463 77.3591C87.2319 77.1738 87.4683 77.0477 87.7257 76.9966C87.9831 76.9455 88.25 76.9718 88.4924 77.0721C88.7349 77.1724 88.9421 77.3423 89.0878 77.5602C89.2335 77.7781 89.3113 78.0343 89.3111 78.2963C89.3105 78.6472 89.1705 78.9835 88.922 79.2317C88.6734 79.4798 88.3365 79.6194 87.985 79.6201ZM87.985 77.6188C87.8508 77.6186 87.7195 77.6583 87.6078 77.7327C87.4961 77.807 87.4091 77.9128 87.3576 78.0366C87.3062 78.1604 87.2926 78.2966 87.3187 78.4281C87.3448 78.5595 87.4094 78.6803 87.5043 78.7751C87.5992 78.8699 87.7201 78.9345 87.8518 78.9607C87.9834 78.9869 88.1199 78.9735 88.244 78.9223C88.368 78.871 88.474 78.7842 88.5486 78.6727C88.6232 78.5613 88.6631 78.4303 88.6631 78.2963C88.6631 78.1167 88.5917 77.9444 88.4645 77.8174C88.3374 77.6904 88.1649 77.6189 87.985 77.6188Z" fill="#263238" stroke="#263238" stroke-width="1.5" stroke-miterlimit="10"/>
<path d="M79.8322 79.6201C79.5698 79.6202 79.3132 79.5427 79.0949 79.3972C78.8766 79.2517 78.7065 79.0448 78.606 78.8028C78.5055 78.5607 78.4792 78.2944 78.5303 78.0374C78.5815 77.7804 78.7079 77.5444 78.8935 77.3591C79.079 77.1738 79.3155 77.0477 79.5729 76.9966C79.8303 76.9455 80.0971 76.9718 80.3396 77.0721C80.582 77.1724 80.7892 77.3423 80.935 77.5602C81.0807 77.7781 81.1584 78.0343 81.1583 78.2963C81.1576 78.6472 81.0177 78.9835 80.7692 79.2317C80.5206 79.4798 80.1837 79.6194 79.8322 79.6201ZM79.8322 77.6188C79.698 77.6186 79.5667 77.6583 79.455 77.7327C79.3433 77.807 79.2562 77.9128 79.2047 78.0366C79.1533 78.1604 79.1398 78.2966 79.1659 78.4281C79.192 78.5595 79.2566 78.6803 79.3515 78.7751C79.4464 78.8699 79.5673 78.9345 79.6989 78.9607C79.8306 78.9869 79.9671 78.9735 80.0911 78.9223C80.2152 78.871 80.3212 78.7842 80.3958 78.6727C80.4704 78.5613 80.5102 78.4303 80.5102 78.2963C80.5101 78.1168 80.4386 77.9446 80.3115 77.8176C80.1844 77.6906 80.012 77.6191 79.8322 77.6188Z" fill="#263238" stroke="#263238" stroke-width="1.5" stroke-miterlimit="10"/>
<path d="M71.6789 79.6201C71.4164 79.6202 71.1598 79.5427 70.9416 79.3972C70.7233 79.2517 70.5532 79.0448 70.4527 78.8028C70.3522 78.5607 70.3259 78.2944 70.377 78.0374C70.4282 77.7804 70.5546 77.5444 70.7401 77.3591C70.9257 77.1738 71.1622 77.0477 71.4196 76.9966C71.677 76.9455 71.9438 76.9718 72.1863 77.0721C72.4287 77.1724 72.6359 77.3423 72.7816 77.5602C72.9274 77.7781 73.0051 78.0343 73.005 78.2963C73.0043 78.6472 72.8644 78.9835 72.6158 79.2317C72.3673 79.4798 72.0304 79.6194 71.6789 79.6201ZM71.6789 77.6188C71.5446 77.6186 71.4134 77.6583 71.3017 77.7327C71.19 77.807 71.1029 77.9128 71.0515 78.0366C71 78.1604 70.9865 78.2966 71.0126 78.4281C71.0387 78.5595 71.1033 78.6803 71.1982 78.7751C71.2931 78.8699 71.414 78.9345 71.5456 78.9607C71.6773 78.9869 71.8138 78.9735 71.9379 78.9223C72.0619 78.871 72.1679 78.7842 72.2425 78.6727C72.3171 78.5613 72.3569 78.4303 72.3569 78.2963C72.3569 78.1167 72.2855 77.9444 72.1584 77.8174C72.0312 77.6904 71.8588 77.6189 71.6789 77.6188Z" fill="#263238" stroke="#263238" stroke-width="1.5" stroke-miterlimit="10"/>
</svg>
