<svg width="258" height="97" viewBox="0 0 258 97" fill="none" xmlns="http://www.w3.org/2000/svg">
<path d="M18.8439 40.0537C18.4014 39.4475 17.8908 38.9109 17.3054 38.451C16.72 37.9911 16.0732 37.6079 15.3721 37.2873C14.6709 36.9668 13.9289 36.7299 13.1461 36.5766C12.37 36.4233 11.6008 36.3466 10.8384 36.3466C9.78322 36.3466 8.76211 36.4999 7.78185 36.8065C6.80159 37.1131 5.95747 37.6009 5.2495 38.2699C4.48707 39.0015 3.9561 39.782 3.66338 40.6042C3.37066 41.4265 3.28897 42.2348 3.41831 43.0292C3.54765 43.8236 3.88122 44.5831 4.41219 45.3148C4.94317 46.0465 5.6171 46.6876 6.43399 47.2381C7.16919 47.698 8.03372 48.1439 9.03441 48.5899C10.0351 49.0289 11.0834 49.5097 12.1794 50.0323C13.2822 50.548 14.3646 51.1055 15.4402 51.7047C16.5089 52.297 17.4688 52.9939 18.3265 53.7882C19.1774 54.5826 19.865 55.4815 20.3959 56.485C20.9269 57.4884 21.1856 58.6521 21.1856 59.9622C21.1856 61.4255 20.9133 62.7216 20.3687 63.8505C19.8241 64.9793 19.0957 65.927 18.1903 66.6865C17.2782 67.4531 16.223 68.0314 15.0181 68.4217C13.8132 68.8188 12.5538 69.014 11.2332 69.014C9.15014 69.014 7.11473 68.5471 5.13378 67.6203C3.15283 66.6935 1.44417 65.3556 0.0078125 63.6205L0.538789 63.1606C1.88665 64.7772 3.5 65.9828 5.37884 66.7702C7.25768 67.5646 9.2114 67.9617 11.2332 67.9617C12.2339 67.899 13.1869 67.7039 14.0923 67.3694C15.0045 67.035 15.801 66.5472 16.4885 65.9061C17.176 65.265 17.7206 64.4706 18.1155 63.5299C18.5103 62.5822 18.6805 61.5021 18.6192 60.2827C18.592 59.3698 18.3265 58.5267 17.8296 57.7671C17.3326 57.0076 16.6927 56.3108 15.9167 55.6836C15.1406 55.0565 14.2557 54.4851 13.2754 53.9694C12.2951 53.4538 11.3013 52.973 10.3006 52.527C9.2999 52.088 8.33325 51.6629 7.39383 51.2727C6.45441 50.8755 5.64433 50.4922 4.9704 50.1299C3.73826 49.4609 2.73077 48.562 1.95473 47.4332C1.17868 46.3043 0.77024 45.0082 0.743011 43.5449C0.743011 42.2069 1.02211 41.0223 1.58032 39.998C2.13853 38.9737 2.87372 38.1235 3.77911 37.4337C4.6913 36.7508 5.7056 36.2351 6.83562 35.9006C7.96565 35.5662 9.1161 35.3989 10.2938 35.3989C12.0229 35.3989 13.7043 35.7473 15.3312 36.4511C16.9582 37.1549 18.272 38.1862 19.2727 39.559L18.8302 40.0607L18.8439 40.0537Z" fill="white"/>
<path d="M23.3291 45.6286H27.645V61.9553C27.6177 63.0841 27.7539 64.0597 28.0602 64.8819C28.3665 65.7042 28.7886 66.3662 29.3128 66.8679C29.8437 67.3696 30.4496 67.7459 31.1371 67.9898C31.8247 68.2337 32.5395 68.3521 33.2747 68.3521C34.0984 68.3521 34.9152 68.2267 35.7389 67.9619C36.5626 67.7041 37.291 67.3278 37.9377 66.84C38.5844 66.3522 39.1018 65.7808 39.5034 65.1258C39.8983 64.4708 40.0957 63.76 40.0957 63.0005V45.6216H42.6076V68.2616L41.9473 68.2128L40.3203 64.9656C39.5307 66.3383 38.4551 67.3487 37.1072 68.0107C35.7594 68.6657 34.3502 68.9932 32.8798 68.9932C31.8792 68.9932 30.9193 68.8399 29.9935 68.5333C29.0677 68.2267 28.2372 67.7807 27.5088 67.1815C26.7736 66.5892 26.1882 65.8575 25.7457 64.9865C25.3032 64.1154 25.0854 63.105 25.0854 61.9483V46.7644L23.3223 46.0327V45.6216L23.3291 45.6286Z" fill="white"/>
<path d="M46.3994 45.6285L50.6676 45.5798V48.597C51.4573 47.3149 52.5124 46.3811 53.8126 45.7818C55.1197 45.1895 56.4743 44.8899 57.8834 44.8899C58.8841 44.8899 59.8508 45.0432 60.7902 45.3498C61.7296 45.6564 62.5601 46.1024 63.2749 46.7016C63.9965 47.294 64.5751 48.0256 65.0108 48.8967C65.4533 49.7677 65.6711 50.7781 65.6711 51.9348V68.2615H63.1183V51.9348C63.1456 50.7781 63.0094 49.7956 62.7031 48.9873C62.3967 48.1789 61.9747 47.5239 61.4505 47.0222C60.9195 46.5205 60.3137 46.1442 59.6261 45.9003C58.9386 45.6564 58.2238 45.5379 57.4886 45.5379C56.6649 45.5379 55.8412 45.6703 55.0243 45.9282C54.2007 46.186 53.4655 46.5623 52.8256 47.0501C52.1789 47.5378 51.6615 48.1023 51.2599 48.7434C50.865 49.3844 50.6676 50.1022 50.6676 50.8896V68.2685H48.1557V46.7713L46.3926 46.0397V45.6285H46.3994Z" fill="white"/>
<path d="M69.1572 45.6285L73.4254 45.5798V48.597C74.2151 47.3149 75.2702 46.3811 76.5704 45.7818C77.8775 45.1895 79.2321 44.8899 80.6413 44.8899C81.642 44.8899 82.6086 45.0432 83.548 45.3498C84.4874 45.6564 85.3179 46.1024 86.0327 46.7016C86.7543 47.294 87.3329 48.0256 87.7686 48.8967C88.2111 49.7677 88.4289 50.7781 88.4289 51.9348V68.2615H85.8761V51.9348C85.9034 50.7781 85.7672 49.7956 85.4609 48.9873C85.1546 48.1789 84.7325 47.5239 84.2083 47.0222C83.6774 46.5205 83.0715 46.1442 82.384 45.9003C81.6964 45.6564 80.9816 45.5379 80.2464 45.5379C79.4227 45.5379 78.599 45.6703 77.7822 45.9282C76.9585 46.186 76.2233 46.5623 75.5834 47.0501C74.9367 47.5378 74.4193 48.1023 74.0177 48.7434C73.6228 49.3844 73.4254 50.1022 73.4254 50.8896V68.2685H70.9135V46.7713L69.1504 46.0397V45.6285H69.1572Z" fill="white"/>
<path d="M91.8262 45.6285H96.1421V68.2685H93.6301V46.7713L91.8262 46.0396V45.6285ZM93.1876 41.0573C93.1876 40.5417 93.351 40.1096 93.671 39.7752C93.9909 39.4407 94.4062 39.2734 94.9031 39.2734C95.3728 39.2734 95.7745 39.4407 96.1148 39.7752C96.4552 40.1096 96.6186 40.5347 96.6186 41.0573C96.6186 41.5799 96.4484 42.005 96.1148 42.3395C95.7745 42.674 95.3728 42.8412 94.9031 42.8412C94.4062 42.8412 93.9909 42.674 93.671 42.3395C93.3442 42.005 93.1876 41.5799 93.1876 41.0573Z" fill="white"/>
<path d="M99.9668 33.7894H104.283V68.3173H101.73V34.9322L99.9668 34.1518V33.7825V33.7894Z" fill="white"/>
<path d="M110.67 58.4363C111.405 57.9764 112.188 57.6001 113.025 57.2935C113.862 56.9869 114.713 56.7012 115.578 56.4225C116.442 56.1507 117.273 55.872 118.063 55.6002C118.852 55.3284 119.56 54.9731 120.173 54.548C120.792 54.1229 121.282 53.5864 121.65 52.9453C122.018 52.3042 122.201 51.5098 122.201 50.5691H122.242C122.038 48.8897 121.446 47.6564 120.459 46.862C119.478 46.0676 118.369 45.6704 117.137 45.6704C116.436 45.6704 115.721 45.7958 114.999 46.0397C114.278 46.2836 113.61 46.6529 112.998 47.1337C112.378 47.6215 111.834 48.2068 111.35 48.8967C110.867 49.5796 110.506 50.381 110.268 51.3008L109.567 51.1614C109.832 50.0953 110.241 49.1754 110.799 48.395C111.357 47.6145 111.99 46.9735 112.691 46.4508C113.393 45.9352 114.169 45.5519 114.999 45.308C115.837 45.0641 116.667 44.9387 117.484 44.9387C118.423 44.9387 119.336 45.0851 120.214 45.3708C121.092 45.6634 121.868 46.0955 122.549 46.6738C123.223 47.2522 123.767 47.956 124.176 48.7782C124.584 49.6005 124.795 50.5482 124.795 51.6143V68.2616H124.135L122.331 64.5545C121.541 65.9551 120.425 67.0212 118.988 67.7529C117.552 68.4846 116.041 68.8469 114.455 68.8469C113.692 68.8469 112.957 68.7563 112.256 68.5752C110.996 68.2407 110.009 67.6484 109.308 66.7913C108.607 65.9342 108.185 65.0004 108.056 63.9761C107.926 62.9517 108.069 61.9344 108.498 60.91C108.92 59.8927 109.649 59.0565 110.677 58.4154L110.67 58.4363ZM113.359 67.2651C113.713 67.4463 114.08 67.5787 114.461 67.6553C114.843 67.732 115.237 67.7668 115.653 67.7668C116.442 67.7668 117.225 67.6275 117.988 67.3557C118.75 67.0839 119.438 66.7007 120.057 66.2129C120.677 65.7251 121.187 65.1677 121.596 64.5405C122.004 63.9134 122.242 63.2653 122.297 62.5964V52.9453C121.854 53.9487 121.194 54.7152 120.316 55.2309C119.438 55.7465 118.491 56.1855 117.477 56.534C116.463 56.8824 115.455 57.2587 114.441 57.6558C113.427 58.053 112.569 58.6453 111.868 59.4397C111.398 59.9902 111.085 60.6452 110.922 61.4048C110.758 62.1643 110.745 62.9308 110.881 63.6904C111.017 64.4499 111.289 65.1537 111.718 65.7948C112.14 66.4359 112.691 66.9237 113.365 67.2582L113.359 67.2651Z" fill="white"/>
<path d="M128.497 45.6285L132.765 45.5798V48.597C133.555 47.3149 134.603 46.3811 135.91 45.7818C137.217 45.1895 138.572 44.8899 139.981 44.8899C140.982 44.8899 141.948 45.0432 142.888 45.3498C143.827 45.6564 144.658 46.1024 145.373 46.7016C146.094 47.294 146.673 48.0256 147.108 48.8967C147.551 49.7677 147.769 50.7781 147.769 51.9348V68.2615H145.216V51.9348C145.243 50.7781 145.107 49.7956 144.801 48.9873C144.494 48.1789 144.072 47.5239 143.548 47.0222C143.017 46.5205 142.411 46.1442 141.724 45.9003C141.036 45.6564 140.321 45.5379 139.586 45.5379C138.763 45.5379 137.939 45.6703 137.122 45.9282C136.298 46.186 135.563 46.5623 134.923 47.0501C134.277 47.5378 133.759 48.1023 133.358 48.7434C132.963 49.3844 132.765 50.1022 132.765 50.8896V68.2685H130.253V46.7713L128.49 46.0397V45.6285H128.497Z" fill="white"/>
<path d="M155.74 47.05C157.53 45.8026 159.436 45.1755 161.465 45.1755C162.697 45.1755 163.909 45.4264 165.1 45.9281C166.291 46.4298 167.353 47.1684 168.293 48.144V34.9252L166.489 34.1447V33.7754H170.804V68.2545H170.144L168.47 64.8679C167.768 66.0873 166.74 67.0211 165.386 67.6831C164.038 68.3381 162.581 68.6656 161.029 68.6656C160.09 68.6656 159.157 68.5332 158.231 68.2754C157.305 68.0176 156.434 67.5785 155.61 66.9723C154.61 66.2685 153.793 65.3905 153.146 64.3174C152.499 63.2512 152.016 62.0945 151.696 60.8402C151.376 59.5859 151.22 58.3038 151.233 56.9728C151.247 55.6488 151.424 54.3667 151.764 53.1333C152.105 51.8999 152.602 50.7501 153.262 49.677C153.922 48.6109 154.753 47.7259 155.747 47.0221L155.74 47.05ZM157.278 66.0316C157.952 66.6727 158.674 67.1465 159.436 67.4461C160.199 67.7528 160.988 67.9061 161.812 67.9061C163.044 67.9061 164.242 67.5785 165.399 66.9235C166.557 66.2685 167.517 65.3487 168.286 64.1571V49.3425C167.639 48.3391 166.74 47.5238 165.576 46.8967C164.419 46.2695 163.194 45.956 161.9 45.956C160.961 45.956 160.042 46.158 159.15 46.5483C158.252 46.9455 157.455 47.5865 156.754 48.4715C155.876 49.5655 155.216 50.9104 154.773 52.4922C154.331 54.081 154.133 55.7116 154.181 57.3839C154.222 59.0633 154.501 60.673 155.018 62.206C155.529 63.746 156.284 65.0212 157.285 66.0246L157.278 66.0316Z" fill="white"/>
<path d="M174.713 36.0748H186.204C188.021 36.0748 189.539 36.4511 190.758 37.1967C191.976 37.9423 192.895 38.8831 193.508 40.0119C194.128 41.1408 194.434 42.3533 194.434 43.6494C194.434 44.9455 194.128 46.158 193.508 47.2868C192.895 48.4157 191.976 49.3494 190.758 50.102C189.539 50.8476 188.021 51.2239 186.204 51.2239H179.294V68.2823H176.524V37.2595L174.72 36.479V36.0679L174.713 36.0748ZM179.294 36.9459V50.3459H184.972C186.408 50.3459 187.606 50.0184 188.559 49.3634C189.512 48.7083 190.234 47.8791 190.717 46.8687C191.2 45.8653 191.445 44.7852 191.445 43.6424C191.445 42.4996 191.2 41.4265 190.717 40.4161C190.234 39.4126 189.512 38.5765 188.559 37.9214C187.606 37.2664 186.408 36.9389 184.972 36.9389H179.294V36.9459Z" fill="white"/>
<path d="M196.197 58.4363C196.932 57.9764 197.715 57.6001 198.552 57.2935C199.39 56.9869 200.241 56.7012 201.105 56.4225C201.97 56.1507 202.8 55.872 203.59 55.6002C204.38 55.3284 205.088 54.9731 205.7 54.548C206.32 54.1229 206.81 53.5864 207.177 52.9453C207.545 52.3042 207.729 51.5098 207.729 50.5691H207.77C207.565 48.8897 206.973 47.6564 205.986 46.862C205.006 46.0676 203.896 45.6704 202.664 45.6704C201.963 45.6704 201.248 45.7958 200.527 46.0397C199.805 46.2836 199.138 46.6529 198.525 47.1337C197.906 47.6215 197.361 48.2068 196.878 48.8967C196.394 49.5796 196.034 50.381 195.795 51.3008L195.094 51.1614C195.36 50.0953 195.768 49.1754 196.326 48.395C196.885 47.6145 197.518 46.9735 198.219 46.4508C198.92 45.9352 199.696 45.5519 200.527 45.308C201.364 45.0641 202.194 44.9387 203.011 44.9387C203.951 44.9387 204.863 45.0851 205.741 45.3708C206.619 45.6634 207.395 46.0955 208.076 46.6738C208.75 47.2522 209.294 47.956 209.703 48.7782C210.111 49.6005 210.322 50.5482 210.322 51.6143V68.2616H209.662L207.858 64.5545C207.068 65.9551 205.952 67.0212 204.516 67.7529C203.079 68.4846 201.568 68.8469 199.982 68.8469C199.22 68.8469 198.484 68.7563 197.783 68.5752C196.524 68.2407 195.537 67.6484 194.836 66.7913C194.134 65.9342 193.712 65.0004 193.583 63.9761C193.454 62.9517 193.597 61.9344 194.025 60.91C194.448 59.8927 195.176 59.0565 196.204 58.4154L196.197 58.4363ZM198.886 67.2651C199.24 67.4463 199.608 67.5787 199.989 67.6553C200.37 67.732 200.765 67.7668 201.18 67.7668C201.97 67.7668 202.753 67.6275 203.515 67.3557C204.277 67.0839 204.965 66.7007 205.584 66.2129C206.204 65.7251 206.714 65.1677 207.123 64.5405C207.531 63.9134 207.77 63.2653 207.824 62.5964V52.9453C207.382 53.9487 206.721 54.7152 205.843 55.2309C204.965 55.7465 204.019 56.1855 203.004 56.534C201.99 56.8824 200.983 57.2587 199.968 57.6558C198.954 58.053 198.096 58.6453 197.395 59.4397C196.925 59.9902 196.612 60.6452 196.449 61.4048C196.286 62.1643 196.272 62.9308 196.408 63.6904C196.544 64.4499 196.817 65.1537 197.245 65.7948C197.667 66.4359 198.219 66.9237 198.893 67.2582L198.886 67.2651Z" fill="white"/>
<path d="M213.059 45.6284H216.183V34.9252L214.42 34.1447V33.7754H218.736V45.6215H224.638V46.3113H218.736V63.3209C218.709 64.3592 218.811 65.2024 219.042 65.8574C219.274 66.5124 219.6 67.0211 220.009 67.3904C220.594 67.906 221.343 68.1708 222.255 68.1708C223.487 68.1708 224.795 67.7109 226.176 66.7981L226.53 67.258C225.564 67.8712 224.672 68.2893 223.869 68.5193C223.065 68.7492 222.337 68.8607 221.69 68.8607C219.839 68.8607 218.464 68.2963 217.551 67.1674C216.639 66.0385 216.19 64.5125 216.19 62.5962V46.3183H213.065V45.6284H213.059Z" fill="white"/>
<path d="M229.342 45.6285H233.658V68.2685H231.146V46.7713L229.342 46.0396V45.6285ZM230.703 41.0573C230.703 40.5417 230.867 40.1096 231.187 39.7752C231.507 39.4407 231.922 39.2734 232.419 39.2734C232.888 39.2734 233.29 39.4407 233.63 39.7752C233.971 40.1096 234.134 40.5347 234.134 41.0573C234.134 41.5799 233.964 42.005 233.63 42.3395C233.29 42.674 232.888 42.8412 232.419 42.8412C231.922 42.8412 231.507 42.674 231.187 42.3395C230.86 42.005 230.703 41.5799 230.703 41.0573Z" fill="white"/>
<path d="M247.742 45.0361C250.029 45.0361 251.928 45.6215 253.439 46.7991C254.951 47.9698 256.087 49.4471 256.85 51.21C257.612 52.98 257.994 54.8893 257.994 56.9519C257.994 59.0145 257.612 60.9238 256.85 62.6938C256.087 64.4637 254.951 65.934 253.439 67.1047C251.928 68.2754 250.029 68.8677 247.742 68.8677C245.454 68.8677 243.589 68.2823 242.064 67.1047C240.539 65.934 239.396 64.4568 238.633 62.6938C237.871 60.9238 237.497 59.0145 237.51 56.9519C237.524 54.8963 237.905 52.98 238.654 51.21C239.403 49.4401 240.539 47.9698 242.064 46.7991C243.589 45.6284 245.482 45.0361 247.742 45.0361ZM247.742 68.2196C249.471 68.2196 250.914 67.6622 252.058 66.5472C253.201 65.4323 254.059 64.0387 254.631 62.3593C255.203 60.6869 255.482 58.8682 255.468 56.9171C255.454 54.9659 255.168 53.1542 254.61 51.4748C254.052 49.7955 253.194 48.4018 252.037 47.2939C250.88 46.1789 249.443 45.6215 247.742 45.6215C246.04 45.6215 244.617 46.1789 243.473 47.2939C242.33 48.4088 241.472 49.8024 240.9 51.4748C240.328 53.1542 240.036 54.9659 240.022 56.9171C240.008 58.8682 240.294 60.6869 240.88 62.3593C241.465 64.0387 242.33 65.4323 243.48 66.5472C244.624 67.6622 246.047 68.2196 247.748 68.2196H247.742Z" fill="white"/>
<path d="M17.2031 26.57C17.2031 26.57 17.4822 26.7302 18.0064 27.0229C18.5306 27.3225 19.3066 27.7406 20.2664 28.312C20.7634 28.5559 21.3216 28.8207 21.9206 29.1134C22.5265 29.3852 23.1392 29.7615 23.8676 30.0193C24.5755 30.305 25.3311 30.6116 26.1276 30.9321C26.9377 31.1969 27.7954 31.4757 28.6872 31.7614C29.579 32.0401 30.5388 32.2213 31.5123 32.4651C32.4925 32.6742 33.5204 32.8205 34.562 33.0087C35.6239 33.0993 36.7063 33.2456 37.8159 33.2804C38.9323 33.2874 40.0623 33.385 41.2264 33.3083C43.5409 33.2944 45.9303 32.9529 48.3469 32.6115C50.7635 32.2282 53.2074 31.6777 55.6376 31.0576C58.0747 30.4374 60.5049 29.7684 62.9079 29.0577C65.3041 28.3399 67.7003 27.7058 70.0353 27.0996C72.377 26.5073 74.6711 26.0195 76.8971 25.7407C79.1231 25.469 81.2606 25.3366 83.2416 25.5596C83.7317 25.5735 84.215 25.678 84.6848 25.7477C85.1545 25.8383 85.6106 25.8731 86.0462 26.0125C86.9176 26.2843 87.7481 26.4724 88.4765 26.8348C88.8441 26.995 89.198 27.1483 89.5452 27.3016C89.8788 27.4759 90.1851 27.6779 90.4778 27.8521C90.7706 28.0333 91.0565 28.2075 91.3219 28.3748C91.5806 28.5559 91.8121 28.758 92.0367 28.9392C92.4792 29.3085 92.8945 29.6012 93.2008 29.9217C93.5071 30.2423 93.759 30.521 93.97 30.744C94.3785 31.1899 94.6031 31.4269 94.6031 31.4269C94.6031 31.4269 94.3444 31.2318 93.8611 30.8764C93.6228 30.6952 93.3301 30.4722 92.9829 30.2144C92.6358 29.9566 92.1865 29.7405 91.7236 29.4479C91.4853 29.3085 91.2403 29.1552 90.9748 29.0158C90.6957 28.8974 90.403 28.772 90.1034 28.6465C89.7971 28.5211 89.4908 28.3748 89.164 28.2493C88.8236 28.1518 88.4765 28.0473 88.1157 27.9358C86.6793 27.4968 84.9911 27.3086 83.1599 27.2947C82.7038 27.3086 82.2341 27.3156 81.7576 27.3295C81.2811 27.3713 80.7909 27.434 80.3008 27.4828C79.8107 27.5246 79.3069 27.6013 78.7964 27.6919C78.2858 27.7825 77.7685 27.8382 77.2511 27.9636C75.1612 28.3748 72.9761 29.0158 70.7092 29.6639C68.4423 30.3259 66.1142 31.1342 63.7044 31.8519C61.3014 32.5906 58.8371 33.3153 56.3456 33.9773C53.8337 34.5835 51.3013 35.1201 48.7622 35.4894C46.223 35.8378 43.6975 36.0259 41.24 35.9563C40.0147 35.9702 38.8098 35.8517 37.6321 35.7472C36.4612 35.6218 35.3176 35.3988 34.2148 35.2176C33.1256 34.9389 32.05 34.7368 31.0425 34.4163C30.0419 34.0609 29.0616 33.7752 28.163 33.3989C27.2644 33.0017 26.3999 32.6463 25.5966 32.27C24.8206 31.845 24.0786 31.4338 23.3842 31.0506C22.6831 30.6952 22.0772 30.2423 21.5054 29.866C20.9404 29.4827 20.423 29.1273 19.9533 28.8138C19.0683 28.1169 18.3944 27.5455 17.9247 27.1623C17.455 26.779 17.2099 26.5769 17.2099 26.5769L17.2031 26.57Z" fill="white"/>
<path d="M31.5261 27.9289C31.5874 28.0056 31.6963 28.0195 31.7712 27.9568C35.1408 25.2461 39.3818 23.6295 43.9972 23.6295C48.6126 23.6295 53.2553 25.4064 56.693 28.347C56.7679 28.4097 56.8768 28.4028 56.9381 28.3261L63.6638 20.2708C63.5889 20.1802 63.5208 20.0826 63.4459 19.992L56.3254 23.8176C56.1824 23.8943 56.0191 23.7479 56.0803 23.5877L58.674 17.0932C58.5787 17.0235 58.4902 16.9539 58.3948 16.8911L53.2689 21.5111C53.1395 21.6296 52.9353 21.5042 52.983 21.3299L55.1069 12.8774C55.0048 12.8217 54.9027 12.7729 54.8005 12.7171L48.6058 20.5216C48.5105 20.6401 48.3267 20.5913 48.2927 20.445L47.1831 14.6613C47.0742 14.6474 46.9584 14.6334 46.8495 14.6125L43.8951 20.7376C43.8134 20.9049 43.5752 20.8561 43.5616 20.668L42.1116 0C41.9959 0 41.8801 0 41.7576 0L39.6337 20.9606C39.6201 21.1279 39.409 21.1836 39.3137 21.0512L35.699 15.9853C35.5901 16.0201 35.488 16.0549 35.3791 16.0898V20.438C35.3791 20.5983 35.1885 20.6819 35.0795 20.5704L27.1626 12.7102C27.0673 12.7798 26.9788 12.8565 26.8835 12.9262L31.846 22.2846C31.9277 22.4379 31.778 22.6051 31.6214 22.5355L25.6105 19.9293C25.5424 20.0199 25.4743 20.1175 25.4062 20.208L31.5193 27.9219L31.5261 27.9289Z" fill="white"/>
<path d="M203.984 88.144C203.52 88.144 203.108 88.096 202.748 88C202.388 87.896 202.076 87.756 201.812 87.58C201.548 87.396 201.332 87.196 201.164 86.98C200.996 86.756 200.872 86.52 200.792 86.272L201.764 85.936C201.884 86.288 202.124 86.596 202.484 86.86C202.852 87.116 203.3 87.244 203.828 87.244C204.476 87.244 204.984 87.116 205.352 86.86C205.72 86.604 205.904 86.264 205.904 85.84C205.904 85.448 205.74 85.132 205.412 84.892C205.084 84.644 204.652 84.452 204.116 84.316L203.192 84.076C202.816 83.98 202.468 83.84 202.148 83.656C201.836 83.464 201.584 83.224 201.392 82.936C201.208 82.64 201.116 82.288 201.116 81.88C201.116 81.12 201.36 80.528 201.848 80.104C202.344 79.672 203.056 79.456 203.984 79.456C204.536 79.456 205.012 79.548 205.412 79.732C205.812 79.908 206.136 80.136 206.384 80.416C206.64 80.688 206.82 80.984 206.924 81.304L205.964 81.64C205.812 81.24 205.556 80.928 205.196 80.704C204.836 80.472 204.4 80.356 203.888 80.356C203.352 80.356 202.924 80.488 202.604 80.752C202.292 81.008 202.136 81.36 202.136 81.808C202.136 82.192 202.26 82.488 202.508 82.696C202.756 82.896 203.08 83.044 203.48 83.14L204.404 83.368C205.22 83.56 205.844 83.88 206.276 84.328C206.716 84.768 206.936 85.244 206.936 85.756C206.936 86.196 206.824 86.6 206.6 86.968C206.376 87.328 206.044 87.616 205.604 87.832C205.172 88.04 204.632 88.144 203.984 88.144ZM208.451 88L208.475 82H209.435L209.411 88H208.451ZM208.943 80.608C208.783 80.608 208.643 80.548 208.523 80.428C208.403 80.308 208.343 80.168 208.343 80.008C208.343 79.84 208.403 79.7 208.523 79.588C208.643 79.468 208.783 79.408 208.943 79.408C209.111 79.408 209.251 79.468 209.363 79.588C209.483 79.7 209.543 79.84 209.543 80.008C209.543 80.168 209.483 80.308 209.363 80.428C209.251 80.548 209.111 80.608 208.943 80.608ZM211.18 88V82H212.08L212.14 83.104V88H211.18ZM215.392 88V84.928L216.352 84.568V88H215.392ZM215.392 84.928C215.392 84.336 215.324 83.884 215.188 83.572C215.052 83.26 214.864 83.048 214.624 82.936C214.384 82.816 214.112 82.756 213.808 82.756C213.28 82.756 212.868 82.944 212.572 83.32C212.284 83.688 212.14 84.212 212.14 84.892H211.672C211.672 84.26 211.764 83.716 211.948 83.26C212.132 82.804 212.396 82.456 212.74 82.216C213.092 81.976 213.516 81.856 214.012 81.856C214.74 81.856 215.312 82.08 215.728 82.528C216.152 82.976 216.36 83.656 216.352 84.568L215.392 84.928ZM220.547 88.144C219.955 88.144 219.431 88.012 218.975 87.748C218.519 87.476 218.163 87.104 217.907 86.632C217.651 86.16 217.523 85.616 217.523 85C217.523 84.384 217.647 83.84 217.895 83.368C218.151 82.896 218.507 82.528 218.963 82.264C219.419 81.992 219.939 81.856 220.523 81.856C221.099 81.856 221.615 81.988 222.071 82.252C222.527 82.516 222.875 82.888 223.115 83.368L222.239 83.764C222.079 83.444 221.847 83.196 221.543 83.02C221.239 82.836 220.891 82.744 220.499 82.744C220.107 82.744 219.759 82.84 219.455 83.032C219.159 83.224 218.923 83.492 218.747 83.836C218.579 84.172 218.495 84.56 218.495 85C218.495 85.44 218.579 85.832 218.747 86.176C218.923 86.512 219.163 86.776 219.467 86.968C219.779 87.16 220.131 87.256 220.523 87.256C220.915 87.256 221.263 87.156 221.567 86.956C221.879 86.756 222.115 86.476 222.275 86.116L223.151 86.512C222.911 87.024 222.563 87.424 222.107 87.712C221.651 88 221.131 88.144 220.547 88.144ZM227.015 88.144C226.431 88.144 225.915 88.012 225.467 87.748C225.027 87.476 224.679 87.104 224.423 86.632C224.167 86.16 224.039 85.616 224.039 85C224.039 84.384 224.163 83.84 224.411 83.368C224.667 82.896 225.019 82.528 225.467 82.264C225.915 81.992 226.423 81.856 226.991 81.856C227.551 81.856 228.035 81.996 228.443 82.276C228.851 82.548 229.167 82.932 229.391 83.428C229.615 83.924 229.727 84.508 229.727 85.18H228.767C228.767 84.668 228.699 84.232 228.563 83.872C228.427 83.504 228.227 83.22 227.963 83.02C227.699 82.82 227.371 82.72 226.979 82.72C226.587 82.72 226.243 82.816 225.947 83.008C225.659 83.192 225.435 83.456 225.275 83.8C225.115 84.144 225.035 84.548 225.035 85.012C225.035 85.468 225.123 85.864 225.299 86.2C225.475 86.528 225.715 86.788 226.019 86.98C226.323 87.164 226.671 87.256 227.063 87.256C227.487 87.256 227.843 87.156 228.131 86.956C228.419 86.756 228.643 86.496 228.803 86.176L229.655 86.596C229.495 86.908 229.287 87.18 229.031 87.412C228.783 87.644 228.491 87.824 228.155 87.952C227.819 88.08 227.439 88.144 227.015 88.144ZM224.687 85.18V84.352H229.139V85.18H224.687ZM235.69 88L235.702 80.14L235.786 79.6H236.698L236.674 88H235.69ZM233.818 81.76V80.836C233.986 80.844 234.186 80.788 234.418 80.668C234.65 80.548 234.89 80.392 235.138 80.2C235.386 80.008 235.602 79.808 235.786 79.6L236.41 80.284C236.146 80.564 235.87 80.816 235.582 81.04C235.294 81.264 235.002 81.444 234.706 81.58C234.41 81.708 234.114 81.768 233.818 81.76ZM241.259 79.456C241.851 79.456 242.339 79.568 242.723 79.792C243.107 80.008 243.415 80.304 243.647 80.68C243.887 81.056 244.055 81.492 244.151 81.988C244.255 82.476 244.307 82.996 244.307 83.548C244.307 84.268 244.231 84.912 244.079 85.48C243.927 86.048 243.711 86.532 243.431 86.932C243.151 87.324 242.811 87.624 242.411 87.832C242.019 88.04 241.571 88.144 241.067 88.144C240.651 88.144 240.235 88.08 239.819 87.952C239.411 87.816 239.043 87.632 238.715 87.4L239.279 86.68C239.535 86.856 239.811 86.996 240.107 87.1C240.411 87.196 240.699 87.244 240.971 87.244C241.787 87.244 242.407 86.9 242.831 86.212C243.263 85.524 243.451 84.484 243.395 83.092L243.611 83.296C243.419 83.784 243.111 84.172 242.687 84.46C242.263 84.748 241.763 84.892 241.187 84.892C240.643 84.892 240.163 84.776 239.747 84.544C239.331 84.304 239.003 83.98 238.763 83.572C238.531 83.164 238.415 82.692 238.415 82.156C238.415 81.628 238.535 81.164 238.775 80.764C239.015 80.356 239.347 80.036 239.771 79.804C240.203 79.572 240.699 79.456 241.259 79.456ZM241.259 80.344C240.907 80.344 240.591 80.424 240.311 80.584C240.031 80.736 239.811 80.952 239.651 81.232C239.499 81.504 239.423 81.82 239.423 82.18C239.423 82.54 239.499 82.86 239.651 83.14C239.811 83.412 240.031 83.628 240.311 83.788C240.591 83.94 240.907 84.016 241.259 84.016C241.627 84.016 241.947 83.94 242.219 83.788C242.499 83.628 242.715 83.412 242.867 83.14C243.027 82.86 243.107 82.54 243.107 82.18C243.107 81.82 243.027 81.504 242.867 81.232C242.715 80.952 242.499 80.736 242.219 80.584C241.947 80.424 241.627 80.344 241.259 80.344ZM245.836 88L249.988 80.224L250.936 80.44L246.952 88H245.836ZM245.356 80.524V79.6H250.936V80.44L250.156 80.524H245.356ZM252.989 87.412L251.981 87.16C251.981 86.896 252.033 86.636 252.137 86.38C252.249 86.116 252.405 85.856 252.605 85.6C252.813 85.344 253.065 85.104 253.361 84.88L255.101 83.572C255.309 83.428 255.489 83.264 255.641 83.08C255.801 82.888 255.925 82.692 256.013 82.492C256.101 82.284 256.145 82.084 256.145 81.892C256.145 81.612 256.077 81.36 255.941 81.136C255.805 80.904 255.613 80.72 255.365 80.584C255.117 80.448 254.825 80.38 254.489 80.38C254.161 80.38 253.873 80.444 253.625 80.572C253.377 80.692 253.173 80.856 253.013 81.064C252.853 81.264 252.737 81.48 252.665 81.712L251.633 81.508C251.729 81.148 251.901 80.812 252.149 80.5C252.405 80.188 252.729 79.936 253.121 79.744C253.513 79.552 253.949 79.456 254.429 79.456C254.989 79.456 255.473 79.564 255.881 79.78C256.289 79.988 256.605 80.276 256.829 80.644C257.061 81.004 257.177 81.416 257.177 81.88C257.177 82.32 257.057 82.736 256.817 83.128C256.577 83.52 256.229 83.9 255.773 84.268L254.129 85.516C253.897 85.684 253.693 85.868 253.517 86.068C253.349 86.268 253.217 86.48 253.121 86.704C253.033 86.92 252.989 87.156 252.989 87.412ZM251.981 88V87.16L252.749 87.1H257.297V88H251.981Z" fill="white"/>
</svg>
