<svg width="249" height="52" viewBox="0 0 249 52" fill="none" xmlns="http://www.w3.org/2000/svg">
<path d="M13.7594 29.599C13.4362 29.151 13.0632 28.7545 12.6356 28.4146C12.2079 28.0748 11.7355 27.7915 11.2233 27.5547C10.7111 27.3178 10.1691 27.1427 9.59726 27.0294C9.03037 26.9161 8.46846 26.8595 7.91152 26.8595C7.14076 26.8595 6.39486 26.9728 5.67879 27.1994C4.96273 27.4259 4.34612 27.7864 3.82896 28.2807C3.27202 28.8214 2.88415 29.3982 2.67033 30.0058C2.4565 30.6134 2.39683 31.2108 2.49131 31.7978C2.58579 32.3848 2.82945 32.9461 3.21732 33.4868C3.60519 34.0275 4.09748 34.5013 4.6942 34.9081C5.23125 35.2479 5.86278 35.5775 6.59376 35.907C7.32475 36.2315 8.09054 36.5868 8.89114 36.973C9.69671 37.354 10.4874 37.766 11.2731 38.2088C12.0538 38.6465 12.7549 39.1615 13.3815 39.7485C14.003 40.3356 14.5053 40.9998 14.8932 41.7413C15.281 42.4829 15.47 43.3428 15.47 44.3109C15.47 45.3923 15.2711 46.3501 14.8733 47.1843C14.4755 48.0185 13.9434 48.7188 13.282 49.2801C12.6157 49.8465 11.8449 50.2739 10.9647 50.5623C10.0846 50.8558 9.16464 51 8.19994 51C6.6783 51 5.19147 50.655 3.74442 49.9701C2.29737 49.2853 1.04923 48.2966 0 47.0144L0.387869 46.6745C1.37246 47.8692 2.55098 48.76 3.92344 49.3419C5.2959 49.9289 6.72305 50.2225 8.19994 50.2225C8.93092 50.1761 9.6271 50.0319 10.2885 49.7848C10.9548 49.5376 11.5366 49.1771 12.0388 48.7034C12.5411 48.2296 12.9389 47.6426 13.2273 46.9474C13.5157 46.2471 13.64 45.4489 13.5953 44.5478C13.5754 43.8732 13.3815 43.2501 13.0185 42.6888C12.6555 42.1276 12.188 41.6126 11.6211 41.1492C11.0543 40.6857 10.4078 40.2635 9.69174 39.8824C8.97567 39.5013 8.24966 39.146 7.51868 38.8165C6.7877 38.4921 6.08158 38.1779 5.39535 37.8896C4.70912 37.5961 4.11737 37.3128 3.62508 37.0451C2.72502 36.5507 1.98907 35.8864 1.42218 35.0522C0.8553 34.218 0.556939 33.2602 0.537049 32.1789C0.537049 31.1902 0.740928 30.3148 1.14869 29.5578C1.55645 28.8008 2.0935 28.1726 2.75486 27.6628C3.4212 27.1582 4.16213 26.7771 4.98759 26.5299C5.81305 26.2828 6.65344 26.1592 7.51371 26.1592C8.77677 26.1592 10.005 26.4167 11.1935 26.9367C12.382 27.4568 13.3417 28.219 14.0727 29.2334L13.7494 29.6041L13.7594 29.599Z" fill="white"/>
<path d="M17.0362 33.7183H20.1889V45.7834C20.169 46.6176 20.2685 47.3385 20.4922 47.9461C20.716 48.5538 21.0243 49.043 21.4072 49.4137C21.7951 49.7845 22.2376 50.0626 22.7399 50.2428C23.2421 50.423 23.7642 50.5106 24.3013 50.5106C24.903 50.5106 25.4997 50.4179 26.1014 50.2222C26.7031 50.0317 27.2352 49.7536 27.7076 49.3931C28.18 49.0327 28.5579 48.6104 28.8513 48.1264C29.1397 47.6423 29.2839 47.1171 29.2839 46.5558V33.7131H31.1188V50.4436L30.6365 50.4076L29.448 48.0079C28.8712 49.0224 28.0855 49.769 27.1009 50.2582C26.1163 50.7423 25.087 50.9843 24.0129 50.9843C23.2819 50.9843 22.5808 50.871 21.9045 50.6444C21.2282 50.4179 20.6215 50.0883 20.0894 49.6455C19.5524 49.2078 19.1247 48.6671 18.8015 48.0234C18.4783 47.3797 18.3192 46.633 18.3192 45.7782V34.5576L17.0312 34.0169V33.7131L17.0362 33.7183Z" fill="white"/>
<path d="M33.8897 33.7189L37.0076 33.6829V35.9126C37.5844 34.9651 38.3552 34.2751 39.305 33.8322C40.2597 33.3945 41.2493 33.1731 42.2786 33.1731C43.0096 33.1731 43.7157 33.2864 44.402 33.513C45.0882 33.7395 45.6949 34.0691 46.217 34.5119C46.7441 34.9496 47.1668 35.4903 47.485 36.134C47.8083 36.7777 47.9674 37.5244 47.9674 38.3792V50.4443H46.1026V38.3792C46.1225 37.5244 46.0231 36.7983 45.7993 36.201C45.5755 35.6036 45.2672 35.1196 44.8843 34.7488C44.4964 34.3781 44.0539 34.1 43.5516 33.9198C43.0494 33.7395 42.5273 33.652 41.9902 33.652C41.3885 33.652 40.7868 33.7498 40.1901 33.9404C39.5884 34.1309 39.0514 34.409 38.5839 34.7694C38.1115 35.1299 37.7336 35.547 37.4402 36.0207C37.1518 36.4945 37.0076 37.0249 37.0076 37.6068V50.4494H35.1727V34.5634L33.8848 34.0228V33.7189H33.8897Z" fill="white"/>
<path d="M50.5128 33.7187L53.6307 33.6826V35.9123C54.2075 34.9649 54.9782 34.2748 55.928 33.832C56.8828 33.3943 57.8723 33.1729 58.9017 33.1729C59.6327 33.1729 60.3388 33.2861 61.025 33.5127C61.7112 33.7393 62.3179 34.0689 62.84 34.5117C63.3671 34.9494 63.7898 35.4901 64.1081 36.1338C64.4313 36.7774 64.5904 37.5241 64.5904 38.3789V50.444H62.7257V38.3789C62.7456 37.5241 62.6461 36.798 62.4223 36.2007C62.1986 35.6034 61.8903 35.1193 61.5074 34.7486C61.1195 34.3778 60.6769 34.0998 60.1747 33.9195C59.6725 33.7393 59.1503 33.6517 58.6133 33.6517C58.0116 33.6517 57.4099 33.7496 56.8132 33.9401C56.2115 34.1306 55.6744 34.4087 55.207 34.7692C54.7346 35.1296 54.3567 35.5467 54.0633 36.0205C53.7749 36.4942 53.6307 37.0246 53.6307 37.6065V50.4492H51.7957V34.5632L50.5078 34.0225V33.7187H50.5128Z" fill="white"/>
<path d="M67.0703 33.718H70.223V50.4485H68.3881V34.5625L67.0703 34.0218V33.718ZM68.0648 30.34C68.0648 29.9589 68.1842 29.6397 68.4179 29.3925C68.6516 29.1453 68.955 29.0217 69.318 29.0217C69.6611 29.0217 69.9545 29.1453 70.2031 29.3925C70.4517 29.6397 70.5711 29.9538 70.5711 30.34C70.5711 30.7262 70.4468 31.0403 70.2031 31.2875C69.9545 31.5346 69.6611 31.6582 69.318 31.6582C68.955 31.6582 68.6516 31.5346 68.4179 31.2875C68.1792 31.0403 68.0648 30.7262 68.0648 30.34Z" fill="white"/>
<path d="M73.0195 24.9695H76.1722V50.4849H74.3075V25.814L73.0195 25.2373V24.9644V24.9695Z" fill="white"/>
<path d="M80.8376 43.1829C81.3746 42.8431 81.9465 42.565 82.5581 42.3384C83.1697 42.1119 83.7913 41.9007 84.4229 41.6948C85.0544 41.4939 85.6611 41.2879 86.2379 41.0871C86.8147 40.8863 87.3319 40.6237 87.7794 40.3096C88.2319 39.9954 88.59 39.5989 88.8585 39.1252C89.127 38.6514 89.2613 38.0644 89.2613 37.3692H89.2911C89.1419 36.1282 88.7093 35.2168 87.9883 34.6297C87.2722 34.0427 86.4617 33.7492 85.5616 33.7492C85.0494 33.7492 84.5273 33.8419 84.0002 34.0221C83.4731 34.2023 82.9858 34.4753 82.5382 34.8306C82.0857 35.191 81.6879 35.6236 81.3348 36.1334C80.9818 36.638 80.7182 37.2302 80.5442 37.9099L80.032 37.8069C80.2259 37.0191 80.5243 36.3393 80.932 35.7626C81.3398 35.1859 81.8023 34.7121 82.3144 34.3259C82.8266 33.9449 83.3935 33.6616 84.0002 33.4814C84.6118 33.3012 85.2185 33.2085 85.8152 33.2085C86.5014 33.2085 87.1678 33.3166 87.8093 33.5278C88.4507 33.744 89.0176 34.0633 89.5149 34.4907C90.0072 34.9181 90.405 35.4382 90.7034 36.0458C91.0017 36.6535 91.1559 37.3538 91.1559 38.1416V50.4436H90.6735L89.3558 47.7041C88.7789 48.7392 87.9634 49.527 86.9142 50.0677C85.8649 50.6084 84.761 50.8762 83.6024 50.8762C83.0454 50.8762 82.5084 50.8092 81.9962 50.6754C81.0763 50.4282 80.3552 49.9905 79.843 49.3571C79.3308 48.7237 79.0225 48.0337 78.9281 47.2767C78.8336 46.5198 78.938 45.7679 79.2513 45.011C79.5596 44.2592 80.0917 43.6412 80.8425 43.1675L80.8376 43.1829ZM82.8018 49.7073C83.0604 49.8411 83.3289 49.939 83.6073 49.9956C83.8858 50.0523 84.1742 50.078 84.4776 50.078C85.0544 50.078 85.6263 49.975 86.1832 49.7742C86.7401 49.5734 87.2424 49.2901 87.6949 48.9297C88.1474 48.5692 88.5203 48.1573 88.8187 47.6938C89.1171 47.2304 89.2911 46.7515 89.3309 46.2571V39.1252C89.0077 39.8667 88.5253 40.4331 87.8838 40.8142C87.2424 41.1953 86.5512 41.5197 85.8102 41.7771C85.0693 42.0346 84.3334 42.3127 83.5924 42.6062C82.8515 42.8997 82.2249 43.3374 81.7128 43.9245C81.3696 44.3313 81.1409 44.8153 81.0216 45.3766C80.9022 45.9379 80.8923 46.5043 80.9917 47.0656C81.0912 47.6269 81.2901 48.147 81.6034 48.6207C81.9117 49.0945 82.3144 49.4549 82.8067 49.7021L82.8018 49.7073Z" fill="white"/>
<path d="M93.8585 33.7189L96.9764 33.6829V35.9126C97.5532 34.9651 98.319 34.2751 99.2737 33.8322C100.228 33.3945 101.218 33.1731 102.247 33.1731C102.978 33.1731 103.684 33.2864 104.371 33.513C105.057 33.7395 105.664 34.0691 106.186 34.5119C106.713 34.9496 107.136 35.4903 107.454 36.134C107.777 36.7777 107.936 37.5244 107.936 38.3792V50.4443H106.071V38.3792C106.091 37.5244 105.992 36.7983 105.768 36.201C105.544 35.6036 105.236 35.1196 104.853 34.7488C104.465 34.3781 104.023 34.1 103.52 33.9198C103.018 33.7395 102.496 33.652 101.959 33.652C101.357 33.652 100.756 33.7498 100.159 33.9404C99.5572 34.1309 99.0201 34.409 98.5527 34.7694C98.0803 35.1299 97.7024 35.547 97.409 36.0207C97.1206 36.4945 96.9764 37.0249 96.9764 37.6068V50.4494H95.1414V34.5634L93.8535 34.0228V33.7189H93.8585Z" fill="white"/>
<path d="M113.759 34.7684C115.067 33.8466 116.459 33.3832 117.941 33.3832C118.841 33.3832 119.727 33.5686 120.597 33.9393C121.467 34.3101 122.243 34.8559 122.929 35.5769V25.8084L121.611 25.2317V24.9587H124.764V50.4381H124.281L123.058 47.9355C122.546 48.8366 121.795 49.5266 120.806 50.0158C119.821 50.4999 118.757 50.7419 117.623 50.7419C116.937 50.7419 116.256 50.6441 115.579 50.4535C114.903 50.263 114.267 49.9386 113.665 49.4906C112.934 48.9705 112.337 48.3217 111.865 47.5287C111.392 46.7408 111.039 45.886 110.806 44.9591C110.572 44.0322 110.457 43.0847 110.467 42.1012C110.477 41.1228 110.607 40.1753 110.855 39.2638C111.104 38.3524 111.467 37.5027 111.949 36.7097C112.432 35.9219 113.038 35.2679 113.764 34.7478L113.759 34.7684ZM114.883 48.7954C115.375 49.2692 115.903 49.6193 116.459 49.8408C117.016 50.0673 117.593 50.1806 118.195 50.1806C119.095 50.1806 119.97 49.9386 120.816 49.4546C121.661 48.9705 122.362 48.2908 122.924 47.4102V36.4626C122.452 35.721 121.795 35.1186 120.945 34.6551C120.099 34.1917 119.204 33.9599 118.26 33.9599C117.573 33.9599 116.902 34.1093 116.251 34.3976C115.594 34.6912 115.012 35.1649 114.5 35.8189C113.859 36.6273 113.376 37.6212 113.053 38.7901C112.73 39.9642 112.586 41.1691 112.621 42.405C112.65 43.646 112.854 44.8355 113.232 45.9684C113.605 47.1064 114.157 48.0488 114.888 48.7903L114.883 48.7954Z" fill="white"/>
<path d="M127.619 26.6585H136.013C137.341 26.6585 138.45 26.9365 139.34 27.4875C140.23 28.0385 140.901 28.7337 141.349 29.5679C141.801 30.4021 142.025 31.2981 142.025 32.2559C142.025 33.2137 141.801 34.1097 141.349 34.9439C140.901 35.7781 140.23 36.4681 139.34 37.0243C138.45 37.5753 137.341 37.8533 136.013 37.8533H130.966V50.4591H128.942V27.5339L127.624 26.9571V26.6533L127.619 26.6585ZM130.966 27.3021V37.2045H135.113C136.162 37.2045 137.037 36.9625 137.734 36.4784C138.43 35.9944 138.957 35.3816 139.31 34.6349C139.663 33.8934 139.842 33.0953 139.842 32.2507C139.842 31.4062 139.663 30.6132 139.31 29.8666C138.957 29.125 138.43 28.5071 137.734 28.0231C137.037 27.539 136.162 27.297 135.113 27.297H130.966V27.3021Z" fill="white"/>
<path d="M143.312 43.1829C143.849 42.8431 144.421 42.565 145.033 42.3384C145.644 42.1119 146.266 41.9007 146.897 41.6948C147.529 41.4939 148.136 41.2879 148.713 41.0871C149.289 40.8863 149.806 40.6237 150.254 40.3096C150.707 39.9954 151.065 39.5989 151.333 39.1252C151.602 38.6514 151.736 38.0644 151.736 37.3692H151.766C151.617 36.1282 151.184 35.2168 150.463 34.6297C149.747 34.0427 148.936 33.7492 148.036 33.7492C147.524 33.7492 147.002 33.8419 146.475 34.0221C145.948 34.2023 145.46 34.4753 145.013 34.8306C144.56 35.191 144.163 35.6236 143.809 36.1334C143.456 36.638 143.193 37.2302 143.019 37.9099L142.507 37.8069C142.701 37.0191 142.999 36.3393 143.407 35.7626C143.814 35.1859 144.277 34.7121 144.789 34.3259C145.301 33.9449 145.868 33.6616 146.475 33.4814C147.086 33.3012 147.693 33.2085 148.29 33.2085C148.976 33.2085 149.642 33.3166 150.284 33.5278C150.925 33.744 151.492 34.0633 151.989 34.4907C152.482 34.9181 152.88 35.4382 153.178 36.0458C153.476 36.6535 153.63 37.3538 153.63 38.1416V50.4436H153.148L151.83 47.7041C151.254 48.7392 150.438 49.527 149.389 50.0677C148.34 50.6084 147.236 50.8762 146.077 50.8762C145.52 50.8762 144.983 50.8092 144.471 50.6754C143.551 50.4282 142.83 49.9905 142.318 49.3571C141.805 48.7237 141.497 48.0337 141.403 47.2767C141.308 46.5198 141.413 45.7679 141.726 45.011C142.034 44.2592 142.566 43.6412 143.317 43.1675L143.312 43.1829ZM145.276 49.7073C145.535 49.8411 145.803 49.939 146.082 49.9956C146.36 50.0523 146.649 50.078 146.952 50.078C147.529 50.078 148.101 49.975 148.658 49.7742C149.215 49.5734 149.717 49.2901 150.169 48.9297C150.622 48.5692 150.995 48.1573 151.293 47.6938C151.592 47.2304 151.766 46.7515 151.806 46.2571V39.1252C151.482 39.8667 151 40.4331 150.358 40.8142C149.717 41.1953 149.026 41.5197 148.285 41.7771C147.544 42.0346 146.808 42.3127 146.067 42.6062C145.326 42.8997 144.7 43.3374 144.187 43.9245C143.844 44.3313 143.616 44.8153 143.496 45.3766C143.377 45.9379 143.367 46.5043 143.466 47.0656C143.566 47.6269 143.765 48.147 144.078 48.6207C144.386 49.0945 144.789 49.4549 145.281 49.7021L145.276 49.7073Z" fill="white"/>
<path d="M155.629 33.7179H157.911V25.8084L156.623 25.2317V24.9587H159.776V33.7128H164.087V34.2226H159.776V46.7923C159.756 47.5596 159.831 48.1826 160 48.6667C160.169 49.1507 160.408 49.5266 160.706 49.7996C161.134 50.1806 161.681 50.3763 162.347 50.3763C163.247 50.3763 164.202 50.0364 165.211 49.3619L165.47 49.7017C164.764 50.1549 164.112 50.4638 163.525 50.6338C162.939 50.8037 162.407 50.8861 161.934 50.8861C160.582 50.8861 159.577 50.469 158.911 49.6348C158.245 48.8006 157.916 47.6729 157.916 46.2568V34.2277H155.634V33.7179H155.629Z" fill="white"/>
<path d="M167.525 33.718H170.678V50.4485H168.843V34.5625L167.525 34.0218V33.718ZM168.52 30.34C168.52 29.9589 168.639 29.6397 168.873 29.3925C169.107 29.1453 169.41 29.0217 169.773 29.0217C170.116 29.0217 170.41 29.1453 170.658 29.3925C170.907 29.6397 171.026 29.9538 171.026 30.34C171.026 30.7262 170.902 31.0403 170.658 31.2875C170.41 31.5346 170.116 31.6582 169.773 31.6582C169.41 31.6582 169.107 31.5346 168.873 31.2875C168.634 31.0403 168.52 30.7262 168.52 30.34Z" fill="white"/>
<path d="M180.966 33.281C182.637 33.281 184.025 33.7136 185.129 34.5838C186.232 35.4489 187.063 36.5406 187.62 37.8434C188.177 39.1514 188.455 40.5623 188.455 42.0865C188.455 43.6108 188.177 45.0217 187.62 46.3297C187.063 47.6376 186.232 48.7241 185.129 49.5892C184.025 50.4543 182.637 50.892 180.966 50.892C179.296 50.892 177.933 50.4595 176.819 49.5892C175.705 48.7241 174.87 47.6325 174.313 46.3297C173.756 45.0217 173.483 43.6108 173.492 42.0865C173.502 40.5674 173.781 39.1514 174.328 37.8434C174.875 36.5354 175.705 35.4489 176.819 34.5838C177.933 33.7187 179.315 33.281 180.966 33.281ZM180.966 50.4131C182.229 50.4131 183.284 50.0012 184.119 49.1773C184.954 48.3534 185.581 47.3235 185.999 46.0825C186.416 44.8466 186.62 43.5026 186.61 42.0608C186.6 40.6189 186.392 39.2801 185.984 38.0391C185.576 36.7981 184.949 35.7682 184.104 34.9494C183.259 34.1255 182.21 33.7136 180.966 33.7136C179.723 33.7136 178.684 34.1255 177.849 34.9494C177.013 35.7733 176.387 36.8032 175.969 38.0391C175.551 39.2801 175.337 40.6189 175.327 42.0608C175.317 43.5026 175.526 44.8466 175.954 46.0825C176.382 47.3235 177.013 48.3534 177.853 49.1773C178.689 50.0012 179.728 50.4131 180.971 50.4131H180.966Z" fill="white"/>
<path d="M12.5605 19.6352C12.5605 19.6352 12.7644 19.7536 13.1473 19.9699C13.5302 20.1913 14.0971 20.5003 14.7982 20.9226C15.1613 21.1028 15.569 21.2985 16.0066 21.5147C16.4492 21.7156 16.8967 21.9936 17.4288 22.1842C17.946 22.3953 18.4979 22.6219 19.0797 22.8587C19.6715 23.0544 20.298 23.2604 20.9494 23.4715C21.6009 23.6775 22.302 23.8114 23.0131 23.9916C23.7292 24.1461 24.48 24.2542 25.2409 24.3933C26.0166 24.4602 26.8073 24.5683 27.6178 24.5941C28.4333 24.5992 29.2588 24.6713 30.1091 24.6147C31.7998 24.6044 33.5452 24.3521 35.3105 24.0998C37.0758 23.8165 38.861 23.4097 40.6363 22.9514C42.4165 22.4931 44.1917 21.9988 45.9471 21.4735C47.6975 20.9432 49.4478 20.4746 51.1535 20.0266C52.8641 19.5889 54.5399 19.2284 56.1659 19.0224C57.792 18.8216 59.3534 18.7237 60.8004 18.8885C61.1585 18.8988 61.5115 18.9761 61.8547 19.0276C62.1978 19.0945 62.5309 19.1203 62.8492 19.2232C63.4857 19.4241 64.0924 19.5631 64.6244 19.8309C64.893 19.9493 65.1515 20.0626 65.4051 20.1759C65.6488 20.3046 65.8726 20.454 66.0864 20.5827C66.3002 20.7166 66.5091 20.8453 66.703 20.9689C66.892 21.1028 67.061 21.2521 67.2251 21.386C67.5484 21.6589 67.8517 21.8752 68.0755 22.1121C68.2992 22.3489 68.4832 22.5549 68.6374 22.7197C68.9357 23.0493 69.0998 23.2243 69.0998 23.2243C69.0998 23.2243 68.9109 23.0802 68.5578 22.8175C68.3838 22.6837 68.1699 22.5189 67.9163 22.3283C67.6627 22.1378 67.3345 21.9782 66.9964 21.7619C66.8224 21.6589 66.6433 21.5456 66.4494 21.4426C66.2455 21.3551 66.0317 21.2624 65.8129 21.1697C65.5891 21.077 65.3654 20.9689 65.1267 20.8762C64.878 20.8041 64.6244 20.7269 64.3609 20.6445C63.3116 20.3201 62.0784 20.181 60.7408 20.1707C60.4076 20.181 60.0645 20.1862 59.7164 20.1965C59.3683 20.2274 59.0103 20.2737 58.6523 20.3098C58.2942 20.3407 57.9262 20.3973 57.5533 20.4643C57.1803 20.5312 56.8024 20.5724 56.4245 20.6651C54.8979 20.9689 53.3017 21.4426 51.6458 21.9215C49.9899 22.4107 48.2892 23.0081 46.5289 23.5385C44.7735 24.0843 42.9734 24.6198 41.1534 25.109C39.3185 25.557 37.4687 25.9535 35.6139 26.2265C33.759 26.4839 31.9142 26.623 30.1191 26.5715C29.224 26.5818 28.3438 26.4942 27.4835 26.417C26.6282 26.3243 25.7928 26.1595 24.9873 26.0256C24.1916 25.8197 23.4059 25.6703 22.67 25.4335C21.939 25.1708 21.2229 24.9597 20.5665 24.6816C19.9102 24.3881 19.2786 24.1255 18.6919 23.8474C18.125 23.5333 17.5829 23.2295 17.0757 22.9463C16.5635 22.6837 16.121 22.3489 15.7033 22.0709C15.2905 21.7877 14.9126 21.525 14.5695 21.2933C13.9231 20.7784 13.4308 20.3561 13.0876 20.0729C12.7445 19.7897 12.5655 19.6403 12.5655 19.6403L12.5605 19.6352Z" fill="white"/>
<path d="M23.0232 20.6389C23.0679 20.6956 23.1475 20.7059 23.2022 20.6595C25.6637 18.6564 28.7616 17.4617 32.1331 17.4617C35.5046 17.4617 38.8959 18.7748 41.4071 20.9479C41.4618 20.9942 41.5414 20.9891 41.5862 20.9324L46.4992 14.9797C46.4445 14.9127 46.3947 14.8407 46.34 14.7737L41.1386 17.6007C41.0342 17.6574 40.9148 17.5493 40.9596 17.4308L42.8542 12.6315C42.7846 12.5801 42.7199 12.5286 42.6503 12.4822L38.9059 15.8963C38.8114 15.9838 38.6622 15.8911 38.697 15.7624L40.2485 9.51614C40.1739 9.47495 40.0993 9.4389 40.0247 9.39771L35.4996 15.1651C35.43 15.2526 35.2957 15.2166 35.2709 15.1084L34.4603 10.8344C34.3808 10.8241 34.2962 10.8138 34.2167 10.7984L32.0585 15.3247C31.9988 15.4483 31.8248 15.4122 31.8149 15.2732L30.7557 0C30.6711 0 30.5866 0 30.4971 0L28.9456 15.4895C28.9357 15.6131 28.7815 15.6543 28.7119 15.5564L26.0714 11.8128C25.9919 11.8385 25.9173 11.8643 25.8377 11.89V15.1033C25.8377 15.2217 25.6985 15.2835 25.6189 15.2011L19.8357 9.39256C19.7661 9.44405 19.7014 9.50069 19.6318 9.55219L23.2569 16.4679C23.3166 16.5812 23.2072 16.7047 23.0928 16.6533L18.7019 14.7274C18.6522 14.7943 18.6025 14.8664 18.5527 14.9333L23.0182 20.6338L23.0232 20.6389Z" fill="white"/>
<path d="M203.17 50.12C202.783 50.12 202.44 50.08 202.14 50C201.84 49.9133 201.58 49.7967 201.36 49.65C201.14 49.4967 200.96 49.33 200.82 49.15C200.68 48.9633 200.577 48.7667 200.51 48.56L201.32 48.28C201.42 48.5733 201.62 48.83 201.92 49.05C202.227 49.2633 202.6 49.37 203.04 49.37C203.58 49.37 204.003 49.2633 204.31 49.05C204.617 48.8367 204.77 48.5533 204.77 48.2C204.77 47.8733 204.633 47.61 204.36 47.41C204.087 47.2033 203.727 47.0433 203.28 46.93L202.51 46.73C202.197 46.65 201.907 46.5333 201.64 46.38C201.38 46.22 201.17 46.02 201.01 45.78C200.857 45.5333 200.78 45.24 200.78 44.9C200.78 44.2667 200.983 43.7733 201.39 43.42C201.803 43.06 202.397 42.88 203.17 42.88C203.63 42.88 204.027 42.9567 204.36 43.11C204.693 43.2567 204.963 43.4467 205.17 43.68C205.383 43.9067 205.533 44.1533 205.62 44.42L204.82 44.7C204.693 44.3667 204.48 44.1067 204.18 43.92C203.88 43.7267 203.517 43.63 203.09 43.63C202.643 43.63 202.287 43.74 202.02 43.96C201.76 44.1733 201.63 44.4667 201.63 44.84C201.63 45.16 201.733 45.4067 201.94 45.58C202.147 45.7467 202.417 45.87 202.75 45.95L203.52 46.14C204.2 46.3 204.72 46.5667 205.08 46.94C205.447 47.3067 205.63 47.7033 205.63 48.13C205.63 48.4967 205.537 48.8333 205.35 49.14C205.163 49.44 204.887 49.68 204.52 49.86C204.16 50.0333 203.71 50.12 203.17 50.12ZM206.893 50L206.913 45H207.713L207.693 50H206.893ZM207.303 43.84C207.169 43.84 207.053 43.79 206.953 43.69C206.853 43.59 206.803 43.4733 206.803 43.34C206.803 43.2 206.853 43.0833 206.953 42.99C207.053 42.89 207.169 42.84 207.303 42.84C207.443 42.84 207.559 42.89 207.653 42.99C207.753 43.0833 207.803 43.2 207.803 43.34C207.803 43.4733 207.753 43.59 207.653 43.69C207.559 43.79 207.443 43.84 207.303 43.84ZM209.167 50V45H209.917L209.967 45.92V50H209.167ZM212.677 50V47.44L213.477 47.14V50H212.677ZM212.677 47.44C212.677 46.9467 212.62 46.57 212.507 46.31C212.393 46.05 212.237 45.8733 212.037 45.78C211.837 45.68 211.61 45.63 211.357 45.63C210.917 45.63 210.573 45.7867 210.327 46.1C210.087 46.4067 209.967 46.8433 209.967 47.41H209.577C209.577 46.8833 209.653 46.43 209.807 46.05C209.96 45.67 210.18 45.38 210.467 45.18C210.76 44.98 211.113 44.88 211.527 44.88C212.133 44.88 212.61 45.0667 212.957 45.44C213.31 45.8133 213.483 46.38 213.477 47.14L212.677 47.44ZM216.973 50.12C216.48 50.12 216.043 50.01 215.663 49.79C215.283 49.5633 214.986 49.2533 214.773 48.86C214.56 48.4667 214.453 48.0133 214.453 47.5C214.453 46.9867 214.556 46.5333 214.763 46.14C214.976 45.7467 215.273 45.44 215.653 45.22C216.033 44.9933 216.466 44.88 216.953 44.88C217.433 44.88 217.863 44.99 218.243 45.21C218.623 45.43 218.913 45.74 219.113 46.14L218.383 46.47C218.25 46.2033 218.056 45.9967 217.803 45.85C217.55 45.6967 217.26 45.62 216.933 45.62C216.606 45.62 216.316 45.7 216.063 45.86C215.816 46.02 215.62 46.2433 215.473 46.53C215.333 46.81 215.263 47.1333 215.263 47.5C215.263 47.8667 215.333 48.1933 215.473 48.48C215.62 48.76 215.82 48.98 216.073 49.14C216.333 49.3 216.626 49.38 216.953 49.38C217.28 49.38 217.57 49.2967 217.823 49.13C218.083 48.9633 218.28 48.73 218.413 48.43L219.143 48.76C218.943 49.1867 218.653 49.52 218.273 49.76C217.893 50 217.46 50.12 216.973 50.12ZM222.363 50.12C221.876 50.12 221.446 50.01 221.073 49.79C220.706 49.5633 220.416 49.2533 220.203 48.86C219.99 48.4667 219.883 48.0133 219.883 47.5C219.883 46.9867 219.986 46.5333 220.193 46.14C220.406 45.7467 220.7 45.44 221.073 45.22C221.446 44.9933 221.87 44.88 222.343 44.88C222.81 44.88 223.213 44.9967 223.553 45.23C223.893 45.4567 224.156 45.7767 224.343 46.19C224.53 46.6033 224.623 47.09 224.623 47.65H223.823C223.823 47.2233 223.766 46.86 223.653 46.56C223.54 46.2533 223.373 46.0167 223.153 45.85C222.933 45.6833 222.66 45.6 222.333 45.6C222.006 45.6 221.72 45.68 221.473 45.84C221.233 45.9933 221.046 46.2133 220.913 46.5C220.78 46.7867 220.713 47.1233 220.713 47.51C220.713 47.89 220.786 48.22 220.933 48.5C221.08 48.7733 221.28 48.99 221.533 49.15C221.786 49.3033 222.076 49.38 222.403 49.38C222.756 49.38 223.053 49.2967 223.293 49.13C223.533 48.9633 223.72 48.7467 223.853 48.48L224.563 48.83C224.43 49.09 224.256 49.3167 224.043 49.51C223.836 49.7033 223.593 49.8533 223.313 49.96C223.033 50.0667 222.716 50.12 222.363 50.12ZM220.423 47.65V46.96H224.133V47.65H220.423ZM229.592 50L229.602 43.45L229.672 43H230.432L230.412 50H229.592ZM228.032 44.8V44.03C228.172 44.0367 228.338 43.99 228.532 43.89C228.725 43.79 228.925 43.66 229.132 43.5C229.338 43.34 229.518 43.1733 229.672 43L230.192 43.57C229.972 43.8033 229.742 44.0133 229.502 44.2C229.262 44.3867 229.018 44.5367 228.772 44.65C228.525 44.7567 228.278 44.8067 228.032 44.8ZM234.233 42.88C234.726 42.88 235.133 42.9733 235.453 43.16C235.773 43.34 236.029 43.5867 236.223 43.9C236.423 44.2133 236.563 44.5767 236.643 44.99C236.729 45.3967 236.773 45.83 236.773 46.29C236.773 46.89 236.709 47.4267 236.583 47.9C236.456 48.3733 236.276 48.7767 236.043 49.11C235.809 49.4367 235.526 49.6867 235.193 49.86C234.866 50.0333 234.493 50.12 234.073 50.12C233.726 50.12 233.379 50.0667 233.032 49.96C232.693 49.8467 232.386 49.6933 232.113 49.5L232.583 48.9C232.796 49.0467 233.026 49.1633 233.273 49.25C233.526 49.33 233.766 49.37 233.993 49.37C234.673 49.37 235.189 49.0833 235.543 48.51C235.903 47.9367 236.059 47.07 236.013 45.91L236.193 46.08C236.033 46.4867 235.776 46.81 235.423 47.05C235.069 47.29 234.653 47.41 234.173 47.41C233.719 47.41 233.319 47.3133 232.973 47.12C232.626 46.92 232.353 46.65 232.153 46.31C231.959 45.97 231.863 45.5767 231.863 45.13C231.863 44.69 231.963 44.3033 232.163 43.97C232.363 43.63 232.639 43.3633 232.993 43.17C233.353 42.9767 233.766 42.88 234.233 42.88ZM234.233 43.62C233.939 43.62 233.676 43.6867 233.443 43.82C233.209 43.9467 233.026 44.1267 232.893 44.36C232.766 44.5867 232.703 44.85 232.703 45.15C232.703 45.45 232.766 45.7167 232.893 45.95C233.026 46.1767 233.209 46.3567 233.443 46.49C233.676 46.6167 233.939 46.68 234.233 46.68C234.539 46.68 234.806 46.6167 235.033 46.49C235.266 46.3567 235.446 46.1767 235.573 45.95C235.706 45.7167 235.773 45.45 235.773 45.15C235.773 44.85 235.706 44.5867 235.573 44.36C235.446 44.1267 235.266 43.9467 235.033 43.82C234.806 43.6867 234.539 43.62 234.233 43.62ZM238.047 50L241.507 43.52L242.297 43.7L238.977 50H238.047ZM237.647 43.77V43H242.297V43.7L241.647 43.77H237.647ZM244.008 49.51L243.168 49.3C243.168 49.08 243.211 48.8633 243.298 48.65C243.391 48.43 243.521 48.2133 243.688 48C243.861 47.7867 244.071 47.5867 244.318 47.4L245.768 46.31C245.941 46.19 246.091 46.0533 246.218 45.9C246.351 45.74 246.454 45.5767 246.528 45.41C246.601 45.2367 246.638 45.07 246.638 44.91C246.638 44.6767 246.581 44.4667 246.468 44.28C246.354 44.0867 246.194 43.9333 245.988 43.82C245.781 43.7067 245.538 43.65 245.258 43.65C244.984 43.65 244.744 43.7033 244.538 43.81C244.331 43.91 244.161 44.0467 244.028 44.22C243.894 44.3867 243.798 44.5667 243.738 44.76L242.878 44.59C242.958 44.29 243.101 44.01 243.308 43.75C243.521 43.49 243.791 43.28 244.118 43.12C244.444 42.96 244.808 42.88 245.208 42.88C245.674 42.88 246.078 42.97 246.418 43.15C246.758 43.3233 247.021 43.5633 247.208 43.87C247.401 44.17 247.498 44.5133 247.498 44.9C247.498 45.2667 247.398 45.6133 247.198 45.94C246.998 46.2667 246.708 46.5833 246.328 46.89L244.958 47.93C244.764 48.07 244.594 48.2233 244.448 48.39C244.308 48.5567 244.198 48.7333 244.118 48.92C244.044 49.1 244.008 49.2967 244.008 49.51ZM243.168 50V49.3L243.808 49.25H247.598V50H243.168Z" fill="white"/>
</svg>
