<svg width="350" height="220" viewBox="0 0 350 220" fill="none" xmlns="http://www.w3.org/2000/svg">
<rect width="350" height="220" fill="#ECEFF1"/>
<path d="M136.318 72.27C135.346 72.27 134.488 72.072 133.744 71.676C133.012 71.268 132.442 70.704 132.034 69.984C131.626 69.252 131.422 68.412 131.422 67.464H133.186C133.186 68.088 133.318 68.64 133.582 69.12C133.858 69.6 134.23 69.972 134.698 70.236C135.178 70.5 135.73 70.632 136.354 70.632C136.978 70.632 137.53 70.5 138.01 70.236C138.49 69.972 138.862 69.6 139.126 69.12C139.39 68.64 139.522 68.088 139.522 67.464H141.304C141.304 68.412 141.094 69.252 140.674 69.984C140.266 70.704 139.684 71.268 138.928 71.676C138.184 72.072 137.314 72.27 136.318 72.27ZM131.422 67.464V59.4H133.186V67.464H131.422ZM139.522 67.464V59.4H141.304V67.464H139.522ZM148.379 72.216C147.707 72.216 147.095 72.138 146.543 71.982C146.003 71.826 145.529 71.616 145.121 71.352C144.725 71.076 144.395 70.77 144.131 70.434C143.867 70.098 143.681 69.744 143.573 69.372L145.283 68.814C145.463 69.306 145.805 69.732 146.309 70.092C146.813 70.452 147.431 70.638 148.163 70.65C149.051 70.65 149.747 70.476 150.251 70.128C150.767 69.768 151.025 69.294 151.025 68.706C151.025 68.166 150.803 67.728 150.359 67.392C149.915 67.044 149.327 66.78 148.595 66.6L147.137 66.222C146.561 66.066 146.033 65.844 145.553 65.556C145.085 65.268 144.713 64.902 144.437 64.458C144.161 64.014 144.023 63.48 144.023 62.856C144.023 61.704 144.395 60.804 145.139 60.156C145.895 59.508 146.981 59.184 148.397 59.184C149.213 59.184 149.921 59.316 150.521 59.58C151.121 59.832 151.613 60.168 151.997 60.588C152.393 61.008 152.675 61.47 152.843 61.974L151.133 62.55C150.929 62.01 150.581 61.578 150.089 61.254C149.597 60.918 148.991 60.75 148.271 60.75C147.515 60.75 146.915 60.93 146.471 61.29C146.039 61.65 145.823 62.142 145.823 62.766C145.823 63.294 145.991 63.702 146.327 63.99C146.675 64.266 147.137 64.476 147.713 64.62L149.171 64.98C150.347 65.268 151.253 65.748 151.889 66.42C152.537 67.08 152.861 67.806 152.861 68.598C152.861 69.282 152.687 69.9 152.339 70.452C152.003 70.992 151.499 71.424 150.827 71.748C150.167 72.06 149.351 72.216 148.379 72.216ZM164.044 72L159.058 59.4H160.858L165.934 72H164.044ZM153.892 72L158.968 59.4H160.768L155.782 72H153.892ZM156.286 68.634V67.05H163.54V68.634H156.286ZM177.538 72.216C176.314 72.216 175.228 71.94 174.28 71.388C173.332 70.836 172.588 70.068 172.048 69.084C171.52 68.1 171.256 66.972 171.256 65.7C171.256 64.74 171.406 63.864 171.706 63.072C172.018 62.28 172.45 61.596 173.002 61.02C173.554 60.432 174.208 59.982 174.964 59.67C175.732 59.346 176.572 59.184 177.484 59.184C178.708 59.184 179.788 59.466 180.724 60.03C181.672 60.582 182.41 61.35 182.938 62.334C183.466 63.306 183.73 64.428 183.73 65.7C183.73 66.972 183.466 68.1 182.938 69.084C182.41 70.068 181.678 70.836 180.742 71.388C179.818 71.94 178.75 72.216 177.538 72.216ZM182.578 72.72L178.042 68.13L179.194 67.014L183.712 71.586L182.578 72.72ZM177.538 70.596C178.402 70.596 179.164 70.386 179.824 69.966C180.484 69.546 181 68.97 181.372 68.238C181.744 67.506 181.93 66.66 181.93 65.7C181.93 64.752 181.738 63.912 181.354 63.18C180.982 62.436 180.46 61.854 179.788 61.434C179.128 61.014 178.366 60.804 177.502 60.804C176.638 60.804 175.87 61.014 175.198 61.434C174.526 61.854 173.998 62.436 173.614 63.18C173.242 63.912 173.056 64.752 173.056 65.7C173.056 66.66 173.248 67.506 173.632 68.238C174.016 68.97 174.544 69.546 175.216 69.966C175.9 70.386 176.674 70.596 177.538 70.596ZM191.871 72L191.763 70.344V63H193.455V72H191.871ZM185.535 68.148V63H187.245V67.608L185.535 68.148ZM187.245 67.608C187.245 68.412 187.335 69.03 187.515 69.462C187.707 69.894 187.971 70.194 188.307 70.362C188.643 70.53 189.021 70.62 189.441 70.632C190.173 70.632 190.743 70.374 191.151 69.858C191.559 69.342 191.763 68.616 191.763 67.68H192.501C192.501 68.628 192.363 69.444 192.087 70.128C191.811 70.8 191.409 71.316 190.881 71.676C190.365 72.036 189.741 72.216 189.009 72.216C187.929 72.216 187.077 71.88 186.453 71.208C185.841 70.536 185.535 69.516 185.535 68.148L187.245 67.608ZM201.438 72L201.312 67.302C201.3 66.642 201.222 66.096 201.078 65.664C200.934 65.22 200.712 64.884 200.412 64.656C200.112 64.428 199.71 64.314 199.206 64.314C198.738 64.314 198.324 64.41 197.964 64.602C197.616 64.794 197.328 65.094 197.1 65.502L195.57 64.926C195.786 64.518 196.056 64.152 196.38 63.828C196.716 63.504 197.118 63.252 197.586 63.072C198.066 62.88 198.612 62.784 199.224 62.784C200.076 62.784 200.784 62.946 201.348 63.27C201.912 63.594 202.332 64.08 202.608 64.728C202.896 65.364 203.04 66.156 203.04 67.104V72H201.438ZM198.792 72.216C197.724 72.216 196.89 71.976 196.29 71.496C195.702 71.004 195.408 70.326 195.408 69.462C195.408 68.538 195.714 67.836 196.326 67.356C196.938 66.864 197.802 66.618 198.918 66.618H201.924L201.942 67.968H199.386C198.558 67.968 197.97 68.1 197.622 68.364C197.286 68.616 197.118 68.97 197.118 69.426C197.118 69.846 197.28 70.176 197.604 70.416C197.928 70.644 198.372 70.758 198.936 70.758C199.428 70.758 199.848 70.644 200.196 70.416C200.556 70.188 200.832 69.888 201.024 69.516C201.228 69.132 201.33 68.706 201.33 68.238H202.158C202.158 69.462 201.876 70.434 201.312 71.154C200.748 71.862 199.908 72.216 198.792 72.216ZM205.192 72L205.228 59.4H206.92L206.902 72H205.192ZM209.413 72L209.449 63H211.141L211.123 72H209.413ZM210.277 61.092C210.001 61.092 209.761 60.99 209.557 60.786C209.353 60.57 209.251 60.324 209.251 60.048C209.251 59.76 209.353 59.52 209.557 59.328C209.761 59.124 210.001 59.022 210.277 59.022C210.565 59.022 210.805 59.124 210.997 59.328C211.201 59.52 211.303 59.76 211.303 60.048C211.303 60.324 211.201 60.57 210.997 60.786C210.805 60.99 210.565 61.092 210.277 61.092ZM217.283 72.216C216.383 72.216 215.687 71.988 215.195 71.532C214.703 71.064 214.457 70.398 214.457 69.534V60.192H216.167V69.282C216.167 69.726 216.275 70.068 216.491 70.308C216.719 70.536 217.043 70.65 217.463 70.65C217.583 70.65 217.715 70.626 217.859 70.578C218.003 70.53 218.177 70.434 218.381 70.29L219.029 71.622C218.717 71.826 218.417 71.976 218.129 72.072C217.853 72.168 217.571 72.216 217.283 72.216ZM212.927 64.476V63H218.723V64.476H212.927ZM221.759 75.816C221.495 75.816 221.201 75.768 220.877 75.672C220.565 75.576 220.241 75.45 219.905 75.294L220.535 73.89C220.799 74.01 221.027 74.1 221.219 74.16C221.423 74.22 221.585 74.25 221.705 74.25C222.005 74.25 222.257 74.166 222.461 73.998C222.677 73.83 222.851 73.596 222.983 73.296L224.027 70.83L227.231 63H229.067L224.801 73.116C224.573 73.668 224.333 74.148 224.081 74.556C223.829 74.964 223.517 75.276 223.145 75.492C222.785 75.708 222.323 75.816 221.759 75.816ZM223.559 72L219.617 63H221.435L224.693 70.812L225.215 72H223.559ZM132.664 94V92.398H136.066C136.81 92.398 137.386 92.224 137.794 91.876C138.214 91.516 138.424 91.036 138.424 90.436C138.424 89.764 138.184 89.242 137.704 88.87C137.236 88.498 136.576 88.318 135.724 88.33H132.664V86.872L134.842 86.89C135.946 86.89 136.9 87.022 137.704 87.286C138.52 87.55 139.144 87.952 139.576 88.492C140.008 89.032 140.224 89.71 140.224 90.526C140.224 91.258 140.056 91.888 139.72 92.416C139.396 92.932 138.934 93.328 138.334 93.604C137.734 93.868 137.014 94 136.174 94H132.664ZM131.602 94V81.4H133.348V94H131.602ZM132.628 88.384V86.818H135.94C136.588 86.818 137.098 86.644 137.47 86.296C137.854 85.948 138.046 85.468 138.046 84.856C138.046 84.22 137.83 83.728 137.398 83.38C136.966 83.032 136.36 82.864 135.58 82.876H132.628V81.418L135.652 81.382C136.516 81.382 137.254 81.52 137.866 81.796C138.49 82.06 138.97 82.45 139.306 82.966C139.654 83.482 139.828 84.118 139.828 84.874C139.828 85.546 139.636 86.14 139.252 86.656C138.88 87.172 138.346 87.574 137.65 87.862C136.954 88.15 136.132 88.294 135.184 88.294L132.628 88.384ZM148.312 94L148.204 92.344V85H149.896V94H148.312ZM141.976 90.148V85H143.686V89.608L141.976 90.148ZM143.686 89.608C143.686 90.412 143.776 91.03 143.956 91.462C144.148 91.894 144.412 92.194 144.748 92.362C145.084 92.53 145.462 92.62 145.882 92.632C146.614 92.632 147.184 92.374 147.592 91.858C148 91.342 148.204 90.616 148.204 89.68H148.942C148.942 90.628 148.804 91.444 148.528 92.128C148.252 92.8 147.85 93.316 147.322 93.676C146.806 94.036 146.182 94.216 145.45 94.216C144.37 94.216 143.518 93.88 142.894 93.208C142.282 92.536 141.976 91.516 141.976 90.148L143.686 89.608ZM152.39 94L152.426 85H154.118L154.1 94H152.39ZM153.254 83.092C152.978 83.092 152.738 82.99 152.534 82.786C152.33 82.57 152.228 82.324 152.228 82.048C152.228 81.76 152.33 81.52 152.534 81.328C152.738 81.124 152.978 81.022 153.254 81.022C153.542 81.022 153.782 81.124 153.974 81.328C154.178 81.52 154.28 81.76 154.28 82.048C154.28 82.324 154.178 82.57 153.974 82.786C153.782 82.99 153.542 83.092 153.254 83.092ZM156.606 94L156.642 81.4H158.334L158.316 94H156.606ZM167.307 94L167.235 92.326V81.4H168.927V94H167.307ZM164.283 94.216C163.467 94.216 162.753 94.018 162.141 93.622C161.541 93.226 161.067 92.674 160.719 91.966C160.383 91.258 160.215 90.436 160.215 89.5C160.215 88.552 160.383 87.73 160.719 87.034C161.067 86.326 161.541 85.774 162.141 85.378C162.753 84.982 163.467 84.784 164.283 84.784C165.039 84.784 165.693 84.982 166.245 85.378C166.809 85.774 167.241 86.326 167.541 87.034C167.841 87.73 167.991 88.552 167.991 89.5C167.991 90.436 167.841 91.258 167.541 91.966C167.241 92.674 166.809 93.226 166.245 93.622C165.693 94.018 165.039 94.216 164.283 94.216ZM164.679 92.668C165.183 92.668 165.627 92.536 166.011 92.272C166.395 91.996 166.695 91.624 166.911 91.156C167.127 90.676 167.235 90.124 167.235 89.5C167.235 88.876 167.127 88.33 166.911 87.862C166.695 87.382 166.395 87.01 166.011 86.746C165.627 86.47 165.177 86.332 164.661 86.332C164.133 86.332 163.665 86.47 163.257 86.746C162.849 87.01 162.531 87.382 162.303 87.862C162.075 88.33 161.961 88.876 161.961 89.5C161.961 90.124 162.075 90.676 162.303 91.156C162.543 91.624 162.867 91.996 163.275 92.272C163.683 92.536 164.151 92.668 164.679 92.668Z" fill="#263238"/>
<path d="M34.67 150L30.455 139.5H31.73L36.005 150H34.67ZM26.135 150L30.41 139.5H31.7L27.485 150H26.135ZM28.16 147.015V145.875H33.995V147.015H28.16ZM44.2524 150.18C43.5124 150.18 42.8574 150.015 42.2874 149.685C41.7174 149.345 41.2724 148.88 40.9524 148.29C40.6324 147.7 40.4724 147.02 40.4724 146.25C40.4724 145.48 40.6274 144.8 40.9374 144.21C41.2574 143.62 41.7024 143.16 42.2724 142.83C42.8424 142.49 43.4924 142.32 44.2224 142.32C44.9424 142.32 45.5874 142.485 46.1574 142.815C46.7274 143.145 47.1624 143.61 47.4624 144.21L46.3674 144.705C46.1674 144.305 45.8774 143.995 45.4974 143.775C45.1174 143.545 44.6824 143.43 44.1924 143.43C43.7024 143.43 43.2674 143.55 42.8874 143.79C42.5174 144.03 42.2224 144.365 42.0024 144.795C41.7924 145.215 41.6874 145.7 41.6874 146.25C41.6874 146.8 41.7924 147.29 42.0024 147.72C42.2224 148.14 42.5224 148.47 42.9024 148.71C43.2924 148.95 43.7324 149.07 44.2224 149.07C44.7124 149.07 45.1474 148.945 45.5274 148.695C45.9174 148.445 46.2124 148.095 46.4124 147.645L47.5074 148.14C47.2074 148.78 46.7724 149.28 46.2024 149.64C45.6324 150 44.9824 150.18 44.2524 150.18ZM54.1677 150L54.0927 148.62V142.5H55.2927V150H54.1677ZM48.8277 146.79V142.5H50.0277V146.34L48.8277 146.79ZM50.0277 146.34C50.0277 147.08 50.1127 147.645 50.2827 148.035C50.4527 148.425 50.6877 148.695 50.9877 148.845C51.2977 148.985 51.6427 149.055 52.0227 149.055C52.6727 149.055 53.1777 148.82 53.5377 148.35C53.9077 147.88 54.0927 147.225 54.0927 146.385H54.6777C54.6777 147.175 54.5627 147.855 54.3327 148.425C54.1027 148.995 53.7677 149.43 53.3277 149.73C52.8977 150.03 52.3727 150.18 51.7527 150.18C50.8427 150.18 50.1227 149.9 49.5927 149.34C49.0727 148.78 48.8177 147.93 48.8277 146.79L50.0277 146.34ZM58.0469 145.935C58.0469 145.125 58.2019 144.47 58.5119 143.97C58.8219 143.46 59.2169 143.085 59.6969 142.845C60.1869 142.595 60.7019 142.47 61.2419 142.47V143.595C60.8019 143.595 60.3769 143.67 59.9669 143.82C59.5669 143.96 59.2369 144.195 58.9769 144.525C58.7169 144.855 58.5869 145.305 58.5869 145.875L58.0469 145.935ZM57.3869 150V142.5H58.5869V150H57.3869ZM67.1503 150L67.0303 146.04C67.0103 145.45 66.9353 144.965 66.8053 144.585C66.6753 144.195 66.4753 143.905 66.2053 143.715C65.9353 143.515 65.5753 143.415 65.1253 143.415C64.6953 143.415 64.3203 143.5 64.0003 143.67C63.6903 143.84 63.4353 144.105 63.2353 144.465L62.1703 144.03C62.3603 143.68 62.5953 143.38 62.8753 143.13C63.1553 142.87 63.4853 142.67 63.8653 142.53C64.2453 142.39 64.6703 142.32 65.1403 142.32C65.8303 142.32 66.4053 142.455 66.8653 142.725C67.3253 142.995 67.6653 143.4 67.8853 143.94C68.1153 144.47 68.2303 145.135 68.2303 145.935V150H67.1503ZM64.8703 150.18C63.9803 150.18 63.2853 149.98 62.7853 149.58C62.2953 149.17 62.0503 148.605 62.0503 147.885C62.0503 147.125 62.3003 146.545 62.8003 146.145C63.3103 145.735 64.0203 145.53 64.9303 145.53H67.5703V146.535H65.2003C64.5003 146.535 64.0003 146.65 63.7003 146.88C63.4103 147.11 63.2653 147.44 63.2653 147.87C63.2653 148.26 63.4103 148.57 63.7003 148.8C63.9903 149.02 64.3953 149.13 64.9153 149.13C65.3553 149.13 65.7353 149.03 66.0553 148.83C66.3753 148.63 66.6203 148.36 66.7903 148.02C66.9603 147.67 67.0453 147.275 67.0453 146.835H67.7803C67.7803 147.855 67.5303 148.67 67.0303 149.28C66.5303 149.88 65.8103 150.18 64.8703 150.18ZM73.1011 150.18C72.3711 150.18 71.8061 149.99 71.4061 149.61C71.0061 149.23 70.8061 148.695 70.8061 148.005V140.16H72.0061V147.885C72.0061 148.265 72.1061 148.56 72.3061 148.77C72.5161 148.97 72.8061 149.07 73.1761 149.07C73.2961 149.07 73.4111 149.055 73.5211 149.025C73.6411 148.985 73.7961 148.895 73.9861 148.755L74.4511 149.73C74.1911 149.9 73.9561 150.015 73.7461 150.075C73.5361 150.145 73.3211 150.18 73.1011 150.18ZM69.5011 143.565V142.5H74.2561V143.565H69.5011ZM79.2175 150.18C78.4875 150.18 77.8425 150.015 77.2825 149.685C76.7325 149.345 76.2975 148.88 75.9775 148.29C75.6575 147.7 75.4975 147.02 75.4975 146.25C75.4975 145.48 75.6525 144.8 75.9625 144.21C76.2825 143.62 76.7225 143.16 77.2825 142.83C77.8425 142.49 78.4775 142.32 79.1875 142.32C79.8875 142.32 80.4925 142.495 81.0025 142.845C81.5125 143.185 81.9075 143.665 82.1875 144.285C82.4675 144.905 82.6075 145.635 82.6075 146.475H81.4075C81.4075 145.835 81.3225 145.29 81.1525 144.84C80.9825 144.38 80.7325 144.025 80.4025 143.775C80.0725 143.525 79.6625 143.4 79.1725 143.4C78.6825 143.4 78.2525 143.52 77.8825 143.76C77.5225 143.99 77.2425 144.32 77.0425 144.75C76.8425 145.18 76.7425 145.685 76.7425 146.265C76.7425 146.835 76.8525 147.33 77.0725 147.75C77.2925 148.16 77.5925 148.485 77.9725 148.725C78.3525 148.955 78.7875 149.07 79.2775 149.07C79.8075 149.07 80.2525 148.945 80.6125 148.695C80.9725 148.445 81.2525 148.12 81.4525 147.72L82.5175 148.245C82.3175 148.635 82.0575 148.975 81.7375 149.265C81.4275 149.555 81.0625 149.78 80.6425 149.94C80.2225 150.1 79.7475 150.18 79.2175 150.18ZM76.3075 146.475V145.44H81.8725V146.475H76.3075ZM89.7143 150L89.6543 148.605V139.5H90.8543V150H89.7143ZM87.1193 150.18C86.4493 150.18 85.8593 150.015 85.3493 149.685C84.8393 149.355 84.4393 148.895 84.1493 148.305C83.8693 147.705 83.7293 147.02 83.7293 146.25C83.7293 145.47 83.8693 144.785 84.1493 144.195C84.4393 143.605 84.8393 143.145 85.3493 142.815C85.8593 142.485 86.4493 142.32 87.1193 142.32C87.7493 142.32 88.2993 142.485 88.7693 142.815C89.2493 143.145 89.6193 143.605 89.8793 144.195C90.1393 144.785 90.2693 145.47 90.2693 146.25C90.2693 147.02 90.1393 147.705 89.8793 148.305C89.6193 148.895 89.2493 149.355 88.7693 149.685C88.2993 150.015 87.7493 150.18 87.1193 150.18ZM87.3893 149.085C87.8293 149.085 88.2193 148.965 88.5593 148.725C88.8993 148.485 89.1643 148.15 89.3543 147.72C89.5543 147.29 89.6543 146.8 89.6543 146.25C89.6543 145.7 89.5543 145.21 89.3543 144.78C89.1643 144.35 88.8993 144.015 88.5593 143.775C88.2193 143.535 87.8243 143.415 87.3743 143.415C86.9043 143.415 86.4843 143.535 86.1143 143.775C85.7543 144.015 85.4693 144.35 85.2593 144.78C85.0493 145.21 84.9443 145.7 84.9443 146.25C84.9443 146.8 85.0493 147.29 85.2593 147.72C85.4693 148.15 85.7593 148.485 86.1293 148.725C86.4993 148.965 86.9193 149.085 87.3893 149.085ZM99.2844 150.18C98.7344 150.18 98.2544 150.1 97.8444 149.94C97.4344 149.77 97.0894 149.55 96.8094 149.28C96.5394 149.01 96.3444 148.715 96.2244 148.395L97.2744 147.96C97.4444 148.29 97.6994 148.56 98.0394 148.77C98.3794 148.98 98.7544 149.085 99.1644 149.085C99.6344 149.085 100.024 148.995 100.334 148.815C100.654 148.625 100.814 148.365 100.814 148.035C100.814 147.725 100.694 147.475 100.454 147.285C100.224 147.095 99.8844 146.94 99.4344 146.82L98.7144 146.625C98.0344 146.445 97.5044 146.175 97.1244 145.815C96.7444 145.445 96.5544 145.03 96.5544 144.57C96.5544 143.86 96.7844 143.31 97.2444 142.92C97.7144 142.52 98.4094 142.32 99.3294 142.32C99.7694 142.32 100.169 142.385 100.529 142.515C100.889 142.645 101.199 142.83 101.459 143.07C101.719 143.3 101.909 143.575 102.029 143.895L100.979 144.36C100.849 144.02 100.634 143.78 100.334 143.64C100.034 143.49 99.6694 143.415 99.2394 143.415C98.7794 143.415 98.4194 143.51 98.1594 143.7C97.8994 143.89 97.7694 144.16 97.7694 144.51C97.7694 144.71 97.8744 144.9 98.0844 145.08C98.3044 145.25 98.6244 145.39 99.0444 145.5L99.7944 145.695C100.284 145.815 100.694 145.995 101.024 146.235C101.354 146.465 101.604 146.73 101.774 147.03C101.944 147.33 102.029 147.65 102.029 147.99C102.029 148.44 101.909 148.83 101.669 149.16C101.429 149.49 101.104 149.745 100.694 149.925C100.284 150.095 99.8144 150.18 99.2844 150.18ZM106.962 150.18C106.232 150.18 105.587 150.015 105.027 149.685C104.477 149.345 104.042 148.88 103.722 148.29C103.402 147.7 103.242 147.02 103.242 146.25C103.242 145.48 103.397 144.8 103.707 144.21C104.027 143.62 104.467 143.16 105.027 142.83C105.587 142.49 106.222 142.32 106.932 142.32C107.632 142.32 108.237 142.495 108.747 142.845C109.257 143.185 109.652 143.665 109.932 144.285C110.212 144.905 110.352 145.635 110.352 146.475H109.152C109.152 145.835 109.067 145.29 108.897 144.84C108.727 144.38 108.477 144.025 108.147 143.775C107.817 143.525 107.407 143.4 106.917 143.4C106.427 143.4 105.997 143.52 105.627 143.76C105.267 143.99 104.987 144.32 104.787 144.75C104.587 145.18 104.487 145.685 104.487 146.265C104.487 146.835 104.597 147.33 104.817 147.75C105.037 148.16 105.337 148.485 105.717 148.725C106.097 148.955 106.532 149.07 107.022 149.07C107.552 149.07 107.997 148.945 108.357 148.695C108.717 148.445 108.997 148.12 109.197 147.72L110.262 148.245C110.062 148.635 109.802 148.975 109.482 149.265C109.172 149.555 108.807 149.78 108.387 149.94C107.967 150.1 107.492 150.18 106.962 150.18ZM104.052 146.475V145.44H109.617V146.475H104.052ZM111.908 150L111.938 139.5H113.138L113.108 150H111.908ZM118.549 150.18C117.819 150.18 117.174 150.015 116.614 149.685C116.064 149.345 115.629 148.88 115.309 148.29C114.989 147.7 114.829 147.02 114.829 146.25C114.829 145.48 114.984 144.8 115.294 144.21C115.614 143.62 116.054 143.16 116.614 142.83C117.174 142.49 117.809 142.32 118.519 142.32C119.219 142.32 119.824 142.495 120.334 142.845C120.844 143.185 121.239 143.665 121.519 144.285C121.799 144.905 121.939 145.635 121.939 146.475H120.739C120.739 145.835 120.654 145.29 120.484 144.84C120.314 144.38 120.064 144.025 119.734 143.775C119.404 143.525 118.994 143.4 118.504 143.4C118.014 143.4 117.584 143.52 117.214 143.76C116.854 143.99 116.574 144.32 116.374 144.75C116.174 145.18 116.074 145.685 116.074 146.265C116.074 146.835 116.184 147.33 116.404 147.75C116.624 148.16 116.924 148.485 117.304 148.725C117.684 148.955 118.119 149.07 118.609 149.07C119.139 149.07 119.584 148.945 119.944 148.695C120.304 148.445 120.584 148.12 120.784 147.72L121.849 148.245C121.649 148.635 121.389 148.975 121.069 149.265C120.759 149.555 120.394 149.78 119.974 149.94C119.554 150.1 119.079 150.18 118.549 150.18ZM115.639 146.475V145.44H121.204V146.475H115.639ZM126.84 150.18C126.1 150.18 125.445 150.015 124.875 149.685C124.305 149.345 123.86 148.88 123.54 148.29C123.22 147.7 123.06 147.02 123.06 146.25C123.06 145.48 123.215 144.8 123.525 144.21C123.845 143.62 124.29 143.16 124.86 142.83C125.43 142.49 126.08 142.32 126.81 142.32C127.53 142.32 128.175 142.485 128.745 142.815C129.315 143.145 129.75 143.61 130.05 144.21L128.955 144.705C128.755 144.305 128.465 143.995 128.085 143.775C127.705 143.545 127.27 143.43 126.78 143.43C126.29 143.43 125.855 143.55 125.475 143.79C125.105 144.03 124.81 144.365 124.59 144.795C124.38 145.215 124.275 145.7 124.275 146.25C124.275 146.8 124.38 147.29 124.59 147.72C124.81 148.14 125.11 148.47 125.49 148.71C125.88 148.95 126.32 149.07 126.81 149.07C127.3 149.07 127.735 148.945 128.115 148.695C128.505 148.445 128.8 148.095 129 147.645L130.095 148.14C129.795 148.78 129.36 149.28 128.79 149.64C128.22 150 127.57 150.18 126.84 150.18ZM134.581 150.18C133.851 150.18 133.286 149.99 132.886 149.61C132.486 149.23 132.286 148.695 132.286 148.005V140.16H133.486V147.885C133.486 148.265 133.586 148.56 133.786 148.77C133.996 148.97 134.286 149.07 134.656 149.07C134.776 149.07 134.891 149.055 135.001 149.025C135.121 148.985 135.276 148.895 135.466 148.755L135.931 149.73C135.671 149.9 135.436 150.015 135.226 150.075C135.016 150.145 134.801 150.18 134.581 150.18ZM130.981 143.565V142.5H135.736V143.565H130.981ZM137.457 150L137.487 142.5H138.687L138.657 150H137.457ZM138.072 140.76C137.872 140.76 137.697 140.685 137.547 140.535C137.397 140.385 137.322 140.21 137.322 140.01C137.322 139.8 137.397 139.625 137.547 139.485C137.697 139.335 137.872 139.26 138.072 139.26C138.282 139.26 138.457 139.335 138.597 139.485C138.747 139.625 138.822 139.8 138.822 140.01C138.822 140.21 138.747 140.385 138.597 140.535C138.457 140.685 138.282 140.76 138.072 140.76ZM144.228 150.18C143.498 150.18 142.848 150.015 142.278 149.685C141.708 149.345 141.263 148.88 140.943 148.29C140.623 147.7 140.463 147.02 140.463 146.25C140.463 145.48 140.618 144.8 140.928 144.21C141.248 143.62 141.693 143.16 142.263 142.83C142.833 142.49 143.478 142.32 144.198 142.32C144.938 142.32 145.588 142.49 146.148 142.83C146.718 143.16 147.158 143.62 147.468 144.21C147.788 144.8 147.948 145.48 147.948 146.25C147.948 147.02 147.788 147.7 147.468 148.29C147.158 148.88 146.723 149.345 146.163 149.685C145.603 150.015 144.958 150.18 144.228 150.18ZM144.228 149.04C144.718 149.04 145.148 148.925 145.518 148.695C145.888 148.455 146.178 148.125 146.388 147.705C146.598 147.285 146.703 146.8 146.703 146.25C146.703 145.7 146.593 145.215 146.373 144.795C146.163 144.375 145.868 144.05 145.488 143.82C145.118 143.58 144.688 143.46 144.198 143.46C143.708 143.46 143.278 143.58 142.908 143.82C142.538 144.05 142.243 144.375 142.023 144.795C141.813 145.215 141.708 145.7 141.708 146.25C141.708 146.8 141.813 147.285 142.023 147.705C142.243 148.125 142.543 148.455 142.923 148.695C143.303 148.925 143.738 149.04 144.228 149.04ZM149.643 150V142.5H150.768L150.843 143.88V150H149.643ZM154.908 150V146.16L156.108 145.71V150H154.908ZM154.908 146.16C154.908 145.42 154.823 144.855 154.653 144.465C154.483 144.075 154.248 143.81 153.948 143.67C153.648 143.52 153.308 143.445 152.928 143.445C152.268 143.445 151.753 143.68 151.383 144.15C151.023 144.61 150.843 145.265 150.843 146.115H150.258C150.258 145.325 150.373 144.645 150.603 144.075C150.833 143.505 151.163 143.07 151.593 142.77C152.033 142.47 152.563 142.32 153.183 142.32C154.093 142.32 154.808 142.6 155.328 143.16C155.858 143.72 156.118 144.57 156.108 145.71L154.908 146.16ZM165.073 150.18C164.343 150.18 163.693 150.015 163.123 149.685C162.553 149.345 162.108 148.88 161.788 148.29C161.468 147.7 161.308 147.02 161.308 146.25C161.308 145.48 161.463 144.8 161.773 144.21C162.093 143.62 162.538 143.16 163.108 142.83C163.678 142.49 164.323 142.32 165.043 142.32C165.783 142.32 166.433 142.49 166.993 142.83C167.563 143.16 168.003 143.62 168.313 144.21C168.633 144.8 168.793 145.48 168.793 146.25C168.793 147.02 168.633 147.7 168.313 148.29C168.003 148.88 167.568 149.345 167.008 149.685C166.448 150.015 165.803 150.18 165.073 150.18ZM165.073 149.04C165.563 149.04 165.993 148.925 166.363 148.695C166.733 148.455 167.023 148.125 167.233 147.705C167.443 147.285 167.548 146.8 167.548 146.25C167.548 145.7 167.438 145.215 167.218 144.795C167.008 144.375 166.713 144.05 166.333 143.82C165.963 143.58 165.533 143.46 165.043 143.46C164.553 143.46 164.123 143.58 163.753 143.82C163.383 144.05 163.088 144.375 162.868 144.795C162.658 145.215 162.553 145.7 162.553 146.25C162.553 146.8 162.658 147.285 162.868 147.705C163.088 148.125 163.388 148.455 163.768 148.695C164.148 148.925 164.583 149.04 165.073 149.04ZM171.238 150V141.645C171.238 140.865 171.418 140.28 171.778 139.89C172.148 139.49 172.708 139.29 173.458 139.29C173.658 139.29 173.883 139.325 174.133 139.395C174.383 139.465 174.648 139.565 174.928 139.695L174.478 140.64C174.248 140.55 174.053 140.48 173.893 140.43C173.733 140.38 173.598 140.355 173.488 140.355C173.138 140.355 172.873 140.47 172.693 140.7C172.523 140.92 172.438 141.265 172.438 141.735V150H171.238ZM169.858 143.535V142.5H174.613V143.535H169.858ZM182.701 150.18C181.971 150.18 181.406 149.99 181.006 149.61C180.606 149.23 180.406 148.695 180.406 148.005V140.16H181.606V147.885C181.606 148.265 181.706 148.56 181.906 148.77C182.116 148.97 182.406 149.07 182.776 149.07C182.896 149.07 183.011 149.055 183.121 149.025C183.241 148.985 183.396 148.895 183.586 148.755L184.051 149.73C183.791 149.9 183.556 150.015 183.346 150.075C183.136 150.145 182.921 150.18 182.701 150.18ZM179.101 143.565V142.5H183.856V143.565H179.101ZM185.502 150V139.305H186.702V150H185.502ZM190.782 150V146.16L191.982 145.71V150H190.782ZM190.782 146.16C190.782 145.42 190.692 144.855 190.512 144.465C190.342 144.075 190.107 143.81 189.807 143.67C189.507 143.52 189.167 143.445 188.787 143.445C188.127 143.445 187.612 143.68 187.242 144.15C186.882 144.61 186.702 145.265 186.702 146.115H186.117C186.117 145.325 186.232 144.645 186.462 144.075C186.692 143.505 187.027 143.07 187.467 142.77C187.907 142.47 188.437 142.32 189.057 142.32C189.957 142.32 190.672 142.6 191.202 143.16C191.732 143.72 191.992 144.57 191.982 145.71L190.782 146.16ZM197.181 150.18C196.451 150.18 195.806 150.015 195.246 149.685C194.696 149.345 194.261 148.88 193.941 148.29C193.621 147.7 193.461 147.02 193.461 146.25C193.461 145.48 193.616 144.8 193.926 144.21C194.246 143.62 194.686 143.16 195.246 142.83C195.806 142.49 196.441 142.32 197.151 142.32C197.851 142.32 198.456 142.495 198.966 142.845C199.476 143.185 199.871 143.665 200.151 144.285C200.431 144.905 200.571 145.635 200.571 146.475H199.371C199.371 145.835 199.286 145.29 199.116 144.84C198.946 144.38 198.696 144.025 198.366 143.775C198.036 143.525 197.626 143.4 197.136 143.4C196.646 143.4 196.216 143.52 195.846 143.76C195.486 143.99 195.206 144.32 195.006 144.75C194.806 145.18 194.706 145.685 194.706 146.265C194.706 146.835 194.816 147.33 195.036 147.75C195.256 148.16 195.556 148.485 195.936 148.725C196.316 148.955 196.751 149.07 197.241 149.07C197.771 149.07 198.216 148.945 198.576 148.695C198.936 148.445 199.216 148.12 199.416 147.72L200.481 148.245C200.281 148.635 200.021 148.975 199.701 149.265C199.391 149.555 199.026 149.78 198.606 149.94C198.186 150.1 197.711 150.18 197.181 150.18ZM194.271 146.475V145.44H199.836V146.475H194.271ZM205.834 150V139.5H207.034V148.605L206.974 150H205.834ZM209.569 150.18C208.939 150.18 208.384 150.015 207.904 149.685C207.434 149.355 207.069 148.895 206.809 148.305C206.549 147.705 206.419 147.02 206.419 146.25C206.419 145.47 206.549 144.785 206.809 144.195C207.069 143.605 207.434 143.145 207.904 142.815C208.384 142.485 208.939 142.32 209.569 142.32C210.239 142.32 210.829 142.485 211.339 142.815C211.849 143.145 212.244 143.605 212.524 144.195C212.814 144.785 212.959 145.47 212.959 146.25C212.959 147.02 212.814 147.705 212.524 148.305C212.244 148.895 211.849 149.355 211.339 149.685C210.829 150.015 210.239 150.18 209.569 150.18ZM209.299 149.085C209.769 149.085 210.184 148.965 210.544 148.725C210.914 148.485 211.204 148.15 211.414 147.72C211.634 147.29 211.744 146.8 211.744 146.25C211.744 145.7 211.639 145.21 211.429 144.78C211.229 144.35 210.944 144.015 210.574 143.775C210.204 143.535 209.784 143.415 209.314 143.415C208.874 143.415 208.479 143.535 208.129 143.775C207.789 144.015 207.519 144.35 207.319 144.78C207.129 145.21 207.034 145.7 207.034 146.25C207.034 146.8 207.129 147.29 207.319 147.72C207.519 148.15 207.789 148.485 208.129 148.725C208.469 148.965 208.859 149.085 209.299 149.085ZM217.938 150.18C217.208 150.18 216.563 150.015 216.003 149.685C215.453 149.345 215.018 148.88 214.698 148.29C214.378 147.7 214.218 147.02 214.218 146.25C214.218 145.48 214.373 144.8 214.683 144.21C215.003 143.62 215.443 143.16 216.003 142.83C216.563 142.49 217.198 142.32 217.908 142.32C218.608 142.32 219.213 142.495 219.723 142.845C220.233 143.185 220.628 143.665 220.908 144.285C221.188 144.905 221.328 145.635 221.328 146.475H220.128C220.128 145.835 220.043 145.29 219.873 144.84C219.703 144.38 219.453 144.025 219.123 143.775C218.793 143.525 218.383 143.4 217.893 143.4C217.403 143.4 216.973 143.52 216.603 143.76C216.243 143.99 215.963 144.32 215.763 144.75C215.563 145.18 215.463 145.685 215.463 146.265C215.463 146.835 215.573 147.33 215.793 147.75C216.013 148.16 216.313 148.485 216.693 148.725C217.073 148.955 217.508 149.07 217.998 149.07C218.528 149.07 218.973 148.945 219.333 148.695C219.693 148.445 219.973 148.12 220.173 147.72L221.238 148.245C221.038 148.635 220.778 148.975 220.458 149.265C220.148 149.555 219.783 149.78 219.363 149.94C218.943 150.1 218.468 150.18 217.938 150.18ZM215.028 146.475V145.44H220.593V146.475H215.028ZM225.51 150.18C224.96 150.18 224.48 150.1 224.07 149.94C223.66 149.77 223.315 149.55 223.035 149.28C222.765 149.01 222.57 148.715 222.45 148.395L223.5 147.96C223.67 148.29 223.925 148.56 224.265 148.77C224.605 148.98 224.98 149.085 225.39 149.085C225.86 149.085 226.25 148.995 226.56 148.815C226.88 148.625 227.04 148.365 227.04 148.035C227.04 147.725 226.92 147.475 226.68 147.285C226.45 147.095 226.11 146.94 225.66 146.82L224.94 146.625C224.26 146.445 223.73 146.175 223.35 145.815C222.97 145.445 222.78 145.03 222.78 144.57C222.78 143.86 223.01 143.31 223.47 142.92C223.94 142.52 224.635 142.32 225.555 142.32C225.995 142.32 226.395 142.385 226.755 142.515C227.115 142.645 227.425 142.83 227.685 143.07C227.945 143.3 228.135 143.575 228.255 143.895L227.205 144.36C227.075 144.02 226.86 143.78 226.56 143.64C226.26 143.49 225.895 143.415 225.465 143.415C225.005 143.415 224.645 143.51 224.385 143.7C224.125 143.89 223.995 144.16 223.995 144.51C223.995 144.71 224.1 144.9 224.31 145.08C224.53 145.25 224.85 145.39 225.27 145.5L226.02 145.695C226.51 145.815 226.92 145.995 227.25 146.235C227.58 146.465 227.83 146.73 228 147.03C228.17 147.33 228.255 147.65 228.255 147.99C228.255 148.44 228.135 148.83 227.895 149.16C227.655 149.49 227.33 149.745 226.92 149.925C226.51 150.095 226.04 150.18 225.51 150.18ZM232.842 150.18C232.112 150.18 231.547 149.99 231.147 149.61C230.747 149.23 230.547 148.695 230.547 148.005V140.16H231.747V147.885C231.747 148.265 231.847 148.56 232.047 148.77C232.257 148.97 232.547 149.07 232.917 149.07C233.037 149.07 233.152 149.055 233.262 149.025C233.382 148.985 233.537 148.895 233.727 148.755L234.192 149.73C233.932 149.9 233.697 150.015 233.487 150.075C233.277 150.145 233.062 150.18 232.842 150.18ZM229.242 143.565V142.5H233.997V143.565H229.242ZM244.84 153V143.895L244.9 142.5H246.04V153H244.84ZM242.305 150.18C241.635 150.18 241.045 150.015 240.535 149.685C240.025 149.355 239.625 148.895 239.335 148.305C239.055 147.705 238.915 147.02 238.915 146.25C238.915 145.47 239.055 144.785 239.335 144.195C239.625 143.605 240.025 143.145 240.535 142.815C241.045 142.485 241.635 142.32 242.305 142.32C242.935 142.32 243.485 142.485 243.955 142.815C244.435 143.145 244.805 143.605 245.065 144.195C245.325 144.785 245.455 145.47 245.455 146.25C245.455 147.02 245.325 147.705 245.065 148.305C244.805 148.895 244.435 149.355 243.955 149.685C243.485 150.015 242.935 150.18 242.305 150.18ZM242.575 149.085C243.015 149.085 243.405 148.965 243.745 148.725C244.085 148.485 244.35 148.15 244.54 147.72C244.74 147.29 244.84 146.8 244.84 146.25C244.84 145.7 244.74 145.21 244.54 144.78C244.35 144.35 244.085 144.015 243.745 143.775C243.405 143.535 243.01 143.415 242.56 143.415C242.09 143.415 241.67 143.535 241.3 143.775C240.94 144.015 240.655 144.35 240.445 144.78C240.235 145.21 240.13 145.7 240.13 146.25C240.13 146.8 240.235 147.29 240.445 147.72C240.655 148.15 240.945 148.485 241.315 148.725C241.685 148.965 242.105 149.085 242.575 149.085ZM253.167 150L253.092 148.62V142.5H254.292V150H253.167ZM247.827 146.79V142.5H249.027V146.34L247.827 146.79ZM249.027 146.34C249.027 147.08 249.112 147.645 249.282 148.035C249.452 148.425 249.687 148.695 249.987 148.845C250.297 148.985 250.642 149.055 251.022 149.055C251.672 149.055 252.177 148.82 252.537 148.35C252.907 147.88 253.092 147.225 253.092 146.385H253.677C253.677 147.175 253.562 147.855 253.332 148.425C253.102 148.995 252.767 149.43 252.327 149.73C251.897 150.03 251.372 150.18 250.752 150.18C249.842 150.18 249.122 149.9 248.592 149.34C248.072 148.78 247.817 147.93 247.827 146.79L249.027 146.34ZM261.081 150L260.961 146.04C260.941 145.45 260.866 144.965 260.736 144.585C260.606 144.195 260.406 143.905 260.136 143.715C259.866 143.515 259.506 143.415 259.056 143.415C258.626 143.415 258.251 143.5 257.931 143.67C257.621 143.84 257.366 144.105 257.166 144.465L256.101 144.03C256.291 143.68 256.526 143.38 256.806 143.13C257.086 142.87 257.416 142.67 257.796 142.53C258.176 142.39 258.601 142.32 259.071 142.32C259.761 142.32 260.336 142.455 260.796 142.725C261.256 142.995 261.596 143.4 261.816 143.94C262.046 144.47 262.161 145.135 262.161 145.935V150H261.081ZM258.801 150.18C257.911 150.18 257.216 149.98 256.716 149.58C256.226 149.17 255.981 148.605 255.981 147.885C255.981 147.125 256.231 146.545 256.731 146.145C257.241 145.735 257.951 145.53 258.861 145.53H261.501V146.535H259.131C258.431 146.535 257.931 146.65 257.631 146.88C257.341 147.11 257.196 147.44 257.196 147.87C257.196 148.26 257.341 148.57 257.631 148.8C257.921 149.02 258.326 149.13 258.846 149.13C259.286 149.13 259.666 149.03 259.986 148.83C260.306 148.63 260.551 148.36 260.721 148.02C260.891 147.67 260.976 147.275 260.976 146.835H261.711C261.711 147.855 261.461 148.67 260.961 149.28C260.461 149.88 259.741 150.18 258.801 150.18ZM264.062 150L264.092 139.5H265.292L265.262 150H264.062ZM267.462 150L267.492 142.5H268.692L268.662 150H267.462ZM268.077 140.76C267.877 140.76 267.702 140.685 267.552 140.535C267.402 140.385 267.327 140.21 267.327 140.01C267.327 139.8 267.402 139.625 267.552 139.485C267.702 139.335 267.877 139.26 268.077 139.26C268.287 139.26 268.462 139.335 268.602 139.485C268.752 139.625 268.827 139.8 268.827 140.01C268.827 140.21 268.752 140.385 268.602 140.535C268.462 140.685 268.287 140.76 268.077 140.76ZM273.843 150.18C273.113 150.18 272.548 149.99 272.148 149.61C271.748 149.23 271.548 148.695 271.548 148.005V140.16H272.748V147.885C272.748 148.265 272.848 148.56 273.048 148.77C273.258 148.97 273.548 149.07 273.918 149.07C274.038 149.07 274.153 149.055 274.263 149.025C274.383 148.985 274.538 148.895 274.728 148.755L275.193 149.73C274.933 149.9 274.698 150.015 274.488 150.075C274.278 150.145 274.063 150.18 273.843 150.18ZM270.243 143.565V142.5H274.998V143.565H270.243ZM277.32 153.18C277.13 153.18 276.91 153.14 276.66 153.06C276.41 152.99 276.145 152.895 275.865 152.775L276.315 151.77C276.545 151.87 276.745 151.945 276.915 151.995C277.095 152.045 277.235 152.07 277.335 152.07C277.605 152.07 277.825 151.995 277.995 151.845C278.175 151.705 278.325 151.5 278.445 151.23L279.3 149.19L282.075 142.5H283.365L279.765 151.05C279.575 151.49 279.375 151.87 279.165 152.19C278.965 152.51 278.72 152.755 278.43 152.925C278.14 153.095 277.77 153.18 277.32 153.18ZM278.97 150L275.73 142.5H277.005L279.795 149.175L280.155 150H278.97ZM292.461 150.225C291.671 150.225 290.971 150.06 290.361 149.73C289.761 149.39 289.291 148.925 288.951 148.335C288.611 147.735 288.441 147.045 288.441 146.265H289.716C289.716 146.815 289.831 147.305 290.061 147.735C290.301 148.155 290.631 148.485 291.051 148.725C291.471 148.955 291.951 149.07 292.491 149.07C293.041 149.07 293.526 148.955 293.946 148.725C294.376 148.485 294.706 148.155 294.936 147.735C295.176 147.305 295.296 146.815 295.296 146.265H296.556C296.556 147.045 296.386 147.735 296.046 148.335C295.706 148.925 295.226 149.39 294.606 149.73C293.986 150.06 293.271 150.225 292.461 150.225ZM288.441 146.265V139.5H289.716V146.265H288.441ZM295.296 146.265V139.5H296.556V146.265H295.296ZM302.557 150.18C301.977 150.18 301.462 150.12 301.012 150C300.562 149.87 300.172 149.695 299.842 149.475C299.512 149.245 299.242 148.995 299.032 148.725C298.822 148.445 298.667 148.15 298.567 147.84L299.782 147.42C299.932 147.86 300.232 148.245 300.682 148.575C301.142 148.895 301.702 149.055 302.362 149.055C303.172 149.055 303.807 148.895 304.267 148.575C304.727 148.255 304.957 147.83 304.957 147.3C304.957 146.81 304.752 146.415 304.342 146.115C303.932 145.805 303.392 145.565 302.722 145.395L301.567 145.095C301.097 144.975 300.662 144.8 300.262 144.57C299.872 144.33 299.557 144.03 299.317 143.67C299.087 143.3 298.972 142.86 298.972 142.35C298.972 141.4 299.277 140.66 299.887 140.13C300.507 139.59 301.397 139.32 302.557 139.32C303.247 139.32 303.842 139.435 304.342 139.665C304.842 139.885 305.247 140.17 305.557 140.52C305.877 140.86 306.102 141.23 306.232 141.63L305.032 142.05C304.842 141.55 304.522 141.16 304.072 140.88C303.622 140.59 303.077 140.445 302.437 140.445C301.767 140.445 301.232 140.61 300.832 140.94C300.442 141.26 300.247 141.7 300.247 142.26C300.247 142.74 300.402 143.11 300.712 143.37C301.022 143.62 301.427 143.805 301.927 143.925L303.082 144.21C304.102 144.45 304.882 144.85 305.422 145.41C305.972 145.96 306.247 146.555 306.247 147.195C306.247 147.745 306.107 148.25 305.827 148.71C305.547 149.16 305.132 149.52 304.582 149.79C304.042 150.05 303.367 150.18 302.557 150.18ZM315.686 150L311.471 139.5H312.746L317.021 150H315.686ZM307.151 150L311.426 139.5H312.716L308.501 150H307.151ZM309.176 147.015V145.875H315.011V147.015H309.176ZM318.037 146.085V144.99H322.537V146.085H318.037ZM27.05 175V167.5H28.175L28.25 168.88V175H27.05ZM32.315 175V171.16L33.515 170.71V175H32.315ZM37.595 175V171.16L38.795 170.71V175H37.595ZM32.315 171.16C32.315 170.42 32.23 169.855 32.06 169.465C31.89 169.075 31.655 168.81 31.355 168.67C31.055 168.52 30.715 168.445 30.335 168.445C29.675 168.445 29.16 168.68 28.79 169.15C28.43 169.61 28.25 170.265 28.25 171.115H27.665C27.665 170.325 27.78 169.645 28.01 169.075C28.24 168.505 28.57 168.07 29 167.77C29.44 167.47 29.97 167.32 30.59 167.32C31.5 167.32 32.215 167.6 32.735 168.16C33.265 168.72 33.525 169.57 33.515 170.71L32.315 171.16ZM37.595 171.16C37.595 170.42 37.505 169.855 37.325 169.465C37.155 169.075 36.92 168.81 36.62 168.67C36.32 168.52 35.98 168.445 35.6 168.445C34.94 168.445 34.425 168.68 34.055 169.15C33.695 169.61 33.515 170.265 33.515 171.115H32.93C32.93 170.325 33.045 169.645 33.275 169.075C33.505 168.505 33.84 168.07 34.28 167.77C34.72 167.47 35.25 167.32 35.87 167.32C36.77 167.32 37.48 167.6 38 168.16C38.53 168.72 38.795 169.57 38.795 170.71L37.595 171.16ZM45.3827 175L45.2627 171.04C45.2427 170.45 45.1677 169.965 45.0377 169.585C44.9077 169.195 44.7077 168.905 44.4377 168.715C44.1677 168.515 43.8077 168.415 43.3577 168.415C42.9277 168.415 42.5527 168.5 42.2327 168.67C41.9227 168.84 41.6677 169.105 41.4677 169.465L40.4027 169.03C40.5927 168.68 40.8277 168.38 41.1077 168.13C41.3877 167.87 41.7177 167.67 42.0977 167.53C42.4777 167.39 42.9027 167.32 43.3727 167.32C44.0627 167.32 44.6377 167.455 45.0977 167.725C45.5577 167.995 45.8977 168.4 46.1177 168.94C46.3477 169.47 46.4627 170.135 46.4627 170.935V175H45.3827ZM43.1027 175.18C42.2127 175.18 41.5177 174.98 41.0177 174.58C40.5277 174.17 40.2827 173.605 40.2827 172.885C40.2827 172.125 40.5327 171.545 41.0327 171.145C41.5427 170.735 42.2527 170.53 43.1627 170.53H45.8027V171.535H43.4327C42.7327 171.535 42.2327 171.65 41.9327 171.88C41.6427 172.11 41.4977 172.44 41.4977 172.87C41.4977 173.26 41.6427 173.57 41.9327 173.8C42.2227 174.02 42.6277 174.13 43.1477 174.13C43.5877 174.13 43.9677 174.03 44.2877 173.83C44.6077 173.63 44.8527 173.36 45.0227 173.02C45.1927 172.67 45.2777 172.275 45.2777 171.835H46.0127C46.0127 172.855 45.7627 173.67 45.2627 174.28C44.7627 174.88 44.0427 175.18 43.1027 175.18ZM53.9135 175L53.8535 173.605V164.5H55.0535V175H53.9135ZM51.3185 175.18C50.6485 175.18 50.0585 175.015 49.5485 174.685C49.0385 174.355 48.6385 173.895 48.3485 173.305C48.0685 172.705 47.9285 172.02 47.9285 171.25C47.9285 170.47 48.0685 169.785 48.3485 169.195C48.6385 168.605 49.0385 168.145 49.5485 167.815C50.0585 167.485 50.6485 167.32 51.3185 167.32C51.9485 167.32 52.4985 167.485 52.9685 167.815C53.4485 168.145 53.8185 168.605 54.0785 169.195C54.3385 169.785 54.4685 170.47 54.4685 171.25C54.4685 172.02 54.3385 172.705 54.0785 173.305C53.8185 173.895 53.4485 174.355 52.9685 174.685C52.4985 175.015 51.9485 175.18 51.3185 175.18ZM51.5885 174.085C52.0285 174.085 52.4185 173.965 52.7585 173.725C53.0985 173.485 53.3635 173.15 53.5535 172.72C53.7535 172.29 53.8535 171.8 53.8535 171.25C53.8535 170.7 53.7535 170.21 53.5535 169.78C53.3635 169.35 53.0985 169.015 52.7585 168.775C52.4185 168.535 52.0235 168.415 51.5735 168.415C51.1035 168.415 50.6835 168.535 50.3135 168.775C49.9535 169.015 49.6685 169.35 49.4585 169.78C49.2485 170.21 49.1435 170.7 49.1435 171.25C49.1435 171.8 49.2485 172.29 49.4585 172.72C49.6685 173.15 49.9585 173.485 50.3285 173.725C50.6985 173.965 51.1185 174.085 51.5885 174.085ZM60.4675 175.18C59.7375 175.18 59.0925 175.015 58.5325 174.685C57.9825 174.345 57.5475 173.88 57.2275 173.29C56.9075 172.7 56.7475 172.02 56.7475 171.25C56.7475 170.48 56.9025 169.8 57.2125 169.21C57.5325 168.62 57.9725 168.16 58.5325 167.83C59.0925 167.49 59.7275 167.32 60.4375 167.32C61.1375 167.32 61.7425 167.495 62.2525 167.845C62.7625 168.185 63.1575 168.665 63.4375 169.285C63.7175 169.905 63.8575 170.635 63.8575 171.475H62.6575C62.6575 170.835 62.5725 170.29 62.4025 169.84C62.2325 169.38 61.9825 169.025 61.6525 168.775C61.3225 168.525 60.9125 168.4 60.4225 168.4C59.9325 168.4 59.5025 168.52 59.1325 168.76C58.7725 168.99 58.4925 169.32 58.2925 169.75C58.0925 170.18 57.9925 170.685 57.9925 171.265C57.9925 171.835 58.1025 172.33 58.3225 172.75C58.5425 173.16 58.8425 173.485 59.2225 173.725C59.6025 173.955 60.0375 174.07 60.5275 174.07C61.0575 174.07 61.5025 173.945 61.8625 173.695C62.2225 173.445 62.5025 173.12 62.7025 172.72L63.7675 173.245C63.5675 173.635 63.3075 173.975 62.9875 174.265C62.6775 174.555 62.3125 174.78 61.8925 174.94C61.4725 175.1 60.9975 175.18 60.4675 175.18ZM57.5575 171.475V170.44H63.1225V171.475H57.5575ZM69.8703 175V166.645C69.8703 165.865 70.0503 165.28 70.4103 164.89C70.7803 164.49 71.3403 164.29 72.0903 164.29C72.2903 164.29 72.5153 164.325 72.7653 164.395C73.0153 164.465 73.2803 164.565 73.5603 164.695L73.1103 165.64C72.8803 165.55 72.6853 165.48 72.5253 165.43C72.3653 165.38 72.2303 165.355 72.1203 165.355C71.7703 165.355 71.5053 165.47 71.3253 165.7C71.1553 165.92 71.0703 166.265 71.0703 166.735V175H69.8703ZM68.4903 168.535V167.5H73.2453V168.535H68.4903ZM79.8024 175L79.7274 173.62V167.5H80.9274V175H79.8024ZM74.4624 171.79V167.5H75.6624V171.34L74.4624 171.79ZM75.6624 171.34C75.6624 172.08 75.7474 172.645 75.9174 173.035C76.0874 173.425 76.3224 173.695 76.6224 173.845C76.9324 173.985 77.2774 174.055 77.6574 174.055C78.3074 174.055 78.8124 173.82 79.1724 173.35C79.5424 172.88 79.7274 172.225 79.7274 171.385H80.3124C80.3124 172.175 80.1974 172.855 79.9674 173.425C79.7374 173.995 79.4024 174.43 78.9624 174.73C78.5324 175.03 78.0074 175.18 77.3874 175.18C76.4774 175.18 75.7574 174.9 75.2274 174.34C74.7074 173.78 74.4524 172.93 74.4624 171.79L75.6624 171.34ZM83.6817 170.935C83.6817 170.125 83.8367 169.47 84.1467 168.97C84.4567 168.46 84.8517 168.085 85.3317 167.845C85.8217 167.595 86.3367 167.47 86.8767 167.47V168.595C86.4367 168.595 86.0117 168.67 85.6017 168.82C85.2017 168.96 84.8717 169.195 84.6117 169.525C84.3517 169.855 84.2217 170.305 84.2217 170.875L83.6817 170.935ZM83.0217 175V167.5H84.2217V175H83.0217ZM88.09 175V167.5H89.215L89.29 168.88V175H88.09ZM93.355 175V171.16L94.555 170.71V175H93.355ZM93.355 171.16C93.355 170.42 93.27 169.855 93.1 169.465C92.93 169.075 92.695 168.81 92.395 168.67C92.095 168.52 91.755 168.445 91.375 168.445C90.715 168.445 90.2 168.68 89.83 169.15C89.47 169.61 89.29 170.265 89.29 171.115H88.705C88.705 170.325 88.82 169.645 89.05 169.075C89.28 168.505 89.61 168.07 90.04 167.77C90.48 167.47 91.01 167.32 91.63 167.32C92.54 167.32 93.255 167.6 93.775 168.16C94.305 168.72 94.565 169.57 94.555 170.71L93.355 171.16ZM96.5293 175L96.5593 167.5H97.7593L97.7293 175H96.5293ZM97.1443 165.76C96.9443 165.76 96.7693 165.685 96.6193 165.535C96.4693 165.385 96.3943 165.21 96.3943 165.01C96.3943 164.8 96.4693 164.625 96.6193 164.485C96.7693 164.335 96.9443 164.26 97.1443 164.26C97.3543 164.26 97.5293 164.335 97.6693 164.485C97.8193 164.625 97.8943 164.8 97.8943 165.01C97.8943 165.21 97.8193 165.385 97.6693 165.535C97.5293 165.685 97.3543 165.76 97.1443 165.76ZM102.911 175.18C102.181 175.18 101.616 174.99 101.216 174.61C100.816 174.23 100.616 173.695 100.616 173.005V165.16H101.816V172.885C101.816 173.265 101.916 173.56 102.116 173.77C102.326 173.97 102.616 174.07 102.986 174.07C103.106 174.07 103.221 174.055 103.331 174.025C103.451 173.985 103.606 173.895 103.796 173.755L104.261 174.73C104.001 174.9 103.766 175.015 103.556 175.075C103.346 175.145 103.131 175.18 102.911 175.18ZM99.3106 168.565V167.5H104.066V168.565H99.3106ZM110.857 175L110.782 173.62V167.5H111.982V175H110.857ZM105.517 171.79V167.5H106.717V171.34L105.517 171.79ZM106.717 171.34C106.717 172.08 106.802 172.645 106.972 173.035C107.142 173.425 107.377 173.695 107.677 173.845C107.987 173.985 108.332 174.055 108.712 174.055C109.362 174.055 109.867 173.82 110.227 173.35C110.597 172.88 110.782 172.225 110.782 171.385H111.367C111.367 172.175 111.252 172.855 111.022 173.425C110.792 173.995 110.457 174.43 110.017 174.73C109.587 175.03 109.062 175.18 108.442 175.18C107.532 175.18 106.812 174.9 106.282 174.34C105.762 173.78 105.507 172.93 105.517 171.79L106.717 171.34ZM114.736 170.935C114.736 170.125 114.891 169.47 115.201 168.97C115.511 168.46 115.906 168.085 116.386 167.845C116.876 167.595 117.391 167.47 117.931 167.47V168.595C117.491 168.595 117.066 168.67 116.656 168.82C116.256 168.96 115.926 169.195 115.666 169.525C115.406 169.855 115.276 170.305 115.276 170.875L114.736 170.935ZM114.076 175V167.5H115.276V175H114.076ZM122.46 175.18C121.73 175.18 121.085 175.015 120.525 174.685C119.975 174.345 119.54 173.88 119.22 173.29C118.9 172.7 118.74 172.02 118.74 171.25C118.74 170.48 118.895 169.8 119.205 169.21C119.525 168.62 119.965 168.16 120.525 167.83C121.085 167.49 121.72 167.32 122.43 167.32C123.13 167.32 123.735 167.495 124.245 167.845C124.755 168.185 125.15 168.665 125.43 169.285C125.71 169.905 125.85 170.635 125.85 171.475H124.65C124.65 170.835 124.565 170.29 124.395 169.84C124.225 169.38 123.975 169.025 123.645 168.775C123.315 168.525 122.905 168.4 122.415 168.4C121.925 168.4 121.495 168.52 121.125 168.76C120.765 168.99 120.485 169.32 120.285 169.75C120.085 170.18 119.985 170.685 119.985 171.265C119.985 171.835 120.095 172.33 120.315 172.75C120.535 173.16 120.835 173.485 121.215 173.725C121.595 173.955 122.03 174.07 122.52 174.07C123.05 174.07 123.495 173.945 123.855 173.695C124.215 173.445 124.495 173.12 124.695 172.72L125.76 173.245C125.56 173.635 125.3 173.975 124.98 174.265C124.67 174.555 124.305 174.78 123.885 174.94C123.465 175.1 122.99 175.18 122.46 175.18ZM119.55 171.475V170.44H125.115V171.475H119.55ZM134.083 175.18C133.353 175.18 132.788 174.99 132.388 174.61C131.988 174.23 131.788 173.695 131.788 173.005V165.16H132.988V172.885C132.988 173.265 133.088 173.56 133.288 173.77C133.498 173.97 133.788 174.07 134.158 174.07C134.278 174.07 134.393 174.055 134.503 174.025C134.623 173.985 134.778 173.895 134.968 173.755L135.433 174.73C135.173 174.9 134.938 175.015 134.728 175.075C134.518 175.145 134.303 175.18 134.083 175.18ZM130.483 168.565V167.5H135.238V168.565H130.483ZM136.884 175V164.305H138.084V175H136.884ZM142.164 175V171.16L143.364 170.71V175H142.164ZM142.164 171.16C142.164 170.42 142.074 169.855 141.894 169.465C141.724 169.075 141.489 168.81 141.189 168.67C140.889 168.52 140.549 168.445 140.169 168.445C139.509 168.445 138.994 168.68 138.624 169.15C138.264 169.61 138.084 170.265 138.084 171.115H137.499C137.499 170.325 137.614 169.645 137.844 169.075C138.074 168.505 138.409 168.07 138.849 167.77C139.289 167.47 139.819 167.32 140.439 167.32C141.339 167.32 142.054 167.6 142.584 168.16C143.114 168.72 143.374 169.57 143.364 170.71L142.164 171.16ZM149.943 175L149.823 171.04C149.803 170.45 149.728 169.965 149.598 169.585C149.468 169.195 149.268 168.905 148.998 168.715C148.728 168.515 148.368 168.415 147.918 168.415C147.488 168.415 147.113 168.5 146.793 168.67C146.483 168.84 146.228 169.105 146.028 169.465L144.963 169.03C145.153 168.68 145.388 168.38 145.668 168.13C145.948 167.87 146.278 167.67 146.658 167.53C147.038 167.39 147.463 167.32 147.933 167.32C148.623 167.32 149.198 167.455 149.658 167.725C150.118 167.995 150.458 168.4 150.678 168.94C150.908 169.47 151.023 170.135 151.023 170.935V175H149.943ZM147.663 175.18C146.773 175.18 146.078 174.98 145.578 174.58C145.088 174.17 144.843 173.605 144.843 172.885C144.843 172.125 145.093 171.545 145.593 171.145C146.103 170.735 146.813 170.53 147.723 170.53H150.363V171.535H147.993C147.293 171.535 146.793 171.65 146.493 171.88C146.203 172.11 146.058 172.44 146.058 172.87C146.058 173.26 146.203 173.57 146.493 173.8C146.783 174.02 147.188 174.13 147.708 174.13C148.148 174.13 148.528 174.03 148.848 173.83C149.168 173.63 149.413 173.36 149.583 173.02C149.753 172.67 149.838 172.275 149.838 171.835H150.573C150.573 172.855 150.323 173.67 149.823 174.28C149.323 174.88 148.603 175.18 147.663 175.18ZM155.894 175.18C155.164 175.18 154.599 174.99 154.199 174.61C153.799 174.23 153.599 173.695 153.599 173.005V165.16H154.799V172.885C154.799 173.265 154.899 173.56 155.099 173.77C155.309 173.97 155.599 174.07 155.969 174.07C156.089 174.07 156.204 174.055 156.314 174.025C156.434 173.985 156.589 173.895 156.779 173.755L157.244 174.73C156.984 174.9 156.749 175.015 156.539 175.075C156.329 175.145 156.114 175.18 155.894 175.18ZM152.294 168.565V167.5H157.049V168.565H152.294ZM162.402 175L162.432 164.5H163.632L163.602 175H162.402ZM170.422 175L170.302 171.04C170.282 170.45 170.207 169.965 170.077 169.585C169.947 169.195 169.747 168.905 169.477 168.715C169.207 168.515 168.847 168.415 168.397 168.415C167.967 168.415 167.592 168.5 167.272 168.67C166.962 168.84 166.707 169.105 166.507 169.465L165.442 169.03C165.632 168.68 165.867 168.38 166.147 168.13C166.427 167.87 166.757 167.67 167.137 167.53C167.517 167.39 167.942 167.32 168.412 167.32C169.102 167.32 169.677 167.455 170.137 167.725C170.597 167.995 170.937 168.4 171.157 168.94C171.387 169.47 171.502 170.135 171.502 170.935V175H170.422ZM168.142 175.18C167.252 175.18 166.557 174.98 166.057 174.58C165.567 174.17 165.322 173.605 165.322 172.885C165.322 172.125 165.572 171.545 166.072 171.145C166.582 170.735 167.292 170.53 168.202 170.53H170.842V171.535H168.472C167.772 171.535 167.272 171.65 166.972 171.88C166.682 172.11 166.537 172.44 166.537 172.87C166.537 173.26 166.682 173.57 166.972 173.8C167.262 174.02 167.667 174.13 168.187 174.13C168.627 174.13 169.007 174.03 169.327 173.83C169.647 173.63 169.892 173.36 170.062 173.02C170.232 172.67 170.317 172.275 170.317 171.835H171.052C171.052 172.855 170.802 173.67 170.302 174.28C169.802 174.88 169.082 175.18 168.142 175.18ZM176.028 175.18C175.478 175.18 174.998 175.1 174.588 174.94C174.178 174.77 173.833 174.55 173.553 174.28C173.283 174.01 173.088 173.715 172.968 173.395L174.018 172.96C174.188 173.29 174.443 173.56 174.783 173.77C175.123 173.98 175.498 174.085 175.908 174.085C176.378 174.085 176.768 173.995 177.078 173.815C177.398 173.625 177.558 173.365 177.558 173.035C177.558 172.725 177.438 172.475 177.198 172.285C176.968 172.095 176.628 171.94 176.178 171.82L175.458 171.625C174.778 171.445 174.248 171.175 173.868 170.815C173.488 170.445 173.298 170.03 173.298 169.57C173.298 168.86 173.528 168.31 173.988 167.92C174.458 167.52 175.153 167.32 176.073 167.32C176.513 167.32 176.913 167.385 177.273 167.515C177.633 167.645 177.943 167.83 178.203 168.07C178.463 168.3 178.653 168.575 178.773 168.895L177.723 169.36C177.593 169.02 177.378 168.78 177.078 168.64C176.778 168.49 176.413 168.415 175.983 168.415C175.523 168.415 175.163 168.51 174.903 168.7C174.643 168.89 174.513 169.16 174.513 169.51C174.513 169.71 174.618 169.9 174.828 170.08C175.048 170.25 175.368 170.39 175.788 170.5L176.538 170.695C177.028 170.815 177.438 170.995 177.768 171.235C178.098 171.465 178.348 171.73 178.518 172.03C178.688 172.33 178.773 172.65 178.773 172.99C178.773 173.44 178.653 173.83 178.413 174.16C178.173 174.49 177.848 174.745 177.438 174.925C177.028 175.095 176.558 175.18 176.028 175.18ZM183.36 175.18C182.63 175.18 182.065 174.99 181.665 174.61C181.265 174.23 181.065 173.695 181.065 173.005V165.16H182.265V172.885C182.265 173.265 182.365 173.56 182.565 173.77C182.775 173.97 183.065 174.07 183.435 174.07C183.555 174.07 183.67 174.055 183.78 174.025C183.9 173.985 184.055 173.895 184.245 173.755L184.71 174.73C184.45 174.9 184.215 175.015 184.005 175.075C183.795 175.145 183.58 175.18 183.36 175.18ZM179.76 168.565V167.5H184.515V168.565H179.76ZM188.786 175.18C188.236 175.18 187.756 175.1 187.346 174.94C186.936 174.77 186.591 174.55 186.311 174.28C186.041 174.01 185.846 173.715 185.726 173.395L186.776 172.96C186.946 173.29 187.201 173.56 187.541 173.77C187.881 173.98 188.256 174.085 188.666 174.085C189.136 174.085 189.526 173.995 189.836 173.815C190.156 173.625 190.316 173.365 190.316 173.035C190.316 172.725 190.196 172.475 189.956 172.285C189.726 172.095 189.386 171.94 188.936 171.82L188.216 171.625C187.536 171.445 187.006 171.175 186.626 170.815C186.246 170.445 186.056 170.03 186.056 169.57C186.056 168.86 186.286 168.31 186.746 167.92C187.216 167.52 187.911 167.32 188.831 167.32C189.271 167.32 189.671 167.385 190.031 167.515C190.391 167.645 190.701 167.83 190.961 168.07C191.221 168.3 191.411 168.575 191.531 168.895L190.481 169.36C190.351 169.02 190.136 168.78 189.836 168.64C189.536 168.49 189.171 168.415 188.741 168.415C188.281 168.415 187.921 168.51 187.661 168.7C187.401 168.89 187.271 169.16 187.271 169.51C187.271 169.71 187.376 169.9 187.586 170.08C187.806 170.25 188.126 170.39 188.546 170.5L189.296 170.695C189.786 170.815 190.196 170.995 190.526 171.235C190.856 171.465 191.106 171.73 191.276 172.03C191.446 172.33 191.531 172.65 191.531 172.99C191.531 173.44 191.411 173.83 191.171 174.16C190.931 174.49 190.606 174.745 190.196 174.925C189.786 175.095 189.316 175.18 188.786 175.18ZM202.405 175L202.345 173.605V164.5H203.545V175H202.405ZM199.81 175.18C199.14 175.18 198.55 175.015 198.04 174.685C197.53 174.355 197.13 173.895 196.84 173.305C196.56 172.705 196.42 172.02 196.42 171.25C196.42 170.47 196.56 169.785 196.84 169.195C197.13 168.605 197.53 168.145 198.04 167.815C198.55 167.485 199.14 167.32 199.81 167.32C200.44 167.32 200.99 167.485 201.46 167.815C201.94 168.145 202.31 168.605 202.57 169.195C202.83 169.785 202.96 170.47 202.96 171.25C202.96 172.02 202.83 172.705 202.57 173.305C202.31 173.895 201.94 174.355 201.46 174.685C200.99 175.015 200.44 175.18 199.81 175.18ZM200.08 174.085C200.52 174.085 200.91 173.965 201.25 173.725C201.59 173.485 201.855 173.15 202.045 172.72C202.245 172.29 202.345 171.8 202.345 171.25C202.345 170.7 202.245 170.21 202.045 169.78C201.855 169.35 201.59 169.015 201.25 168.775C200.91 168.535 200.515 168.415 200.065 168.415C199.595 168.415 199.175 168.535 198.805 168.775C198.445 169.015 198.16 169.35 197.95 169.78C197.74 170.21 197.635 170.7 197.635 171.25C197.635 171.8 197.74 172.29 197.95 172.72C198.16 173.15 198.45 173.485 198.82 173.725C199.19 173.965 199.61 174.085 200.08 174.085ZM208.959 175.18C208.229 175.18 207.584 175.015 207.024 174.685C206.474 174.345 206.039 173.88 205.719 173.29C205.399 172.7 205.239 172.02 205.239 171.25C205.239 170.48 205.394 169.8 205.704 169.21C206.024 168.62 206.464 168.16 207.024 167.83C207.584 167.49 208.219 167.32 208.929 167.32C209.629 167.32 210.234 167.495 210.744 167.845C211.254 168.185 211.649 168.665 211.929 169.285C212.209 169.905 212.349 170.635 212.349 171.475H211.149C211.149 170.835 211.064 170.29 210.894 169.84C210.724 169.38 210.474 169.025 210.144 168.775C209.814 168.525 209.404 168.4 208.914 168.4C208.424 168.4 207.994 168.52 207.624 168.76C207.264 168.99 206.984 169.32 206.784 169.75C206.584 170.18 206.484 170.685 206.484 171.265C206.484 171.835 206.594 172.33 206.814 172.75C207.034 173.16 207.334 173.485 207.714 173.725C208.094 173.955 208.529 174.07 209.019 174.07C209.549 174.07 209.994 173.945 210.354 173.695C210.714 173.445 210.994 173.12 211.194 172.72L212.259 173.245C212.059 173.635 211.799 173.975 211.479 174.265C211.169 174.555 210.804 174.78 210.384 174.94C209.964 175.1 209.489 175.18 208.959 175.18ZM206.049 171.475V170.44H211.614V171.475H206.049ZM217.25 175.18C216.51 175.18 215.855 175.015 215.285 174.685C214.715 174.345 214.27 173.88 213.95 173.29C213.63 172.7 213.47 172.02 213.47 171.25C213.47 170.48 213.625 169.8 213.935 169.21C214.255 168.62 214.7 168.16 215.27 167.83C215.84 167.49 216.49 167.32 217.22 167.32C217.94 167.32 218.585 167.485 219.155 167.815C219.725 168.145 220.16 168.61 220.46 169.21L219.365 169.705C219.165 169.305 218.875 168.995 218.495 168.775C218.115 168.545 217.68 168.43 217.19 168.43C216.7 168.43 216.265 168.55 215.885 168.79C215.515 169.03 215.22 169.365 215 169.795C214.79 170.215 214.685 170.7 214.685 171.25C214.685 171.8 214.79 172.29 215 172.72C215.22 173.14 215.52 173.47 215.9 173.71C216.29 173.95 216.73 174.07 217.22 174.07C217.71 174.07 218.145 173.945 218.525 173.695C218.915 173.445 219.21 173.095 219.41 172.645L220.505 173.14C220.205 173.78 219.77 174.28 219.2 174.64C218.63 175 217.98 175.18 217.25 175.18ZM226.716 175L226.596 171.04C226.576 170.45 226.501 169.965 226.371 169.585C226.241 169.195 226.041 168.905 225.771 168.715C225.501 168.515 225.141 168.415 224.691 168.415C224.261 168.415 223.886 168.5 223.566 168.67C223.256 168.84 223.001 169.105 222.801 169.465L221.736 169.03C221.926 168.68 222.161 168.38 222.441 168.13C222.721 167.87 223.051 167.67 223.431 167.53C223.811 167.39 224.236 167.32 224.706 167.32C225.396 167.32 225.971 167.455 226.431 167.725C226.891 167.995 227.231 168.4 227.451 168.94C227.681 169.47 227.796 170.135 227.796 170.935V175H226.716ZM224.436 175.18C223.546 175.18 222.851 174.98 222.351 174.58C221.861 174.17 221.616 173.605 221.616 172.885C221.616 172.125 221.866 171.545 222.366 171.145C222.876 170.735 223.586 170.53 224.496 170.53H227.136V171.535H224.766C224.066 171.535 223.566 171.65 223.266 171.88C222.976 172.11 222.831 172.44 222.831 172.87C222.831 173.26 222.976 173.57 223.266 173.8C223.556 174.02 223.961 174.13 224.481 174.13C224.921 174.13 225.301 174.03 225.621 173.83C225.941 173.63 226.186 173.36 226.356 173.02C226.526 172.67 226.611 172.275 226.611 171.835H227.346C227.346 172.855 227.096 173.67 226.596 174.28C226.096 174.88 225.376 175.18 224.436 175.18ZM235.246 175L235.186 173.605V164.5H236.386V175H235.246ZM232.651 175.18C231.981 175.18 231.391 175.015 230.881 174.685C230.371 174.355 229.971 173.895 229.681 173.305C229.401 172.705 229.261 172.02 229.261 171.25C229.261 170.47 229.401 169.785 229.681 169.195C229.971 168.605 230.371 168.145 230.881 167.815C231.391 167.485 231.981 167.32 232.651 167.32C233.281 167.32 233.831 167.485 234.301 167.815C234.781 168.145 235.151 168.605 235.411 169.195C235.671 169.785 235.801 170.47 235.801 171.25C235.801 172.02 235.671 172.705 235.411 173.305C235.151 173.895 234.781 174.355 234.301 174.685C233.831 175.015 233.281 175.18 232.651 175.18ZM232.921 174.085C233.361 174.085 233.751 173.965 234.091 173.725C234.431 173.485 234.696 173.15 234.886 172.72C235.086 172.29 235.186 171.8 235.186 171.25C235.186 170.7 235.086 170.21 234.886 169.78C234.696 169.35 234.431 169.015 234.091 168.775C233.751 168.535 233.356 168.415 232.906 168.415C232.436 168.415 232.016 168.535 231.646 168.775C231.286 169.015 231.001 169.35 230.791 169.78C230.581 170.21 230.476 170.7 230.476 171.25C230.476 171.8 230.581 172.29 230.791 172.72C231.001 173.15 231.291 173.485 231.661 173.725C232.031 173.965 232.451 174.085 232.921 174.085ZM241.801 175.18C241.071 175.18 240.426 175.015 239.866 174.685C239.316 174.345 238.881 173.88 238.561 173.29C238.241 172.7 238.081 172.02 238.081 171.25C238.081 170.48 238.236 169.8 238.546 169.21C238.866 168.62 239.306 168.16 239.866 167.83C240.426 167.49 241.061 167.32 241.771 167.32C242.471 167.32 243.076 167.495 243.586 167.845C244.096 168.185 244.491 168.665 244.771 169.285C245.051 169.905 245.191 170.635 245.191 171.475H243.991C243.991 170.835 243.906 170.29 243.736 169.84C243.566 169.38 243.316 169.025 242.986 168.775C242.656 168.525 242.246 168.4 241.756 168.4C241.266 168.4 240.836 168.52 240.466 168.76C240.106 168.99 239.826 169.32 239.626 169.75C239.426 170.18 239.326 170.685 239.326 171.265C239.326 171.835 239.436 172.33 239.656 172.75C239.876 173.16 240.176 173.485 240.556 173.725C240.936 173.955 241.371 174.07 241.861 174.07C242.391 174.07 242.836 173.945 243.196 173.695C243.556 173.445 243.836 173.12 244.036 172.72L245.101 173.245C244.901 173.635 244.641 173.975 244.321 174.265C244.011 174.555 243.646 174.78 243.226 174.94C242.806 175.1 242.331 175.18 241.801 175.18ZM238.891 171.475V170.44H244.456V171.475H238.891ZM249.372 175.18C248.822 175.18 248.342 175.1 247.932 174.94C247.522 174.77 247.177 174.55 246.897 174.28C246.627 174.01 246.432 173.715 246.312 173.395L247.362 172.96C247.532 173.29 247.787 173.56 248.127 173.77C248.467 173.98 248.842 174.085 249.252 174.085C249.722 174.085 250.112 173.995 250.422 173.815C250.742 173.625 250.902 173.365 250.902 173.035C250.902 172.725 250.782 172.475 250.542 172.285C250.312 172.095 249.972 171.94 249.522 171.82L248.802 171.625C248.122 171.445 247.592 171.175 247.212 170.815C246.832 170.445 246.642 170.03 246.642 169.57C246.642 168.86 246.872 168.31 247.332 167.92C247.802 167.52 248.497 167.32 249.417 167.32C249.857 167.32 250.257 167.385 250.617 167.515C250.977 167.645 251.287 167.83 251.547 168.07C251.807 168.3 251.997 168.575 252.117 168.895L251.067 169.36C250.937 169.02 250.722 168.78 250.422 168.64C250.122 168.49 249.757 168.415 249.327 168.415C248.867 168.415 248.507 168.51 248.247 168.7C247.987 168.89 247.857 169.16 247.857 169.51C247.857 169.71 247.962 169.9 248.172 170.08C248.392 170.25 248.712 170.39 249.132 170.5L249.882 170.695C250.372 170.815 250.782 170.995 251.112 171.235C251.442 171.465 251.692 171.73 251.862 172.03C252.032 172.33 252.117 172.65 252.117 172.99C252.117 173.44 251.997 173.83 251.757 174.16C251.517 174.49 251.192 174.745 250.782 174.925C250.372 175.095 249.902 175.18 249.372 175.18ZM254.245 175.21C254.015 175.21 253.815 175.13 253.645 174.97C253.485 174.8 253.405 174.605 253.405 174.385C253.405 174.155 253.485 173.96 253.645 173.8C253.815 173.63 254.015 173.545 254.245 173.545C254.475 173.545 254.67 173.63 254.83 173.8C254.99 173.96 255.07 174.155 255.07 174.385C255.07 174.605 254.99 174.8 254.83 174.97C254.67 175.13 254.475 175.21 254.245 175.21Z" fill="#263238"/>
<path d="M102.776 103.526L86.5975 87.7165L87.456 87.4635C89.0448 87.0043 90.6916 86.533 91.445 85.2573C92.1984 83.9815 91.7861 82.3962 91.445 80.8343C91.0892 79.7998 90.9722 78.7013 91.1022 77.6175C91.5347 76.655 92.1772 75.7963 92.9849 75.1016C94.1614 73.9528 95.3379 72.6892 95.3379 71.1839C95.3379 69.6786 94.1614 68.4498 92.9849 67.2662C92.1771 66.5712 91.5346 65.7123 91.1022 64.7495C90.9716 63.6658 91.0881 62.5673 91.4433 61.5327C91.82 59.97 92.2199 58.362 91.4433 57.1089C90.6667 55.8558 89.0904 55.3627 87.4544 54.9027C86.3745 54.6911 85.3564 54.2476 84.4738 53.6043C83.815 52.7425 83.3608 51.7484 83.1442 50.6939C82.6739 49.1425 82.1912 47.5346 80.8848 46.7989C79.5783 46.0632 77.9547 46.4545 76.3543 46.7989C75.2948 47.1457 74.1698 47.2595 73.06 47.1319C72.0759 46.7105 71.1977 46.0845 70.4868 45.2976C69.3103 44.1488 68.0163 43 66.4747 43C64.933 43 63.6746 44.1488 62.4625 45.2976C61.752 46.0859 60.8738 46.7133 59.8893 47.136C58.7795 47.2635 57.6545 47.1498 56.595 46.8029C54.9946 46.4238 53.3478 46.0446 52.0645 46.8029C50.7812 47.5612 50.2762 49.1005 49.8051 50.698C49.5884 51.7524 49.1343 52.7465 48.4755 53.6084C47.5929 54.2517 46.5748 54.6952 45.4949 54.9067C43.9061 55.3659 42.2594 55.8372 41.506 57.113C40.7525 58.3887 41.1649 59.974 41.506 61.5246C41.8606 62.5633 41.9771 63.6653 41.8471 64.7527C41.4146 65.7153 40.7721 66.5739 39.9644 67.2686C38.7912 68.4142 37.618 69.6786 37.618 71.1831C37.618 72.6876 38.7945 73.9172 39.971 75.1008C40.7787 75.7955 41.4213 76.6542 41.8537 77.6167C41.9837 78.7041 41.8673 79.8062 41.5126 80.8448C41.1359 82.3962 40.736 84.0042 41.5126 85.2565C42.2892 86.5087 43.8656 87.0027 45.5015 87.4627L46.3601 87.7157L30.1782 103.526C30.0967 103.6 30.0397 103.697 30.0145 103.803C29.9893 103.91 29.997 104.021 30.0367 104.123C30.0721 104.224 30.1363 104.314 30.2218 104.381C30.3072 104.448 30.4104 104.49 30.5193 104.502L40.6499 105.651L41.7676 115.486C41.7791 115.594 41.8232 115.697 41.8944 115.781C41.9656 115.864 42.0606 115.926 42.1675 115.957C42.2295 115.969 42.2934 115.969 42.3554 115.957C42.5145 115.957 42.667 115.895 42.7793 115.785L62.1355 96.7355L62.4666 97.0338C63.6431 98.1826 64.9372 99.3314 66.4788 99.3314C68.0204 99.3314 69.2788 98.1826 70.4909 97.0338L70.8221 96.7355L90.175 115.82C90.2873 115.93 90.4398 115.992 90.5989 115.992C90.661 116.003 90.7246 116.003 90.7868 115.992C90.8937 115.961 90.9887 115.899 91.0599 115.815C91.131 115.731 91.1752 115.629 91.1867 115.52L92.3632 105.651L102.494 104.502C102.603 104.49 102.706 104.448 102.791 104.381C102.877 104.314 102.941 104.224 102.976 104.123C103.009 104.015 103.008 103.901 102.972 103.794C102.936 103.687 102.868 103.593 102.776 103.526ZM42.7677 114.153L41.7328 104.962C41.7157 104.834 41.6556 104.715 41.5621 104.624C41.4685 104.532 41.3466 104.474 41.2154 104.457L31.8018 103.446L47.5532 88.1757L47.7411 88.2679L47.9646 88.394C48.1468 88.4978 48.3165 88.6212 48.4705 88.7619C49.1293 89.6237 49.5835 90.6178 49.8002 91.6722C50.2704 93.2236 50.7531 94.8316 52.0596 95.5673C53.366 96.303 54.9896 95.9004 56.59 95.5673C57.6495 95.2204 58.7745 95.1067 59.8843 95.2342C60.0925 95.299 60.2935 95.3838 60.4846 95.4873H60.5434C60.7484 95.6042 60.9451 95.7347 61.132 95.8778H61.1908L42.7677 114.153ZM66.4771 98.1834C65.4066 98.1834 64.3245 97.1842 63.2764 96.2076C63.028 95.9651 62.7705 95.7363 62.5114 95.5067C62.311 95.3345 62.1115 95.1623 61.8879 95.0014L61.6876 94.8518C61.52 94.7276 61.3429 94.6163 61.1577 94.5188L60.9457 94.3927C60.7064 94.2668 60.4538 94.1668 60.1923 94.0943C59.9121 94.0218 59.6237 93.9832 59.3338 93.9795H58.1705C57.9153 93.9935 57.6625 94.0358 57.4171 94.1057H57.1687L56.3102 94.3013C54.8745 94.6344 53.5217 94.9481 52.6507 94.4509C51.7797 93.9537 51.3327 92.5664 50.9328 91.2341C50.6808 89.9753 50.1241 88.7936 49.3092 87.7877C49.0936 87.5843 48.8569 87.4033 48.603 87.2476H48.5467C48.3161 87.1127 48.0763 86.9936 47.8289 86.8911L47.6525 86.9598C47.073 86.7302 46.476 86.5556 45.8402 86.3737C44.4749 85.9832 43.0633 85.5693 42.5458 84.6962C42.0284 83.8231 42.3579 82.5247 42.699 81.1229C43.1184 79.9031 43.232 78.6028 43.0302 77.3313C42.5669 76.1726 41.8243 75.1401 40.8651 74.3215C39.8766 73.2988 38.8417 72.2422 38.8417 71.196C38.8417 70.1499 39.8774 69.0941 40.8651 68.0706C41.8243 67.252 42.5669 66.2195 43.0302 65.0608C43.232 63.7892 43.1184 62.489 42.699 61.2692C42.3579 59.8673 42.0284 58.5463 42.5458 57.6959C43.0633 56.8454 44.4757 56.4088 45.8402 56.0183C47.1296 55.7724 48.34 55.2288 49.3705 54.433C50.1902 53.4297 50.7475 52.2465 50.994 50.9858C51.3939 49.6527 51.8178 48.2743 52.712 47.769C53.6061 47.2637 54.9358 47.5855 56.3714 47.9186C57.6206 48.3281 58.9522 48.439 60.2544 48.2419C61.4411 47.7896 62.4984 47.0644 63.3368 46.1279C64.3841 45.1626 65.4662 44.152 66.5376 44.152C67.6089 44.152 68.6902 45.1634 69.7383 46.1279C70.5767 47.0644 71.6341 47.7896 72.8207 48.2419C74.1229 48.439 75.4545 48.3281 76.7037 47.9186C78.1393 47.5855 79.4922 47.2718 80.3632 47.769C81.2341 48.2662 81.6796 49.6535 82.0778 50.985C82.3297 52.244 82.8864 53.426 83.7014 54.4322C84.7318 55.228 85.9423 55.7716 87.2317 56.0175C88.5969 56.408 90.0085 56.8219 90.526 57.695C91.0434 58.5682 90.7139 59.8665 90.3728 61.2684C89.9534 62.4882 89.8398 63.7884 90.0417 65.06C90.5049 66.2187 91.2476 67.2512 92.2067 68.0698C93.1952 69.0925 94.2302 70.1491 94.2302 71.1952C94.2302 72.2413 93.1944 73.2972 92.2067 74.3207C91.2476 75.1393 90.5049 76.1718 90.0417 77.3305C89.8398 78.602 89.9534 79.9023 90.3728 81.1221C90.7139 82.5239 91.0434 83.8449 90.526 84.6954C90.0085 85.5459 88.5961 85.9824 87.2317 86.3729C86.6198 86.5564 86.0552 86.7294 85.4102 86.959L85.2339 87.0399C84.9857 87.1361 84.7457 87.2513 84.5161 87.3843C84.2565 87.537 84.0156 87.7182 83.7982 87.9243C82.9833 88.9297 82.4263 90.1108 82.1738 91.3691C81.774 92.7022 81.3501 94.0806 80.4559 94.5859C79.4877 94.935 78.4237 94.935 77.4555 94.5859L76.7931 94.4363C75.8288 94.1628 74.8322 94.0123 73.8283 93.9884C73.5182 93.9949 73.21 94.0373 72.9101 94.1145C72.6487 94.187 72.396 94.287 72.1567 94.4129L71.9448 94.5277L71.4033 94.8842L71.2154 95.0103L70.5919 95.5277C70.3328 95.7573 70.0745 95.9869 69.8269 96.2286C68.6306 97.1721 67.5476 98.1834 66.4771 98.1834ZM91.7041 104.502C91.5729 104.519 91.451 104.578 91.3574 104.669C91.2639 104.76 91.2038 104.879 91.1867 105.007L90.1509 114.199L71.7014 95.9659H71.7717C71.9586 95.8228 72.1553 95.6923 72.3604 95.5754H72.4192C72.6102 95.4719 72.8113 95.3871 73.0194 95.3224C73.5475 95.2181 74.0917 95.2181 74.6198 95.3224C75.1904 95.4073 75.7559 95.5222 76.3138 95.6668L76.5845 95.7242C77.8807 96.1794 79.2939 96.2078 80.6082 95.805C80.6897 95.7775 80.7684 95.7429 80.8434 95.7015C82.1498 94.9658 82.6317 93.4039 83.1028 91.8064C83.3135 90.7011 83.7846 89.6588 84.4788 88.7619C84.6328 88.6212 84.8025 88.4978 84.9847 88.394L85.2198 88.2679L85.3961 88.1757L101.08 103.491L91.7041 104.502Z" fill="#263238" stroke="#263238"/>
<path d="M49.4816 66.9089C49.338 66.8681 49.1868 66.8981 49.0613 66.9923C48.9357 67.0866 48.8459 67.2374 48.8113 67.412C48.7328 67.8902 48.6542 68.3502 48.5882 68.771C48.5656 68.9474 48.6011 69.1276 48.6868 69.2725C48.7725 69.4175 48.9016 69.5156 49.0463 69.5456H49.1367C49.2709 69.5476 49.4012 69.4907 49.5038 69.3853C49.6064 69.28 49.6744 69.1332 49.6954 68.9718C49.7248 68.5107 49.7959 68.0549 49.9075 67.6128C49.9165 67.4531 49.8788 67.2946 49.8012 67.1653C49.7236 67.036 49.611 66.9442 49.4832 66.9061L49.4816 66.9089Z" fill="#263238" stroke="#263238"/>
<path d="M49.1107 72.2047C49.0345 72.2118 48.9602 72.2365 48.8923 72.2771C48.8244 72.3178 48.7642 72.3737 48.7152 72.4416C48.6662 72.5095 48.6294 72.5879 48.6069 72.6724C48.5845 72.7569 48.5768 72.8458 48.5844 72.9337C48.599 73.3893 48.6541 73.8419 48.7489 74.2844C48.7688 74.4439 48.8381 74.5897 48.944 74.6946C49.0499 74.7995 49.1851 74.8564 49.3245 74.8547H49.4224C49.5738 74.8249 49.709 74.7274 49.7987 74.5833C49.8884 74.4393 49.9255 74.2602 49.9019 74.0848C49.832 73.639 49.7851 73.2065 49.7497 72.7341C49.7192 72.5699 49.6369 72.4246 49.5187 72.3267C49.4006 72.2289 49.2551 72.1853 49.1107 72.2047Z" fill="#263238" stroke="#263238"/>
<path d="M50.7744 79.0363C50.7505 78.9956 50.7158 78.9588 50.6725 78.9282C50.6291 78.8976 50.5779 78.8737 50.5219 78.858C50.4659 78.8422 50.4063 78.835 50.3464 78.8367C50.2866 78.8383 50.2278 78.8489 50.1736 78.8676C50.0656 78.9059 49.9816 78.9736 49.9392 79.0566C49.8969 79.1396 49.8994 79.2316 49.9462 79.3133C50.0826 79.5295 50.2287 79.7456 50.383 79.9884C50.4231 80.0411 50.4812 80.0851 50.5515 80.1159C50.6217 80.1467 50.7017 80.1631 50.7833 80.1637C50.8594 80.1632 50.9342 80.1494 51.0017 80.1233C51.1063 80.0792 51.1837 80.0067 51.2176 79.9211C51.2515 79.8355 51.2393 79.7435 51.1836 79.6644C51.0389 79.4349 50.9018 79.2387 50.7744 79.0363Z" fill="#263238" stroke="#263238"/>
<path d="M53.8561 83.0397C53.7127 82.8977 53.5208 82.8184 53.3211 82.8184C53.1214 82.8184 52.9296 82.8977 52.7862 83.0397C52.7156 83.1113 52.6596 83.1965 52.6214 83.2903C52.5832 83.3841 52.5635 83.4847 52.5635 83.5863C52.5635 83.6879 52.5832 83.7885 52.6214 83.8823C52.6596 83.9761 52.7156 84.0612 52.7862 84.1328C53.1626 84.5174 53.5401 84.9031 53.9314 85.2725C54.0736 85.399 54.255 85.47 54.4436 85.4729C54.6536 85.4676 54.8535 85.3795 55.0014 85.227C55.1403 85.0805 55.218 84.8845 55.218 84.6804C55.218 84.4764 55.1403 84.2804 55.0014 84.1339C54.5918 83.8008 54.2089 83.4349 53.8561 83.0397Z" fill="#263238" stroke="#263238"/>
<path d="M51.0299 61.6328C50.9306 61.5848 50.8122 61.5698 50.6995 61.5908C50.5868 61.6118 50.4886 61.6673 50.4256 61.7454C50.2593 61.9569 50.1102 62.1688 49.9618 62.3941C49.9345 62.4344 49.9175 62.4785 49.9115 62.5241C49.9056 62.5697 49.9109 62.6158 49.9272 62.6597C49.9434 62.7036 49.9703 62.7445 50.0063 62.78C50.0422 62.8155 50.0866 62.845 50.1367 62.8666C50.2016 62.8938 50.2736 62.9083 50.3468 62.9088C50.4256 62.9095 50.5031 62.8929 50.571 62.8606C50.6389 62.8283 50.6945 62.7816 50.7317 62.7257C50.8716 62.5212 51.012 62.3167 51.1697 62.1192C51.2003 62.0798 51.2209 62.036 51.2304 61.9902C51.24 61.9444 51.2382 61.8976 51.2252 61.8523C51.2122 61.8071 51.1883 61.7644 51.1547 61.7266C51.1212 61.6889 51.0788 61.6568 51.0299 61.6323V61.6328Z" fill="#263238" stroke="#263238"/>
<path d="M79.9096 84.1445C80.0191 84.146 80.1277 84.1259 80.2283 84.0855C80.3289 84.0452 80.4192 83.9856 80.4932 83.9106C80.8715 83.5148 81.2188 83.1201 81.5649 82.71C81.6366 82.6348 81.6909 82.5468 81.7245 82.4514C81.758 82.3559 81.7701 82.2551 81.7599 82.1551C81.7498 82.0552 81.7176 81.9582 81.6655 81.8703C81.6133 81.7823 81.5422 81.7053 81.4567 81.644C81.3711 81.5826 81.2729 81.5382 81.1681 81.5136C81.0633 81.489 80.9542 81.4846 80.8475 81.5008C80.7408 81.517 80.6389 81.5533 80.5479 81.6076C80.457 81.6619 80.3791 81.733 80.319 81.8165C80.0039 82.1967 79.6721 82.5636 79.3204 82.9295C79.2153 83.033 79.1455 83.1632 79.1199 83.3035C79.0942 83.4438 79.1138 83.5881 79.1762 83.7181C79.2386 83.8481 79.341 83.958 79.4705 84.0341C79.6 84.1102 79.7508 84.1489 79.904 84.1456L79.9096 84.1445Z" fill="#263238" stroke="#263238"/>
<path d="M83.4055 66.6377C83.4382 66.7103 83.5046 66.774 83.5951 66.8195C83.6856 66.865 83.7954 66.89 83.9086 66.8907H84.0416C84.1723 66.8655 84.283 66.807 84.3502 66.7278C84.4173 66.6486 84.4356 66.555 84.4009 66.467C84.309 66.2346 84.1968 66.009 84.084 65.7834C84.036 65.7002 83.9415 65.6328 83.8207 65.5953C83.6998 65.5579 83.5619 65.5533 83.4361 65.5825C83.3102 65.6118 83.2063 65.6726 83.1461 65.7522C83.086 65.8317 83.0744 65.9238 83.1137 66.009C83.2216 66.2139 83.3236 66.4323 83.4055 66.6377Z" fill="#263238" stroke="#263238"/>
<path d="M83.4082 78.8219C83.468 78.8409 83.53 78.8409 83.5898 78.8219C83.6842 78.8212 83.7764 78.7814 83.8546 78.7073C83.9329 78.6333 83.9938 78.5284 84.0297 78.4059C84.1642 77.9767 84.2778 77.5343 84.3928 77.0655C84.4333 76.8977 84.4249 76.7143 84.3693 76.5552C84.3137 76.3961 84.2156 76.2744 84.0962 76.2165C83.9757 76.1603 83.8443 76.1724 83.73 76.2501C83.6157 76.3278 83.5275 76.465 83.4842 76.6325C83.3793 77.0485 83.2737 77.4635 83.148 77.8796C83.1154 77.9636 83.0962 78.0566 83.0918 78.1521C83.0874 78.2476 83.0978 78.3433 83.1224 78.4326C83.147 78.5219 83.1851 78.6026 83.2341 78.6692C83.2831 78.7357 83.3418 78.7866 83.4062 78.8182L83.4082 78.8219Z" fill="#263238" stroke="#263238"/>
<path d="M81.0201 61.4243C81.0572 61.4725 81.1071 61.512 81.1655 61.5395C81.224 61.567 81.2891 61.5816 81.3554 61.5821C81.438 61.5829 81.5186 61.5602 81.5854 61.5176C81.6298 61.4915 81.6678 61.4579 81.6972 61.4188C81.7267 61.3797 81.7469 61.3359 81.7568 61.2899C81.7667 61.2438 81.7661 61.1965 81.7549 61.1507C81.7437 61.1049 81.7223 61.0615 81.6918 61.023C81.5349 60.8125 81.3658 60.6093 81.1852 60.414C81.154 60.3732 81.1136 60.3384 81.0665 60.3118C81.0194 60.2853 80.9665 60.2675 80.9112 60.2596C80.856 60.2517 80.7994 60.2538 80.7451 60.2658C80.6908 60.2779 80.6399 60.2996 80.5955 60.3296C80.5512 60.3596 80.5143 60.3973 80.4873 60.4403C80.4603 60.4833 80.4436 60.5308 80.4383 60.5797C80.4331 60.6286 80.4393 60.6779 80.4567 60.7246C80.4741 60.7713 80.5022 60.8143 80.5394 60.8511C80.701 61.0376 80.8649 61.2312 81.0201 61.4243Z" fill="#263238" stroke="#263238"/>
<path d="M84.4205 71.5469V72.8412C84.4135 72.9255 84.4244 73.0103 84.4527 73.0905C84.4809 73.1708 84.5259 73.245 84.585 73.3089C84.644 73.3727 84.7161 73.4248 84.7968 73.4623C84.8776 73.4998 84.9655 73.5218 85.0555 73.5271C85.2293 73.5276 85.397 73.4666 85.525 73.3561C85.653 73.2457 85.7318 73.094 85.7457 72.9314V71.4695C85.7441 71.3873 85.7247 71.3062 85.6887 71.2312C85.6527 71.1562 85.6009 71.0889 85.5364 71.0332C85.4718 70.9775 85.396 70.9347 85.3133 70.9073C85.2306 70.8799 85.1429 70.8685 85.0555 70.8738C84.8798 70.8929 84.7179 70.9722 84.6007 71.0964C84.4835 71.2206 84.4193 71.3811 84.4205 71.5469Z" fill="#263238" stroke="#263238"/>
<path d="M65.274 88.2658C64.8336 88.2513 64.395 88.2081 63.9616 88.1367C63.8738 88.1227 63.7838 88.1246 63.6969 88.1424C63.6099 88.1602 63.5279 88.1936 63.4557 88.2405C63.3835 88.2873 63.3226 88.3468 63.2766 88.4152C63.2306 88.4837 63.2005 88.5597 63.1881 88.6389C63.1757 88.718 63.1812 88.7985 63.2043 88.8757C63.2274 88.9529 63.2676 89.0251 63.3226 89.088C63.3776 89.1509 63.4461 89.2032 63.5242 89.2418C63.6022 89.2805 63.6882 89.3046 63.7769 89.3128C64.2233 89.3757 64.6826 89.4229 65.1549 89.4543C65.2431 89.4573 65.3311 89.4443 65.4136 89.416C65.4961 89.3878 65.5715 89.345 65.6351 89.2901C65.6987 89.2352 65.7493 89.1694 65.7838 89.0965C65.8184 89.0237 65.8362 88.9454 65.8362 88.8663C65.8362 88.7871 65.8184 88.7088 65.7838 88.636C65.7493 88.5632 65.6987 88.4974 65.6351 88.4425C65.5715 88.3876 65.4961 88.3447 65.4136 88.3165C65.3311 88.2883 65.2431 88.2753 65.1549 88.2783L65.274 88.2658Z" fill="#263238" stroke="#263238"/>
<path d="M59.5466 56.2587C59.5939 56.2774 59.6418 56.2774 59.6891 56.2587C59.8915 55.9834 60.0944 55.7494 60.3034 55.5154C60.3455 55.4733 60.3843 55.4071 60.4174 55.3209C60.4504 55.2346 60.4772 55.13 60.4961 55.0131C60.515 54.8963 60.5256 54.7697 60.5272 54.6408C60.5289 54.5119 60.5216 54.3834 60.5058 54.2628C60.4753 54.0191 60.4126 53.8204 60.3315 53.7105C60.2505 53.6005 60.1577 53.5883 60.0735 53.6764L59.3984 54.4583C59.3171 54.5652 59.2537 54.761 59.2221 55.003C59.1905 55.2449 59.1932 55.5133 59.2297 55.7494C59.2599 55.914 59.3059 56.0497 59.3621 56.1401C59.4183 56.2304 59.4824 56.2716 59.5466 56.2587Z" fill="#263238" stroke="#263238"/>
<path d="M60.0706 87.2448C59.6652 87.1253 59.2589 86.9865 58.8535 86.8502C58.6953 86.7953 58.5116 86.7848 58.3421 86.821C58.1726 86.8573 58.0309 86.9374 57.9476 87.044C57.8661 87.1527 57.8503 87.2787 57.9036 87.3953C57.9569 87.5118 58.0751 87.6096 58.2331 87.6679C58.6728 87.8218 59.1241 87.9598 59.5853 88.0812C59.6691 88.1102 59.7615 88.1258 59.8555 88.1271C59.9867 88.1252 60.1146 88.0984 60.2246 88.0498C60.3345 88.0012 60.4223 87.9326 60.4778 87.8519C60.5122 87.7942 60.5289 87.7324 60.527 87.6702C60.525 87.608 60.5045 87.5467 60.4666 87.49C60.4286 87.4334 60.3742 87.3825 60.3064 87.3406C60.2387 87.2987 60.1591 87.2665 60.0725 87.2461L60.0706 87.2448Z" fill="#263238" stroke="#263238"/>
<path d="M70.8989 89.2028C70.9407 89.185 70.98 89.1537 71.0145 89.1106C71.049 89.0674 71.0781 89.0134 71.1 88.9516C71.122 88.8898 71.1364 88.8213 71.1424 88.7502C71.1484 88.6791 71.146 88.6067 71.1352 88.5372C71.125 88.4682 71.1068 88.4033 71.0814 88.3461C71.0561 88.2889 71.0242 88.2406 70.9876 88.2041C70.951 88.1675 70.9104 88.1434 70.8681 88.1331C70.8259 88.1228 70.7828 88.1266 70.7415 88.1441C70.5315 88.2316 70.315 88.3077 70.0856 88.3744C70.0006 88.4011 69.9254 88.4826 69.8763 88.601C69.8272 88.7195 69.8083 88.8654 69.8235 89.0071C69.8364 89.1335 69.876 89.2482 69.9353 89.3302C69.9945 89.4123 70.0695 89.4565 70.1466 89.4547H70.2056C70.453 89.3779 70.6759 89.3011 70.8989 89.2028Z" fill="#263238" stroke="#263238"/>
<path d="M65.1642 53.6182H66.5035C66.5917 53.6182 66.6788 53.6182 66.7598 53.6182C66.8408 53.6182 66.914 53.6182 66.9753 53.6182C67.0366 53.6182 67.0848 53.6182 67.117 53.6182C67.1493 53.6182 67.165 53.6182 67.1632 53.6182C67.157 53.6182 67.0805 53.6182 66.9502 53.6182C66.8199 53.6182 66.6462 53.6182 66.4667 53.6182H65.1274C65.0394 53.6182 64.9536 53.6182 64.8749 53.6182C64.7963 53.6182 64.7263 53.6182 64.669 53.6182C64.6117 53.6182 64.5683 53.6182 64.5412 53.6182C64.5141 53.6182 64.5038 53.6182 64.511 53.6182C64.5317 53.6182 64.6084 53.6182 64.7278 53.6182C64.8471 53.6182 65.0015 53.6182 65.1642 53.6182Z" fill="#263238" stroke="#263238"/>
<path d="M76.6202 57.0404C76.8234 57.1908 77.0183 57.3494 77.2048 57.5162C77.2671 57.5708 77.3431 57.6001 77.4212 57.5996C77.4774 57.601 77.533 57.5865 77.5833 57.5574C77.6335 57.5284 77.6769 57.4856 77.7097 57.4328C77.7671 57.3442 77.7918 57.2329 77.7782 57.1233C77.7647 57.0137 77.7141 56.9148 77.6376 56.8484C77.4344 56.6721 77.2262 56.5059 77.0169 56.3391C76.9353 56.279 76.8366 56.2585 76.742 56.2819C76.6475 56.3053 76.5647 56.3708 76.5115 56.4642C76.46 56.5573 76.4425 56.6703 76.4629 56.7783C76.4833 56.8863 76.5398 56.9806 76.6202 57.0404Z" fill="#263238" stroke="#263238"/>
<path d="M54.5957 57.6938L54.001 58.2396C53.9661 58.2763 53.9385 58.3201 53.9197 58.3682C53.9008 58.4164 53.8911 58.4681 53.8911 58.5202C53.8911 58.5724 53.9008 58.6241 53.9197 58.6722C53.9385 58.7204 53.9661 58.7641 54.001 58.8009C54.0346 58.8409 54.0759 58.8729 54.1221 58.8946C54.1683 58.9164 54.2183 58.9275 54.2688 58.9272C54.3152 58.9288 54.3614 58.9205 54.4048 58.9028C54.4482 58.8851 54.4878 58.8584 54.5214 58.8243C54.7071 58.6424 54.8933 58.4766 55.079 58.3102C55.1556 58.245 55.2048 58.1502 55.216 58.0465C55.2271 57.9428 55.1993 57.8387 55.1386 57.7567C55.1074 57.7138 55.0685 57.6781 55.0241 57.6516C54.9797 57.6251 54.9307 57.6084 54.8801 57.6025C54.8294 57.5966 54.7782 57.6016 54.7294 57.6172C54.6807 57.6328 54.6354 57.6586 54.5962 57.6933L54.5957 57.6938Z" fill="#263238" stroke="#263238"/>
<path d="M76.684 85.5472C76.2998 85.7028 75.8835 85.8511 75.4753 85.9878C75.3419 86.0368 75.2382 86.1108 75.1798 86.1986C75.1215 86.2864 75.1116 86.3833 75.1516 86.4748C75.1916 86.5663 75.2794 86.6475 75.4018 86.7061C75.5243 86.7647 75.6747 86.7976 75.8305 86.7999C75.9559 86.8003 76.079 86.7792 76.1857 86.7391C76.612 86.592 77.0392 86.4279 77.4655 86.2638C77.6216 86.2005 77.7302 86.1024 77.7676 85.9907C77.8051 85.879 77.7685 85.7628 77.6656 85.6675C77.6151 85.6199 77.5493 85.5788 77.4722 85.5469C77.3952 85.5149 77.3084 85.4926 77.2169 85.4812C77.1255 85.4699 77.0313 85.4698 76.9397 85.4809C76.8482 85.492 76.7613 85.5141 76.684 85.5459V85.5472Z" fill="#263238" stroke="#263238"/>
<path d="M71.3704 54.6603C71.5892 54.7428 71.8113 54.8354 72.0366 54.9382C72.0696 54.9479 72.1035 54.9479 72.1365 54.9382C72.2167 54.9391 72.2944 54.8954 72.3555 54.8151C72.4165 54.7347 72.4568 54.6232 72.4689 54.5008C72.4811 54.3784 72.4642 54.2533 72.4215 54.1485C72.3788 54.0437 72.3131 53.9662 72.2364 53.93L71.571 53.6319C71.4845 53.6007 71.3935 53.6231 71.3175 53.6943C71.2415 53.7654 71.1866 53.8797 71.1645 54.0126C71.1498 54.0762 71.1436 54.1438 71.146 54.2113C71.1485 54.2788 71.1597 54.3448 71.179 54.4055C71.1983 54.4662 71.2252 54.5203 71.2582 54.5647C71.2913 54.6091 71.3297 54.6428 71.3713 54.6639L71.3704 54.6603Z" fill="#263238" stroke="#263238"/>
<path d="M75.0124 67.0947C74.9141 66.9763 74.7766 66.9038 74.6293 66.8926C74.4821 66.8815 74.3365 66.9326 74.2238 67.0351L64.3051 76.1709L60.1956 70.319C60.1072 70.1923 59.9756 70.1086 59.8298 70.0863C59.684 70.0639 59.5359 70.1047 59.418 70.1997C59.3026 70.2966 59.2266 70.4378 59.2059 70.5937C59.1852 70.7496 59.2214 70.908 59.307 71.0358L63.7502 77.4011L63.8721 77.4969H63.9385C64.0159 77.5134 64.0956 77.5134 64.173 77.4969C64.2844 77.4923 64.3925 77.4551 64.4856 77.3893H64.6419L75.0053 67.8359C75.0825 67.7309 75.1254 67.6015 75.1274 67.4677C75.1294 67.3339 75.0903 67.2031 75.0163 67.0956L75.0124 67.0947Z" fill="#263238" stroke="#263238"/>
</svg>
