<svg width="418" height="328" viewBox="0 0 418 328" fill="none" xmlns="http://www.w3.org/2000/svg">
<rect width="418" height="328" fill="#ECEFF1"/>
<path d="M111.67 187L107.455 176.5H108.73L113.005 187H111.67ZM103.135 187L107.41 176.5H108.7L104.485 187H103.135ZM105.16 184.015V182.875H110.995V184.015H105.16ZM121.252 187.18C120.512 187.18 119.857 187.015 119.287 186.685C118.717 186.345 118.272 185.88 117.952 185.29C117.632 184.7 117.472 184.02 117.472 183.25C117.472 182.48 117.627 181.8 117.937 181.21C118.257 180.62 118.702 180.16 119.272 179.83C119.842 179.49 120.492 179.32 121.222 179.32C121.942 179.32 122.587 179.485 123.157 179.815C123.727 180.145 124.162 180.61 124.462 181.21L123.367 181.705C123.167 181.305 122.877 180.995 122.497 180.775C122.117 180.545 121.682 180.43 121.192 180.43C120.702 180.43 120.267 180.55 119.887 180.79C119.517 181.03 119.222 181.365 119.002 181.795C118.792 182.215 118.687 182.7 118.687 183.25C118.687 183.8 118.792 184.29 119.002 184.72C119.222 185.14 119.522 185.47 119.902 185.71C120.292 185.95 120.732 186.07 121.222 186.07C121.712 186.07 122.147 185.945 122.527 185.695C122.917 185.445 123.212 185.095 123.412 184.645L124.507 185.14C124.207 185.78 123.772 186.28 123.202 186.64C122.632 187 121.982 187.18 121.252 187.18ZM131.168 187L131.093 185.62V179.5H132.293V187H131.168ZM125.828 183.79V179.5H127.028V183.34L125.828 183.79ZM127.028 183.34C127.028 184.08 127.113 184.645 127.283 185.035C127.453 185.425 127.688 185.695 127.988 185.845C128.298 185.985 128.643 186.055 129.023 186.055C129.673 186.055 130.178 185.82 130.538 185.35C130.908 184.88 131.093 184.225 131.093 183.385H131.678C131.678 184.175 131.563 184.855 131.333 185.425C131.103 185.995 130.768 186.43 130.328 186.73C129.898 187.03 129.373 187.18 128.753 187.18C127.843 187.18 127.123 186.9 126.593 186.34C126.073 185.78 125.818 184.93 125.828 183.79L127.028 183.34ZM135.047 182.935C135.047 182.125 135.202 181.47 135.512 180.97C135.822 180.46 136.217 180.085 136.697 179.845C137.187 179.595 137.702 179.47 138.242 179.47V180.595C137.802 180.595 137.377 180.67 136.967 180.82C136.567 180.96 136.237 181.195 135.977 181.525C135.717 181.855 135.587 182.305 135.587 182.875L135.047 182.935ZM134.387 187V179.5H135.587V187H134.387ZM144.15 187L144.03 183.04C144.01 182.45 143.935 181.965 143.805 181.585C143.675 181.195 143.475 180.905 143.205 180.715C142.935 180.515 142.575 180.415 142.125 180.415C141.695 180.415 141.32 180.5 141 180.67C140.69 180.84 140.435 181.105 140.235 181.465L139.17 181.03C139.36 180.68 139.595 180.38 139.875 180.13C140.155 179.87 140.485 179.67 140.865 179.53C141.245 179.39 141.67 179.32 142.14 179.32C142.83 179.32 143.405 179.455 143.865 179.725C144.325 179.995 144.665 180.4 144.885 180.94C145.115 181.47 145.23 182.135 145.23 182.935V187H144.15ZM141.87 187.18C140.98 187.18 140.285 186.98 139.785 186.58C139.295 186.17 139.05 185.605 139.05 184.885C139.05 184.125 139.3 183.545 139.8 183.145C140.31 182.735 141.02 182.53 141.93 182.53H144.57V183.535H142.2C141.5 183.535 141 183.65 140.7 183.88C140.41 184.11 140.265 184.44 140.265 184.87C140.265 185.26 140.41 185.57 140.7 185.8C140.99 186.02 141.395 186.13 141.915 186.13C142.355 186.13 142.735 186.03 143.055 185.83C143.375 185.63 143.62 185.36 143.79 185.02C143.96 184.67 144.045 184.275 144.045 183.835H144.78C144.78 184.855 144.53 185.67 144.03 186.28C143.53 186.88 142.81 187.18 141.87 187.18ZM150.101 187.18C149.371 187.18 148.806 186.99 148.406 186.61C148.006 186.23 147.806 185.695 147.806 185.005V177.16H149.006V184.885C149.006 185.265 149.106 185.56 149.306 185.77C149.516 185.97 149.806 186.07 150.176 186.07C150.296 186.07 150.411 186.055 150.521 186.025C150.641 185.985 150.796 185.895 150.986 185.755L151.451 186.73C151.191 186.9 150.956 187.015 150.746 187.075C150.536 187.145 150.321 187.18 150.101 187.18ZM146.501 180.565V179.5H151.256V180.565H146.501ZM156.218 187.18C155.488 187.18 154.843 187.015 154.283 186.685C153.733 186.345 153.298 185.88 152.978 185.29C152.658 184.7 152.498 184.02 152.498 183.25C152.498 182.48 152.653 181.8 152.963 181.21C153.283 180.62 153.723 180.16 154.283 179.83C154.843 179.49 155.478 179.32 156.188 179.32C156.888 179.32 157.493 179.495 158.003 179.845C158.513 180.185 158.908 180.665 159.188 181.285C159.468 181.905 159.608 182.635 159.608 183.475H158.408C158.408 182.835 158.323 182.29 158.153 181.84C157.983 181.38 157.733 181.025 157.403 180.775C157.073 180.525 156.663 180.4 156.173 180.4C155.683 180.4 155.253 180.52 154.883 180.76C154.523 180.99 154.243 181.32 154.043 181.75C153.843 182.18 153.743 182.685 153.743 183.265C153.743 183.835 153.853 184.33 154.073 184.75C154.293 185.16 154.593 185.485 154.973 185.725C155.353 185.955 155.788 186.07 156.278 186.07C156.808 186.07 157.253 185.945 157.613 185.695C157.973 185.445 158.253 185.12 158.453 184.72L159.518 185.245C159.318 185.635 159.058 185.975 158.738 186.265C158.428 186.555 158.063 186.78 157.643 186.94C157.223 187.1 156.748 187.18 156.218 187.18ZM153.308 183.475V182.44H158.873V183.475H153.308ZM166.714 187L166.654 185.605V176.5H167.854V187H166.714ZM164.119 187.18C163.449 187.18 162.859 187.015 162.349 186.685C161.839 186.355 161.439 185.895 161.149 185.305C160.869 184.705 160.729 184.02 160.729 183.25C160.729 182.47 160.869 181.785 161.149 181.195C161.439 180.605 161.839 180.145 162.349 179.815C162.859 179.485 163.449 179.32 164.119 179.32C164.749 179.32 165.299 179.485 165.769 179.815C166.249 180.145 166.619 180.605 166.879 181.195C167.139 181.785 167.269 182.47 167.269 183.25C167.269 184.02 167.139 184.705 166.879 185.305C166.619 185.895 166.249 186.355 165.769 186.685C165.299 187.015 164.749 187.18 164.119 187.18ZM164.389 186.085C164.829 186.085 165.219 185.965 165.559 185.725C165.899 185.485 166.164 185.15 166.354 184.72C166.554 184.29 166.654 183.8 166.654 183.25C166.654 182.7 166.554 182.21 166.354 181.78C166.164 181.35 165.899 181.015 165.559 180.775C165.219 180.535 164.824 180.415 164.374 180.415C163.904 180.415 163.484 180.535 163.114 180.775C162.754 181.015 162.469 181.35 162.259 181.78C162.049 182.21 161.944 182.7 161.944 183.25C161.944 183.8 162.049 184.29 162.259 184.72C162.469 185.15 162.759 185.485 163.129 185.725C163.499 185.965 163.919 186.085 164.389 186.085ZM176.284 187.18C175.734 187.18 175.254 187.1 174.844 186.94C174.434 186.77 174.089 186.55 173.809 186.28C173.539 186.01 173.344 185.715 173.224 185.395L174.274 184.96C174.444 185.29 174.699 185.56 175.039 185.77C175.379 185.98 175.754 186.085 176.164 186.085C176.634 186.085 177.024 185.995 177.334 185.815C177.654 185.625 177.814 185.365 177.814 185.035C177.814 184.725 177.694 184.475 177.454 184.285C177.224 184.095 176.884 183.94 176.434 183.82L175.714 183.625C175.034 183.445 174.504 183.175 174.124 182.815C173.744 182.445 173.554 182.03 173.554 181.57C173.554 180.86 173.784 180.31 174.244 179.92C174.714 179.52 175.409 179.32 176.329 179.32C176.769 179.32 177.169 179.385 177.529 179.515C177.889 179.645 178.199 179.83 178.459 180.07C178.719 180.3 178.909 180.575 179.029 180.895L177.979 181.36C177.849 181.02 177.634 180.78 177.334 180.64C177.034 180.49 176.669 180.415 176.239 180.415C175.779 180.415 175.419 180.51 175.159 180.7C174.899 180.89 174.769 181.16 174.769 181.51C174.769 181.71 174.874 181.9 175.084 182.08C175.304 182.25 175.624 182.39 176.044 182.5L176.794 182.695C177.284 182.815 177.694 182.995 178.024 183.235C178.354 183.465 178.604 183.73 178.774 184.03C178.944 184.33 179.029 184.65 179.029 184.99C179.029 185.44 178.909 185.83 178.669 186.16C178.429 186.49 178.104 186.745 177.694 186.925C177.284 187.095 176.814 187.18 176.284 187.18ZM183.962 187.18C183.232 187.18 182.587 187.015 182.027 186.685C181.477 186.345 181.042 185.88 180.722 185.29C180.402 184.7 180.242 184.02 180.242 183.25C180.242 182.48 180.397 181.8 180.707 181.21C181.027 180.62 181.467 180.16 182.027 179.83C182.587 179.49 183.222 179.32 183.932 179.32C184.632 179.32 185.237 179.495 185.747 179.845C186.257 180.185 186.652 180.665 186.932 181.285C187.212 181.905 187.352 182.635 187.352 183.475H186.152C186.152 182.835 186.067 182.29 185.897 181.84C185.727 181.38 185.477 181.025 185.147 180.775C184.817 180.525 184.407 180.4 183.917 180.4C183.427 180.4 182.997 180.52 182.627 180.76C182.267 180.99 181.987 181.32 181.787 181.75C181.587 182.18 181.487 182.685 181.487 183.265C181.487 183.835 181.597 184.33 181.817 184.75C182.037 185.16 182.337 185.485 182.717 185.725C183.097 185.955 183.532 186.07 184.022 186.07C184.552 186.07 184.997 185.945 185.357 185.695C185.717 185.445 185.997 185.12 186.197 184.72L187.262 185.245C187.062 185.635 186.802 185.975 186.482 186.265C186.172 186.555 185.807 186.78 185.387 186.94C184.967 187.1 184.492 187.18 183.962 187.18ZM181.052 183.475V182.44H186.617V183.475H181.052ZM188.908 187L188.938 176.5H190.138L190.108 187H188.908ZM195.549 187.18C194.819 187.18 194.174 187.015 193.614 186.685C193.064 186.345 192.629 185.88 192.309 185.29C191.989 184.7 191.829 184.02 191.829 183.25C191.829 182.48 191.984 181.8 192.294 181.21C192.614 180.62 193.054 180.16 193.614 179.83C194.174 179.49 194.809 179.32 195.519 179.32C196.219 179.32 196.824 179.495 197.334 179.845C197.844 180.185 198.239 180.665 198.519 181.285C198.799 181.905 198.939 182.635 198.939 183.475H197.739C197.739 182.835 197.654 182.29 197.484 181.84C197.314 181.38 197.064 181.025 196.734 180.775C196.404 180.525 195.994 180.4 195.504 180.4C195.014 180.4 194.584 180.52 194.214 180.76C193.854 180.99 193.574 181.32 193.374 181.75C193.174 182.18 193.074 182.685 193.074 183.265C193.074 183.835 193.184 184.33 193.404 184.75C193.624 185.16 193.924 185.485 194.304 185.725C194.684 185.955 195.119 186.07 195.609 186.07C196.139 186.07 196.584 185.945 196.944 185.695C197.304 185.445 197.584 185.12 197.784 184.72L198.849 185.245C198.649 185.635 198.389 185.975 198.069 186.265C197.759 186.555 197.394 186.78 196.974 186.94C196.554 187.1 196.079 187.18 195.549 187.18ZM192.639 183.475V182.44H198.204V183.475H192.639ZM203.84 187.18C203.1 187.18 202.445 187.015 201.875 186.685C201.305 186.345 200.86 185.88 200.54 185.29C200.22 184.7 200.06 184.02 200.06 183.25C200.06 182.48 200.215 181.8 200.525 181.21C200.845 180.62 201.29 180.16 201.86 179.83C202.43 179.49 203.08 179.32 203.81 179.32C204.53 179.32 205.175 179.485 205.745 179.815C206.315 180.145 206.75 180.61 207.05 181.21L205.955 181.705C205.755 181.305 205.465 180.995 205.085 180.775C204.705 180.545 204.27 180.43 203.78 180.43C203.29 180.43 202.855 180.55 202.475 180.79C202.105 181.03 201.81 181.365 201.59 181.795C201.38 182.215 201.275 182.7 201.275 183.25C201.275 183.8 201.38 184.29 201.59 184.72C201.81 185.14 202.11 185.47 202.49 185.71C202.88 185.95 203.32 186.07 203.81 186.07C204.3 186.07 204.735 185.945 205.115 185.695C205.505 185.445 205.8 185.095 206 184.645L207.095 185.14C206.795 185.78 206.36 186.28 205.79 186.64C205.22 187 204.57 187.18 203.84 187.18ZM211.581 187.18C210.851 187.18 210.286 186.99 209.886 186.61C209.486 186.23 209.286 185.695 209.286 185.005V177.16H210.486V184.885C210.486 185.265 210.586 185.56 210.786 185.77C210.996 185.97 211.286 186.07 211.656 186.07C211.776 186.07 211.891 186.055 212.001 186.025C212.121 185.985 212.276 185.895 212.466 185.755L212.931 186.73C212.671 186.9 212.436 187.015 212.226 187.075C212.016 187.145 211.801 187.18 211.581 187.18ZM207.981 180.565V179.5H212.736V180.565H207.981ZM214.457 187L214.487 179.5H215.687L215.657 187H214.457ZM215.072 177.76C214.872 177.76 214.697 177.685 214.547 177.535C214.397 177.385 214.322 177.21 214.322 177.01C214.322 176.8 214.397 176.625 214.547 176.485C214.697 176.335 214.872 176.26 215.072 176.26C215.282 176.26 215.457 176.335 215.597 176.485C215.747 176.625 215.822 176.8 215.822 177.01C215.822 177.21 215.747 177.385 215.597 177.535C215.457 177.685 215.282 177.76 215.072 177.76ZM221.228 187.18C220.498 187.18 219.848 187.015 219.278 186.685C218.708 186.345 218.263 185.88 217.943 185.29C217.623 184.7 217.463 184.02 217.463 183.25C217.463 182.48 217.618 181.8 217.928 181.21C218.248 180.62 218.693 180.16 219.263 179.83C219.833 179.49 220.478 179.32 221.198 179.32C221.938 179.32 222.588 179.49 223.148 179.83C223.718 180.16 224.158 180.62 224.468 181.21C224.788 181.8 224.948 182.48 224.948 183.25C224.948 184.02 224.788 184.7 224.468 185.29C224.158 185.88 223.723 186.345 223.163 186.685C222.603 187.015 221.958 187.18 221.228 187.18ZM221.228 186.04C221.718 186.04 222.148 185.925 222.518 185.695C222.888 185.455 223.178 185.125 223.388 184.705C223.598 184.285 223.703 183.8 223.703 183.25C223.703 182.7 223.593 182.215 223.373 181.795C223.163 181.375 222.868 181.05 222.488 180.82C222.118 180.58 221.688 180.46 221.198 180.46C220.708 180.46 220.278 180.58 219.908 180.82C219.538 181.05 219.243 181.375 219.023 181.795C218.813 182.215 218.708 182.7 218.708 183.25C218.708 183.8 218.813 184.285 219.023 184.705C219.243 185.125 219.543 185.455 219.923 185.695C220.303 185.925 220.738 186.04 221.228 186.04ZM226.643 187V179.5H227.768L227.843 180.88V187H226.643ZM231.908 187V183.16L233.108 182.71V187H231.908ZM231.908 183.16C231.908 182.42 231.823 181.855 231.653 181.465C231.483 181.075 231.248 180.81 230.948 180.67C230.648 180.52 230.308 180.445 229.928 180.445C229.268 180.445 228.753 180.68 228.383 181.15C228.023 181.61 227.843 182.265 227.843 183.115H227.258C227.258 182.325 227.373 181.645 227.603 181.075C227.833 180.505 228.163 180.07 228.593 179.77C229.033 179.47 229.563 179.32 230.183 179.32C231.093 179.32 231.808 179.6 232.328 180.16C232.858 180.72 233.118 181.57 233.108 182.71L231.908 183.16ZM242.073 187.18C241.343 187.18 240.693 187.015 240.123 186.685C239.553 186.345 239.108 185.88 238.788 185.29C238.468 184.7 238.308 184.02 238.308 183.25C238.308 182.48 238.463 181.8 238.773 181.21C239.093 180.62 239.538 180.16 240.108 179.83C240.678 179.49 241.323 179.32 242.043 179.32C242.783 179.32 243.433 179.49 243.993 179.83C244.563 180.16 245.003 180.62 245.313 181.21C245.633 181.8 245.793 182.48 245.793 183.25C245.793 184.02 245.633 184.7 245.313 185.29C245.003 185.88 244.568 186.345 244.008 186.685C243.448 187.015 242.803 187.18 242.073 187.18ZM242.073 186.04C242.563 186.04 242.993 185.925 243.363 185.695C243.733 185.455 244.023 185.125 244.233 184.705C244.443 184.285 244.548 183.8 244.548 183.25C244.548 182.7 244.438 182.215 244.218 181.795C244.008 181.375 243.713 181.05 243.333 180.82C242.963 180.58 242.533 180.46 242.043 180.46C241.553 180.46 241.123 180.58 240.753 180.82C240.383 181.05 240.088 181.375 239.868 181.795C239.658 182.215 239.553 182.7 239.553 183.25C239.553 183.8 239.658 184.285 239.868 184.705C240.088 185.125 240.388 185.455 240.768 185.695C241.148 185.925 241.583 186.04 242.073 186.04ZM248.238 187V178.645C248.238 177.865 248.418 177.28 248.778 176.89C249.148 176.49 249.708 176.29 250.458 176.29C250.658 176.29 250.883 176.325 251.133 176.395C251.383 176.465 251.648 176.565 251.928 176.695L251.478 177.64C251.248 177.55 251.053 177.48 250.893 177.43C250.733 177.38 250.598 177.355 250.488 177.355C250.138 177.355 249.873 177.47 249.693 177.7C249.523 177.92 249.438 178.265 249.438 178.735V187H248.238ZM246.858 180.535V179.5H251.613V180.535H246.858ZM259.701 187.18C258.971 187.18 258.406 186.99 258.006 186.61C257.606 186.23 257.406 185.695 257.406 185.005V177.16H258.606V184.885C258.606 185.265 258.706 185.56 258.906 185.77C259.116 185.97 259.406 186.07 259.776 186.07C259.896 186.07 260.011 186.055 260.121 186.025C260.241 185.985 260.396 185.895 260.586 185.755L261.051 186.73C260.791 186.9 260.556 187.015 260.346 187.075C260.136 187.145 259.921 187.18 259.701 187.18ZM256.101 180.565V179.5H260.856V180.565H256.101ZM262.502 187V176.305H263.702V187H262.502ZM267.782 187V183.16L268.982 182.71V187H267.782ZM267.782 183.16C267.782 182.42 267.692 181.855 267.512 181.465C267.342 181.075 267.107 180.81 266.807 180.67C266.507 180.52 266.167 180.445 265.787 180.445C265.127 180.445 264.612 180.68 264.242 181.15C263.882 181.61 263.702 182.265 263.702 183.115H263.117C263.117 182.325 263.232 181.645 263.462 181.075C263.692 180.505 264.027 180.07 264.467 179.77C264.907 179.47 265.437 179.32 266.057 179.32C266.957 179.32 267.672 179.6 268.202 180.16C268.732 180.72 268.992 181.57 268.982 182.71L267.782 183.16ZM274.181 187.18C273.451 187.18 272.806 187.015 272.246 186.685C271.696 186.345 271.261 185.88 270.941 185.29C270.621 184.7 270.461 184.02 270.461 183.25C270.461 182.48 270.616 181.8 270.926 181.21C271.246 180.62 271.686 180.16 272.246 179.83C272.806 179.49 273.441 179.32 274.151 179.32C274.851 179.32 275.456 179.495 275.966 179.845C276.476 180.185 276.871 180.665 277.151 181.285C277.431 181.905 277.571 182.635 277.571 183.475H276.371C276.371 182.835 276.286 182.29 276.116 181.84C275.946 181.38 275.696 181.025 275.366 180.775C275.036 180.525 274.626 180.4 274.136 180.4C273.646 180.4 273.216 180.52 272.846 180.76C272.486 180.99 272.206 181.32 272.006 181.75C271.806 182.18 271.706 182.685 271.706 183.265C271.706 183.835 271.816 184.33 272.036 184.75C272.256 185.16 272.556 185.485 272.936 185.725C273.316 185.955 273.751 186.07 274.241 186.07C274.771 186.07 275.216 185.945 275.576 185.695C275.936 185.445 276.216 185.12 276.416 184.72L277.481 185.245C277.281 185.635 277.021 185.975 276.701 186.265C276.391 186.555 276.026 186.78 275.606 186.94C275.186 187.1 274.711 187.18 274.181 187.18ZM271.271 183.475V182.44H276.836V183.475H271.271ZM282.834 187V176.5H284.034V185.605L283.974 187H282.834ZM286.569 187.18C285.939 187.18 285.384 187.015 284.904 186.685C284.434 186.355 284.069 185.895 283.809 185.305C283.549 184.705 283.419 184.02 283.419 183.25C283.419 182.47 283.549 181.785 283.809 181.195C284.069 180.605 284.434 180.145 284.904 179.815C285.384 179.485 285.939 179.32 286.569 179.32C287.239 179.32 287.829 179.485 288.339 179.815C288.849 180.145 289.244 180.605 289.524 181.195C289.814 181.785 289.959 182.47 289.959 183.25C289.959 184.02 289.814 184.705 289.524 185.305C289.244 185.895 288.849 186.355 288.339 186.685C287.829 187.015 287.239 187.18 286.569 187.18ZM286.299 186.085C286.769 186.085 287.184 185.965 287.544 185.725C287.914 185.485 288.204 185.15 288.414 184.72C288.634 184.29 288.744 183.8 288.744 183.25C288.744 182.7 288.639 182.21 288.429 181.78C288.229 181.35 287.944 181.015 287.574 180.775C287.204 180.535 286.784 180.415 286.314 180.415C285.874 180.415 285.479 180.535 285.129 180.775C284.789 181.015 284.519 181.35 284.319 181.78C284.129 182.21 284.034 182.7 284.034 183.25C284.034 183.8 284.129 184.29 284.319 184.72C284.519 185.15 284.789 185.485 285.129 185.725C285.469 185.965 285.859 186.085 286.299 186.085ZM294.938 187.18C294.208 187.18 293.563 187.015 293.003 186.685C292.453 186.345 292.018 185.88 291.698 185.29C291.378 184.7 291.218 184.02 291.218 183.25C291.218 182.48 291.373 181.8 291.683 181.21C292.003 180.62 292.443 180.16 293.003 179.83C293.563 179.49 294.198 179.32 294.908 179.32C295.608 179.32 296.213 179.495 296.723 179.845C297.233 180.185 297.628 180.665 297.908 181.285C298.188 181.905 298.328 182.635 298.328 183.475H297.128C297.128 182.835 297.043 182.29 296.873 181.84C296.703 181.38 296.453 181.025 296.123 180.775C295.793 180.525 295.383 180.4 294.893 180.4C294.403 180.4 293.973 180.52 293.603 180.76C293.243 180.99 292.963 181.32 292.763 181.75C292.563 182.18 292.463 182.685 292.463 183.265C292.463 183.835 292.573 184.33 292.793 184.75C293.013 185.16 293.313 185.485 293.693 185.725C294.073 185.955 294.508 186.07 294.998 186.07C295.528 186.07 295.973 185.945 296.333 185.695C296.693 185.445 296.973 185.12 297.173 184.72L298.238 185.245C298.038 185.635 297.778 185.975 297.458 186.265C297.148 186.555 296.783 186.78 296.363 186.94C295.943 187.1 295.468 187.18 294.938 187.18ZM292.028 183.475V182.44H297.593V183.475H292.028ZM302.51 187.18C301.96 187.18 301.48 187.1 301.07 186.94C300.66 186.77 300.315 186.55 300.035 186.28C299.765 186.01 299.57 185.715 299.45 185.395L300.5 184.96C300.67 185.29 300.925 185.56 301.265 185.77C301.605 185.98 301.98 186.085 302.39 186.085C302.86 186.085 303.25 185.995 303.56 185.815C303.88 185.625 304.04 185.365 304.04 185.035C304.04 184.725 303.92 184.475 303.68 184.285C303.45 184.095 303.11 183.94 302.66 183.82L301.94 183.625C301.26 183.445 300.73 183.175 300.35 182.815C299.97 182.445 299.78 182.03 299.78 181.57C299.78 180.86 300.01 180.31 300.47 179.92C300.94 179.52 301.635 179.32 302.555 179.32C302.995 179.32 303.395 179.385 303.755 179.515C304.115 179.645 304.425 179.83 304.685 180.07C304.945 180.3 305.135 180.575 305.255 180.895L304.205 181.36C304.075 181.02 303.86 180.78 303.56 180.64C303.26 180.49 302.895 180.415 302.465 180.415C302.005 180.415 301.645 180.51 301.385 180.7C301.125 180.89 300.995 181.16 300.995 181.51C300.995 181.71 301.1 181.9 301.31 182.08C301.53 182.25 301.85 182.39 302.27 182.5L303.02 182.695C303.51 182.815 303.92 182.995 304.25 183.235C304.58 183.465 304.83 183.73 305 184.03C305.17 184.33 305.255 184.65 305.255 184.99C305.255 185.44 305.135 185.83 304.895 186.16C304.655 186.49 304.33 186.745 303.92 186.925C303.51 187.095 303.04 187.18 302.51 187.18ZM309.842 187.18C309.112 187.18 308.547 186.99 308.147 186.61C307.747 186.23 307.547 185.695 307.547 185.005V177.16H308.747V184.885C308.747 185.265 308.847 185.56 309.047 185.77C309.257 185.97 309.547 186.07 309.917 186.07C310.037 186.07 310.152 186.055 310.262 186.025C310.382 185.985 310.537 185.895 310.727 185.755L311.192 186.73C310.932 186.9 310.697 187.015 310.487 187.075C310.277 187.145 310.062 187.18 309.842 187.18ZM306.242 180.565V179.5H310.997V180.565H306.242ZM109.54 215V205.895L109.6 204.5H110.74V215H109.54ZM107.005 212.18C106.335 212.18 105.745 212.015 105.235 211.685C104.725 211.355 104.325 210.895 104.035 210.305C103.755 209.705 103.615 209.02 103.615 208.25C103.615 207.47 103.755 206.785 104.035 206.195C104.325 205.605 104.725 205.145 105.235 204.815C105.745 204.485 106.335 204.32 107.005 204.32C107.635 204.32 108.185 204.485 108.655 204.815C109.135 205.145 109.505 205.605 109.765 206.195C110.025 206.785 110.155 207.47 110.155 208.25C110.155 209.02 110.025 209.705 109.765 210.305C109.505 210.895 109.135 211.355 108.655 211.685C108.185 212.015 107.635 212.18 107.005 212.18ZM107.275 211.085C107.715 211.085 108.105 210.965 108.445 210.725C108.785 210.485 109.05 210.15 109.24 209.72C109.44 209.29 109.54 208.8 109.54 208.25C109.54 207.7 109.44 207.21 109.24 206.78C109.05 206.35 108.785 206.015 108.445 205.775C108.105 205.535 107.71 205.415 107.26 205.415C106.79 205.415 106.37 205.535 106 205.775C105.64 206.015 105.355 206.35 105.145 206.78C104.935 207.21 104.83 207.7 104.83 208.25C104.83 208.8 104.935 209.29 105.145 209.72C105.355 210.15 105.645 210.485 106.015 210.725C106.385 210.965 106.805 211.085 107.275 211.085ZM117.867 212L117.792 210.62V204.5H118.992V212H117.867ZM112.527 208.79V204.5H113.727V208.34L112.527 208.79ZM113.727 208.34C113.727 209.08 113.812 209.645 113.982 210.035C114.152 210.425 114.387 210.695 114.687 210.845C114.997 210.985 115.342 211.055 115.722 211.055C116.372 211.055 116.877 210.82 117.237 210.35C117.607 209.88 117.792 209.225 117.792 208.385H118.377C118.377 209.175 118.262 209.855 118.032 210.425C117.802 210.995 117.467 211.43 117.027 211.73C116.597 212.03 116.072 212.18 115.452 212.18C114.542 212.18 113.822 211.9 113.292 211.34C112.772 210.78 112.517 209.93 112.527 208.79L113.727 208.34ZM125.781 212L125.661 208.04C125.641 207.45 125.566 206.965 125.436 206.585C125.306 206.195 125.106 205.905 124.836 205.715C124.566 205.515 124.206 205.415 123.756 205.415C123.326 205.415 122.951 205.5 122.631 205.67C122.321 205.84 122.066 206.105 121.866 206.465L120.801 206.03C120.991 205.68 121.226 205.38 121.506 205.13C121.786 204.87 122.116 204.67 122.496 204.53C122.876 204.39 123.301 204.32 123.771 204.32C124.461 204.32 125.036 204.455 125.496 204.725C125.956 204.995 126.296 205.4 126.516 205.94C126.746 206.47 126.861 207.135 126.861 207.935V212H125.781ZM123.501 212.18C122.611 212.18 121.916 211.98 121.416 211.58C120.926 211.17 120.681 210.605 120.681 209.885C120.681 209.125 120.931 208.545 121.431 208.145C121.941 207.735 122.651 207.53 123.561 207.53H126.201V208.535H123.831C123.131 208.535 122.631 208.65 122.331 208.88C122.041 209.11 121.896 209.44 121.896 209.87C121.896 210.26 122.041 210.57 122.331 210.8C122.621 211.02 123.026 211.13 123.546 211.13C123.986 211.13 124.366 211.03 124.686 210.83C125.006 210.63 125.251 210.36 125.421 210.02C125.591 209.67 125.676 209.275 125.676 208.835H126.411C126.411 209.855 126.161 210.67 125.661 211.28C125.161 211.88 124.441 212.18 123.501 212.18ZM128.762 212L128.792 201.5H129.992L129.962 212H128.762ZM132.162 212L132.192 204.5H133.392L133.362 212H132.162ZM132.777 202.76C132.577 202.76 132.402 202.685 132.252 202.535C132.102 202.385 132.027 202.21 132.027 202.01C132.027 201.8 132.102 201.625 132.252 201.485C132.402 201.335 132.577 201.26 132.777 201.26C132.987 201.26 133.162 201.335 133.302 201.485C133.452 201.625 133.527 201.8 133.527 202.01C133.527 202.21 133.452 202.385 133.302 202.535C133.162 202.685 132.987 202.76 132.777 202.76ZM138.543 212.18C137.813 212.18 137.248 211.99 136.848 211.61C136.448 211.23 136.248 210.695 136.248 210.005V202.16H137.448V209.885C137.448 210.265 137.548 210.56 137.748 210.77C137.958 210.97 138.248 211.07 138.618 211.07C138.738 211.07 138.853 211.055 138.963 211.025C139.083 210.985 139.238 210.895 139.428 210.755L139.893 211.73C139.633 211.9 139.398 212.015 139.188 212.075C138.978 212.145 138.763 212.18 138.543 212.18ZM134.943 205.565V204.5H139.698V205.565H134.943ZM142.02 215.18C141.83 215.18 141.61 215.14 141.36 215.06C141.11 214.99 140.845 214.895 140.565 214.775L141.015 213.77C141.245 213.87 141.445 213.945 141.615 213.995C141.795 214.045 141.935 214.07 142.035 214.07C142.305 214.07 142.525 213.995 142.695 213.845C142.875 213.705 143.025 213.5 143.145 213.23L144 211.19L146.775 204.5H148.065L144.465 213.05C144.275 213.49 144.075 213.87 143.865 214.19C143.665 214.51 143.42 214.755 143.13 214.925C142.84 215.095 142.47 215.18 142.02 215.18ZM143.67 212L140.43 204.5H141.705L144.495 211.175L144.855 212H143.67ZM157.161 212.225C156.371 212.225 155.671 212.06 155.061 211.73C154.461 211.39 153.991 210.925 153.651 210.335C153.311 209.735 153.141 209.045 153.141 208.265H154.416C154.416 208.815 154.531 209.305 154.761 209.735C155.001 210.155 155.331 210.485 155.751 210.725C156.171 210.955 156.651 211.07 157.191 211.07C157.741 211.07 158.226 210.955 158.646 210.725C159.076 210.485 159.406 210.155 159.636 209.735C159.876 209.305 159.996 208.815 159.996 208.265H161.256C161.256 209.045 161.086 209.735 160.746 210.335C160.406 210.925 159.926 211.39 159.306 211.73C158.686 212.06 157.971 212.225 157.161 212.225ZM153.141 208.265V201.5H154.416V208.265H153.141ZM159.996 208.265V201.5H161.256V208.265H159.996ZM167.257 212.18C166.677 212.18 166.162 212.12 165.712 212C165.262 211.87 164.872 211.695 164.542 211.475C164.212 211.245 163.942 210.995 163.732 210.725C163.522 210.445 163.367 210.15 163.267 209.84L164.482 209.42C164.632 209.86 164.932 210.245 165.382 210.575C165.842 210.895 166.402 211.055 167.062 211.055C167.872 211.055 168.507 210.895 168.967 210.575C169.427 210.255 169.657 209.83 169.657 209.3C169.657 208.81 169.452 208.415 169.042 208.115C168.632 207.805 168.092 207.565 167.422 207.395L166.267 207.095C165.797 206.975 165.362 206.8 164.962 206.57C164.572 206.33 164.257 206.03 164.017 205.67C163.787 205.3 163.672 204.86 163.672 204.35C163.672 203.4 163.977 202.66 164.587 202.13C165.207 201.59 166.097 201.32 167.257 201.32C167.947 201.32 168.542 201.435 169.042 201.665C169.542 201.885 169.947 202.17 170.257 202.52C170.577 202.86 170.802 203.23 170.932 203.63L169.732 204.05C169.542 203.55 169.222 203.16 168.772 202.88C168.322 202.59 167.777 202.445 167.137 202.445C166.467 202.445 165.932 202.61 165.532 202.94C165.142 203.26 164.947 203.7 164.947 204.26C164.947 204.74 165.102 205.11 165.412 205.37C165.722 205.62 166.127 205.805 166.627 205.925L167.782 206.21C168.802 206.45 169.582 206.85 170.122 207.41C170.672 207.96 170.947 208.555 170.947 209.195C170.947 209.745 170.807 210.25 170.527 210.71C170.247 211.16 169.832 211.52 169.282 211.79C168.742 212.05 168.067 212.18 167.257 212.18ZM180.386 212L176.171 201.5H177.446L181.721 212H180.386ZM171.851 212L176.126 201.5H177.416L173.201 212H171.851ZM173.876 209.015V207.875H179.711V209.015H173.876ZM182.737 208.085V206.99H187.237V208.085H182.737ZM189.172 212V204.5H190.297L190.372 205.88V212H189.172ZM194.437 212V208.16L195.637 207.71V212H194.437ZM199.717 212V208.16L200.917 207.71V212H199.717ZM194.437 208.16C194.437 207.42 194.352 206.855 194.182 206.465C194.012 206.075 193.777 205.81 193.477 205.67C193.177 205.52 192.837 205.445 192.457 205.445C191.797 205.445 191.282 205.68 190.912 206.15C190.552 206.61 190.372 207.265 190.372 208.115H189.787C189.787 207.325 189.902 206.645 190.132 206.075C190.362 205.505 190.692 205.07 191.122 204.77C191.562 204.47 192.092 204.32 192.712 204.32C193.622 204.32 194.337 204.6 194.857 205.16C195.387 205.72 195.647 206.57 195.637 207.71L194.437 208.16ZM199.717 208.16C199.717 207.42 199.627 206.855 199.447 206.465C199.277 206.075 199.042 205.81 198.742 205.67C198.442 205.52 198.102 205.445 197.722 205.445C197.062 205.445 196.547 205.68 196.177 206.15C195.817 206.61 195.637 207.265 195.637 208.115H195.052C195.052 207.325 195.167 206.645 195.397 206.075C195.627 205.505 195.962 205.07 196.402 204.77C196.842 204.47 197.372 204.32 197.992 204.32C198.892 204.32 199.602 204.6 200.122 205.16C200.652 205.72 200.917 206.57 200.917 207.71L199.717 208.16ZM207.505 212L207.385 208.04C207.365 207.45 207.29 206.965 207.16 206.585C207.03 206.195 206.83 205.905 206.56 205.715C206.29 205.515 205.93 205.415 205.48 205.415C205.05 205.415 204.675 205.5 204.355 205.67C204.045 205.84 203.79 206.105 203.59 206.465L202.525 206.03C202.715 205.68 202.95 205.38 203.23 205.13C203.51 204.87 203.84 204.67 204.22 204.53C204.6 204.39 205.025 204.32 205.495 204.32C206.185 204.32 206.76 204.455 207.22 204.725C207.68 204.995 208.02 205.4 208.24 205.94C208.47 206.47 208.585 207.135 208.585 207.935V212H207.505ZM205.225 212.18C204.335 212.18 203.64 211.98 203.14 211.58C202.65 211.17 202.405 210.605 202.405 209.885C202.405 209.125 202.655 208.545 203.155 208.145C203.665 207.735 204.375 207.53 205.285 207.53H207.925V208.535H205.555C204.855 208.535 204.355 208.65 204.055 208.88C203.765 209.11 203.62 209.44 203.62 209.87C203.62 210.26 203.765 210.57 204.055 210.8C204.345 211.02 204.75 211.13 205.27 211.13C205.71 211.13 206.09 211.03 206.41 210.83C206.73 210.63 206.975 210.36 207.145 210.02C207.315 209.67 207.4 209.275 207.4 208.835H208.135C208.135 209.855 207.885 210.67 207.385 211.28C206.885 211.88 206.165 212.18 205.225 212.18ZM216.036 212L215.976 210.605V201.5H217.176V212H216.036ZM213.441 212.18C212.771 212.18 212.181 212.015 211.671 211.685C211.161 211.355 210.761 210.895 210.471 210.305C210.191 209.705 210.051 209.02 210.051 208.25C210.051 207.47 210.191 206.785 210.471 206.195C210.761 205.605 211.161 205.145 211.671 204.815C212.181 204.485 212.771 204.32 213.441 204.32C214.071 204.32 214.621 204.485 215.091 204.815C215.571 205.145 215.941 205.605 216.201 206.195C216.461 206.785 216.591 207.47 216.591 208.25C216.591 209.02 216.461 209.705 216.201 210.305C215.941 210.895 215.571 211.355 215.091 211.685C214.621 212.015 214.071 212.18 213.441 212.18ZM213.711 211.085C214.151 211.085 214.541 210.965 214.881 210.725C215.221 210.485 215.486 210.15 215.676 209.72C215.876 209.29 215.976 208.8 215.976 208.25C215.976 207.7 215.876 207.21 215.676 206.78C215.486 206.35 215.221 206.015 214.881 205.775C214.541 205.535 214.146 205.415 213.696 205.415C213.226 205.415 212.806 205.535 212.436 205.775C212.076 206.015 211.791 206.35 211.581 206.78C211.371 207.21 211.266 207.7 211.266 208.25C211.266 208.8 211.371 209.29 211.581 209.72C211.791 210.15 212.081 210.485 212.451 210.725C212.821 210.965 213.241 211.085 213.711 211.085ZM222.59 212.18C221.86 212.18 221.215 212.015 220.655 211.685C220.105 211.345 219.67 210.88 219.35 210.29C219.03 209.7 218.87 209.02 218.87 208.25C218.87 207.48 219.025 206.8 219.335 206.21C219.655 205.62 220.095 205.16 220.655 204.83C221.215 204.49 221.85 204.32 222.56 204.32C223.26 204.32 223.865 204.495 224.375 204.845C224.885 205.185 225.28 205.665 225.56 206.285C225.84 206.905 225.98 207.635 225.98 208.475H224.78C224.78 207.835 224.695 207.29 224.525 206.84C224.355 206.38 224.105 206.025 223.775 205.775C223.445 205.525 223.035 205.4 222.545 205.4C222.055 205.4 221.625 205.52 221.255 205.76C220.895 205.99 220.615 206.32 220.415 206.75C220.215 207.18 220.115 207.685 220.115 208.265C220.115 208.835 220.225 209.33 220.445 209.75C220.665 210.16 220.965 210.485 221.345 210.725C221.725 210.955 222.16 211.07 222.65 211.07C223.18 211.07 223.625 210.945 223.985 210.695C224.345 210.445 224.625 210.12 224.825 209.72L225.89 210.245C225.69 210.635 225.43 210.975 225.11 211.265C224.8 211.555 224.435 211.78 224.015 211.94C223.595 212.1 223.12 212.18 222.59 212.18ZM219.68 208.475V207.44H225.245V208.475H219.68ZM231.992 212V203.645C231.992 202.865 232.172 202.28 232.532 201.89C232.902 201.49 233.462 201.29 234.212 201.29C234.412 201.29 234.637 201.325 234.887 201.395C235.137 201.465 235.402 201.565 235.682 201.695L235.232 202.64C235.002 202.55 234.807 202.48 234.647 202.43C234.487 202.38 234.352 202.355 234.242 202.355C233.892 202.355 233.627 202.47 233.447 202.7C233.277 202.92 233.192 203.265 233.192 203.735V212H231.992ZM230.612 205.535V204.5H235.367V205.535H230.612ZM241.924 212L241.849 210.62V204.5H243.049V212H241.924ZM236.584 208.79V204.5H237.784V208.34L236.584 208.79ZM237.784 208.34C237.784 209.08 237.869 209.645 238.039 210.035C238.209 210.425 238.444 210.695 238.744 210.845C239.054 210.985 239.399 211.055 239.779 211.055C240.429 211.055 240.934 210.82 241.294 210.35C241.664 209.88 241.849 209.225 241.849 208.385H242.434C242.434 209.175 242.319 209.855 242.089 210.425C241.859 210.995 241.524 211.43 241.084 211.73C240.654 212.03 240.129 212.18 239.509 212.18C238.599 212.18 237.879 211.9 237.349 211.34C236.829 210.78 236.574 209.93 236.584 208.79L237.784 208.34ZM245.804 207.935C245.804 207.125 245.959 206.47 246.269 205.97C246.579 205.46 246.974 205.085 247.454 204.845C247.944 204.595 248.459 204.47 248.999 204.47V205.595C248.559 205.595 248.134 205.67 247.724 205.82C247.324 205.96 246.994 206.195 246.734 206.525C246.474 206.855 246.344 207.305 246.344 207.875L245.804 207.935ZM245.144 212V204.5H246.344V212H245.144ZM250.212 212V204.5H251.337L251.412 205.88V212H250.212ZM255.477 212V208.16L256.677 207.71V212H255.477ZM255.477 208.16C255.477 207.42 255.392 206.855 255.222 206.465C255.052 206.075 254.817 205.81 254.517 205.67C254.217 205.52 253.877 205.445 253.497 205.445C252.837 205.445 252.322 205.68 251.952 206.15C251.592 206.61 251.412 207.265 251.412 208.115H250.827C250.827 207.325 250.942 206.645 251.172 206.075C251.402 205.505 251.732 205.07 252.162 204.77C252.602 204.47 253.132 204.32 253.752 204.32C254.662 204.32 255.377 204.6 255.897 205.16C256.427 205.72 256.687 206.57 256.677 207.71L255.477 208.16ZM258.651 212L258.681 204.5H259.881L259.851 212H258.651ZM259.266 202.76C259.066 202.76 258.891 202.685 258.741 202.535C258.591 202.385 258.516 202.21 258.516 202.01C258.516 201.8 258.591 201.625 258.741 201.485C258.891 201.335 259.066 201.26 259.266 201.26C259.476 201.26 259.651 201.335 259.791 201.485C259.941 201.625 260.016 201.8 260.016 202.01C260.016 202.21 259.941 202.385 259.791 202.535C259.651 202.685 259.476 202.76 259.266 202.76ZM265.033 212.18C264.303 212.18 263.738 211.99 263.338 211.61C262.938 211.23 262.738 210.695 262.738 210.005V202.16H263.938V209.885C263.938 210.265 264.038 210.56 264.238 210.77C264.448 210.97 264.738 211.07 265.108 211.07C265.228 211.07 265.343 211.055 265.453 211.025C265.573 210.985 265.728 210.895 265.918 210.755L266.383 211.73C266.123 211.9 265.888 212.015 265.678 212.075C265.468 212.145 265.253 212.18 265.033 212.18ZM261.433 205.565V204.5H266.188V205.565H261.433ZM272.979 212L272.904 210.62V204.5H274.104V212H272.979ZM267.639 208.79V204.5H268.839V208.34L267.639 208.79ZM268.839 208.34C268.839 209.08 268.924 209.645 269.094 210.035C269.264 210.425 269.499 210.695 269.799 210.845C270.109 210.985 270.454 211.055 270.834 211.055C271.484 211.055 271.989 210.82 272.349 210.35C272.719 209.88 272.904 209.225 272.904 208.385H273.489C273.489 209.175 273.374 209.855 273.144 210.425C272.914 210.995 272.579 211.43 272.139 211.73C271.709 212.03 271.184 212.18 270.564 212.18C269.654 212.18 268.934 211.9 268.404 211.34C267.884 210.78 267.629 209.93 267.639 208.79L268.839 208.34ZM276.858 207.935C276.858 207.125 277.013 206.47 277.323 205.97C277.633 205.46 278.028 205.085 278.508 204.845C278.998 204.595 279.513 204.47 280.053 204.47V205.595C279.613 205.595 279.188 205.67 278.778 205.82C278.378 205.96 278.048 206.195 277.788 206.525C277.528 206.855 277.398 207.305 277.398 207.875L276.858 207.935ZM276.198 212V204.5H277.398V212H276.198ZM284.582 212.18C283.852 212.18 283.207 212.015 282.647 211.685C282.097 211.345 281.662 210.88 281.342 210.29C281.022 209.7 280.862 209.02 280.862 208.25C280.862 207.48 281.017 206.8 281.327 206.21C281.647 205.62 282.087 205.16 282.647 204.83C283.207 204.49 283.842 204.32 284.552 204.32C285.252 204.32 285.857 204.495 286.367 204.845C286.877 205.185 287.272 205.665 287.552 206.285C287.832 206.905 287.972 207.635 287.972 208.475H286.772C286.772 207.835 286.687 207.29 286.517 206.84C286.347 206.38 286.097 206.025 285.767 205.775C285.437 205.525 285.027 205.4 284.537 205.4C284.047 205.4 283.617 205.52 283.247 205.76C282.887 205.99 282.607 206.32 282.407 206.75C282.207 207.18 282.107 207.685 282.107 208.265C282.107 208.835 282.217 209.33 282.437 209.75C282.657 210.16 282.957 210.485 283.337 210.725C283.717 210.955 284.152 211.07 284.642 211.07C285.172 211.07 285.617 210.945 285.977 210.695C286.337 210.445 286.617 210.12 286.817 209.72L287.882 210.245C287.682 210.635 287.422 210.975 287.102 211.265C286.792 211.555 286.427 211.78 286.007 211.94C285.587 212.1 285.112 212.18 284.582 212.18ZM281.672 208.475V207.44H287.237V208.475H281.672ZM107.02 237.18C106.29 237.18 105.725 236.99 105.325 236.61C104.925 236.23 104.725 235.695 104.725 235.005V227.16H105.925V234.885C105.925 235.265 106.025 235.56 106.225 235.77C106.435 235.97 106.725 236.07 107.095 236.07C107.215 236.07 107.33 236.055 107.44 236.025C107.56 235.985 107.715 235.895 107.905 235.755L108.37 236.73C108.11 236.9 107.875 237.015 107.665 237.075C107.455 237.145 107.24 237.18 107.02 237.18ZM103.42 230.565V229.5H108.175V230.565H103.42ZM109.821 237V226.305H111.021V237H109.821ZM115.101 237V233.16L116.301 232.71V237H115.101ZM115.101 233.16C115.101 232.42 115.011 231.855 114.831 231.465C114.661 231.075 114.426 230.81 114.126 230.67C113.826 230.52 113.486 230.445 113.106 230.445C112.446 230.445 111.931 230.68 111.561 231.15C111.201 231.61 111.021 232.265 111.021 233.115H110.436C110.436 232.325 110.551 231.645 110.781 231.075C111.011 230.505 111.346 230.07 111.786 229.77C112.226 229.47 112.756 229.32 113.376 229.32C114.276 229.32 114.991 229.6 115.521 230.16C116.051 230.72 116.311 231.57 116.301 232.71L115.101 233.16ZM122.881 237L122.761 233.04C122.741 232.45 122.666 231.965 122.536 231.585C122.406 231.195 122.206 230.905 121.936 230.715C121.666 230.515 121.306 230.415 120.856 230.415C120.426 230.415 120.051 230.5 119.731 230.67C119.421 230.84 119.166 231.105 118.966 231.465L117.901 231.03C118.091 230.68 118.326 230.38 118.606 230.13C118.886 229.87 119.216 229.67 119.596 229.53C119.976 229.39 120.401 229.32 120.871 229.32C121.561 229.32 122.136 229.455 122.596 229.725C123.056 229.995 123.396 230.4 123.616 230.94C123.846 231.47 123.961 232.135 123.961 232.935V237H122.881ZM120.601 237.18C119.711 237.18 119.016 236.98 118.516 236.58C118.026 236.17 117.781 235.605 117.781 234.885C117.781 234.125 118.031 233.545 118.531 233.145C119.041 232.735 119.751 232.53 120.661 232.53H123.301V233.535H120.931C120.231 233.535 119.731 233.65 119.431 233.88C119.141 234.11 118.996 234.44 118.996 234.87C118.996 235.26 119.141 235.57 119.431 235.8C119.721 236.02 120.126 236.13 120.646 236.13C121.086 236.13 121.466 236.03 121.786 235.83C122.106 235.63 122.351 235.36 122.521 235.02C122.691 234.67 122.776 234.275 122.776 233.835H123.511C123.511 234.855 123.261 235.67 122.761 236.28C122.261 236.88 121.541 237.18 120.601 237.18ZM128.832 237.18C128.102 237.18 127.537 236.99 127.137 236.61C126.737 236.23 126.537 235.695 126.537 235.005V227.16H127.737V234.885C127.737 235.265 127.837 235.56 128.037 235.77C128.247 235.97 128.537 236.07 128.907 236.07C129.027 236.07 129.142 236.055 129.252 236.025C129.372 235.985 129.527 235.895 129.717 235.755L130.182 236.73C129.922 236.9 129.687 237.015 129.477 237.075C129.267 237.145 129.052 237.18 128.832 237.18ZM125.232 230.565V229.5H129.987V230.565H125.232ZM135.339 237L135.369 226.5H136.569L136.539 237H135.339ZM143.359 237L143.239 233.04C143.219 232.45 143.144 231.965 143.014 231.585C142.884 231.195 142.684 230.905 142.414 230.715C142.144 230.515 141.784 230.415 141.334 230.415C140.904 230.415 140.529 230.5 140.209 230.67C139.899 230.84 139.644 231.105 139.444 231.465L138.379 231.03C138.569 230.68 138.804 230.38 139.084 230.13C139.364 229.87 139.694 229.67 140.074 229.53C140.454 229.39 140.879 229.32 141.349 229.32C142.039 229.32 142.614 229.455 143.074 229.725C143.534 229.995 143.874 230.4 144.094 230.94C144.324 231.47 144.439 232.135 144.439 232.935V237H143.359ZM141.079 237.18C140.189 237.18 139.494 236.98 138.994 236.58C138.504 236.17 138.259 235.605 138.259 234.885C138.259 234.125 138.509 233.545 139.009 233.145C139.519 232.735 140.229 232.53 141.139 232.53H143.779V233.535H141.409C140.709 233.535 140.209 233.65 139.909 233.88C139.619 234.11 139.474 234.44 139.474 234.87C139.474 235.26 139.619 235.57 139.909 235.8C140.199 236.02 140.604 236.13 141.124 236.13C141.564 236.13 141.944 236.03 142.264 235.83C142.584 235.63 142.829 235.36 142.999 235.02C143.169 234.67 143.254 234.275 143.254 233.835H143.989C143.989 234.855 143.739 235.67 143.239 236.28C142.739 236.88 142.019 237.18 141.079 237.18ZM148.965 237.18C148.415 237.18 147.935 237.1 147.525 236.94C147.115 236.77 146.77 236.55 146.49 236.28C146.22 236.01 146.025 235.715 145.905 235.395L146.955 234.96C147.125 235.29 147.38 235.56 147.72 235.77C148.06 235.98 148.435 236.085 148.845 236.085C149.315 236.085 149.705 235.995 150.015 235.815C150.335 235.625 150.495 235.365 150.495 235.035C150.495 234.725 150.375 234.475 150.135 234.285C149.905 234.095 149.565 233.94 149.115 233.82L148.395 233.625C147.715 233.445 147.185 233.175 146.805 232.815C146.425 232.445 146.235 232.03 146.235 231.57C146.235 230.86 146.465 230.31 146.925 229.92C147.395 229.52 148.09 229.32 149.01 229.32C149.45 229.32 149.85 229.385 150.21 229.515C150.57 229.645 150.88 229.83 151.14 230.07C151.4 230.3 151.59 230.575 151.71 230.895L150.66 231.36C150.53 231.02 150.315 230.78 150.015 230.64C149.715 230.49 149.35 230.415 148.92 230.415C148.46 230.415 148.1 230.51 147.84 230.7C147.58 230.89 147.45 231.16 147.45 231.51C147.45 231.71 147.555 231.9 147.765 232.08C147.985 232.25 148.305 232.39 148.725 232.5L149.475 232.695C149.965 232.815 150.375 232.995 150.705 233.235C151.035 233.465 151.285 233.73 151.455 234.03C151.625 234.33 151.71 234.65 151.71 234.99C151.71 235.44 151.59 235.83 151.35 236.16C151.11 236.49 150.785 236.745 150.375 236.925C149.965 237.095 149.495 237.18 148.965 237.18ZM156.297 237.18C155.567 237.18 155.002 236.99 154.602 236.61C154.202 236.23 154.002 235.695 154.002 235.005V227.16H155.202V234.885C155.202 235.265 155.302 235.56 155.502 235.77C155.712 235.97 156.002 236.07 156.372 236.07C156.492 236.07 156.607 236.055 156.717 236.025C156.837 235.985 156.992 235.895 157.182 235.755L157.647 236.73C157.387 236.9 157.152 237.015 156.942 237.075C156.732 237.145 156.517 237.18 156.297 237.18ZM152.697 230.565V229.5H157.452V230.565H152.697ZM161.724 237.18C161.174 237.18 160.694 237.1 160.284 236.94C159.874 236.77 159.529 236.55 159.249 236.28C158.979 236.01 158.784 235.715 158.664 235.395L159.714 234.96C159.884 235.29 160.139 235.56 160.479 235.77C160.819 235.98 161.194 236.085 161.604 236.085C162.074 236.085 162.464 235.995 162.774 235.815C163.094 235.625 163.254 235.365 163.254 235.035C163.254 234.725 163.134 234.475 162.894 234.285C162.664 234.095 162.324 233.94 161.874 233.82L161.154 233.625C160.474 233.445 159.944 233.175 159.564 232.815C159.184 232.445 158.994 232.03 158.994 231.57C158.994 230.86 159.224 230.31 159.684 229.92C160.154 229.52 160.849 229.32 161.769 229.32C162.209 229.32 162.609 229.385 162.969 229.515C163.329 229.645 163.639 229.83 163.899 230.07C164.159 230.3 164.349 230.575 164.469 230.895L163.419 231.36C163.289 231.02 163.074 230.78 162.774 230.64C162.474 230.49 162.109 230.415 161.679 230.415C161.219 230.415 160.859 230.51 160.599 230.7C160.339 230.89 160.209 231.16 160.209 231.51C160.209 231.71 160.314 231.9 160.524 232.08C160.744 232.25 161.064 232.39 161.484 232.5L162.234 232.695C162.724 232.815 163.134 232.995 163.464 233.235C163.794 233.465 164.044 233.73 164.214 234.03C164.384 234.33 164.469 234.65 164.469 234.99C164.469 235.44 164.349 235.83 164.109 236.16C163.869 236.49 163.544 236.745 163.134 236.925C162.724 237.095 162.254 237.18 161.724 237.18ZM175.342 237L175.282 235.605V226.5H176.482V237H175.342ZM172.747 237.18C172.077 237.18 171.487 237.015 170.977 236.685C170.467 236.355 170.067 235.895 169.777 235.305C169.497 234.705 169.357 234.02 169.357 233.25C169.357 232.47 169.497 231.785 169.777 231.195C170.067 230.605 170.467 230.145 170.977 229.815C171.487 229.485 172.077 229.32 172.747 229.32C173.377 229.32 173.927 229.485 174.397 229.815C174.877 230.145 175.247 230.605 175.507 231.195C175.767 231.785 175.897 232.47 175.897 233.25C175.897 234.02 175.767 234.705 175.507 235.305C175.247 235.895 174.877 236.355 174.397 236.685C173.927 237.015 173.377 237.18 172.747 237.18ZM173.017 236.085C173.457 236.085 173.847 235.965 174.187 235.725C174.527 235.485 174.792 235.15 174.982 234.72C175.182 234.29 175.282 233.8 175.282 233.25C175.282 232.7 175.182 232.21 174.982 231.78C174.792 231.35 174.527 231.015 174.187 230.775C173.847 230.535 173.452 230.415 173.002 230.415C172.532 230.415 172.112 230.535 171.742 230.775C171.382 231.015 171.097 231.35 170.887 231.78C170.677 232.21 170.572 232.7 170.572 233.25C170.572 233.8 170.677 234.29 170.887 234.72C171.097 235.15 171.387 235.485 171.757 235.725C172.127 235.965 172.547 236.085 173.017 236.085ZM181.896 237.18C181.166 237.18 180.521 237.015 179.961 236.685C179.411 236.345 178.976 235.88 178.656 235.29C178.336 234.7 178.176 234.02 178.176 233.25C178.176 232.48 178.331 231.8 178.641 231.21C178.961 230.62 179.401 230.16 179.961 229.83C180.521 229.49 181.156 229.32 181.866 229.32C182.566 229.32 183.171 229.495 183.681 229.845C184.191 230.185 184.586 230.665 184.866 231.285C185.146 231.905 185.286 232.635 185.286 233.475H184.086C184.086 232.835 184.001 232.29 183.831 231.84C183.661 231.38 183.411 231.025 183.081 230.775C182.751 230.525 182.341 230.4 181.851 230.4C181.361 230.4 180.931 230.52 180.561 230.76C180.201 230.99 179.921 231.32 179.721 231.75C179.521 232.18 179.421 232.685 179.421 233.265C179.421 233.835 179.531 234.33 179.751 234.75C179.971 235.16 180.271 235.485 180.651 235.725C181.031 235.955 181.466 236.07 181.956 236.07C182.486 236.07 182.931 235.945 183.291 235.695C183.651 235.445 183.931 235.12 184.131 234.72L185.196 235.245C184.996 235.635 184.736 235.975 184.416 236.265C184.106 236.555 183.741 236.78 183.321 236.94C182.901 237.1 182.426 237.18 181.896 237.18ZM178.986 233.475V232.44H184.551V233.475H178.986ZM190.188 237.18C189.448 237.18 188.793 237.015 188.223 236.685C187.653 236.345 187.208 235.88 186.888 235.29C186.568 234.7 186.408 234.02 186.408 233.25C186.408 232.48 186.563 231.8 186.873 231.21C187.193 230.62 187.638 230.16 188.208 229.83C188.778 229.49 189.428 229.32 190.158 229.32C190.878 229.32 191.523 229.485 192.093 229.815C192.663 230.145 193.098 230.61 193.398 231.21L192.303 231.705C192.103 231.305 191.813 230.995 191.433 230.775C191.053 230.545 190.618 230.43 190.128 230.43C189.638 230.43 189.203 230.55 188.823 230.79C188.453 231.03 188.158 231.365 187.938 231.795C187.728 232.215 187.623 232.7 187.623 233.25C187.623 233.8 187.728 234.29 187.938 234.72C188.158 235.14 188.458 235.47 188.838 235.71C189.228 235.95 189.668 236.07 190.158 236.07C190.648 236.07 191.083 235.945 191.463 235.695C191.853 235.445 192.148 235.095 192.348 234.645L193.443 235.14C193.143 235.78 192.708 236.28 192.138 236.64C191.568 237 190.918 237.18 190.188 237.18ZM199.653 237L199.533 233.04C199.513 232.45 199.438 231.965 199.308 231.585C199.178 231.195 198.978 230.905 198.708 230.715C198.438 230.515 198.078 230.415 197.628 230.415C197.198 230.415 196.823 230.5 196.503 230.67C196.193 230.84 195.938 231.105 195.738 231.465L194.673 231.03C194.863 230.68 195.098 230.38 195.378 230.13C195.658 229.87 195.988 229.67 196.368 229.53C196.748 229.39 197.173 229.32 197.643 229.32C198.333 229.32 198.908 229.455 199.368 229.725C199.828 229.995 200.168 230.4 200.388 230.94C200.618 231.47 200.733 232.135 200.733 232.935V237H199.653ZM197.373 237.18C196.483 237.18 195.788 236.98 195.288 236.58C194.798 236.17 194.553 235.605 194.553 234.885C194.553 234.125 194.803 233.545 195.303 233.145C195.813 232.735 196.523 232.53 197.433 232.53H200.073V233.535H197.703C197.003 233.535 196.503 233.65 196.203 233.88C195.913 234.11 195.768 234.44 195.768 234.87C195.768 235.26 195.913 235.57 196.203 235.8C196.493 236.02 196.898 236.13 197.418 236.13C197.858 236.13 198.238 236.03 198.558 235.83C198.878 235.63 199.123 235.36 199.293 235.02C199.463 234.67 199.548 234.275 199.548 233.835H200.283C200.283 234.855 200.033 235.67 199.533 236.28C199.033 236.88 198.313 237.18 197.373 237.18ZM208.184 237L208.124 235.605V226.5H209.324V237H208.184ZM205.589 237.18C204.919 237.18 204.329 237.015 203.819 236.685C203.309 236.355 202.909 235.895 202.619 235.305C202.339 234.705 202.199 234.02 202.199 233.25C202.199 232.47 202.339 231.785 202.619 231.195C202.909 230.605 203.309 230.145 203.819 229.815C204.329 229.485 204.919 229.32 205.589 229.32C206.219 229.32 206.769 229.485 207.239 229.815C207.719 230.145 208.089 230.605 208.349 231.195C208.609 231.785 208.739 232.47 208.739 233.25C208.739 234.02 208.609 234.705 208.349 235.305C208.089 235.895 207.719 236.355 207.239 236.685C206.769 237.015 206.219 237.18 205.589 237.18ZM205.859 236.085C206.299 236.085 206.689 235.965 207.029 235.725C207.369 235.485 207.634 235.15 207.824 234.72C208.024 234.29 208.124 233.8 208.124 233.25C208.124 232.7 208.024 232.21 207.824 231.78C207.634 231.35 207.369 231.015 207.029 230.775C206.689 230.535 206.294 230.415 205.844 230.415C205.374 230.415 204.954 230.535 204.584 230.775C204.224 231.015 203.939 231.35 203.729 231.78C203.519 232.21 203.414 232.7 203.414 233.25C203.414 233.8 203.519 234.29 203.729 234.72C203.939 235.15 204.229 235.485 204.599 235.725C204.969 235.965 205.389 236.085 205.859 236.085ZM214.738 237.18C214.008 237.18 213.363 237.015 212.803 236.685C212.253 236.345 211.818 235.88 211.498 235.29C211.178 234.7 211.018 234.02 211.018 233.25C211.018 232.48 211.173 231.8 211.483 231.21C211.803 230.62 212.243 230.16 212.803 229.83C213.363 229.49 213.998 229.32 214.708 229.32C215.408 229.32 216.013 229.495 216.523 229.845C217.033 230.185 217.428 230.665 217.708 231.285C217.988 231.905 218.128 232.635 218.128 233.475H216.928C216.928 232.835 216.843 232.29 216.673 231.84C216.503 231.38 216.253 231.025 215.923 230.775C215.593 230.525 215.183 230.4 214.693 230.4C214.203 230.4 213.773 230.52 213.403 230.76C213.043 230.99 212.763 231.32 212.563 231.75C212.363 232.18 212.263 232.685 212.263 233.265C212.263 233.835 212.373 234.33 212.593 234.75C212.813 235.16 213.113 235.485 213.493 235.725C213.873 235.955 214.308 236.07 214.798 236.07C215.328 236.07 215.773 235.945 216.133 235.695C216.493 235.445 216.773 235.12 216.973 234.72L218.038 235.245C217.838 235.635 217.578 235.975 217.258 236.265C216.948 236.555 216.583 236.78 216.163 236.94C215.743 237.1 215.268 237.18 214.738 237.18ZM211.828 233.475V232.44H217.393V233.475H211.828ZM222.31 237.18C221.76 237.18 221.28 237.1 220.87 236.94C220.46 236.77 220.115 236.55 219.835 236.28C219.565 236.01 219.37 235.715 219.25 235.395L220.3 234.96C220.47 235.29 220.725 235.56 221.065 235.77C221.405 235.98 221.78 236.085 222.19 236.085C222.66 236.085 223.05 235.995 223.36 235.815C223.68 235.625 223.84 235.365 223.84 235.035C223.84 234.725 223.72 234.475 223.48 234.285C223.25 234.095 222.91 233.94 222.46 233.82L221.74 233.625C221.06 233.445 220.53 233.175 220.15 232.815C219.77 232.445 219.58 232.03 219.58 231.57C219.58 230.86 219.81 230.31 220.27 229.92C220.74 229.52 221.435 229.32 222.355 229.32C222.795 229.32 223.195 229.385 223.555 229.515C223.915 229.645 224.225 229.83 224.485 230.07C224.745 230.3 224.935 230.575 225.055 230.895L224.005 231.36C223.875 231.02 223.66 230.78 223.36 230.64C223.06 230.49 222.695 230.415 222.265 230.415C221.805 230.415 221.445 230.51 221.185 230.7C220.925 230.89 220.795 231.16 220.795 231.51C220.795 231.71 220.9 231.9 221.11 232.08C221.33 232.25 221.65 232.39 222.07 232.5L222.82 232.695C223.31 232.815 223.72 232.995 224.05 233.235C224.38 233.465 224.63 233.73 224.8 234.03C224.97 234.33 225.055 234.65 225.055 234.99C225.055 235.44 224.935 235.83 224.695 236.16C224.455 236.49 224.13 236.745 223.72 236.925C223.31 237.095 222.84 237.18 222.31 237.18ZM227.182 237.21C226.952 237.21 226.752 237.13 226.582 236.97C226.422 236.8 226.342 236.605 226.342 236.385C226.342 236.155 226.422 235.96 226.582 235.8C226.752 235.63 226.952 235.545 227.182 235.545C227.412 235.545 227.607 235.63 227.767 235.8C227.927 235.96 228.007 236.155 228.007 236.385C228.007 236.605 227.927 236.8 227.767 236.97C227.607 237.13 227.412 237.21 227.182 237.21Z" fill="#263238"/>
<path d="M199.318 110.27C198.346 110.27 197.488 110.072 196.744 109.676C196.012 109.268 195.442 108.704 195.034 107.984C194.626 107.252 194.422 106.412 194.422 105.464H196.186C196.186 106.088 196.318 106.64 196.582 107.12C196.858 107.6 197.23 107.972 197.698 108.236C198.178 108.5 198.73 108.632 199.354 108.632C199.978 108.632 200.53 108.5 201.01 108.236C201.49 107.972 201.862 107.6 202.126 107.12C202.39 106.64 202.522 106.088 202.522 105.464H204.304C204.304 106.412 204.094 107.252 203.674 107.984C203.266 108.704 202.684 109.268 201.928 109.676C201.184 110.072 200.314 110.27 199.318 110.27ZM194.422 105.464V97.4H196.186V105.464H194.422ZM202.522 105.464V97.4H204.304V105.464H202.522ZM211.379 110.216C210.707 110.216 210.095 110.138 209.543 109.982C209.003 109.826 208.529 109.616 208.121 109.352C207.725 109.076 207.395 108.77 207.131 108.434C206.867 108.098 206.681 107.744 206.573 107.372L208.283 106.814C208.463 107.306 208.805 107.732 209.309 108.092C209.813 108.452 210.431 108.638 211.163 108.65C212.051 108.65 212.747 108.476 213.251 108.128C213.767 107.768 214.025 107.294 214.025 106.706C214.025 106.166 213.803 105.728 213.359 105.392C212.915 105.044 212.327 104.78 211.595 104.6L210.137 104.222C209.561 104.066 209.033 103.844 208.553 103.556C208.085 103.268 207.713 102.902 207.437 102.458C207.161 102.014 207.023 101.48 207.023 100.856C207.023 99.704 207.395 98.804 208.139 98.156C208.895 97.508 209.981 97.184 211.397 97.184C212.213 97.184 212.921 97.316 213.521 97.58C214.121 97.832 214.613 98.168 214.997 98.588C215.393 99.008 215.675 99.47 215.843 99.974L214.133 100.55C213.929 100.01 213.581 99.578 213.089 99.254C212.597 98.918 211.991 98.75 211.271 98.75C210.515 98.75 209.915 98.93 209.471 99.29C209.039 99.65 208.823 100.142 208.823 100.766C208.823 101.294 208.991 101.702 209.327 101.99C209.675 102.266 210.137 102.476 210.713 102.62L212.171 102.98C213.347 103.268 214.253 103.748 214.889 104.42C215.537 105.08 215.861 105.806 215.861 106.598C215.861 107.282 215.687 107.9 215.339 108.452C215.003 108.992 214.499 109.424 213.827 109.748C213.167 110.06 212.351 110.216 211.379 110.216ZM227.044 110L222.058 97.4H223.858L228.934 110H227.044ZM216.892 110L221.968 97.4H223.768L218.782 110H216.892ZM219.286 106.634V105.05H226.54V106.634H219.286ZM240.538 110.216C239.314 110.216 238.228 109.94 237.28 109.388C236.332 108.836 235.588 108.068 235.048 107.084C234.52 106.1 234.256 104.972 234.256 103.7C234.256 102.74 234.406 101.864 234.706 101.072C235.018 100.28 235.45 99.596 236.002 99.02C236.554 98.432 237.208 97.982 237.964 97.67C238.732 97.346 239.572 97.184 240.484 97.184C241.708 97.184 242.788 97.466 243.724 98.03C244.672 98.582 245.41 99.35 245.938 100.334C246.466 101.306 246.73 102.428 246.73 103.7C246.73 104.972 246.466 106.1 245.938 107.084C245.41 108.068 244.678 108.836 243.742 109.388C242.818 109.94 241.75 110.216 240.538 110.216ZM245.578 110.72L241.042 106.13L242.194 105.014L246.712 109.586L245.578 110.72ZM240.538 108.596C241.402 108.596 242.164 108.386 242.824 107.966C243.484 107.546 244 106.97 244.372 106.238C244.744 105.506 244.93 104.66 244.93 103.7C244.93 102.752 244.738 101.912 244.354 101.18C243.982 100.436 243.46 99.854 242.788 99.434C242.128 99.014 241.366 98.804 240.502 98.804C239.638 98.804 238.87 99.014 238.198 99.434C237.526 99.854 236.998 100.436 236.614 101.18C236.242 101.912 236.056 102.752 236.056 103.7C236.056 104.66 236.248 105.506 236.632 106.238C237.016 106.97 237.544 107.546 238.216 107.966C238.9 108.386 239.674 108.596 240.538 108.596ZM254.871 110L254.763 108.344V101H256.455V110H254.871ZM248.535 106.148V101H250.245V105.608L248.535 106.148ZM250.245 105.608C250.245 106.412 250.335 107.03 250.515 107.462C250.707 107.894 250.971 108.194 251.307 108.362C251.643 108.53 252.021 108.62 252.441 108.632C253.173 108.632 253.743 108.374 254.151 107.858C254.559 107.342 254.763 106.616 254.763 105.68H255.501C255.501 106.628 255.363 107.444 255.087 108.128C254.811 108.8 254.409 109.316 253.881 109.676C253.365 110.036 252.741 110.216 252.009 110.216C250.929 110.216 250.077 109.88 249.453 109.208C248.841 108.536 248.535 107.516 248.535 106.148L250.245 105.608ZM264.438 110L264.312 105.302C264.3 104.642 264.222 104.096 264.078 103.664C263.934 103.22 263.712 102.884 263.412 102.656C263.112 102.428 262.71 102.314 262.206 102.314C261.738 102.314 261.324 102.41 260.964 102.602C260.616 102.794 260.328 103.094 260.1 103.502L258.57 102.926C258.786 102.518 259.056 102.152 259.38 101.828C259.716 101.504 260.118 101.252 260.586 101.072C261.066 100.88 261.612 100.784 262.224 100.784C263.076 100.784 263.784 100.946 264.348 101.27C264.912 101.594 265.332 102.08 265.608 102.728C265.896 103.364 266.04 104.156 266.04 105.104V110H264.438ZM261.792 110.216C260.724 110.216 259.89 109.976 259.29 109.496C258.702 109.004 258.408 108.326 258.408 107.462C258.408 106.538 258.714 105.836 259.326 105.356C259.938 104.864 260.802 104.618 261.918 104.618H264.924L264.942 105.968H262.386C261.558 105.968 260.97 106.1 260.622 106.364C260.286 106.616 260.118 106.97 260.118 107.426C260.118 107.846 260.28 108.176 260.604 108.416C260.928 108.644 261.372 108.758 261.936 108.758C262.428 108.758 262.848 108.644 263.196 108.416C263.556 108.188 263.832 107.888 264.024 107.516C264.228 107.132 264.33 106.706 264.33 106.238H265.158C265.158 107.462 264.876 108.434 264.312 109.154C263.748 109.862 262.908 110.216 261.792 110.216ZM268.192 110L268.228 97.4H269.92L269.902 110H268.192ZM272.413 110L272.449 101H274.141L274.123 110H272.413ZM273.277 99.092C273.001 99.092 272.761 98.99 272.557 98.786C272.353 98.57 272.251 98.324 272.251 98.048C272.251 97.76 272.353 97.52 272.557 97.328C272.761 97.124 273.001 97.022 273.277 97.022C273.565 97.022 273.805 97.124 273.997 97.328C274.201 97.52 274.303 97.76 274.303 98.048C274.303 98.324 274.201 98.57 273.997 98.786C273.805 98.99 273.565 99.092 273.277 99.092ZM280.283 110.216C279.383 110.216 278.687 109.988 278.195 109.532C277.703 109.064 277.457 108.398 277.457 107.534V98.192H279.167V107.282C279.167 107.726 279.275 108.068 279.491 108.308C279.719 108.536 280.043 108.65 280.463 108.65C280.583 108.65 280.715 108.626 280.859 108.578C281.003 108.53 281.177 108.434 281.381 108.29L282.029 109.622C281.717 109.826 281.417 109.976 281.129 110.072C280.853 110.168 280.571 110.216 280.283 110.216ZM275.927 102.476V101H281.723V102.476H275.927ZM284.759 113.816C284.495 113.816 284.201 113.768 283.877 113.672C283.565 113.576 283.241 113.45 282.905 113.294L283.535 111.89C283.799 112.01 284.027 112.1 284.219 112.16C284.423 112.22 284.585 112.25 284.705 112.25C285.005 112.25 285.257 112.166 285.461 111.998C285.677 111.83 285.851 111.596 285.983 111.296L287.027 108.83L290.231 101H292.067L287.801 111.116C287.573 111.668 287.333 112.148 287.081 112.556C286.829 112.964 286.517 113.276 286.145 113.492C285.785 113.708 285.323 113.816 284.759 113.816ZM286.559 110L282.617 101H284.435L287.693 108.812L288.215 110H286.559ZM195.664 138V136.398H199.066C199.81 136.398 200.386 136.224 200.794 135.876C201.214 135.516 201.424 135.036 201.424 134.436C201.424 133.764 201.184 133.242 200.704 132.87C200.236 132.498 199.576 132.318 198.724 132.33H195.664V130.872L197.842 130.89C198.946 130.89 199.9 131.022 200.704 131.286C201.52 131.55 202.144 131.952 202.576 132.492C203.008 133.032 203.224 133.71 203.224 134.526C203.224 135.258 203.056 135.888 202.72 136.416C202.396 136.932 201.934 137.328 201.334 137.604C200.734 137.868 200.014 138 199.174 138H195.664ZM194.602 138V125.4H196.348V138H194.602ZM195.628 132.384V130.818H198.94C199.588 130.818 200.098 130.644 200.47 130.296C200.854 129.948 201.046 129.468 201.046 128.856C201.046 128.22 200.83 127.728 200.398 127.38C199.966 127.032 199.36 126.864 198.58 126.876H195.628V125.418L198.652 125.382C199.516 125.382 200.254 125.52 200.866 125.796C201.49 126.06 201.97 126.45 202.306 126.966C202.654 127.482 202.828 128.118 202.828 128.874C202.828 129.546 202.636 130.14 202.252 130.656C201.88 131.172 201.346 131.574 200.65 131.862C199.954 132.15 199.132 132.294 198.184 132.294L195.628 132.384ZM211.312 138L211.204 136.344V129H212.896V138H211.312ZM204.976 134.148V129H206.686V133.608L204.976 134.148ZM206.686 133.608C206.686 134.412 206.776 135.03 206.956 135.462C207.148 135.894 207.412 136.194 207.748 136.362C208.084 136.53 208.462 136.62 208.882 136.632C209.614 136.632 210.184 136.374 210.592 135.858C211 135.342 211.204 134.616 211.204 133.68H211.942C211.942 134.628 211.804 135.444 211.528 136.128C211.252 136.8 210.85 137.316 210.322 137.676C209.806 138.036 209.182 138.216 208.45 138.216C207.37 138.216 206.518 137.88 205.894 137.208C205.282 136.536 204.976 135.516 204.976 134.148L206.686 133.608ZM215.39 138L215.426 129H217.118L217.1 138H215.39ZM216.254 127.092C215.978 127.092 215.738 126.99 215.534 126.786C215.33 126.57 215.228 126.324 215.228 126.048C215.228 125.76 215.33 125.52 215.534 125.328C215.738 125.124 215.978 125.022 216.254 125.022C216.542 125.022 216.782 125.124 216.974 125.328C217.178 125.52 217.28 125.76 217.28 126.048C217.28 126.324 217.178 126.57 216.974 126.786C216.782 126.99 216.542 127.092 216.254 127.092ZM219.606 138L219.642 125.4H221.334L221.316 138H219.606ZM230.307 138L230.235 136.326V125.4H231.927V138H230.307ZM227.283 138.216C226.467 138.216 225.753 138.018 225.141 137.622C224.541 137.226 224.067 136.674 223.719 135.966C223.383 135.258 223.215 134.436 223.215 133.5C223.215 132.552 223.383 131.73 223.719 131.034C224.067 130.326 224.541 129.774 225.141 129.378C225.753 128.982 226.467 128.784 227.283 128.784C228.039 128.784 228.693 128.982 229.245 129.378C229.809 129.774 230.241 130.326 230.541 131.034C230.841 131.73 230.991 132.552 230.991 133.5C230.991 134.436 230.841 135.258 230.541 135.966C230.241 136.674 229.809 137.226 229.245 137.622C228.693 138.018 228.039 138.216 227.283 138.216ZM227.679 136.668C228.183 136.668 228.627 136.536 229.011 136.272C229.395 135.996 229.695 135.624 229.911 135.156C230.127 134.676 230.235 134.124 230.235 133.5C230.235 132.876 230.127 132.33 229.911 131.862C229.695 131.382 229.395 131.01 229.011 130.746C228.627 130.47 228.177 130.332 227.661 130.332C227.133 130.332 226.665 130.47 226.257 130.746C225.849 131.01 225.531 131.382 225.303 131.862C225.075 132.33 224.961 132.876 224.961 133.5C224.961 134.124 225.075 134.676 225.303 135.156C225.543 135.624 225.867 135.996 226.275 136.272C226.683 136.536 227.151 136.668 227.679 136.668Z" fill="#263238"/>
<path d="M172.785 141.038L157.272 125.879L158.095 125.636C159.618 125.196 161.197 124.744 161.92 123.521C162.642 122.297 162.247 120.777 161.92 119.279C161.579 118.287 161.466 117.234 161.591 116.195C162.006 115.272 162.622 114.449 163.397 113.782C164.525 112.681 165.653 111.469 165.653 110.026C165.653 108.582 164.525 107.404 163.397 106.269C162.622 105.603 162.006 104.779 161.591 103.856C161.466 102.817 161.578 101.763 161.918 100.771C162.279 99.2726 162.663 97.7307 161.918 96.5291C161.174 95.3275 159.662 94.8546 158.093 94.4135C157.058 94.2107 156.082 93.7854 155.235 93.1685C154.603 92.3421 154.168 91.3888 153.96 90.3778C153.509 88.8901 153.046 87.3482 151.794 86.6428C150.541 85.9373 148.984 86.3125 147.449 86.6428C146.433 86.9753 145.355 87.0844 144.29 86.9621C143.347 86.558 142.505 85.9577 141.823 85.2032C140.695 84.1016 139.454 83 137.976 83C136.497 83 135.291 84.1016 134.128 85.2032C133.447 85.9591 132.605 86.5607 131.661 86.966C130.597 87.0883 129.518 86.9792 128.502 86.6466C126.967 86.283 125.388 85.9195 124.158 86.6466C122.927 87.3738 122.443 88.8498 121.991 90.3816C121.783 91.3927 121.348 92.346 120.716 93.1724C119.87 93.7893 118.894 94.2145 117.858 94.4174C116.335 94.8577 114.756 95.3097 114.033 96.533C113.311 97.7563 113.706 99.2765 114.033 100.763C114.373 101.759 114.485 102.816 114.36 103.859C113.946 104.782 113.329 105.605 112.555 106.271C111.43 107.37 110.305 108.582 110.305 110.025C110.305 111.468 111.433 112.647 112.561 113.782C113.336 114.448 113.952 115.271 114.367 116.194C114.491 117.237 114.38 118.294 114.039 119.29C113.678 120.777 113.295 122.319 114.039 123.52C114.784 124.721 116.296 125.194 117.864 125.635L118.688 125.878L103.171 141.038C103.093 141.11 103.038 141.203 103.014 141.305C102.99 141.407 102.997 141.513 103.035 141.611C103.069 141.708 103.131 141.794 103.213 141.858C103.295 141.923 103.394 141.963 103.498 141.975L113.212 143.076L114.284 152.507C114.295 152.611 114.337 152.709 114.406 152.79C114.474 152.87 114.565 152.929 114.667 152.959C114.727 152.97 114.788 152.97 114.848 152.959C115 152.959 115.146 152.899 115.254 152.794L133.815 134.527L134.132 134.813C135.261 135.915 136.501 137.016 137.98 137.016C139.458 137.016 140.665 135.915 141.827 134.813L142.144 134.527L160.702 152.827C160.81 152.932 160.956 152.992 161.108 152.992C161.168 153.003 161.229 153.003 161.289 152.992C161.391 152.962 161.482 152.903 161.551 152.823C161.619 152.742 161.661 152.644 161.672 152.54L162.8 143.076L172.515 141.975C172.619 141.963 172.718 141.923 172.8 141.858C172.882 141.794 172.943 141.708 172.977 141.611C173.009 141.508 173.007 141.398 172.973 141.295C172.939 141.193 172.873 141.103 172.785 141.038ZM115.243 151.229L114.251 142.416C114.234 142.293 114.177 142.179 114.087 142.091C113.997 142.004 113.88 141.947 113.754 141.931L104.728 140.962L119.832 126.319L120.012 126.408L120.226 126.529C120.401 126.628 120.564 126.746 120.711 126.881C121.343 127.708 121.779 128.661 121.986 129.672C122.437 131.16 122.9 132.702 124.153 133.407C125.406 134.112 126.963 133.726 128.497 133.407C129.513 133.074 130.592 132.965 131.656 133.088C131.856 133.15 132.049 133.231 132.232 133.33H132.288C132.485 133.442 132.673 133.568 132.853 133.705H132.909L115.243 151.229ZM137.978 135.916C136.952 135.916 135.914 134.957 134.909 134.021C134.671 133.788 134.424 133.569 134.175 133.349C133.983 133.184 133.792 133.019 133.577 132.864L133.385 132.721C133.225 132.602 133.055 132.495 132.877 132.402L132.674 132.281C132.445 132.16 132.202 132.064 131.952 131.995C131.683 131.925 131.406 131.888 131.128 131.884H130.013C129.768 131.898 129.526 131.938 129.29 132.005H129.052L128.229 132.193C126.852 132.512 125.555 132.813 124.72 132.336C123.885 131.86 123.456 130.529 123.073 129.252C122.831 128.045 122.297 126.912 121.516 125.947C121.309 125.752 121.082 125.579 120.838 125.429H120.784C120.563 125.3 120.333 125.186 120.096 125.087L119.927 125.153C119.371 124.933 118.799 124.766 118.189 124.591C116.88 124.217 115.526 123.82 115.03 122.983C114.534 122.145 114.85 120.9 115.177 119.556C115.579 118.387 115.688 117.14 115.495 115.92C115.05 114.809 114.338 113.819 113.419 113.034C112.471 112.054 111.478 111.04 111.478 110.037C111.478 109.034 112.472 108.022 113.419 107.04C114.338 106.255 115.05 105.265 115.495 104.154C115.688 102.935 115.579 101.688 115.177 100.518C114.85 99.1742 114.534 97.9074 115.03 97.0919C115.526 96.2764 116.881 95.8578 118.189 95.4833C119.426 95.2475 120.586 94.7263 121.574 93.9631C122.36 93.001 122.895 91.8665 123.131 90.6576C123.515 89.3793 123.921 88.0575 124.779 87.573C125.636 87.0885 126.911 87.397 128.288 87.7164C129.486 88.1092 130.762 88.2155 132.011 88.0265C133.149 87.5927 134.163 86.8973 134.967 85.9993C135.971 85.0737 137.009 84.1047 138.036 84.1047C139.063 84.1047 140.1 85.0745 141.105 85.9993C141.909 86.8973 142.923 87.5927 144.061 88.0265C145.31 88.2155 146.587 88.1092 147.784 87.7164C149.161 87.397 150.458 87.0963 151.293 87.573C152.129 88.0498 152.556 89.38 152.938 90.6568C153.179 91.8642 153.713 92.9975 154.494 93.9624C155.483 94.7255 156.643 95.2467 157.88 95.4826C159.189 95.857 160.542 96.2539 161.039 97.0911C161.535 97.9284 161.219 99.1734 160.892 100.518C160.49 101.687 160.381 102.934 160.574 104.153C161.018 105.264 161.731 106.255 162.65 107.04C163.598 108.02 164.591 109.033 164.591 110.037C164.591 111.04 163.597 112.052 162.65 113.034C161.731 113.818 161.018 114.809 160.574 115.92C160.381 117.139 160.49 118.386 160.892 119.555C161.219 120.9 161.535 122.166 161.039 122.982C160.542 123.797 159.188 124.216 157.88 124.59C157.293 124.766 156.752 124.932 156.133 125.152L155.964 125.23C155.726 125.322 155.496 125.433 155.276 125.56C155.027 125.707 154.796 125.88 154.587 126.078C153.806 127.042 153.272 128.175 153.03 129.381C152.646 130.66 152.24 131.981 151.382 132.466C150.454 132.801 149.434 132.801 148.505 132.466L147.87 132.322C146.945 132.06 145.99 131.916 145.027 131.893C144.73 131.899 144.434 131.94 144.147 132.014C143.896 132.083 143.654 132.179 143.424 132.3L143.221 132.41L142.702 132.752L142.522 132.873L141.924 133.369C141.675 133.589 141.428 133.809 141.19 134.041C140.043 134.946 139.005 135.916 137.978 135.916ZM162.168 141.975C162.043 141.991 161.926 142.047 161.836 142.135C161.746 142.222 161.689 142.336 161.672 142.459L160.679 151.273L142.988 133.789H143.055C143.234 133.652 143.423 133.527 143.62 133.415H143.676C143.859 133.316 144.052 133.234 144.252 133.172C144.758 133.072 145.28 133.072 145.786 133.172C146.333 133.254 146.876 133.364 147.41 133.502L147.67 133.557C148.913 133.994 150.268 134.021 151.528 133.635C151.607 133.609 151.682 133.575 151.754 133.536C153.007 132.83 153.469 131.333 153.92 129.801C154.123 128.741 154.574 127.741 155.24 126.881C155.388 126.746 155.55 126.628 155.725 126.529L155.95 126.408L156.12 126.319L171.159 141.005L162.168 141.975Z" fill="#263238" stroke="#263238"/>
<path d="M121.679 105.926C121.542 105.887 121.397 105.916 121.276 106.006C121.156 106.096 121.07 106.241 121.037 106.408C120.961 106.867 120.886 107.308 120.823 107.712C120.801 107.881 120.835 108.054 120.917 108.192C121 108.331 121.123 108.426 121.262 108.454H121.349C121.477 108.456 121.602 108.402 121.701 108.301C121.799 108.2 121.864 108.059 121.884 107.904C121.913 107.462 121.981 107.025 122.088 106.601C122.096 106.448 122.06 106.296 121.986 106.172C121.912 106.048 121.804 105.96 121.681 105.923L121.679 105.926Z" fill="#263238" stroke="#263238"/>
<path d="M121.324 111.004C121.251 111.011 121.18 111.035 121.114 111.074C121.049 111.113 120.992 111.166 120.945 111.231C120.898 111.297 120.862 111.372 120.841 111.453C120.819 111.534 120.812 111.619 120.819 111.703C120.833 112.14 120.886 112.574 120.977 112.999C120.996 113.152 121.062 113.291 121.164 113.392C121.265 113.492 121.395 113.547 121.529 113.545H121.623C121.768 113.517 121.897 113.423 121.984 113.285C122.07 113.147 122.105 112.975 122.082 112.807C122.015 112.38 121.971 111.965 121.937 111.512C121.907 111.354 121.828 111.215 121.715 111.121C121.602 111.027 121.462 110.986 121.324 111.004Z" fill="#263238" stroke="#263238"/>
<path d="M122.921 117.555C122.899 117.516 122.865 117.481 122.824 117.452C122.782 117.422 122.733 117.399 122.679 117.384C122.626 117.369 122.568 117.362 122.511 117.364C122.454 117.366 122.397 117.376 122.345 117.394C122.242 117.43 122.161 117.495 122.121 117.575C122.08 117.655 122.082 117.743 122.127 117.821C122.258 118.028 122.398 118.236 122.546 118.468C122.585 118.519 122.64 118.561 122.708 118.591C122.775 118.62 122.852 118.636 122.93 118.636C123.003 118.636 123.075 118.623 123.139 118.598C123.24 118.555 123.314 118.486 123.346 118.404C123.379 118.322 123.367 118.234 123.314 118.158C123.175 117.938 123.044 117.75 122.921 117.555Z" fill="#263238" stroke="#263238"/>
<path d="M125.876 121.394C125.739 121.258 125.555 121.182 125.363 121.182C125.172 121.182 124.988 121.258 124.85 121.394C124.783 121.463 124.729 121.544 124.692 121.634C124.656 121.724 124.637 121.821 124.637 121.918C124.637 122.016 124.656 122.112 124.692 122.202C124.729 122.292 124.783 122.374 124.85 122.442C125.211 122.811 125.573 123.181 125.948 123.535C126.085 123.656 126.259 123.725 126.44 123.727C126.641 123.722 126.833 123.638 126.974 123.492C127.108 123.351 127.182 123.163 127.182 122.967C127.182 122.772 127.108 122.584 126.974 122.443C126.582 122.124 126.214 121.773 125.876 121.394Z" fill="#263238" stroke="#263238"/>
<path d="M123.166 100.867C123.071 100.821 122.958 100.807 122.85 100.827C122.742 100.847 122.647 100.9 122.587 100.975C122.428 101.178 122.285 101.381 122.142 101.597C122.116 101.636 122.1 101.678 122.094 101.722C122.088 101.765 122.093 101.81 122.109 101.852C122.125 101.894 122.15 101.933 122.185 101.967C122.219 102.001 122.262 102.029 122.31 102.05C122.372 102.076 122.441 102.09 122.511 102.091C122.587 102.091 122.661 102.075 122.726 102.044C122.792 102.013 122.845 101.969 122.881 101.915C123.015 101.719 123.149 101.523 123.301 101.333C123.33 101.296 123.35 101.254 123.359 101.21C123.368 101.166 123.366 101.121 123.354 101.078C123.341 101.034 123.318 100.993 123.286 100.957C123.254 100.921 123.213 100.89 123.166 100.867V100.867Z" fill="#263238" stroke="#263238"/>
<path d="M150.858 122.453C150.963 122.455 151.067 122.435 151.163 122.397C151.26 122.358 151.346 122.301 151.417 122.229C151.78 121.849 152.113 121.471 152.445 121.078C152.514 121.006 152.566 120.921 152.598 120.83C152.63 120.738 152.642 120.641 152.632 120.546C152.622 120.45 152.591 120.357 152.541 120.272C152.491 120.188 152.423 120.114 152.341 120.055C152.259 119.997 152.165 119.954 152.064 119.93C151.964 119.907 151.859 119.903 151.757 119.918C151.655 119.934 151.557 119.969 151.47 120.021C151.383 120.073 151.308 120.141 151.25 120.221C150.948 120.585 150.63 120.937 150.293 121.288C150.192 121.387 150.125 121.512 150.1 121.647C150.076 121.781 150.095 121.92 150.154 122.044C150.214 122.169 150.312 122.274 150.437 122.347C150.561 122.42 150.705 122.457 150.852 122.454L150.858 122.453Z" fill="#263238" stroke="#263238"/>
<path d="M154.21 105.667C154.241 105.736 154.305 105.797 154.392 105.841C154.479 105.885 154.584 105.909 154.692 105.909H154.82C154.945 105.885 155.051 105.829 155.116 105.753C155.18 105.677 155.198 105.588 155.164 105.503C155.076 105.28 154.969 105.064 154.861 104.848C154.814 104.768 154.724 104.703 154.608 104.667C154.492 104.631 154.36 104.627 154.239 104.655C154.119 104.683 154.019 104.741 153.961 104.818C153.904 104.894 153.892 104.982 153.93 105.064C154.034 105.26 154.131 105.47 154.21 105.667Z" fill="#263238" stroke="#263238"/>
<path d="M154.213 117.35C154.27 117.368 154.329 117.368 154.387 117.35C154.477 117.349 154.566 117.311 154.641 117.24C154.716 117.169 154.774 117.068 154.808 116.951C154.937 116.539 155.046 116.115 155.157 115.666C155.196 115.505 155.187 115.329 155.134 115.176C155.081 115.024 154.987 114.907 154.872 114.852C154.757 114.798 154.631 114.809 154.521 114.884C154.411 114.958 154.327 115.09 154.285 115.25C154.185 115.649 154.084 116.047 153.963 116.446C153.932 116.527 153.913 116.616 153.909 116.708C153.905 116.799 153.915 116.891 153.938 116.977C153.962 117.062 153.999 117.14 154.046 117.203C154.093 117.267 154.149 117.316 154.211 117.346L154.213 117.35Z" fill="#263238" stroke="#263238"/>
<path d="M151.923 100.667C151.958 100.713 152.006 100.751 152.062 100.777C152.118 100.804 152.181 100.818 152.244 100.818C152.324 100.819 152.401 100.797 152.465 100.756C152.508 100.731 152.544 100.699 152.572 100.662C152.6 100.624 152.62 100.582 152.629 100.538C152.639 100.494 152.638 100.448 152.627 100.404C152.617 100.36 152.596 100.319 152.567 100.282C152.417 100.08 152.254 99.8852 152.081 99.698C152.051 99.6588 152.013 99.6255 151.967 99.6C151.922 99.5745 151.872 99.5575 151.818 99.5499C151.765 99.5423 151.711 99.5444 151.659 99.5559C151.607 99.5675 151.558 99.5883 151.516 99.6171C151.473 99.6458 151.438 99.682 151.412 99.7232C151.386 99.7645 151.37 99.81 151.365 99.8569C151.36 99.9037 151.366 99.951 151.383 99.9958C151.399 100.041 151.426 100.082 151.462 100.117C151.617 100.296 151.774 100.482 151.923 100.667Z" fill="#263238" stroke="#263238"/>
<path d="M155.186 110.374V111.615C155.179 111.696 155.189 111.777 155.216 111.854C155.243 111.931 155.287 112.002 155.343 112.063C155.4 112.125 155.469 112.175 155.546 112.211C155.624 112.247 155.708 112.268 155.794 112.273C155.961 112.273 156.122 112.215 156.245 112.109C156.367 112.003 156.443 111.857 156.456 111.702V110.3C156.455 110.221 156.436 110.143 156.402 110.071C156.367 109.999 156.317 109.935 156.256 109.881C156.194 109.828 156.121 109.787 156.042 109.761C155.962 109.734 155.878 109.723 155.794 109.729C155.626 109.747 155.471 109.823 155.358 109.942C155.246 110.061 155.184 110.215 155.186 110.374Z" fill="#263238" stroke="#263238"/>
<path d="M136.827 126.405C136.404 126.391 135.984 126.35 135.568 126.282C135.484 126.268 135.398 126.27 135.314 126.287C135.231 126.304 135.152 126.336 135.083 126.381C135.014 126.426 134.955 126.483 134.911 126.549C134.867 126.614 134.838 126.687 134.827 126.763C134.815 126.839 134.82 126.916 134.842 126.99C134.864 127.064 134.903 127.133 134.955 127.194C135.008 127.254 135.074 127.304 135.149 127.341C135.224 127.378 135.306 127.401 135.391 127.409C135.819 127.47 136.26 127.515 136.712 127.545C136.797 127.548 136.881 127.535 136.961 127.508C137.04 127.481 137.112 127.44 137.173 127.388C137.234 127.335 137.282 127.272 137.316 127.202C137.349 127.132 137.366 127.057 137.366 126.981C137.366 126.905 137.349 126.83 137.316 126.76C137.282 126.691 137.234 126.627 137.173 126.575C137.112 126.522 137.04 126.481 136.961 126.454C136.881 126.427 136.797 126.414 136.712 126.417L136.827 126.405Z" fill="#263238" stroke="#263238"/>
<path d="M131.332 95.7139C131.378 95.7318 131.423 95.7318 131.469 95.7139C131.663 95.4499 131.857 95.2255 132.058 95.0011C132.098 94.9608 132.135 94.8973 132.167 94.8146C132.199 94.7319 132.225 94.6315 132.243 94.5195C132.261 94.4075 132.271 94.2861 132.273 94.1625C132.274 94.0389 132.267 93.9157 132.252 93.8C132.223 93.5663 132.163 93.3758 132.085 93.2704C132.007 93.165 131.918 93.1532 131.837 93.2378L131.19 93.9875C131.112 94.09 131.051 94.2778 131.021 94.5098C130.991 94.7418 130.993 94.9991 131.028 95.2255C131.057 95.3833 131.101 95.5135 131.155 95.6001C131.209 95.6868 131.271 95.7263 131.332 95.7139Z" fill="#263238" stroke="#263238"/>
<path d="M131.834 125.427C131.446 125.312 131.056 125.179 130.667 125.048C130.515 124.996 130.339 124.986 130.177 125.02C130.014 125.055 129.878 125.132 129.799 125.234C129.72 125.338 129.705 125.459 129.756 125.571C129.807 125.683 129.921 125.777 130.072 125.832C130.494 125.98 130.927 126.112 131.369 126.229C131.449 126.257 131.538 126.272 131.628 126.273C131.754 126.271 131.876 126.245 131.982 126.199C132.087 126.152 132.171 126.086 132.225 126.009C132.258 125.954 132.274 125.894 132.272 125.835C132.27 125.775 132.25 125.716 132.214 125.662C132.178 125.608 132.125 125.559 132.06 125.519C131.995 125.478 131.919 125.448 131.836 125.428L131.834 125.427Z" fill="#263238" stroke="#263238"/>
<path d="M142.216 127.304C142.256 127.287 142.294 127.257 142.327 127.215C142.36 127.174 142.388 127.122 142.409 127.063C142.43 127.004 142.444 126.938 142.449 126.87C142.455 126.802 142.453 126.732 142.442 126.666C142.433 126.599 142.415 126.537 142.391 126.482C142.367 126.428 142.336 126.381 142.301 126.346C142.266 126.311 142.227 126.288 142.186 126.278C142.146 126.268 142.105 126.272 142.065 126.289C141.864 126.373 141.656 126.446 141.436 126.51C141.354 126.535 141.282 126.613 141.235 126.727C141.188 126.84 141.17 126.98 141.185 127.116C141.197 127.237 141.235 127.347 141.292 127.426C141.349 127.505 141.42 127.547 141.494 127.545H141.551C141.788 127.472 142.002 127.398 142.216 127.304Z" fill="#263238" stroke="#263238"/>
<path d="M136.718 93.1819H138.003C138.087 93.1819 138.171 93.1819 138.248 93.1819C138.326 93.1819 138.396 93.1819 138.455 93.1819C138.514 93.1819 138.56 93.1819 138.591 93.1819C138.622 93.1819 138.637 93.1819 138.635 93.1819C138.629 93.1819 138.556 93.1819 138.431 93.1819C138.306 93.1819 138.139 93.1819 137.967 93.1819H136.683C136.599 93.1819 136.516 93.1819 136.441 93.1819C136.365 93.1819 136.298 93.1819 136.243 93.1819C136.189 93.1819 136.147 93.1819 136.121 93.1819C136.095 93.1819 136.085 93.1819 136.092 93.1819C136.112 93.1819 136.185 93.1819 136.3 93.1819C136.414 93.1819 136.562 93.1819 136.718 93.1819Z" fill="#263238" stroke="#263238"/>
<path d="M147.704 96.4635C147.899 96.6077 148.085 96.7597 148.264 96.9197C148.324 96.972 148.397 97.0001 148.472 96.9997C148.526 97.001 148.579 96.9871 148.627 96.9592C148.675 96.9314 148.717 96.8903 148.748 96.8397C148.804 96.7548 148.827 96.648 148.814 96.543C148.801 96.4379 148.753 96.343 148.679 96.2793C148.484 96.1103 148.285 95.9509 148.084 95.7909C148.006 95.7334 147.911 95.7137 147.821 95.7361C147.73 95.7585 147.65 95.8213 147.6 95.9109C147.55 96.0002 147.533 96.1085 147.553 96.2121C147.572 96.3157 147.627 96.4061 147.704 96.4635Z" fill="#263238" stroke="#263238"/>
<path d="M126.586 97.0901L126.015 97.6134C125.982 97.6487 125.956 97.6906 125.938 97.7368C125.919 97.783 125.91 97.8325 125.91 97.8826C125.91 97.9326 125.919 97.9821 125.938 98.0283C125.956 98.0745 125.982 98.1164 126.015 98.1517C126.048 98.1901 126.087 98.2207 126.132 98.2416C126.176 98.2625 126.224 98.2731 126.272 98.2728C126.317 98.2743 126.361 98.2663 126.403 98.2494C126.444 98.2325 126.482 98.2069 126.515 98.1741C126.693 97.9997 126.871 97.8407 127.049 97.6812C127.123 97.6186 127.17 97.5277 127.181 97.4283C127.191 97.3289 127.165 97.229 127.106 97.1504C127.077 97.1093 127.039 97.0751 126.997 97.0497C126.954 97.0243 126.907 97.0082 126.858 97.0026C126.81 96.9969 126.761 97.0017 126.714 97.0166C126.667 97.0316 126.624 97.0564 126.586 97.0896L126.586 97.0901Z" fill="#263238" stroke="#263238"/>
<path d="M147.766 123.799C147.398 123.948 146.998 124.09 146.607 124.221C146.479 124.268 146.38 124.339 146.324 124.423C146.268 124.508 146.258 124.6 146.297 124.688C146.335 124.776 146.419 124.854 146.537 124.91C146.654 124.966 146.798 124.998 146.948 125C147.068 125 147.186 124.98 147.288 124.942C147.697 124.801 148.107 124.643 148.515 124.486C148.665 124.425 148.769 124.331 148.805 124.224C148.841 124.117 148.806 124.006 148.707 123.914C148.659 123.868 148.596 123.829 148.522 123.798C148.448 123.768 148.365 123.746 148.277 123.736C148.189 123.725 148.099 123.725 148.011 123.735C147.923 123.746 147.84 123.767 147.766 123.798V123.799Z" fill="#263238" stroke="#263238"/>
<path d="M142.671 94.1812C142.881 94.2603 143.093 94.3491 143.31 94.4476C143.341 94.4569 143.374 94.4569 143.405 94.4476C143.482 94.4485 143.557 94.4066 143.615 94.3296C143.674 94.2526 143.713 94.1456 143.724 94.0282C143.736 93.9109 143.72 93.791 143.679 93.6905C143.638 93.59 143.575 93.5156 143.501 93.481L142.863 93.195C142.78 93.1652 142.693 93.1866 142.62 93.2549C142.547 93.3231 142.494 93.4326 142.473 93.5601C142.459 93.6211 142.453 93.6859 142.456 93.7506C142.458 93.8153 142.469 93.8786 142.487 93.9368C142.506 93.9951 142.531 94.047 142.563 94.0895C142.595 94.1321 142.632 94.1644 142.672 94.1846L142.671 94.1812Z" fill="#263238" stroke="#263238"/>
<path d="M146.162 106.104C146.068 105.991 145.936 105.921 145.795 105.91C145.654 105.9 145.514 105.949 145.406 106.047L135.895 114.807L131.955 109.196C131.87 109.074 131.744 108.994 131.604 108.973C131.464 108.951 131.322 108.99 131.209 109.082C131.098 109.174 131.025 109.31 131.005 109.459C130.986 109.609 131.02 109.761 131.102 109.883L135.363 115.987L135.48 116.079H135.544C135.618 116.095 135.694 116.095 135.768 116.079C135.875 116.074 135.979 116.039 136.068 115.976H136.218L146.156 106.815C146.23 106.714 146.271 106.59 146.273 106.462C146.275 106.334 146.237 106.208 146.166 106.105L146.162 106.104Z" fill="#263238" stroke="#263238"/>
</svg>
