<svg width="350" height="220" viewBox="0 0 350 220" fill="none" xmlns="http://www.w3.org/2000/svg">
<rect width="350" height="220" fill="#E3E8EB"/>
<path d="M140.548 72L132.016 60.39L133.42 59.4L141.952 70.992L140.548 72ZM131.602 72V59.4H133.42L133.366 60.876V72H131.602ZM140.548 72V59.4H142.33V72H140.548ZM150.725 72L150.599 67.302C150.587 66.642 150.509 66.096 150.365 65.664C150.221 65.22 149.999 64.884 149.699 64.656C149.399 64.428 148.997 64.314 148.493 64.314C148.025 64.314 147.611 64.41 147.251 64.602C146.903 64.794 146.615 65.094 146.387 65.502L144.857 64.926C145.073 64.518 145.343 64.152 145.667 63.828C146.003 63.504 146.405 63.252 146.873 63.072C147.353 62.88 147.899 62.784 148.511 62.784C149.363 62.784 150.071 62.946 150.635 63.27C151.199 63.594 151.619 64.08 151.895 64.728C152.183 65.364 152.327 66.156 152.327 67.104V72H150.725ZM148.079 72.216C147.011 72.216 146.177 71.976 145.577 71.496C144.989 71.004 144.695 70.326 144.695 69.462C144.695 68.538 145.001 67.836 145.613 67.356C146.225 66.864 147.089 66.618 148.205 66.618H151.211L151.229 67.968H148.673C147.845 67.968 147.257 68.1 146.909 68.364C146.573 68.616 146.405 68.97 146.405 69.426C146.405 69.846 146.567 70.176 146.891 70.416C147.215 70.644 147.659 70.758 148.223 70.758C148.715 70.758 149.135 70.644 149.483 70.416C149.843 70.188 150.119 69.888 150.311 69.516C150.515 69.132 150.617 68.706 150.617 68.238H151.445C151.445 69.462 151.163 70.434 150.599 71.154C150.035 71.862 149.195 72.216 148.079 72.216ZM158.133 72.216C157.233 72.216 156.537 71.988 156.045 71.532C155.553 71.064 155.307 70.398 155.307 69.534V60.192H157.017V69.282C157.017 69.726 157.125 70.068 157.341 70.308C157.569 70.536 157.893 70.65 158.313 70.65C158.433 70.65 158.565 70.626 158.709 70.578C158.853 70.53 159.027 70.434 159.231 70.29L159.879 71.622C159.567 71.826 159.267 71.976 158.979 72.072C158.703 72.168 158.421 72.216 158.133 72.216ZM153.777 64.476V63H159.573V64.476H153.777ZM161.618 72L161.654 63H163.346L163.328 72H161.618ZM162.482 61.092C162.206 61.092 161.966 60.99 161.762 60.786C161.558 60.57 161.456 60.324 161.456 60.048C161.456 59.76 161.558 59.52 161.762 59.328C161.966 59.124 162.206 59.022 162.482 59.022C162.77 59.022 163.01 59.124 163.202 59.328C163.406 59.52 163.508 59.76 163.508 60.048C163.508 60.324 163.406 60.57 163.202 60.786C163.01 60.99 162.77 61.092 162.482 61.092ZM169.974 72.216C169.086 72.216 168.294 72.018 167.598 71.622C166.914 71.214 166.374 70.656 165.978 69.948C165.594 69.24 165.402 68.424 165.402 67.5C165.402 66.576 165.594 65.76 165.978 65.052C166.362 64.344 166.896 63.792 167.58 63.396C168.276 62.988 169.062 62.784 169.938 62.784C170.838 62.784 171.63 62.988 172.314 63.396C172.998 63.792 173.532 64.344 173.916 65.052C174.312 65.76 174.51 66.576 174.51 67.5C174.51 68.424 174.312 69.24 173.916 69.948C173.532 70.656 172.998 71.214 172.314 71.622C171.642 72.018 170.862 72.216 169.974 72.216ZM169.974 70.596C170.514 70.596 170.988 70.464 171.396 70.2C171.804 69.936 172.122 69.576 172.35 69.12C172.59 68.652 172.71 68.112 172.71 67.5C172.71 66.9 172.59 66.366 172.35 65.898C172.122 65.43 171.798 65.064 171.378 64.8C170.958 64.536 170.478 64.404 169.938 64.404C169.41 64.404 168.936 64.536 168.516 64.8C168.108 65.064 167.784 65.43 167.544 65.898C167.316 66.354 167.202 66.888 167.202 67.5C167.202 68.1 167.316 68.634 167.544 69.102C167.784 69.57 168.114 69.936 168.534 70.2C168.954 70.464 169.434 70.596 169.974 70.596ZM176.452 72V63H178.054L178.162 64.656V72H176.452ZM182.68 72V67.392L184.39 66.852V72H182.68ZM182.68 67.392C182.68 66.576 182.584 65.958 182.392 65.538C182.212 65.106 181.954 64.806 181.618 64.638C181.294 64.47 180.916 64.38 180.484 64.368C179.752 64.368 179.182 64.626 178.774 65.142C178.366 65.658 178.162 66.384 178.162 67.32H177.424C177.424 66.372 177.562 65.562 177.838 64.89C178.114 64.206 178.51 63.684 179.026 63.324C179.554 62.964 180.184 62.784 180.916 62.784C181.996 62.784 182.842 63.12 183.454 63.792C184.078 64.452 184.39 65.472 184.39 66.852L182.68 67.392ZM194.786 72L197.828 63H199.538L196.478 72H194.786ZM188.72 72L191.708 63H193.256L190.304 72H188.72ZM188.594 72L185.534 63H187.262L190.232 72H188.594ZM194.786 72L191.834 63H193.4L196.37 72H194.786ZM201.011 72L201.047 63H202.739L202.721 72H201.011ZM201.875 61.092C201.599 61.092 201.359 60.99 201.155 60.786C200.951 60.57 200.849 60.324 200.849 60.048C200.849 59.76 200.951 59.52 201.155 59.328C201.359 59.124 201.599 59.022 201.875 59.022C202.163 59.022 202.403 59.124 202.595 59.328C202.799 59.52 202.901 59.76 202.901 60.048C202.901 60.324 202.799 60.57 202.595 60.786C202.403 60.99 202.163 61.092 201.875 61.092ZM211.815 72L211.743 70.326V59.4H213.435V72H211.815ZM208.791 72.216C207.975 72.216 207.261 72.018 206.649 71.622C206.049 71.226 205.575 70.674 205.227 69.966C204.891 69.258 204.723 68.436 204.723 67.5C204.723 66.552 204.891 65.73 205.227 65.034C205.575 64.326 206.049 63.774 206.649 63.378C207.261 62.982 207.975 62.784 208.791 62.784C209.547 62.784 210.201 62.982 210.753 63.378C211.317 63.774 211.749 64.326 212.049 65.034C212.349 65.73 212.499 66.552 212.499 67.5C212.499 68.436 212.349 69.258 212.049 69.966C211.749 70.674 211.317 71.226 210.753 71.622C210.201 72.018 209.547 72.216 208.791 72.216ZM209.187 70.668C209.691 70.668 210.135 70.536 210.519 70.272C210.903 69.996 211.203 69.624 211.419 69.156C211.635 68.676 211.743 68.124 211.743 67.5C211.743 66.876 211.635 66.33 211.419 65.862C211.203 65.382 210.903 65.01 210.519 64.746C210.135 64.47 209.685 64.332 209.169 64.332C208.641 64.332 208.173 64.47 207.765 64.746C207.357 65.01 207.039 65.382 206.811 65.862C206.583 66.33 206.469 66.876 206.469 67.5C206.469 68.124 206.583 68.676 206.811 69.156C207.051 69.624 207.375 69.996 207.783 70.272C208.191 70.536 208.659 70.668 209.187 70.668ZM219.859 72.216C218.983 72.216 218.209 72.018 217.537 71.622C216.865 71.214 216.337 70.656 215.953 69.948C215.569 69.24 215.377 68.424 215.377 67.5C215.377 66.576 215.569 65.76 215.953 65.052C216.337 64.344 216.865 63.792 217.537 63.396C218.221 62.988 219.001 62.784 219.877 62.784C220.693 62.784 221.413 62.994 222.037 63.414C222.673 63.822 223.165 64.41 223.513 65.178C223.873 65.934 224.053 66.828 224.053 67.86H222.343C222.343 67.092 222.247 66.444 222.055 65.916C221.863 65.388 221.575 64.992 221.191 64.728C220.819 64.452 220.363 64.314 219.823 64.314C219.283 64.314 218.809 64.446 218.401 64.71C218.005 64.962 217.693 65.328 217.465 65.808C217.249 66.276 217.141 66.852 217.141 67.536C217.141 68.172 217.267 68.724 217.519 69.192C217.771 69.648 218.107 70.008 218.527 70.272C218.959 70.524 219.445 70.65 219.985 70.65C220.573 70.65 221.059 70.512 221.443 70.236C221.839 69.96 222.151 69.606 222.379 69.174L223.909 69.876C223.657 70.344 223.339 70.758 222.955 71.118C222.583 71.466 222.133 71.736 221.605 71.928C221.089 72.12 220.507 72.216 219.859 72.216ZM216.493 67.86L216.511 66.456H223.099V67.86H216.493ZM135.67 94.216C134.998 94.216 134.386 94.138 133.834 93.982C133.294 93.826 132.82 93.616 132.412 93.352C132.016 93.076 131.686 92.77 131.422 92.434C131.158 92.098 130.972 91.744 130.864 91.372L132.574 90.814C132.754 91.306 133.096 91.732 133.6 92.092C134.104 92.452 134.722 92.638 135.454 92.65C136.342 92.65 137.038 92.476 137.542 92.128C138.058 91.768 138.316 91.294 138.316 90.706C138.316 90.166 138.094 89.728 137.65 89.392C137.206 89.044 136.618 88.78 135.886 88.6L134.428 88.222C133.852 88.066 133.324 87.844 132.844 87.556C132.376 87.268 132.004 86.902 131.728 86.458C131.452 86.014 131.314 85.48 131.314 84.856C131.314 83.704 131.686 82.804 132.43 82.156C133.186 81.508 134.272 81.184 135.688 81.184C136.504 81.184 137.212 81.316 137.812 81.58C138.412 81.832 138.904 82.168 139.288 82.588C139.684 83.008 139.966 83.47 140.134 83.974L138.424 84.55C138.22 84.01 137.872 83.578 137.38 83.254C136.888 82.918 136.282 82.75 135.562 82.75C134.806 82.75 134.206 82.93 133.762 83.29C133.33 83.65 133.114 84.142 133.114 84.766C133.114 85.294 133.282 85.702 133.618 85.99C133.966 86.266 134.428 86.476 135.004 86.62L136.462 86.98C137.638 87.268 138.544 87.748 139.18 88.42C139.828 89.08 140.152 89.806 140.152 90.598C140.152 91.282 139.978 91.9 139.63 92.452C139.294 92.992 138.79 93.424 138.118 93.748C137.458 94.06 136.642 94.216 135.67 94.216ZM142.227 94L142.209 81.202H143.919V94H142.227ZM148.455 94V89.392L150.147 88.852V94H148.455ZM148.455 89.392C148.455 88.576 148.359 87.958 148.167 87.538C147.975 87.106 147.711 86.806 147.375 86.638C147.051 86.47 146.679 86.38 146.259 86.368C145.515 86.368 144.939 86.626 144.531 87.142C144.123 87.658 143.919 88.384 143.919 89.32H143.199C143.199 88.372 143.337 87.562 143.613 86.89C143.889 86.206 144.285 85.684 144.801 85.324C145.329 84.964 145.953 84.784 146.673 84.784C147.765 84.784 148.617 85.12 149.229 85.792C149.853 86.452 150.159 87.472 150.147 88.852L148.455 89.392ZM152.407 94L152.443 85H154.135L154.117 94H152.407ZM153.271 83.092C152.995 83.092 152.755 82.99 152.551 82.786C152.347 82.57 152.245 82.324 152.245 82.048C152.245 81.76 152.347 81.52 152.551 81.328C152.755 81.124 152.995 81.022 153.271 81.022C153.559 81.022 153.799 81.124 153.991 81.328C154.195 81.52 154.297 81.76 154.297 82.048C154.297 82.324 154.195 82.57 153.991 82.786C153.799 82.99 153.559 83.092 153.271 83.092ZM156.714 97.6V85H158.316L158.424 86.656V97.6H156.714ZM161.376 94.216C160.62 94.216 159.96 94.018 159.396 93.622C158.844 93.226 158.418 92.674 158.118 91.966C157.818 91.258 157.668 90.436 157.668 89.5C157.668 88.552 157.818 87.73 158.118 87.034C158.418 86.326 158.844 85.774 159.396 85.378C159.96 84.982 160.62 84.784 161.376 84.784C162.18 84.784 162.888 84.982 163.5 85.378C164.112 85.774 164.586 86.326 164.922 87.034C165.27 87.73 165.444 88.552 165.444 89.5C165.444 90.436 165.27 91.258 164.922 91.966C164.586 92.674 164.112 93.226 163.5 93.622C162.888 94.018 162.18 94.216 161.376 94.216ZM160.962 92.668C161.502 92.668 161.976 92.536 162.384 92.272C162.792 91.996 163.11 91.624 163.338 91.156C163.578 90.676 163.698 90.124 163.698 89.5C163.698 88.876 163.584 88.33 163.356 87.862C163.128 87.382 162.81 87.01 162.402 86.746C161.994 86.47 161.52 86.332 160.98 86.332C160.488 86.332 160.044 86.47 159.648 86.746C159.264 87.01 158.964 87.382 158.748 87.862C158.532 88.342 158.424 88.888 158.424 89.5C158.424 90.124 158.532 90.676 158.748 91.156C158.964 91.624 159.264 91.996 159.648 92.272C160.032 92.536 160.47 92.668 160.962 92.668ZM167.401 97.6V85H169.003L169.111 86.656V97.6H167.401ZM172.063 94.216C171.307 94.216 170.647 94.018 170.083 93.622C169.531 93.226 169.105 92.674 168.805 91.966C168.505 91.258 168.355 90.436 168.355 89.5C168.355 88.552 168.505 87.73 168.805 87.034C169.105 86.326 169.531 85.774 170.083 85.378C170.647 84.982 171.307 84.784 172.063 84.784C172.867 84.784 173.575 84.982 174.187 85.378C174.799 85.774 175.273 86.326 175.609 87.034C175.957 87.73 176.131 88.552 176.131 89.5C176.131 90.436 175.957 91.258 175.609 91.966C175.273 92.674 174.799 93.226 174.187 93.622C173.575 94.018 172.867 94.216 172.063 94.216ZM171.649 92.668C172.189 92.668 172.663 92.536 173.071 92.272C173.479 91.996 173.797 91.624 174.025 91.156C174.265 90.676 174.385 90.124 174.385 89.5C174.385 88.876 174.271 88.33 174.043 87.862C173.815 87.382 173.497 87.01 173.089 86.746C172.681 86.47 172.207 86.332 171.667 86.332C171.175 86.332 170.731 86.47 170.335 86.746C169.951 87.01 169.651 87.382 169.435 87.862C169.219 88.342 169.111 88.888 169.111 89.5C169.111 90.124 169.219 90.676 169.435 91.156C169.651 91.624 169.951 91.996 170.335 92.272C170.719 92.536 171.157 92.668 171.649 92.668ZM178.107 94L178.143 85H179.835L179.817 94H178.107ZM178.971 83.092C178.695 83.092 178.455 82.99 178.251 82.786C178.047 82.57 177.945 82.324 177.945 82.048C177.945 81.76 178.047 81.52 178.251 81.328C178.455 81.124 178.695 81.022 178.971 81.022C179.259 81.022 179.499 81.124 179.691 81.328C179.895 81.52 179.997 81.76 179.997 82.048C179.997 82.324 179.895 82.57 179.691 82.786C179.499 82.99 179.259 83.092 178.971 83.092ZM182.323 94V85H183.925L184.033 86.656V94H182.323ZM188.551 94V89.392L190.261 88.852V94H188.551ZM188.551 89.392C188.551 88.576 188.455 87.958 188.263 87.538C188.083 87.106 187.825 86.806 187.489 86.638C187.165 86.47 186.787 86.38 186.355 86.368C185.623 86.368 185.053 86.626 184.645 87.142C184.237 87.658 184.033 88.384 184.033 89.32H183.295C183.295 88.372 183.433 87.562 183.709 86.89C183.985 86.206 184.381 85.684 184.897 85.324C185.425 84.964 186.055 84.784 186.787 84.784C187.867 84.784 188.713 85.12 189.325 85.792C189.949 86.452 190.261 87.472 190.261 88.852L188.551 89.392ZM196.139 97.834C195.539 97.834 194.993 97.774 194.501 97.654C194.009 97.546 193.595 97.42 193.259 97.276C192.923 97.132 192.671 97.006 192.503 96.898L193.151 95.512C193.307 95.608 193.529 95.716 193.817 95.836C194.105 95.968 194.441 96.076 194.825 96.16C195.209 96.256 195.635 96.304 196.103 96.304C196.655 96.304 197.147 96.19 197.579 95.962C198.011 95.746 198.347 95.404 198.587 94.936C198.839 94.468 198.965 93.868 198.965 93.136V85H200.675V93.1C200.675 94.132 200.477 94.996 200.081 95.692C199.697 96.4 199.163 96.934 198.479 97.294C197.807 97.654 197.027 97.834 196.139 97.834ZM195.977 93.874C195.161 93.874 194.447 93.688 193.835 93.316C193.235 92.932 192.761 92.404 192.413 91.732C192.077 91.048 191.909 90.262 191.909 89.374C191.909 88.45 192.077 87.646 192.413 86.962C192.761 86.278 193.235 85.744 193.835 85.36C194.447 84.976 195.161 84.784 195.977 84.784C196.721 84.784 197.369 84.976 197.921 85.36C198.485 85.744 198.917 86.284 199.217 86.98C199.529 87.664 199.685 88.468 199.685 89.392C199.685 90.28 199.529 91.066 199.217 91.75C198.917 92.422 198.485 92.944 197.921 93.316C197.369 93.688 196.721 93.874 195.977 93.874ZM196.409 92.434C196.913 92.434 197.351 92.302 197.723 92.038C198.095 91.762 198.389 91.396 198.605 90.94C198.821 90.472 198.929 89.938 198.929 89.338C198.929 88.738 198.821 88.21 198.605 87.754C198.389 87.298 198.089 86.944 197.705 86.692C197.333 86.428 196.895 86.296 196.391 86.296C195.863 86.296 195.395 86.428 194.987 86.692C194.591 86.944 194.279 87.298 194.051 87.754C193.823 88.21 193.709 88.738 193.709 89.338C193.709 89.938 193.823 90.472 194.051 90.94C194.291 91.396 194.609 91.762 195.005 92.038C195.413 92.302 195.881 92.434 196.409 92.434Z" fill="#263238"/>
<path d="M30.755 150.18C30.175 150.18 29.66 150.12 29.21 150C28.76 149.87 28.37 149.695 28.04 149.475C27.71 149.245 27.44 148.995 27.23 148.725C27.02 148.445 26.865 148.15 26.765 147.84L27.98 147.42C28.13 147.86 28.43 148.245 28.88 148.575C29.34 148.895 29.9 149.055 30.56 149.055C31.37 149.055 32.005 148.895 32.465 148.575C32.925 148.255 33.155 147.83 33.155 147.3C33.155 146.81 32.95 146.415 32.54 146.115C32.13 145.805 31.59 145.565 30.92 145.395L29.765 145.095C29.295 144.975 28.86 144.8 28.46 144.57C28.07 144.33 27.755 144.03 27.515 143.67C27.285 143.3 27.17 142.86 27.17 142.35C27.17 141.4 27.475 140.66 28.085 140.13C28.705 139.59 29.595 139.32 30.755 139.32C31.445 139.32 32.04 139.435 32.54 139.665C33.04 139.885 33.445 140.17 33.755 140.52C34.075 140.86 34.3 141.23 34.43 141.63L33.23 142.05C33.04 141.55 32.72 141.16 32.27 140.88C31.82 140.59 31.275 140.445 30.635 140.445C29.965 140.445 29.43 140.61 29.03 140.94C28.64 141.26 28.445 141.7 28.445 142.26C28.445 142.74 28.6 143.11 28.91 143.37C29.22 143.62 29.625 143.805 30.125 143.925L31.28 144.21C32.3 144.45 33.08 144.85 33.62 145.41C34.17 145.96 34.445 146.555 34.445 147.195C34.445 147.745 34.305 148.25 34.025 148.71C33.745 149.16 33.33 149.52 32.78 149.79C32.24 150.05 31.565 150.18 30.755 150.18ZM36.2639 150V139.305H37.4639V150H36.2639ZM41.5439 150V146.16L42.7439 145.71V150H41.5439ZM41.5439 146.16C41.5439 145.42 41.4539 144.855 41.2739 144.465C41.1039 144.075 40.8689 143.81 40.5689 143.67C40.2689 143.52 39.9289 143.445 39.5489 143.445C38.8889 143.445 38.3739 143.68 38.0039 144.15C37.6439 144.61 37.4639 145.265 37.4639 146.115H36.8789C36.8789 145.325 36.9939 144.645 37.2239 144.075C37.4539 143.505 37.7889 143.07 38.2289 142.77C38.6689 142.47 39.1989 142.32 39.8189 142.32C40.7189 142.32 41.4339 142.6 41.9639 143.16C42.4939 143.72 42.7539 144.57 42.7439 145.71L41.5439 146.16ZM44.7031 150L44.7331 142.5H45.9331L45.9031 150H44.7031ZM45.3181 140.76C45.1181 140.76 44.9431 140.685 44.7931 140.535C44.6431 140.385 44.5681 140.21 44.5681 140.01C44.5681 139.8 44.6431 139.625 44.7931 139.485C44.9431 139.335 45.1181 139.26 45.3181 139.26C45.5281 139.26 45.7031 139.335 45.8431 139.485C45.9931 139.625 46.0681 139.8 46.0681 140.01C46.0681 140.21 45.9931 140.385 45.8431 140.535C45.7031 140.685 45.5281 140.76 45.3181 140.76ZM48.1895 153V142.5H49.3145L49.3895 143.88V153H48.1895ZM51.9245 150.18C51.2945 150.18 50.7395 150.015 50.2595 149.685C49.7895 149.355 49.4245 148.895 49.1645 148.305C48.9045 147.705 48.7745 147.02 48.7745 146.25C48.7745 145.47 48.9045 144.785 49.1645 144.195C49.4245 143.605 49.7895 143.145 50.2595 142.815C50.7395 142.485 51.2945 142.32 51.9245 142.32C52.5945 142.32 53.1845 142.485 53.6945 142.815C54.2045 143.145 54.5995 143.605 54.8795 144.195C55.1695 144.785 55.3145 145.47 55.3145 146.25C55.3145 147.02 55.1695 147.705 54.8795 148.305C54.5995 148.895 54.2045 149.355 53.6945 149.685C53.1845 150.015 52.5945 150.18 51.9245 150.18ZM51.6545 149.085C52.1245 149.085 52.5395 148.965 52.8995 148.725C53.2695 148.485 53.5595 148.15 53.7695 147.72C53.9895 147.29 54.0995 146.8 54.0995 146.25C54.0995 145.7 53.9945 145.21 53.7845 144.78C53.5845 144.35 53.2995 144.015 52.9295 143.775C52.5595 143.535 52.1395 143.415 51.6695 143.415C51.2295 143.415 50.8345 143.535 50.4845 143.775C50.1445 144.015 49.8745 144.35 49.6745 144.78C49.4845 145.21 49.3895 145.7 49.3895 146.25C49.3895 146.8 49.4845 147.29 49.6745 147.72C49.8745 148.15 50.1445 148.485 50.4845 148.725C50.8245 148.965 51.2145 149.085 51.6545 149.085ZM57.0518 153V142.5H58.1768L58.2518 143.88V153H57.0518ZM60.7868 150.18C60.1568 150.18 59.6018 150.015 59.1218 149.685C58.6518 149.355 58.2868 148.895 58.0268 148.305C57.7668 147.705 57.6368 147.02 57.6368 146.25C57.6368 145.47 57.7668 144.785 58.0268 144.195C58.2868 143.605 58.6518 143.145 59.1218 142.815C59.6018 142.485 60.1568 142.32 60.7868 142.32C61.4568 142.32 62.0468 142.485 62.5568 142.815C63.0668 143.145 63.4618 143.605 63.7418 144.195C64.0318 144.785 64.1768 145.47 64.1768 146.25C64.1768 147.02 64.0318 147.705 63.7418 148.305C63.4618 148.895 63.0668 149.355 62.5568 149.685C62.0468 150.015 61.4568 150.18 60.7868 150.18ZM60.5168 149.085C60.9868 149.085 61.4018 148.965 61.7618 148.725C62.1318 148.485 62.4218 148.15 62.6318 147.72C62.8518 147.29 62.9618 146.8 62.9618 146.25C62.9618 145.7 62.8568 145.21 62.6468 144.78C62.4468 144.35 62.1618 144.015 61.7918 143.775C61.4218 143.535 61.0018 143.415 60.5318 143.415C60.0918 143.415 59.6968 143.535 59.3468 143.775C59.0068 144.015 58.7368 144.35 58.5368 144.78C58.3468 145.21 58.2518 145.7 58.2518 146.25C58.2518 146.8 58.3468 147.29 58.5368 147.72C58.7368 148.15 59.0068 148.485 59.3468 148.725C59.6868 148.965 60.0768 149.085 60.5168 149.085ZM65.9141 150L65.9441 142.5H67.1441L67.1141 150H65.9141ZM66.5291 140.76C66.3291 140.76 66.1541 140.685 66.0041 140.535C65.8541 140.385 65.7791 140.21 65.7791 140.01C65.7791 139.8 65.8541 139.625 66.0041 139.485C66.1541 139.335 66.3291 139.26 66.5291 139.26C66.7391 139.26 66.9141 139.335 67.0541 139.485C67.2041 139.625 67.2791 139.8 67.2791 140.01C67.2791 140.21 67.2041 140.385 67.0541 140.535C66.9141 140.685 66.7391 140.76 66.5291 140.76ZM69.3254 150V142.5H70.4504L70.5254 143.88V150H69.3254ZM74.5904 150V146.16L75.7904 145.71V150H74.5904ZM74.5904 146.16C74.5904 145.42 74.5054 144.855 74.3354 144.465C74.1654 144.075 73.9304 143.81 73.6304 143.67C73.3304 143.52 72.9904 143.445 72.6104 143.445C71.9504 143.445 71.4354 143.68 71.0654 144.15C70.7054 144.61 70.5254 145.265 70.5254 146.115H69.9404C69.9404 145.325 70.0554 144.645 70.2854 144.075C70.5154 143.505 70.8454 143.07 71.2754 142.77C71.7154 142.47 72.2454 142.32 72.8654 142.32C73.7754 142.32 74.4904 142.6 75.0104 143.16C75.5404 143.72 75.8004 144.57 75.7904 145.71L74.5904 146.16ZM80.6896 153.18C80.2096 153.18 79.7696 153.13 79.3696 153.03C78.9796 152.94 78.6446 152.835 78.3646 152.715C78.0946 152.605 77.8996 152.51 77.7796 152.43L78.2296 151.455C78.3596 151.525 78.5446 151.61 78.7846 151.71C79.0246 151.82 79.3046 151.91 79.6246 151.98C79.9546 152.06 80.3046 152.1 80.6746 152.1C81.1546 152.1 81.5846 152 81.9646 151.8C82.3546 151.61 82.6546 151.305 82.8646 150.885C83.0846 150.475 83.1946 149.945 83.1946 149.295V142.5H84.3946V149.28C84.3946 150.14 84.2346 150.86 83.9146 151.44C83.5946 152.02 83.1546 152.455 82.5946 152.745C82.0346 153.035 81.3996 153.18 80.6896 153.18ZM80.6446 149.94C79.9746 149.94 79.3846 149.78 78.8746 149.46C78.3646 149.14 77.9646 148.695 77.6746 148.125C77.3946 147.545 77.2546 146.885 77.2546 146.145C77.2546 145.385 77.3946 144.72 77.6746 144.15C77.9646 143.57 78.3646 143.12 78.8746 142.8C79.3846 142.48 79.9746 142.32 80.6446 142.32C81.2746 142.32 81.8246 142.48 82.2946 142.8C82.7646 143.12 83.1296 143.57 83.3896 144.15C83.6596 144.72 83.7946 145.385 83.7946 146.145C83.7946 146.895 83.6596 147.555 83.3896 148.125C83.1296 148.695 82.7646 149.14 82.2946 149.46C81.8246 149.78 81.2746 149.94 80.6446 149.94ZM80.9296 148.905C81.3696 148.905 81.7596 148.785 82.0996 148.545C82.4396 148.305 82.7046 147.98 82.8946 147.57C83.0846 147.15 83.1796 146.665 83.1796 146.115C83.1796 145.585 83.0796 145.115 82.8796 144.705C82.6896 144.285 82.4246 143.96 82.0846 143.73C81.7546 143.49 81.3646 143.37 80.9146 143.37C80.4446 143.37 80.0246 143.49 79.6546 143.73C79.2946 143.96 79.0096 144.285 78.7996 144.705C78.5996 145.115 78.4996 145.585 78.4996 146.115C78.4996 146.665 78.6046 147.15 78.8146 147.57C79.0246 147.98 79.3096 148.305 79.6696 148.545C80.0396 148.785 80.4596 148.905 80.9296 148.905ZM92.979 150.18C92.249 150.18 91.684 149.99 91.284 149.61C90.884 149.23 90.684 148.695 90.684 148.005V140.16H91.884V147.885C91.884 148.265 91.984 148.56 92.184 148.77C92.394 148.97 92.684 149.07 93.054 149.07C93.174 149.07 93.289 149.055 93.399 149.025C93.519 148.985 93.674 148.895 93.864 148.755L94.329 149.73C94.069 149.9 93.834 150.015 93.624 150.075C93.414 150.145 93.199 150.18 92.979 150.18ZM89.379 143.565V142.5H94.134V143.565H89.379ZM95.7805 150V139.305H96.9805V150H95.7805ZM101.06 150V146.16L102.26 145.71V150H101.06ZM101.06 146.16C101.06 145.42 100.97 144.855 100.79 144.465C100.62 144.075 100.385 143.81 100.085 143.67C99.7855 143.52 99.4455 143.445 99.0655 143.445C98.4055 143.445 97.8905 143.68 97.5205 144.15C97.1605 144.61 96.9805 145.265 96.9805 146.115H96.3955C96.3955 145.325 96.5105 144.645 96.7405 144.075C96.9705 143.505 97.3055 143.07 97.7455 142.77C98.1855 142.47 98.7155 142.32 99.3355 142.32C100.235 142.32 100.95 142.6 101.48 143.16C102.01 143.72 102.27 144.57 102.26 145.71L101.06 146.16ZM107.46 150.18C106.73 150.18 106.085 150.015 105.525 149.685C104.975 149.345 104.54 148.88 104.22 148.29C103.9 147.7 103.74 147.02 103.74 146.25C103.74 145.48 103.895 144.8 104.205 144.21C104.525 143.62 104.965 143.16 105.525 142.83C106.085 142.49 106.72 142.32 107.43 142.32C108.13 142.32 108.735 142.495 109.245 142.845C109.755 143.185 110.15 143.665 110.43 144.285C110.71 144.905 110.85 145.635 110.85 146.475H109.65C109.65 145.835 109.565 145.29 109.395 144.84C109.225 144.38 108.975 144.025 108.645 143.775C108.315 143.525 107.905 143.4 107.415 143.4C106.925 143.4 106.495 143.52 106.125 143.76C105.765 143.99 105.485 144.32 105.285 144.75C105.085 145.18 104.985 145.685 104.985 146.265C104.985 146.835 105.095 147.33 105.315 147.75C105.535 148.16 105.835 148.485 106.215 148.725C106.595 148.955 107.03 149.07 107.52 149.07C108.05 149.07 108.495 148.945 108.855 148.695C109.215 148.445 109.495 148.12 109.695 147.72L110.76 148.245C110.56 148.635 110.3 148.975 109.98 149.265C109.67 149.555 109.305 149.78 108.885 149.94C108.465 150.1 107.99 150.18 107.46 150.18ZM104.55 146.475V145.44H110.115V146.475H104.55ZM116.113 150V139.5H117.313V148.605L117.253 150H116.113ZM119.848 150.18C119.218 150.18 118.663 150.015 118.183 149.685C117.713 149.355 117.348 148.895 117.088 148.305C116.828 147.705 116.698 147.02 116.698 146.25C116.698 145.47 116.828 144.785 117.088 144.195C117.348 143.605 117.713 143.145 118.183 142.815C118.663 142.485 119.218 142.32 119.848 142.32C120.518 142.32 121.108 142.485 121.618 142.815C122.128 143.145 122.523 143.605 122.803 144.195C123.093 144.785 123.238 145.47 123.238 146.25C123.238 147.02 123.093 147.705 122.803 148.305C122.523 148.895 122.128 149.355 121.618 149.685C121.108 150.015 120.518 150.18 119.848 150.18ZM119.578 149.085C120.048 149.085 120.463 148.965 120.823 148.725C121.193 148.485 121.483 148.15 121.693 147.72C121.913 147.29 122.023 146.8 122.023 146.25C122.023 145.7 121.918 145.21 121.708 144.78C121.508 144.35 121.223 144.015 120.853 143.775C120.483 143.535 120.063 143.415 119.593 143.415C119.153 143.415 118.758 143.535 118.408 143.775C118.068 144.015 117.798 144.35 117.598 144.78C117.408 145.21 117.313 145.7 117.313 146.25C117.313 146.8 117.408 147.29 117.598 147.72C117.798 148.15 118.068 148.485 118.408 148.725C118.748 148.965 119.138 149.085 119.578 149.085ZM128.217 150.18C127.487 150.18 126.842 150.015 126.282 149.685C125.732 149.345 125.297 148.88 124.977 148.29C124.657 147.7 124.497 147.02 124.497 146.25C124.497 145.48 124.652 144.8 124.962 144.21C125.282 143.62 125.722 143.16 126.282 142.83C126.842 142.49 127.477 142.32 128.187 142.32C128.887 142.32 129.492 142.495 130.002 142.845C130.512 143.185 130.907 143.665 131.187 144.285C131.467 144.905 131.607 145.635 131.607 146.475H130.407C130.407 145.835 130.322 145.29 130.152 144.84C129.982 144.38 129.732 144.025 129.402 143.775C129.072 143.525 128.662 143.4 128.172 143.4C127.682 143.4 127.252 143.52 126.882 143.76C126.522 143.99 126.242 144.32 126.042 144.75C125.842 145.18 125.742 145.685 125.742 146.265C125.742 146.835 125.852 147.33 126.072 147.75C126.292 148.16 126.592 148.485 126.972 148.725C127.352 148.955 127.787 149.07 128.277 149.07C128.807 149.07 129.252 148.945 129.612 148.695C129.972 148.445 130.252 148.12 130.452 147.72L131.517 148.245C131.317 148.635 131.057 148.975 130.737 149.265C130.427 149.555 130.062 149.78 129.642 149.94C129.222 150.1 128.747 150.18 128.217 150.18ZM125.307 146.475V145.44H130.872V146.475H125.307ZM135.788 150.18C135.238 150.18 134.758 150.1 134.348 149.94C133.938 149.77 133.593 149.55 133.313 149.28C133.043 149.01 132.848 148.715 132.728 148.395L133.778 147.96C133.948 148.29 134.203 148.56 134.543 148.77C134.883 148.98 135.258 149.085 135.668 149.085C136.138 149.085 136.528 148.995 136.838 148.815C137.158 148.625 137.318 148.365 137.318 148.035C137.318 147.725 137.198 147.475 136.958 147.285C136.728 147.095 136.388 146.94 135.938 146.82L135.218 146.625C134.538 146.445 134.008 146.175 133.628 145.815C133.248 145.445 133.058 145.03 133.058 144.57C133.058 143.86 133.288 143.31 133.748 142.92C134.218 142.52 134.913 142.32 135.833 142.32C136.273 142.32 136.673 142.385 137.033 142.515C137.393 142.645 137.703 142.83 137.963 143.07C138.223 143.3 138.413 143.575 138.533 143.895L137.483 144.36C137.353 144.02 137.138 143.78 136.838 143.64C136.538 143.49 136.173 143.415 135.743 143.415C135.283 143.415 134.923 143.51 134.663 143.7C134.403 143.89 134.273 144.16 134.273 144.51C134.273 144.71 134.378 144.9 134.588 145.08C134.808 145.25 135.128 145.39 135.548 145.5L136.298 145.695C136.788 145.815 137.198 145.995 137.528 146.235C137.858 146.465 138.108 146.73 138.278 147.03C138.448 147.33 138.533 147.65 138.533 147.99C138.533 148.44 138.413 148.83 138.173 149.16C137.933 149.49 137.608 149.745 137.198 149.925C136.788 150.095 136.318 150.18 135.788 150.18ZM143.121 150.18C142.391 150.18 141.826 149.99 141.426 149.61C141.026 149.23 140.826 148.695 140.826 148.005V140.16H142.026V147.885C142.026 148.265 142.126 148.56 142.326 148.77C142.536 148.97 142.826 149.07 143.196 149.07C143.316 149.07 143.431 149.055 143.541 149.025C143.661 148.985 143.816 148.895 144.006 148.755L144.471 149.73C144.211 149.9 143.976 150.015 143.766 150.075C143.556 150.145 143.341 150.18 143.121 150.18ZM139.521 143.565V142.5H144.276V143.565H139.521ZM149.628 150V139.5H150.828V148.605L150.768 150H149.628ZM153.363 150.18C152.733 150.18 152.178 150.015 151.698 149.685C151.228 149.355 150.863 148.895 150.603 148.305C150.343 147.705 150.213 147.02 150.213 146.25C150.213 145.47 150.343 144.785 150.603 144.195C150.863 143.605 151.228 143.145 151.698 142.815C152.178 142.485 152.733 142.32 153.363 142.32C154.033 142.32 154.623 142.485 155.133 142.815C155.643 143.145 156.038 143.605 156.318 144.195C156.608 144.785 156.753 145.47 156.753 146.25C156.753 147.02 156.608 147.705 156.318 148.305C156.038 148.895 155.643 149.355 155.133 149.685C154.623 150.015 154.033 150.18 153.363 150.18ZM153.093 149.085C153.563 149.085 153.978 148.965 154.338 148.725C154.708 148.485 154.998 148.15 155.208 147.72C155.428 147.29 155.538 146.8 155.538 146.25C155.538 145.7 155.433 145.21 155.223 144.78C155.023 144.35 154.738 144.015 154.368 143.775C153.998 143.535 153.578 143.415 153.108 143.415C152.668 143.415 152.273 143.535 151.923 143.775C151.583 144.015 151.313 144.35 151.113 144.78C150.923 145.21 150.828 145.7 150.828 146.25C150.828 146.8 150.923 147.29 151.113 147.72C151.313 148.15 151.583 148.485 151.923 148.725C152.263 148.965 152.653 149.085 153.093 149.085ZM159.077 145.935C159.077 145.125 159.232 144.47 159.542 143.97C159.852 143.46 160.247 143.085 160.727 142.845C161.217 142.595 161.732 142.47 162.272 142.47V143.595C161.832 143.595 161.407 143.67 160.997 143.82C160.597 143.96 160.267 144.195 160.007 144.525C159.747 144.855 159.617 145.305 159.617 145.875L159.077 145.935ZM158.417 150V142.5H159.617V150H158.417ZM168.181 150L168.061 146.04C168.041 145.45 167.966 144.965 167.836 144.585C167.706 144.195 167.506 143.905 167.236 143.715C166.966 143.515 166.606 143.415 166.156 143.415C165.726 143.415 165.351 143.5 165.031 143.67C164.721 143.84 164.466 144.105 164.266 144.465L163.201 144.03C163.391 143.68 163.626 143.38 163.906 143.13C164.186 142.87 164.516 142.67 164.896 142.53C165.276 142.39 165.701 142.32 166.171 142.32C166.861 142.32 167.436 142.455 167.896 142.725C168.356 142.995 168.696 143.4 168.916 143.94C169.146 144.47 169.261 145.135 169.261 145.935V150H168.181ZM165.901 150.18C165.011 150.18 164.316 149.98 163.816 149.58C163.326 149.17 163.081 148.605 163.081 147.885C163.081 147.125 163.331 146.545 163.831 146.145C164.341 145.735 165.051 145.53 165.961 145.53H168.601V146.535H166.231C165.531 146.535 165.031 146.65 164.731 146.88C164.441 147.11 164.296 147.44 164.296 147.87C164.296 148.26 164.441 148.57 164.731 148.8C165.021 149.02 165.426 149.13 165.946 149.13C166.386 149.13 166.766 149.03 167.086 148.83C167.406 148.63 167.651 148.36 167.821 148.02C167.991 147.67 168.076 147.275 168.076 146.835H168.811C168.811 147.855 168.561 148.67 168.061 149.28C167.561 149.88 166.841 150.18 165.901 150.18ZM171.161 150V142.5H172.286L172.361 143.88V150H171.161ZM176.426 150V146.16L177.626 145.71V150H176.426ZM176.426 146.16C176.426 145.42 176.341 144.855 176.171 144.465C176.001 144.075 175.766 143.81 175.466 143.67C175.166 143.52 174.826 143.445 174.446 143.445C173.786 143.445 173.271 143.68 172.901 144.15C172.541 144.61 172.361 145.265 172.361 146.115H171.776C171.776 145.325 171.891 144.645 172.121 144.075C172.351 143.505 172.681 143.07 173.111 142.77C173.551 142.47 174.081 142.32 174.701 142.32C175.611 142.32 176.326 142.6 176.846 143.16C177.376 143.72 177.636 144.57 177.626 145.71L176.426 146.16ZM185.076 150L185.016 148.605V139.5H186.216V150H185.076ZM182.481 150.18C181.811 150.18 181.221 150.015 180.711 149.685C180.201 149.355 179.801 148.895 179.511 148.305C179.231 147.705 179.091 147.02 179.091 146.25C179.091 145.47 179.231 144.785 179.511 144.195C179.801 143.605 180.201 143.145 180.711 142.815C181.221 142.485 181.811 142.32 182.481 142.32C183.111 142.32 183.661 142.485 184.131 142.815C184.611 143.145 184.981 143.605 185.241 144.195C185.501 144.785 185.631 145.47 185.631 146.25C185.631 147.02 185.501 147.705 185.241 148.305C184.981 148.895 184.611 149.355 184.131 149.685C183.661 150.015 183.111 150.18 182.481 150.18ZM182.751 149.085C183.191 149.085 183.581 148.965 183.921 148.725C184.261 148.485 184.526 148.15 184.716 147.72C184.916 147.29 185.016 146.8 185.016 146.25C185.016 145.7 184.916 145.21 184.716 144.78C184.526 144.35 184.261 144.015 183.921 143.775C183.581 143.535 183.186 143.415 182.736 143.415C182.266 143.415 181.846 143.535 181.476 143.775C181.116 144.015 180.831 144.35 180.621 144.78C180.411 145.21 180.306 145.7 180.306 146.25C180.306 146.8 180.411 147.29 180.621 147.72C180.831 148.15 181.121 148.485 181.491 148.725C181.861 148.965 182.281 149.085 182.751 149.085ZM190.94 150.18C190.39 150.18 189.91 150.1 189.5 149.94C189.09 149.77 188.745 149.55 188.465 149.28C188.195 149.01 188 148.715 187.88 148.395L188.93 147.96C189.1 148.29 189.355 148.56 189.695 148.77C190.035 148.98 190.41 149.085 190.82 149.085C191.29 149.085 191.68 148.995 191.99 148.815C192.31 148.625 192.47 148.365 192.47 148.035C192.47 147.725 192.35 147.475 192.11 147.285C191.88 147.095 191.54 146.94 191.09 146.82L190.37 146.625C189.69 146.445 189.16 146.175 188.78 145.815C188.4 145.445 188.21 145.03 188.21 144.57C188.21 143.86 188.44 143.31 188.9 142.92C189.37 142.52 190.065 142.32 190.985 142.32C191.425 142.32 191.825 142.385 192.185 142.515C192.545 142.645 192.855 142.83 193.115 143.07C193.375 143.3 193.565 143.575 193.685 143.895L192.635 144.36C192.505 144.02 192.29 143.78 191.99 143.64C191.69 143.49 191.325 143.415 190.895 143.415C190.435 143.415 190.075 143.51 189.815 143.7C189.555 143.89 189.425 144.16 189.425 144.51C189.425 144.71 189.53 144.9 189.74 145.08C189.96 145.25 190.28 145.39 190.7 145.5L191.45 145.695C191.94 145.815 192.35 145.995 192.68 146.235C193.01 146.465 193.26 146.73 193.43 147.03C193.6 147.33 193.685 147.65 193.685 147.99C193.685 148.44 193.565 148.83 193.325 149.16C193.085 149.49 192.76 149.745 192.35 149.925C191.94 150.095 191.47 150.18 190.94 150.18ZM201.633 150.18C201.083 150.18 200.603 150.1 200.193 149.94C199.783 149.77 199.438 149.55 199.158 149.28C198.888 149.01 198.693 148.715 198.573 148.395L199.623 147.96C199.793 148.29 200.048 148.56 200.388 148.77C200.728 148.98 201.103 149.085 201.513 149.085C201.983 149.085 202.373 148.995 202.683 148.815C203.003 148.625 203.163 148.365 203.163 148.035C203.163 147.725 203.043 147.475 202.803 147.285C202.573 147.095 202.233 146.94 201.783 146.82L201.063 146.625C200.383 146.445 199.853 146.175 199.473 145.815C199.093 145.445 198.903 145.03 198.903 144.57C198.903 143.86 199.133 143.31 199.593 142.92C200.063 142.52 200.758 142.32 201.678 142.32C202.118 142.32 202.518 142.385 202.878 142.515C203.238 142.645 203.548 142.83 203.808 143.07C204.068 143.3 204.258 143.575 204.378 143.895L203.328 144.36C203.198 144.02 202.983 143.78 202.683 143.64C202.383 143.49 202.018 143.415 201.588 143.415C201.128 143.415 200.768 143.51 200.508 143.7C200.248 143.89 200.118 144.16 200.118 144.51C200.118 144.71 200.223 144.9 200.433 145.08C200.653 145.25 200.973 145.39 201.393 145.5L202.143 145.695C202.633 145.815 203.043 145.995 203.373 146.235C203.703 146.465 203.953 146.73 204.123 147.03C204.293 147.33 204.378 147.65 204.378 147.99C204.378 148.44 204.258 148.83 204.018 149.16C203.778 149.49 203.453 149.745 203.043 149.925C202.633 150.095 202.163 150.18 201.633 150.18ZM208.965 150.18C208.235 150.18 207.67 149.99 207.27 149.61C206.87 149.23 206.67 148.695 206.67 148.005V140.16H207.87V147.885C207.87 148.265 207.97 148.56 208.17 148.77C208.38 148.97 208.67 149.07 209.04 149.07C209.16 149.07 209.275 149.055 209.385 149.025C209.505 148.985 209.66 148.895 209.85 148.755L210.315 149.73C210.055 149.9 209.82 150.015 209.61 150.075C209.4 150.145 209.185 150.18 208.965 150.18ZM205.365 143.565V142.5H210.12V143.565H205.365ZM212.427 145.935C212.427 145.125 212.582 144.47 212.892 143.97C213.202 143.46 213.597 143.085 214.077 142.845C214.567 142.595 215.082 142.47 215.622 142.47V143.595C215.182 143.595 214.757 143.67 214.347 143.82C213.947 143.96 213.617 144.195 213.357 144.525C213.097 144.855 212.967 145.305 212.967 145.875L212.427 145.935ZM211.767 150V142.5H212.967V150H211.767ZM221.53 150L221.41 146.04C221.39 145.45 221.315 144.965 221.185 144.585C221.055 144.195 220.855 143.905 220.585 143.715C220.315 143.515 219.955 143.415 219.505 143.415C219.075 143.415 218.7 143.5 218.38 143.67C218.07 143.84 217.815 144.105 217.615 144.465L216.55 144.03C216.74 143.68 216.975 143.38 217.255 143.13C217.535 142.87 217.865 142.67 218.245 142.53C218.625 142.39 219.05 142.32 219.52 142.32C220.21 142.32 220.785 142.455 221.245 142.725C221.705 142.995 222.045 143.4 222.265 143.94C222.495 144.47 222.61 145.135 222.61 145.935V150H221.53ZM219.25 150.18C218.36 150.18 217.665 149.98 217.165 149.58C216.675 149.17 216.43 148.605 216.43 147.885C216.43 147.125 216.68 146.545 217.18 146.145C217.69 145.735 218.4 145.53 219.31 145.53H221.95V146.535H219.58C218.88 146.535 218.38 146.65 218.08 146.88C217.79 147.11 217.645 147.44 217.645 147.87C217.645 148.26 217.79 148.57 218.08 148.8C218.37 149.02 218.775 149.13 219.295 149.13C219.735 149.13 220.115 149.03 220.435 148.83C220.755 148.63 221 148.36 221.17 148.02C221.34 147.67 221.425 147.275 221.425 146.835H222.16C222.16 147.855 221.91 148.67 221.41 149.28C220.91 149.88 220.19 150.18 219.25 150.18ZM224.586 150L224.616 142.5H225.816L225.786 150H224.586ZM225.201 140.76C225.001 140.76 224.826 140.685 224.676 140.535C224.526 140.385 224.451 140.21 224.451 140.01C224.451 139.8 224.526 139.625 224.676 139.485C224.826 139.335 225.001 139.26 225.201 139.26C225.411 139.26 225.586 139.335 225.726 139.485C225.876 139.625 225.951 139.8 225.951 140.01C225.951 140.21 225.876 140.385 225.726 140.535C225.586 140.685 225.411 140.76 225.201 140.76ZM230.997 153.18C230.517 153.18 230.077 153.13 229.677 153.03C229.287 152.94 228.952 152.835 228.672 152.715C228.402 152.605 228.207 152.51 228.087 152.43L228.537 151.455C228.667 151.525 228.852 151.61 229.092 151.71C229.332 151.82 229.612 151.91 229.932 151.98C230.262 152.06 230.612 152.1 230.982 152.1C231.462 152.1 231.892 152 232.272 151.8C232.662 151.61 232.962 151.305 233.172 150.885C233.392 150.475 233.502 149.945 233.502 149.295V142.5H234.702V149.28C234.702 150.14 234.542 150.86 234.222 151.44C233.902 152.02 233.462 152.455 232.902 152.745C232.342 153.035 231.707 153.18 230.997 153.18ZM230.952 149.94C230.282 149.94 229.692 149.78 229.182 149.46C228.672 149.14 228.272 148.695 227.982 148.125C227.702 147.545 227.562 146.885 227.562 146.145C227.562 145.385 227.702 144.72 227.982 144.15C228.272 143.57 228.672 143.12 229.182 142.8C229.692 142.48 230.282 142.32 230.952 142.32C231.582 142.32 232.132 142.48 232.602 142.8C233.072 143.12 233.437 143.57 233.697 144.15C233.967 144.72 234.102 145.385 234.102 146.145C234.102 146.895 233.967 147.555 233.697 148.125C233.437 148.695 233.072 149.14 232.602 149.46C232.132 149.78 231.582 149.94 230.952 149.94ZM231.237 148.905C231.677 148.905 232.067 148.785 232.407 148.545C232.747 148.305 233.012 147.98 233.202 147.57C233.392 147.15 233.487 146.665 233.487 146.115C233.487 145.585 233.387 145.115 233.187 144.705C232.997 144.285 232.732 143.96 232.392 143.73C232.062 143.49 231.672 143.37 231.222 143.37C230.752 143.37 230.332 143.49 229.962 143.73C229.602 143.96 229.317 144.285 229.107 144.705C228.907 145.115 228.807 145.585 228.807 146.115C228.807 146.665 228.912 147.15 229.122 147.57C229.332 147.98 229.617 148.305 229.977 148.545C230.347 148.785 230.767 148.905 231.237 148.905ZM236.611 150V139.305H237.811V150H236.611ZM241.891 150V146.16L243.091 145.71V150H241.891ZM241.891 146.16C241.891 145.42 241.801 144.855 241.621 144.465C241.451 144.075 241.216 143.81 240.916 143.67C240.616 143.52 240.276 143.445 239.896 143.445C239.236 143.445 238.721 143.68 238.351 144.15C237.991 144.61 237.811 145.265 237.811 146.115H237.226C237.226 145.325 237.341 144.645 237.571 144.075C237.801 143.505 238.136 143.07 238.576 142.77C239.016 142.47 239.546 142.32 240.166 142.32C241.066 142.32 241.781 142.6 242.311 143.16C242.841 143.72 243.101 144.57 243.091 145.71L241.891 146.16ZM247.945 150.18C247.215 150.18 246.65 149.99 246.25 149.61C245.85 149.23 245.65 148.695 245.65 148.005V140.16H246.85V147.885C246.85 148.265 246.95 148.56 247.15 148.77C247.36 148.97 247.65 149.07 248.02 149.07C248.14 149.07 248.255 149.055 248.365 149.025C248.485 148.985 248.64 148.895 248.83 148.755L249.295 149.73C249.035 149.9 248.8 150.015 248.59 150.075C248.38 150.145 248.165 150.18 247.945 150.18ZM244.345 143.565V142.5H249.1V143.565H244.345ZM257.422 150.18C256.692 150.18 256.127 149.99 255.727 149.61C255.327 149.23 255.127 148.695 255.127 148.005V140.16H256.327V147.885C256.327 148.265 256.427 148.56 256.627 148.77C256.837 148.97 257.127 149.07 257.497 149.07C257.617 149.07 257.732 149.055 257.842 149.025C257.962 148.985 258.117 148.895 258.307 148.755L258.772 149.73C258.512 149.9 258.277 150.015 258.067 150.075C257.857 150.145 257.642 150.18 257.422 150.18ZM253.822 143.565V142.5H258.577V143.565H253.822ZM263.584 150.18C262.854 150.18 262.204 150.015 261.634 149.685C261.064 149.345 260.619 148.88 260.299 148.29C259.979 147.7 259.819 147.02 259.819 146.25C259.819 145.48 259.974 144.8 260.284 144.21C260.604 143.62 261.049 143.16 261.619 142.83C262.189 142.49 262.834 142.32 263.554 142.32C264.294 142.32 264.944 142.49 265.504 142.83C266.074 143.16 266.514 143.62 266.824 144.21C267.144 144.8 267.304 145.48 267.304 146.25C267.304 147.02 267.144 147.7 266.824 148.29C266.514 148.88 266.079 149.345 265.519 149.685C264.959 150.015 264.314 150.18 263.584 150.18ZM263.584 149.04C264.074 149.04 264.504 148.925 264.874 148.695C265.244 148.455 265.534 148.125 265.744 147.705C265.954 147.285 266.059 146.8 266.059 146.25C266.059 145.7 265.949 145.215 265.729 144.795C265.519 144.375 265.224 144.05 264.844 143.82C264.474 143.58 264.044 143.46 263.554 143.46C263.064 143.46 262.634 143.58 262.264 143.82C261.894 144.05 261.599 144.375 261.379 144.795C261.169 145.215 261.064 145.7 261.064 146.25C261.064 146.8 261.169 147.285 261.379 147.705C261.599 148.125 261.899 148.455 262.279 148.695C262.659 148.925 263.094 149.04 263.584 149.04ZM273.379 153.18C273.189 153.18 272.969 153.14 272.719 153.06C272.469 152.99 272.204 152.895 271.924 152.775L272.374 151.77C272.604 151.87 272.804 151.945 272.974 151.995C273.154 152.045 273.294 152.07 273.394 152.07C273.664 152.07 273.884 151.995 274.054 151.845C274.234 151.705 274.384 151.5 274.504 151.23L275.359 149.19L278.134 142.5H279.424L275.824 151.05C275.634 151.49 275.434 151.87 275.224 152.19C275.024 152.51 274.779 152.755 274.489 152.925C274.199 153.095 273.829 153.18 273.379 153.18ZM275.029 150L271.789 142.5H273.064L275.854 149.175L276.214 150H275.029ZM283.784 150.18C283.054 150.18 282.404 150.015 281.834 149.685C281.264 149.345 280.819 148.88 280.499 148.29C280.179 147.7 280.019 147.02 280.019 146.25C280.019 145.48 280.174 144.8 280.484 144.21C280.804 143.62 281.249 143.16 281.819 142.83C282.389 142.49 283.034 142.32 283.754 142.32C284.494 142.32 285.144 142.49 285.704 142.83C286.274 143.16 286.714 143.62 287.024 144.21C287.344 144.8 287.504 145.48 287.504 146.25C287.504 147.02 287.344 147.7 287.024 148.29C286.714 148.88 286.279 149.345 285.719 149.685C285.159 150.015 284.514 150.18 283.784 150.18ZM283.784 149.04C284.274 149.04 284.704 148.925 285.074 148.695C285.444 148.455 285.734 148.125 285.944 147.705C286.154 147.285 286.259 146.8 286.259 146.25C286.259 145.7 286.149 145.215 285.929 144.795C285.719 144.375 285.424 144.05 285.044 143.82C284.674 143.58 284.244 143.46 283.754 143.46C283.264 143.46 282.834 143.58 282.464 143.82C282.094 144.05 281.799 144.375 281.579 144.795C281.369 145.215 281.264 145.7 281.264 146.25C281.264 146.8 281.369 147.285 281.579 147.705C281.799 148.125 282.099 148.455 282.479 148.695C282.859 148.925 283.294 149.04 283.784 149.04ZM294.343 150L294.268 148.62V142.5H295.468V150H294.343ZM289.003 146.79V142.5H290.203V146.34L289.003 146.79ZM290.203 146.34C290.203 147.08 290.288 147.645 290.458 148.035C290.628 148.425 290.863 148.695 291.163 148.845C291.473 148.985 291.818 149.055 292.198 149.055C292.848 149.055 293.353 148.82 293.713 148.35C294.083 147.88 294.268 147.225 294.268 146.385H294.853C294.853 147.175 294.738 147.855 294.508 148.425C294.278 148.995 293.943 149.43 293.503 149.73C293.073 150.03 292.548 150.18 291.928 150.18C291.018 150.18 290.298 149.9 289.768 149.34C289.248 148.78 288.993 147.93 289.003 146.79L290.203 146.34ZM298.223 145.935C298.223 145.125 298.378 144.47 298.688 143.97C298.998 143.46 299.393 143.085 299.873 142.845C300.363 142.595 300.878 142.47 301.418 142.47V143.595C300.978 143.595 300.553 143.67 300.143 143.82C299.743 143.96 299.413 144.195 299.153 144.525C298.893 144.855 298.763 145.305 298.763 145.875L298.223 145.935ZM297.563 150V142.5H298.763V150H297.563ZM27.05 175V164.305H28.25V175H27.05ZM32.33 175V171.16L33.53 170.71V175H32.33ZM32.33 171.16C32.33 170.42 32.24 169.855 32.06 169.465C31.89 169.075 31.655 168.81 31.355 168.67C31.055 168.52 30.715 168.445 30.335 168.445C29.675 168.445 29.16 168.68 28.79 169.15C28.43 169.61 28.25 170.265 28.25 171.115H27.665C27.665 170.325 27.78 169.645 28.01 169.075C28.24 168.505 28.575 168.07 29.015 167.77C29.455 167.47 29.985 167.32 30.605 167.32C31.505 167.32 32.22 167.6 32.75 168.16C33.28 168.72 33.54 169.57 33.53 170.71L32.33 171.16ZM38.7743 175.18C38.0443 175.18 37.3943 175.015 36.8243 174.685C36.2543 174.345 35.8093 173.88 35.4893 173.29C35.1693 172.7 35.0093 172.02 35.0093 171.25C35.0093 170.48 35.1643 169.8 35.4743 169.21C35.7943 168.62 36.2393 168.16 36.8093 167.83C37.3793 167.49 38.0243 167.32 38.7443 167.32C39.4843 167.32 40.1343 167.49 40.6943 167.83C41.2643 168.16 41.7043 168.62 42.0143 169.21C42.3343 169.8 42.4943 170.48 42.4943 171.25C42.4943 172.02 42.3343 172.7 42.0143 173.29C41.7043 173.88 41.2693 174.345 40.7093 174.685C40.1493 175.015 39.5043 175.18 38.7743 175.18ZM38.7743 174.04C39.2643 174.04 39.6943 173.925 40.0643 173.695C40.4343 173.455 40.7243 173.125 40.9343 172.705C41.1443 172.285 41.2493 171.8 41.2493 171.25C41.2493 170.7 41.1393 170.215 40.9193 169.795C40.7093 169.375 40.4143 169.05 40.0343 168.82C39.6643 168.58 39.2343 168.46 38.7443 168.46C38.2543 168.46 37.8243 168.58 37.4543 168.82C37.0843 169.05 36.7893 169.375 36.5693 169.795C36.3593 170.215 36.2543 170.7 36.2543 171.25C36.2543 171.8 36.3593 172.285 36.5693 172.705C36.7893 173.125 37.0893 173.455 37.4693 173.695C37.8493 173.925 38.2843 174.04 38.7743 174.04ZM44.1887 175V167.5H45.3137L45.3887 168.88V175H44.1887ZM49.4537 175V171.16L50.6537 170.71V175H49.4537ZM54.7337 175V171.16L55.9337 170.71V175H54.7337ZM49.4537 171.16C49.4537 170.42 49.3687 169.855 49.1987 169.465C49.0287 169.075 48.7937 168.81 48.4937 168.67C48.1937 168.52 47.8537 168.445 47.4737 168.445C46.8137 168.445 46.2987 168.68 45.9287 169.15C45.5687 169.61 45.3887 170.265 45.3887 171.115H44.8037C44.8037 170.325 44.9187 169.645 45.1487 169.075C45.3787 168.505 45.7087 168.07 46.1387 167.77C46.5787 167.47 47.1087 167.32 47.7287 167.32C48.6387 167.32 49.3537 167.6 49.8737 168.16C50.4037 168.72 50.6637 169.57 50.6537 170.71L49.4537 171.16ZM54.7337 171.16C54.7337 170.42 54.6437 169.855 54.4637 169.465C54.2937 169.075 54.0587 168.81 53.7587 168.67C53.4587 168.52 53.1187 168.445 52.7387 168.445C52.0787 168.445 51.5637 168.68 51.1937 169.15C50.8337 169.61 50.6537 170.265 50.6537 171.115H50.0687C50.0687 170.325 50.1837 169.645 50.4137 169.075C50.6437 168.505 50.9787 168.07 51.4187 167.77C51.8587 167.47 52.3887 167.32 53.0087 167.32C53.9087 167.32 54.6187 167.6 55.1387 168.16C55.6687 168.72 55.9337 169.57 55.9337 170.71L54.7337 171.16ZM61.1414 175.18C60.4114 175.18 59.7664 175.015 59.2064 174.685C58.6564 174.345 58.2214 173.88 57.9014 173.29C57.5814 172.7 57.4214 172.02 57.4214 171.25C57.4214 170.48 57.5764 169.8 57.8864 169.21C58.2064 168.62 58.6464 168.16 59.2064 167.83C59.7664 167.49 60.4014 167.32 61.1114 167.32C61.8114 167.32 62.4164 167.495 62.9264 167.845C63.4364 168.185 63.8314 168.665 64.1114 169.285C64.3914 169.905 64.5314 170.635 64.5314 171.475H63.3314C63.3314 170.835 63.2464 170.29 63.0764 169.84C62.9064 169.38 62.6564 169.025 62.3264 168.775C61.9964 168.525 61.5864 168.4 61.0964 168.4C60.6064 168.4 60.1764 168.52 59.8064 168.76C59.4464 168.99 59.1664 169.32 58.9664 169.75C58.7664 170.18 58.6664 170.685 58.6664 171.265C58.6664 171.835 58.7764 172.33 58.9964 172.75C59.2164 173.16 59.5164 173.485 59.8964 173.725C60.2764 173.955 60.7114 174.07 61.2014 174.07C61.7314 174.07 62.1764 173.945 62.5364 173.695C62.8964 173.445 63.1764 173.12 63.3764 172.72L64.4414 173.245C64.2414 173.635 63.9814 173.975 63.6614 174.265C63.3514 174.555 62.9864 174.78 62.5664 174.94C62.1464 175.1 61.6714 175.18 61.1414 175.18ZM58.2314 171.475V170.44H63.7964V171.475H58.2314ZM66.5981 175.21C66.3681 175.21 66.1681 175.13 65.9981 174.97C65.8381 174.8 65.7581 174.605 65.7581 174.385C65.7581 174.155 65.8381 173.96 65.9981 173.8C66.1681 173.63 66.3681 173.545 66.5981 173.545C66.8281 173.545 67.0231 173.63 67.1831 173.8C67.3431 173.96 67.4231 174.155 67.4231 174.385C67.4231 174.605 67.3431 174.8 67.1831 174.97C67.0231 175.13 66.8281 175.21 66.5981 175.21Z" fill="#263238"/>
<path d="M107.198 77.1688L100.791 66.5454C100.272 65.6761 99.5348 64.9559 98.6521 64.4552C97.7693 63.9544 96.7711 63.6902 95.7551 63.6885H86.5178L88.2293 55.8964C88.3261 55.4233 88.3157 54.9348 88.1989 54.4662C88.0821 53.9977 87.8619 53.5609 87.5542 53.1878C87.2466 52.8146 86.8592 52.5143 86.4204 52.3089C85.9815 52.1034 85.5021 51.9979 85.0172 52H39.4955C38.7465 52.0053 38.0218 52.266 37.4425 52.7387C36.8632 53.2114 36.4641 53.8675 36.3119 54.5976L35.6202 57.7428C35.5821 57.915 35.6143 58.0952 35.7097 58.2438C35.8051 58.3924 35.9559 58.4972 36.1289 58.5351C36.302 58.5731 36.483 58.541 36.6323 58.446C36.7816 58.3511 36.8869 58.201 36.925 58.0287L37.6167 54.8731C37.707 54.4392 37.9415 54.0481 38.2823 53.763C38.6232 53.478 39.0505 53.3155 39.4955 53.3017H85.0172C85.3091 53.3027 85.597 53.3687 85.86 53.4948C86.1229 53.621 86.3542 53.8041 86.5369 54.0307C86.7195 54.2573 86.8489 54.5218 86.9156 54.8047C86.9823 55.0875 86.9845 55.3817 86.9222 55.6655L85.0958 63.9901C85.0546 64.0542 85.0238 64.1243 85.0043 64.1978L78.6243 93.5617H48.4852C48.4452 93.1537 48.3709 92.7497 48.2631 92.354V92.2113C48.1571 91.8402 48.0174 91.4795 47.8459 91.1335L47.6891 90.9647C47.5122 90.6306 47.3116 90.3093 47.0889 90.0035L46.9723 89.8608C46.7444 89.5625 46.4909 89.2844 46.2148 89.0296L46.0842 88.9136C45.8053 88.6578 45.504 88.4274 45.1839 88.225L45.0405 88.134C44.7061 87.9343 44.3573 87.7598 43.9968 87.6119H43.8662C43.4896 87.4662 43.101 87.3532 42.7048 87.2743H42.6133C41.7521 87.1011 40.8649 87.1011 40.0037 87.2743H39.9128C39.5166 87.3532 39.128 87.4662 38.7514 87.6119H38.6208C38.2603 87.7598 37.9115 87.9343 37.5771 88.134L37.4337 88.225C37.1136 88.4274 36.8123 88.6578 36.5334 88.9136L36.4028 89.0296C36.1267 89.2844 35.8732 89.5625 35.6453 89.8608L35.5287 90.0035C35.306 90.3093 35.1054 90.6306 34.9285 90.9647L34.8504 91.1208C34.6788 91.4667 34.5392 91.8275 34.4331 92.1985V92.3412C34.2983 92.738 34.1979 93.1455 34.133 93.5594H29.1621L31.5234 86.624C31.5646 86.5412 31.5876 86.4506 31.5908 86.3582C31.594 86.2659 31.5773 86.1739 31.5419 86.0884C31.5065 86.003 31.4532 85.926 31.3856 85.8628C31.3179 85.7995 31.2374 85.7513 31.1495 85.7215C31.0616 85.6917 30.9684 85.6809 30.876 85.6898C30.7835 85.6988 30.6941 85.7272 30.6136 85.7734C30.5332 85.8195 30.4635 85.8822 30.4094 85.9573C30.3552 86.0323 30.3178 86.1181 30.2996 86.2087L28.6679 90.9618H28.1854C27.6367 90.9613 27.1019 91.133 26.6568 91.4523C26.2118 91.7717 25.8792 92.2226 25.7063 92.7409L25 94.857H34.133C34.133 96.7515 34.889 98.5683 36.2348 99.9079C37.5806 101.247 39.4059 102 41.3091 102C43.2123 102 45.0376 101.247 46.3834 99.9079C47.7291 98.5683 48.4852 96.7515 48.4852 94.857H83.713C83.713 96.7515 84.469 98.5683 85.8148 99.9079C87.1606 101.247 88.9858 102 90.889 102C92.7923 102 94.6175 101.247 95.9633 99.9079C97.3091 98.5683 98.0651 96.7515 98.0651 94.857H105.893L106.05 94.3767C106.262 93.7307 106.212 93.0275 105.909 92.418C105.607 91.8085 105.076 91.3413 104.432 91.1167L107.642 82.1169C107.939 81.3106 108.054 80.4488 107.977 79.5933C107.9 78.7378 107.634 77.9098 107.198 77.1688ZM41.3091 100.052C40.1479 100.052 39.0127 99.7094 38.0472 99.0672C37.0816 98.425 36.3291 97.5123 35.8847 96.4444C35.4403 95.3765 35.3241 94.2014 35.5506 93.0678C35.7772 91.9341 36.3363 90.8927 37.1575 90.0754C37.9786 89.2581 39.0247 88.7015 40.1637 88.476C41.3026 88.2505 42.4831 88.3662 43.5559 88.8085C44.6288 89.2509 45.5457 89.9999 46.1909 90.961C46.836 91.9221 47.1804 93.052 47.1804 94.2079C47.1804 95.7579 46.5618 97.2444 45.4607 98.3404C44.3596 99.4364 42.8663 100.052 41.3091 100.052ZM90.8885 100.052C89.7272 100.052 88.5921 99.7094 87.6265 99.0672C86.661 98.425 85.9085 97.5123 85.4641 96.4444C85.0197 95.3765 84.9034 94.2014 85.13 93.0678C85.3565 91.9341 85.9157 90.8927 86.7368 90.0754C87.5579 89.2581 88.6041 88.7015 89.743 88.476C90.882 88.2505 92.0625 88.3662 93.1353 88.8085C94.2081 89.2509 95.1251 89.9999 95.7703 90.961C96.4154 91.9221 96.7598 93.052 96.7598 94.2079C96.7598 95.7579 96.1412 97.2444 95.0401 98.3404C93.939 99.4364 92.4456 100.052 90.8885 100.052ZM106.415 81.6754L102.175 93.5588H98.0651C98.0258 93.1506 97.9521 92.7464 97.8449 92.3505V92.2078C97.7366 91.8375 97.597 91.4769 97.4276 91.13L97.2708 90.9612C97.091 90.6287 96.8905 90.3077 96.6706 90.0001L96.554 89.8574C96.3261 89.559 96.0726 89.2809 95.7965 89.0261L95.6659 88.8962C95.3835 88.6487 95.0825 88.4229 94.7656 88.221L94.6222 88.1299C94.2907 87.9252 93.9414 87.7505 93.5785 87.6078H93.4479C93.0713 87.4621 92.6827 87.3492 92.2865 87.2702H92.1921C91.3311 87.0954 90.4435 87.0954 89.5825 87.2702H89.491C89.0948 87.3492 88.7062 87.4621 88.3296 87.6078H88.199C87.8361 87.7505 87.4868 87.9252 87.1553 88.1299L87.012 88.221C86.695 88.4229 86.394 88.6486 86.1116 88.8962L85.981 89.0261C85.7049 89.2809 85.4514 89.559 85.2235 89.8574L85.1069 90.0001C84.887 90.3077 84.6865 90.6287 84.5067 90.9612L84.4286 91.1173C84.2592 91.4642 84.1196 91.8247 84.0113 92.1951V92.3378C83.8765 92.7345 83.7761 93.1421 83.7112 93.5559H79.9273L86.2031 64.9844H95.7294C96.5193 64.9848 97.2956 65.1897 97.9819 65.579C98.6681 65.9683 99.2409 66.5286 99.6438 67.2049L106.011 77.8284C106.358 78.4002 106.574 79.0411 106.644 79.7055C106.714 80.37 106.636 81.0416 106.415 81.6725L106.415 81.6754Z" fill="#263238" stroke="#263238" stroke-width="0.5"/>
<path d="M97.4252 69.2204C97.14 68.7236 96.7279 68.3106 96.2308 68.0233C95.7336 67.7359 95.1691 67.5844 94.5942 67.584H89.5825C89.4413 67.5839 89.3039 67.6294 89.1909 67.7137C89.0779 67.7981 88.9955 67.9166 88.956 68.0515L86.3482 77.1424C86.3227 77.2395 86.3188 77.3409 86.3368 77.4396C86.3548 77.5383 86.3943 77.6319 86.4525 77.7138C86.5128 77.7955 86.5919 77.8617 86.6831 77.9069C86.7743 77.9521 86.8751 77.975 86.9769 77.9737H96.8256C97.3975 77.9754 97.9598 77.8271 98.4558 77.5438C98.9518 77.2604 99.3641 76.8519 99.6511 76.3595C99.9381 75.8671 100.09 75.3081 100.091 74.7389C100.092 74.1696 99.942 73.6101 99.6566 73.1167L97.4252 69.2204ZM98.5214 75.7137C98.3505 76.011 98.1034 76.2577 97.8054 76.4288C97.5074 76.5999 97.169 76.6893 96.825 76.6877H87.8359L90.0801 68.8955H94.5948C94.9403 68.8938 95.28 68.9844 95.5784 69.1578C95.8767 69.3313 96.1229 69.5813 96.2912 69.8817L98.5354 73.778C98.7005 74.0722 98.7861 74.4039 98.7838 74.7409C98.7816 75.0778 98.6916 75.4084 98.5226 75.7004L98.5214 75.7137Z" fill="#263238" stroke="#263238" stroke-width="0.5"/>
<path d="M41.3108 90.9609C40.6654 90.9609 40.0344 91.1515 39.4977 91.5084C38.9611 91.8653 38.5428 92.3727 38.2958 92.9662C38.0488 93.5598 37.9842 94.213 38.1101 94.8431C38.236 95.4732 38.5468 96.052 39.0032 96.5063C39.4596 96.9606 40.0411 97.27 40.6741 97.3953C41.3072 97.5207 41.9634 97.4564 42.5597 97.2105C43.156 96.9646 43.6657 96.5483 44.0243 96.0141C44.3829 95.4799 44.5743 94.8518 44.5743 94.2093C44.5743 93.3478 44.2304 92.5216 43.6184 91.9124C43.0064 91.3032 42.1763 90.9609 41.3108 90.9609ZM41.3108 96.1555C40.9237 96.1557 40.5451 96.0416 40.2231 95.8277C39.9011 95.6137 39.6501 95.3094 39.5019 94.9534C39.3536 94.5974 39.3148 94.2056 39.3903 93.8277C39.4659 93.4497 39.6523 93.1025 39.9261 92.83C40.1999 92.5576 40.5488 92.3721 40.9285 92.297C41.3083 92.222 41.7019 92.2607 42.0595 92.4084C42.4171 92.556 42.7227 92.806 42.9375 93.1266C43.1524 93.4471 43.2669 93.824 43.2666 94.2093C43.2661 94.7255 43.0599 95.2203 42.6932 95.5852C42.3265 95.9501 41.8293 96.1552 41.3108 96.1555Z" fill="#263238" stroke="#263238" stroke-width="0.5"/>
<path d="M90.8904 90.9609C90.245 90.9609 89.614 91.1515 89.0773 91.5084C88.5407 91.8653 88.1224 92.3727 87.8754 92.9662C87.6284 93.5598 87.5637 94.213 87.6897 94.8431C87.8156 95.4732 88.1264 96.052 88.5828 96.5063C89.0392 96.9606 89.6207 97.27 90.2537 97.3953C90.8868 97.5207 91.543 97.4564 92.1393 97.2105C92.7356 96.9646 93.2453 96.5483 93.6039 96.0141C93.9625 95.4799 94.1539 94.8518 94.1539 94.2093C94.1539 93.3478 93.81 92.5216 93.198 91.9124C92.586 91.3032 91.7559 90.9609 90.8904 90.9609ZM90.8904 96.1555C90.5032 96.1558 90.1246 96.0418 89.8025 95.8279C89.4805 95.614 89.2294 95.3098 89.081 94.9538C88.9327 94.5978 88.8938 94.206 88.9693 93.828C89.0447 93.45 89.2311 93.1028 89.5049 92.8302C89.7787 92.5577 90.1275 92.3722 90.5073 92.2971C90.8871 92.222 91.2807 92.2607 91.6383 92.4083C91.996 92.556 92.3016 92.8059 92.5165 93.1265C92.7314 93.4471 92.8459 93.8239 92.8456 94.2093C92.8451 94.7254 92.639 95.2201 92.2724 95.585C91.9058 95.9498 91.4088 96.155 90.8904 96.1555Z" fill="#263238" stroke="#263238" stroke-width="0.5"/>
<path d="M28.9142 63.6884H57.618C57.964 63.6884 58.2959 63.5516 58.5406 63.308C58.7853 63.0644 58.9228 62.7341 58.9228 62.3896C58.9228 62.0451 58.7853 61.7148 58.5406 61.4712C58.2959 61.2277 57.964 61.0908 57.618 61.0908H28.9142C28.5681 61.0908 28.2362 61.2277 27.9915 61.4712C27.7468 61.7148 27.6094 62.0451 27.6094 62.3896C27.6094 62.7341 27.7468 63.0644 27.9915 63.308C28.2362 63.5516 28.5681 63.6884 28.9142 63.6884Z" fill="#263238" stroke="#263238" stroke-width="0.5"/>
<path d="M53.7045 75.3769C53.7045 75.0324 53.5671 74.7021 53.3224 74.4585C53.0777 74.215 52.7458 74.0781 52.3997 74.0781H30.2193C29.8733 74.0781 29.5414 74.215 29.2967 74.4585C29.052 74.7021 28.9146 75.0324 28.9146 75.3769C28.9146 75.7214 29.052 76.0517 29.2967 76.2953C29.5414 76.5389 29.8733 76.6757 30.2193 76.6757H52.3997C52.5711 76.6757 52.7407 76.6421 52.8991 76.5768C53.0574 76.5116 53.2012 76.4159 53.3224 76.2953C53.4435 76.1747 53.5396 76.0315 53.6052 75.8739C53.6708 75.7164 53.7045 75.5475 53.7045 75.3769Z" fill="#263238" stroke="#263238" stroke-width="0.5"/>
<path d="M56.314 68.8828C56.314 68.5383 56.1765 68.208 55.9318 67.9644C55.6871 67.7208 55.3553 67.584 55.0092 67.584H31.524C31.178 67.584 30.8461 67.7208 30.6014 67.9644C30.3567 68.208 30.2192 68.5383 30.2192 68.8828C30.2192 69.2272 30.3567 69.5576 30.6014 69.8011C30.8461 70.0447 31.178 70.1816 31.524 70.1816H55.0092C55.3553 70.1816 55.6871 70.0447 55.9318 69.8011C56.1765 69.5576 56.314 69.2272 56.314 68.8828Z" fill="#263238" stroke="#263238" stroke-width="0.5"/>
<path d="M27.9101 70.0112C28.5538 70.0112 29.0757 69.4918 29.0757 68.8511C29.0757 68.2103 28.5538 67.6909 27.9101 67.6909C27.2664 67.6909 26.7446 68.2103 26.7446 68.8511C26.7446 69.4918 27.2664 70.0112 27.9101 70.0112Z" fill="#263238" stroke="#263238" stroke-width="0.5"/>
<path d="M32.8282 80.5713C32.4822 80.5713 32.1503 80.7081 31.9056 80.9517C31.6609 81.1953 31.5234 81.5256 31.5234 81.8701C31.5234 82.2145 31.6609 82.5449 31.9056 82.7885C32.1503 83.032 32.4822 83.1689 32.8282 83.1689H49.7894C50.1355 83.1689 50.4674 83.032 50.7121 82.7885C50.9568 82.5449 51.0942 82.2145 51.0942 81.8701C51.0942 81.5256 50.9568 81.1953 50.7121 80.9517C50.4674 80.7081 50.1355 80.5713 49.7894 80.5713H32.8282Z" fill="#263238" stroke="#263238" stroke-width="0.5"/>
<path d="M29.0757 83.353C29.7194 83.353 30.2412 82.8336 30.2412 82.1929C30.2412 81.5521 29.7194 81.0327 29.0757 81.0327C28.432 81.0327 27.9102 81.5521 27.9102 82.1929C27.9102 82.8336 28.432 83.353 29.0757 83.353Z" fill="#263238" stroke="#263238" stroke-width="0.5"/>
</svg>
