<svg width="420" height="328" viewBox="0 0 420 328" fill="none" xmlns="http://www.w3.org/2000/svg">
<rect width="420" height="328" fill="#E3E8EB"/>
<path d="M91.755 187.18C91.175 187.18 90.66 187.12 90.21 187C89.76 186.87 89.37 186.695 89.04 186.475C88.71 186.245 88.44 185.995 88.23 185.725C88.02 185.445 87.865 185.15 87.765 184.84L88.98 184.42C89.13 184.86 89.43 185.245 89.88 185.575C90.34 185.895 90.9 186.055 91.56 186.055C92.37 186.055 93.005 185.895 93.465 185.575C93.925 185.255 94.155 184.83 94.155 184.3C94.155 183.81 93.95 183.415 93.54 183.115C93.13 182.805 92.59 182.565 91.92 182.395L90.765 182.095C90.295 181.975 89.86 181.8 89.46 181.57C89.07 181.33 88.755 181.03 88.515 180.67C88.285 180.3 88.17 179.86 88.17 179.35C88.17 178.4 88.475 177.66 89.085 177.13C89.705 176.59 90.595 176.32 91.755 176.32C92.445 176.32 93.04 176.435 93.54 176.665C94.04 176.885 94.445 177.17 94.755 177.52C95.075 177.86 95.3 178.23 95.43 178.63L94.23 179.05C94.04 178.55 93.72 178.16 93.27 177.88C92.82 177.59 92.275 177.445 91.635 177.445C90.965 177.445 90.43 177.61 90.03 177.94C89.64 178.26 89.445 178.7 89.445 179.26C89.445 179.74 89.6 180.11 89.91 180.37C90.22 180.62 90.625 180.805 91.125 180.925L92.28 181.21C93.3 181.45 94.08 181.85 94.62 182.41C95.17 182.96 95.445 183.555 95.445 184.195C95.445 184.745 95.305 185.25 95.025 185.71C94.745 186.16 94.33 186.52 93.78 186.79C93.24 187.05 92.565 187.18 91.755 187.18ZM97.2639 187V176.305H98.4639V187H97.2639ZM102.544 187V183.16L103.744 182.71V187H102.544ZM102.544 183.16C102.544 182.42 102.454 181.855 102.274 181.465C102.104 181.075 101.869 180.81 101.569 180.67C101.269 180.52 100.929 180.445 100.549 180.445C99.8889 180.445 99.3739 180.68 99.0039 181.15C98.6439 181.61 98.4639 182.265 98.4639 183.115H97.8789C97.8789 182.325 97.9939 181.645 98.2239 181.075C98.4539 180.505 98.7889 180.07 99.2289 179.77C99.6689 179.47 100.199 179.32 100.819 179.32C101.719 179.32 102.434 179.6 102.964 180.16C103.494 180.72 103.754 181.57 103.744 182.71L102.544 183.16ZM105.703 187L105.733 179.5H106.933L106.903 187H105.703ZM106.318 177.76C106.118 177.76 105.943 177.685 105.793 177.535C105.643 177.385 105.568 177.21 105.568 177.01C105.568 176.8 105.643 176.625 105.793 176.485C105.943 176.335 106.118 176.26 106.318 176.26C106.528 176.26 106.703 176.335 106.843 176.485C106.993 176.625 107.068 176.8 107.068 177.01C107.068 177.21 106.993 177.385 106.843 177.535C106.703 177.685 106.528 177.76 106.318 177.76ZM109.189 190V179.5H110.314L110.389 180.88V190H109.189ZM112.924 187.18C112.294 187.18 111.739 187.015 111.259 186.685C110.789 186.355 110.424 185.895 110.164 185.305C109.904 184.705 109.774 184.02 109.774 183.25C109.774 182.47 109.904 181.785 110.164 181.195C110.424 180.605 110.789 180.145 111.259 179.815C111.739 179.485 112.294 179.32 112.924 179.32C113.594 179.32 114.184 179.485 114.694 179.815C115.204 180.145 115.599 180.605 115.879 181.195C116.169 181.785 116.314 182.47 116.314 183.25C116.314 184.02 116.169 184.705 115.879 185.305C115.599 185.895 115.204 186.355 114.694 186.685C114.184 187.015 113.594 187.18 112.924 187.18ZM112.654 186.085C113.124 186.085 113.539 185.965 113.899 185.725C114.269 185.485 114.559 185.15 114.769 184.72C114.989 184.29 115.099 183.8 115.099 183.25C115.099 182.7 114.994 182.21 114.784 181.78C114.584 181.35 114.299 181.015 113.929 180.775C113.559 180.535 113.139 180.415 112.669 180.415C112.229 180.415 111.834 180.535 111.484 180.775C111.144 181.015 110.874 181.35 110.674 181.78C110.484 182.21 110.389 182.7 110.389 183.25C110.389 183.8 110.484 184.29 110.674 184.72C110.874 185.15 111.144 185.485 111.484 185.725C111.824 185.965 112.214 186.085 112.654 186.085ZM118.052 190V179.5H119.177L119.252 180.88V190H118.052ZM121.787 187.18C121.157 187.18 120.602 187.015 120.122 186.685C119.652 186.355 119.287 185.895 119.027 185.305C118.767 184.705 118.637 184.02 118.637 183.25C118.637 182.47 118.767 181.785 119.027 181.195C119.287 180.605 119.652 180.145 120.122 179.815C120.602 179.485 121.157 179.32 121.787 179.32C122.457 179.32 123.047 179.485 123.557 179.815C124.067 180.145 124.462 180.605 124.742 181.195C125.032 181.785 125.177 182.47 125.177 183.25C125.177 184.02 125.032 184.705 124.742 185.305C124.462 185.895 124.067 186.355 123.557 186.685C123.047 187.015 122.457 187.18 121.787 187.18ZM121.517 186.085C121.987 186.085 122.402 185.965 122.762 185.725C123.132 185.485 123.422 185.15 123.632 184.72C123.852 184.29 123.962 183.8 123.962 183.25C123.962 182.7 123.857 182.21 123.647 181.78C123.447 181.35 123.162 181.015 122.792 180.775C122.422 180.535 122.002 180.415 121.532 180.415C121.092 180.415 120.697 180.535 120.347 180.775C120.007 181.015 119.737 181.35 119.537 181.78C119.347 182.21 119.252 182.7 119.252 183.25C119.252 183.8 119.347 184.29 119.537 184.72C119.737 185.15 120.007 185.485 120.347 185.725C120.687 185.965 121.077 186.085 121.517 186.085ZM126.914 187L126.944 179.5H128.144L128.114 187H126.914ZM127.529 177.76C127.329 177.76 127.154 177.685 127.004 177.535C126.854 177.385 126.779 177.21 126.779 177.01C126.779 176.8 126.854 176.625 127.004 176.485C127.154 176.335 127.329 176.26 127.529 176.26C127.739 176.26 127.914 176.335 128.054 176.485C128.204 176.625 128.279 176.8 128.279 177.01C128.279 177.21 128.204 177.385 128.054 177.535C127.914 177.685 127.739 177.76 127.529 177.76ZM130.325 187V179.5H131.45L131.525 180.88V187H130.325ZM135.59 187V183.16L136.79 182.71V187H135.59ZM135.59 183.16C135.59 182.42 135.505 181.855 135.335 181.465C135.165 181.075 134.93 180.81 134.63 180.67C134.33 180.52 133.99 180.445 133.61 180.445C132.95 180.445 132.435 180.68 132.065 181.15C131.705 181.61 131.525 182.265 131.525 183.115H130.94C130.94 182.325 131.055 181.645 131.285 181.075C131.515 180.505 131.845 180.07 132.275 179.77C132.715 179.47 133.245 179.32 133.865 179.32C134.775 179.32 135.49 179.6 136.01 180.16C136.54 180.72 136.8 181.57 136.79 182.71L135.59 183.16ZM141.69 190.18C141.21 190.18 140.77 190.13 140.37 190.03C139.98 189.94 139.645 189.835 139.365 189.715C139.095 189.605 138.9 189.51 138.78 189.43L139.23 188.455C139.36 188.525 139.545 188.61 139.785 188.71C140.025 188.82 140.305 188.91 140.625 188.98C140.955 189.06 141.305 189.1 141.675 189.1C142.155 189.1 142.585 189 142.965 188.8C143.355 188.61 143.655 188.305 143.865 187.885C144.085 187.475 144.195 186.945 144.195 186.295V179.5H145.395V186.28C145.395 187.14 145.235 187.86 144.915 188.44C144.595 189.02 144.155 189.455 143.595 189.745C143.035 190.035 142.4 190.18 141.69 190.18ZM141.645 186.94C140.975 186.94 140.385 186.78 139.875 186.46C139.365 186.14 138.965 185.695 138.675 185.125C138.395 184.545 138.255 183.885 138.255 183.145C138.255 182.385 138.395 181.72 138.675 181.15C138.965 180.57 139.365 180.12 139.875 179.8C140.385 179.48 140.975 179.32 141.645 179.32C142.275 179.32 142.825 179.48 143.295 179.8C143.765 180.12 144.13 180.57 144.39 181.15C144.66 181.72 144.795 182.385 144.795 183.145C144.795 183.895 144.66 184.555 144.39 185.125C144.13 185.695 143.765 186.14 143.295 186.46C142.825 186.78 142.275 186.94 141.645 186.94ZM141.93 185.905C142.37 185.905 142.76 185.785 143.1 185.545C143.44 185.305 143.705 184.98 143.895 184.57C144.085 184.15 144.18 183.665 144.18 183.115C144.18 182.585 144.08 182.115 143.88 181.705C143.69 181.285 143.425 180.96 143.085 180.73C142.755 180.49 142.365 180.37 141.915 180.37C141.445 180.37 141.025 180.49 140.655 180.73C140.295 180.96 140.01 181.285 139.8 181.705C139.6 182.115 139.5 182.585 139.5 183.115C139.5 183.665 139.605 184.15 139.815 184.57C140.025 184.98 140.31 185.305 140.67 185.545C141.04 185.785 141.46 185.905 141.93 185.905ZM153.979 187.18C153.249 187.18 152.684 186.99 152.284 186.61C151.884 186.23 151.684 185.695 151.684 185.005V177.16H152.884V184.885C152.884 185.265 152.984 185.56 153.184 185.77C153.394 185.97 153.684 186.07 154.054 186.07C154.174 186.07 154.289 186.055 154.399 186.025C154.519 185.985 154.674 185.895 154.864 185.755L155.329 186.73C155.069 186.9 154.834 187.015 154.624 187.075C154.414 187.145 154.199 187.18 153.979 187.18ZM150.379 180.565V179.5H155.134V180.565H150.379ZM156.78 187V176.305H157.98V187H156.78ZM162.06 187V183.16L163.26 182.71V187H162.06ZM162.06 183.16C162.06 182.42 161.97 181.855 161.79 181.465C161.62 181.075 161.385 180.81 161.085 180.67C160.785 180.52 160.445 180.445 160.065 180.445C159.405 180.445 158.89 180.68 158.52 181.15C158.16 181.61 157.98 182.265 157.98 183.115H157.395C157.395 182.325 157.51 181.645 157.74 181.075C157.97 180.505 158.305 180.07 158.745 179.77C159.185 179.47 159.715 179.32 160.335 179.32C161.235 179.32 161.95 179.6 162.48 180.16C163.01 180.72 163.27 181.57 163.26 182.71L162.06 183.16ZM168.46 187.18C167.73 187.18 167.085 187.015 166.525 186.685C165.975 186.345 165.54 185.88 165.22 185.29C164.9 184.7 164.74 184.02 164.74 183.25C164.74 182.48 164.895 181.8 165.205 181.21C165.525 180.62 165.965 180.16 166.525 179.83C167.085 179.49 167.72 179.32 168.43 179.32C169.13 179.32 169.735 179.495 170.245 179.845C170.755 180.185 171.15 180.665 171.43 181.285C171.71 181.905 171.85 182.635 171.85 183.475H170.65C170.65 182.835 170.565 182.29 170.395 181.84C170.225 181.38 169.975 181.025 169.645 180.775C169.315 180.525 168.905 180.4 168.415 180.4C167.925 180.4 167.495 180.52 167.125 180.76C166.765 180.99 166.485 181.32 166.285 181.75C166.085 182.18 165.985 182.685 165.985 183.265C165.985 183.835 166.095 184.33 166.315 184.75C166.535 185.16 166.835 185.485 167.215 185.725C167.595 185.955 168.03 186.07 168.52 186.07C169.05 186.07 169.495 185.945 169.855 185.695C170.215 185.445 170.495 185.12 170.695 184.72L171.76 185.245C171.56 185.635 171.3 185.975 170.98 186.265C170.67 186.555 170.305 186.78 169.885 186.94C169.465 187.1 168.99 187.18 168.46 187.18ZM165.55 183.475V182.44H171.115V183.475H165.55ZM177.113 187V176.5H178.313V185.605L178.253 187H177.113ZM180.848 187.18C180.218 187.18 179.663 187.015 179.183 186.685C178.713 186.355 178.348 185.895 178.088 185.305C177.828 184.705 177.698 184.02 177.698 183.25C177.698 182.47 177.828 181.785 178.088 181.195C178.348 180.605 178.713 180.145 179.183 179.815C179.663 179.485 180.218 179.32 180.848 179.32C181.518 179.32 182.108 179.485 182.618 179.815C183.128 180.145 183.523 180.605 183.803 181.195C184.093 181.785 184.238 182.47 184.238 183.25C184.238 184.02 184.093 184.705 183.803 185.305C183.523 185.895 183.128 186.355 182.618 186.685C182.108 187.015 181.518 187.18 180.848 187.18ZM180.578 186.085C181.048 186.085 181.463 185.965 181.823 185.725C182.193 185.485 182.483 185.15 182.693 184.72C182.913 184.29 183.023 183.8 183.023 183.25C183.023 182.7 182.918 182.21 182.708 181.78C182.508 181.35 182.223 181.015 181.853 180.775C181.483 180.535 181.063 180.415 180.593 180.415C180.153 180.415 179.758 180.535 179.408 180.775C179.068 181.015 178.798 181.35 178.598 181.78C178.408 182.21 178.313 182.7 178.313 183.25C178.313 183.8 178.408 184.29 178.598 184.72C178.798 185.15 179.068 185.485 179.408 185.725C179.748 185.965 180.138 186.085 180.578 186.085ZM189.217 187.18C188.487 187.18 187.842 187.015 187.282 186.685C186.732 186.345 186.297 185.88 185.977 185.29C185.657 184.7 185.497 184.02 185.497 183.25C185.497 182.48 185.652 181.8 185.962 181.21C186.282 180.62 186.722 180.16 187.282 179.83C187.842 179.49 188.477 179.32 189.187 179.32C189.887 179.32 190.492 179.495 191.002 179.845C191.512 180.185 191.907 180.665 192.187 181.285C192.467 181.905 192.607 182.635 192.607 183.475H191.407C191.407 182.835 191.322 182.29 191.152 181.84C190.982 181.38 190.732 181.025 190.402 180.775C190.072 180.525 189.662 180.4 189.172 180.4C188.682 180.4 188.252 180.52 187.882 180.76C187.522 180.99 187.242 181.32 187.042 181.75C186.842 182.18 186.742 182.685 186.742 183.265C186.742 183.835 186.852 184.33 187.072 184.75C187.292 185.16 187.592 185.485 187.972 185.725C188.352 185.955 188.787 186.07 189.277 186.07C189.807 186.07 190.252 185.945 190.612 185.695C190.972 185.445 191.252 185.12 191.452 184.72L192.517 185.245C192.317 185.635 192.057 185.975 191.737 186.265C191.427 186.555 191.062 186.78 190.642 186.94C190.222 187.1 189.747 187.18 189.217 187.18ZM186.307 183.475V182.44H191.872V183.475H186.307ZM196.788 187.18C196.238 187.18 195.758 187.1 195.348 186.94C194.938 186.77 194.593 186.55 194.313 186.28C194.043 186.01 193.848 185.715 193.728 185.395L194.778 184.96C194.948 185.29 195.203 185.56 195.543 185.77C195.883 185.98 196.258 186.085 196.668 186.085C197.138 186.085 197.528 185.995 197.838 185.815C198.158 185.625 198.318 185.365 198.318 185.035C198.318 184.725 198.198 184.475 197.958 184.285C197.728 184.095 197.388 183.94 196.938 183.82L196.218 183.625C195.538 183.445 195.008 183.175 194.628 182.815C194.248 182.445 194.058 182.03 194.058 181.57C194.058 180.86 194.288 180.31 194.748 179.92C195.218 179.52 195.913 179.32 196.833 179.32C197.273 179.32 197.673 179.385 198.033 179.515C198.393 179.645 198.703 179.83 198.963 180.07C199.223 180.3 199.413 180.575 199.533 180.895L198.483 181.36C198.353 181.02 198.138 180.78 197.838 180.64C197.538 180.49 197.173 180.415 196.743 180.415C196.283 180.415 195.923 180.51 195.663 180.7C195.403 180.89 195.273 181.16 195.273 181.51C195.273 181.71 195.378 181.9 195.588 182.08C195.808 182.25 196.128 182.39 196.548 182.5L197.298 182.695C197.788 182.815 198.198 182.995 198.528 183.235C198.858 183.465 199.108 183.73 199.278 184.03C199.448 184.33 199.533 184.65 199.533 184.99C199.533 185.44 199.413 185.83 199.173 186.16C198.933 186.49 198.608 186.745 198.198 186.925C197.788 187.095 197.318 187.18 196.788 187.18ZM204.121 187.18C203.391 187.18 202.826 186.99 202.426 186.61C202.026 186.23 201.826 185.695 201.826 185.005V177.16H203.026V184.885C203.026 185.265 203.126 185.56 203.326 185.77C203.536 185.97 203.826 186.07 204.196 186.07C204.316 186.07 204.431 186.055 204.541 186.025C204.661 185.985 204.816 185.895 205.006 185.755L205.471 186.73C205.211 186.9 204.976 187.015 204.766 187.075C204.556 187.145 204.341 187.18 204.121 187.18ZM200.521 180.565V179.5H205.276V180.565H200.521ZM210.628 187V176.5H211.828V185.605L211.768 187H210.628ZM214.363 187.18C213.733 187.18 213.178 187.015 212.698 186.685C212.228 186.355 211.863 185.895 211.603 185.305C211.343 184.705 211.213 184.02 211.213 183.25C211.213 182.47 211.343 181.785 211.603 181.195C211.863 180.605 212.228 180.145 212.698 179.815C213.178 179.485 213.733 179.32 214.363 179.32C215.033 179.32 215.623 179.485 216.133 179.815C216.643 180.145 217.038 180.605 217.318 181.195C217.608 181.785 217.753 182.47 217.753 183.25C217.753 184.02 217.608 184.705 217.318 185.305C217.038 185.895 216.643 186.355 216.133 186.685C215.623 187.015 215.033 187.18 214.363 187.18ZM214.093 186.085C214.563 186.085 214.978 185.965 215.338 185.725C215.708 185.485 215.998 185.15 216.208 184.72C216.428 184.29 216.538 183.8 216.538 183.25C216.538 182.7 216.433 182.21 216.223 181.78C216.023 181.35 215.738 181.015 215.368 180.775C214.998 180.535 214.578 180.415 214.108 180.415C213.668 180.415 213.273 180.535 212.923 180.775C212.583 181.015 212.313 181.35 212.113 181.78C211.923 182.21 211.828 182.7 211.828 183.25C211.828 183.8 211.923 184.29 212.113 184.72C212.313 185.15 212.583 185.485 212.923 185.725C213.263 185.965 213.653 186.085 214.093 186.085ZM220.077 182.935C220.077 182.125 220.232 181.47 220.542 180.97C220.852 180.46 221.247 180.085 221.727 179.845C222.217 179.595 222.732 179.47 223.272 179.47V180.595C222.832 180.595 222.407 180.67 221.997 180.82C221.597 180.96 221.267 181.195 221.007 181.525C220.747 181.855 220.617 182.305 220.617 182.875L220.077 182.935ZM219.417 187V179.5H220.617V187H219.417ZM229.181 187L229.061 183.04C229.041 182.45 228.966 181.965 228.836 181.585C228.706 181.195 228.506 180.905 228.236 180.715C227.966 180.515 227.606 180.415 227.156 180.415C226.726 180.415 226.351 180.5 226.031 180.67C225.721 180.84 225.466 181.105 225.266 181.465L224.201 181.03C224.391 180.68 224.626 180.38 224.906 180.13C225.186 179.87 225.516 179.67 225.896 179.53C226.276 179.39 226.701 179.32 227.171 179.32C227.861 179.32 228.436 179.455 228.896 179.725C229.356 179.995 229.696 180.4 229.916 180.94C230.146 181.47 230.261 182.135 230.261 182.935V187H229.181ZM226.901 187.18C226.011 187.18 225.316 186.98 224.816 186.58C224.326 186.17 224.081 185.605 224.081 184.885C224.081 184.125 224.331 183.545 224.831 183.145C225.341 182.735 226.051 182.53 226.961 182.53H229.601V183.535H227.231C226.531 183.535 226.031 183.65 225.731 183.88C225.441 184.11 225.296 184.44 225.296 184.87C225.296 185.26 225.441 185.57 225.731 185.8C226.021 186.02 226.426 186.13 226.946 186.13C227.386 186.13 227.766 186.03 228.086 185.83C228.406 185.63 228.651 185.36 228.821 185.02C228.991 184.67 229.076 184.275 229.076 183.835H229.811C229.811 184.855 229.561 185.67 229.061 186.28C228.561 186.88 227.841 187.18 226.901 187.18ZM232.161 187V179.5H233.286L233.361 180.88V187H232.161ZM237.426 187V183.16L238.626 182.71V187H237.426ZM237.426 183.16C237.426 182.42 237.341 181.855 237.171 181.465C237.001 181.075 236.766 180.81 236.466 180.67C236.166 180.52 235.826 180.445 235.446 180.445C234.786 180.445 234.271 180.68 233.901 181.15C233.541 181.61 233.361 182.265 233.361 183.115H232.776C232.776 182.325 232.891 181.645 233.121 181.075C233.351 180.505 233.681 180.07 234.111 179.77C234.551 179.47 235.081 179.32 235.701 179.32C236.611 179.32 237.326 179.6 237.846 180.16C238.376 180.72 238.636 181.57 238.626 182.71L237.426 183.16ZM246.076 187L246.016 185.605V176.5H247.216V187H246.076ZM243.481 187.18C242.811 187.18 242.221 187.015 241.711 186.685C241.201 186.355 240.801 185.895 240.511 185.305C240.231 184.705 240.091 184.02 240.091 183.25C240.091 182.47 240.231 181.785 240.511 181.195C240.801 180.605 241.201 180.145 241.711 179.815C242.221 179.485 242.811 179.32 243.481 179.32C244.111 179.32 244.661 179.485 245.131 179.815C245.611 180.145 245.981 180.605 246.241 181.195C246.501 181.785 246.631 182.47 246.631 183.25C246.631 184.02 246.501 184.705 246.241 185.305C245.981 185.895 245.611 186.355 245.131 186.685C244.661 187.015 244.111 187.18 243.481 187.18ZM243.751 186.085C244.191 186.085 244.581 185.965 244.921 185.725C245.261 185.485 245.526 185.15 245.716 184.72C245.916 184.29 246.016 183.8 246.016 183.25C246.016 182.7 245.916 182.21 245.716 181.78C245.526 181.35 245.261 181.015 244.921 180.775C244.581 180.535 244.186 180.415 243.736 180.415C243.266 180.415 242.846 180.535 242.476 180.775C242.116 181.015 241.831 181.35 241.621 181.78C241.411 182.21 241.306 182.7 241.306 183.25C241.306 183.8 241.411 184.29 241.621 184.72C241.831 185.15 242.121 185.485 242.491 185.725C242.861 185.965 243.281 186.085 243.751 186.085ZM251.94 187.18C251.39 187.18 250.91 187.1 250.5 186.94C250.09 186.77 249.745 186.55 249.465 186.28C249.195 186.01 249 185.715 248.88 185.395L249.93 184.96C250.1 185.29 250.355 185.56 250.695 185.77C251.035 185.98 251.41 186.085 251.82 186.085C252.29 186.085 252.68 185.995 252.99 185.815C253.31 185.625 253.47 185.365 253.47 185.035C253.47 184.725 253.35 184.475 253.11 184.285C252.88 184.095 252.54 183.94 252.09 183.82L251.37 183.625C250.69 183.445 250.16 183.175 249.78 182.815C249.4 182.445 249.21 182.03 249.21 181.57C249.21 180.86 249.44 180.31 249.9 179.92C250.37 179.52 251.065 179.32 251.985 179.32C252.425 179.32 252.825 179.385 253.185 179.515C253.545 179.645 253.855 179.83 254.115 180.07C254.375 180.3 254.565 180.575 254.685 180.895L253.635 181.36C253.505 181.02 253.29 180.78 252.99 180.64C252.69 180.49 252.325 180.415 251.895 180.415C251.435 180.415 251.075 180.51 250.815 180.7C250.555 180.89 250.425 181.16 250.425 181.51C250.425 181.71 250.53 181.9 250.74 182.08C250.96 182.25 251.28 182.39 251.7 182.5L252.45 182.695C252.94 182.815 253.35 182.995 253.68 183.235C254.01 183.465 254.26 183.73 254.43 184.03C254.6 184.33 254.685 184.65 254.685 184.99C254.685 185.44 254.565 185.83 254.325 186.16C254.085 186.49 253.76 186.745 253.35 186.925C252.94 187.095 252.47 187.18 251.94 187.18ZM90.675 212.18C90.125 212.18 89.645 212.1 89.235 211.94C88.825 211.77 88.48 211.55 88.2 211.28C87.93 211.01 87.735 210.715 87.615 210.395L88.665 209.96C88.835 210.29 89.09 210.56 89.43 210.77C89.77 210.98 90.145 211.085 90.555 211.085C91.025 211.085 91.415 210.995 91.725 210.815C92.045 210.625 92.205 210.365 92.205 210.035C92.205 209.725 92.085 209.475 91.845 209.285C91.615 209.095 91.275 208.94 90.825 208.82L90.105 208.625C89.425 208.445 88.895 208.175 88.515 207.815C88.135 207.445 87.945 207.03 87.945 206.57C87.945 205.86 88.175 205.31 88.635 204.92C89.105 204.52 89.8 204.32 90.72 204.32C91.16 204.32 91.56 204.385 91.92 204.515C92.28 204.645 92.59 204.83 92.85 205.07C93.11 205.3 93.3 205.575 93.42 205.895L92.37 206.36C92.24 206.02 92.025 205.78 91.725 205.64C91.425 205.49 91.06 205.415 90.63 205.415C90.17 205.415 89.81 205.51 89.55 205.7C89.29 205.89 89.16 206.16 89.16 206.51C89.16 206.71 89.265 206.9 89.475 207.08C89.695 207.25 90.015 207.39 90.435 207.5L91.185 207.695C91.675 207.815 92.085 207.995 92.415 208.235C92.745 208.465 92.995 208.73 93.165 209.03C93.335 209.33 93.42 209.65 93.42 209.99C93.42 210.44 93.3 210.83 93.06 211.16C92.82 211.49 92.495 211.745 92.085 211.925C91.675 212.095 91.205 212.18 90.675 212.18ZM98.0073 212.18C97.2773 212.18 96.7123 211.99 96.3123 211.61C95.9123 211.23 95.7123 210.695 95.7123 210.005V202.16H96.9123V209.885C96.9123 210.265 97.0123 210.56 97.2123 210.77C97.4223 210.97 97.7123 211.07 98.0823 211.07C98.2023 211.07 98.3173 211.055 98.4273 211.025C98.5473 210.985 98.7023 210.895 98.8923 210.755L99.3573 211.73C99.0973 211.9 98.8623 212.015 98.6523 212.075C98.4423 212.145 98.2273 212.18 98.0073 212.18ZM94.4073 205.565V204.5H99.1623V205.565H94.4073ZM101.469 207.935C101.469 207.125 101.624 206.47 101.934 205.97C102.244 205.46 102.639 205.085 103.119 204.845C103.609 204.595 104.124 204.47 104.664 204.47V205.595C104.224 205.595 103.799 205.67 103.389 205.82C102.989 205.96 102.659 206.195 102.399 206.525C102.139 206.855 102.009 207.305 102.009 207.875L101.469 207.935ZM100.809 212V204.5H102.009V212H100.809ZM110.572 212L110.452 208.04C110.432 207.45 110.357 206.965 110.227 206.585C110.097 206.195 109.897 205.905 109.627 205.715C109.357 205.515 108.997 205.415 108.547 205.415C108.117 205.415 107.742 205.5 107.422 205.67C107.112 205.84 106.857 206.105 106.657 206.465L105.592 206.03C105.782 205.68 106.017 205.38 106.297 205.13C106.577 204.87 106.907 204.67 107.287 204.53C107.667 204.39 108.092 204.32 108.562 204.32C109.252 204.32 109.827 204.455 110.287 204.725C110.747 204.995 111.087 205.4 111.307 205.94C111.537 206.47 111.652 207.135 111.652 207.935V212H110.572ZM108.292 212.18C107.402 212.18 106.707 211.98 106.207 211.58C105.717 211.17 105.472 210.605 105.472 209.885C105.472 209.125 105.722 208.545 106.222 208.145C106.732 207.735 107.442 207.53 108.352 207.53H110.992V208.535H108.622C107.922 208.535 107.422 208.65 107.122 208.88C106.832 209.11 106.687 209.44 106.687 209.87C106.687 210.26 106.832 210.57 107.122 210.8C107.412 211.02 107.817 211.13 108.337 211.13C108.777 211.13 109.157 211.03 109.477 210.83C109.797 210.63 110.042 210.36 110.212 210.02C110.382 209.67 110.467 209.275 110.467 208.835H111.202C111.202 209.855 110.952 210.67 110.452 211.28C109.952 211.88 109.232 212.18 108.292 212.18ZM113.628 212L113.658 204.5H114.858L114.828 212H113.628ZM114.243 202.76C114.043 202.76 113.868 202.685 113.718 202.535C113.568 202.385 113.493 202.21 113.493 202.01C113.493 201.8 113.568 201.625 113.718 201.485C113.868 201.335 114.043 201.26 114.243 201.26C114.453 201.26 114.628 201.335 114.768 201.485C114.918 201.625 114.993 201.8 114.993 202.01C114.993 202.21 114.918 202.385 114.768 202.535C114.628 202.685 114.453 202.76 114.243 202.76ZM120.039 215.18C119.559 215.18 119.119 215.13 118.719 215.03C118.329 214.94 117.994 214.835 117.714 214.715C117.444 214.605 117.249 214.51 117.129 214.43L117.579 213.455C117.709 213.525 117.894 213.61 118.134 213.71C118.374 213.82 118.654 213.91 118.974 213.98C119.304 214.06 119.654 214.1 120.024 214.1C120.504 214.1 120.934 214 121.314 213.8C121.704 213.61 122.004 213.305 122.214 212.885C122.434 212.475 122.544 211.945 122.544 211.295V204.5H123.744V211.28C123.744 212.14 123.584 212.86 123.264 213.44C122.944 214.02 122.504 214.455 121.944 214.745C121.384 215.035 120.749 215.18 120.039 215.18ZM119.994 211.94C119.324 211.94 118.734 211.78 118.224 211.46C117.714 211.14 117.314 210.695 117.024 210.125C116.744 209.545 116.604 208.885 116.604 208.145C116.604 207.385 116.744 206.72 117.024 206.15C117.314 205.57 117.714 205.12 118.224 204.8C118.734 204.48 119.324 204.32 119.994 204.32C120.624 204.32 121.174 204.48 121.644 204.8C122.114 205.12 122.479 205.57 122.739 206.15C123.009 206.72 123.144 207.385 123.144 208.145C123.144 208.895 123.009 209.555 122.739 210.125C122.479 210.695 122.114 211.14 121.644 211.46C121.174 211.78 120.624 211.94 119.994 211.94ZM120.279 210.905C120.719 210.905 121.109 210.785 121.449 210.545C121.789 210.305 122.054 209.98 122.244 209.57C122.434 209.15 122.529 208.665 122.529 208.115C122.529 207.585 122.429 207.115 122.229 206.705C122.039 206.285 121.774 205.96 121.434 205.73C121.104 205.49 120.714 205.37 120.264 205.37C119.794 205.37 119.374 205.49 119.004 205.73C118.644 205.96 118.359 206.285 118.149 206.705C117.949 207.115 117.849 207.585 117.849 208.115C117.849 208.665 117.954 209.15 118.164 209.57C118.374 209.98 118.659 210.305 119.019 210.545C119.389 210.785 119.809 210.905 120.279 210.905ZM125.653 212V201.305H126.853V212H125.653ZM130.933 212V208.16L132.133 207.71V212H130.933ZM130.933 208.16C130.933 207.42 130.843 206.855 130.663 206.465C130.493 206.075 130.258 205.81 129.958 205.67C129.658 205.52 129.318 205.445 128.938 205.445C128.278 205.445 127.763 205.68 127.393 206.15C127.033 206.61 126.853 207.265 126.853 208.115H126.268C126.268 207.325 126.383 206.645 126.613 206.075C126.843 205.505 127.178 205.07 127.618 204.77C128.058 204.47 128.588 204.32 129.208 204.32C130.108 204.32 130.823 204.6 131.353 205.16C131.883 205.72 132.143 206.57 132.133 207.71L130.933 208.16ZM136.987 212.18C136.257 212.18 135.692 211.99 135.292 211.61C134.892 211.23 134.692 210.695 134.692 210.005V202.16H135.892V209.885C135.892 210.265 135.992 210.56 136.192 210.77C136.402 210.97 136.692 211.07 137.062 211.07C137.182 211.07 137.297 211.055 137.407 211.025C137.527 210.985 137.682 210.895 137.872 210.755L138.337 211.73C138.077 211.9 137.842 212.015 137.632 212.075C137.422 212.145 137.207 212.18 136.987 212.18ZM133.387 205.565V204.5H138.142V205.565H133.387ZM146.464 212.18C145.734 212.18 145.169 211.99 144.769 211.61C144.369 211.23 144.169 210.695 144.169 210.005V202.16H145.369V209.885C145.369 210.265 145.469 210.56 145.669 210.77C145.879 210.97 146.169 211.07 146.539 211.07C146.659 211.07 146.774 211.055 146.884 211.025C147.004 210.985 147.159 210.895 147.349 210.755L147.814 211.73C147.554 211.9 147.319 212.015 147.109 212.075C146.899 212.145 146.684 212.18 146.464 212.18ZM142.864 205.565V204.5H147.619V205.565H142.864ZM152.626 212.18C151.896 212.18 151.246 212.015 150.676 211.685C150.106 211.345 149.661 210.88 149.341 210.29C149.021 209.7 148.861 209.02 148.861 208.25C148.861 207.48 149.016 206.8 149.326 206.21C149.646 205.62 150.091 205.16 150.661 204.83C151.231 204.49 151.876 204.32 152.596 204.32C153.336 204.32 153.986 204.49 154.546 204.83C155.116 205.16 155.556 205.62 155.866 206.21C156.186 206.8 156.346 207.48 156.346 208.25C156.346 209.02 156.186 209.7 155.866 210.29C155.556 210.88 155.121 211.345 154.561 211.685C154.001 212.015 153.356 212.18 152.626 212.18ZM152.626 211.04C153.116 211.04 153.546 210.925 153.916 210.695C154.286 210.455 154.576 210.125 154.786 209.705C154.996 209.285 155.101 208.8 155.101 208.25C155.101 207.7 154.991 207.215 154.771 206.795C154.561 206.375 154.266 206.05 153.886 205.82C153.516 205.58 153.086 205.46 152.596 205.46C152.106 205.46 151.676 205.58 151.306 205.82C150.936 206.05 150.641 206.375 150.421 206.795C150.211 207.215 150.106 207.7 150.106 208.25C150.106 208.8 150.211 209.285 150.421 209.705C150.641 210.125 150.941 210.455 151.321 210.695C151.701 210.925 152.136 211.04 152.626 211.04ZM162.421 215.18C162.231 215.18 162.011 215.14 161.761 215.06C161.511 214.99 161.246 214.895 160.966 214.775L161.416 213.77C161.646 213.87 161.846 213.945 162.016 213.995C162.196 214.045 162.336 214.07 162.436 214.07C162.706 214.07 162.926 213.995 163.096 213.845C163.276 213.705 163.426 213.5 163.546 213.23L164.401 211.19L167.176 204.5H168.466L164.866 213.05C164.676 213.49 164.476 213.87 164.266 214.19C164.066 214.51 163.821 214.755 163.531 214.925C163.241 215.095 162.871 215.18 162.421 215.18ZM164.071 212L160.831 204.5H162.106L164.896 211.175L165.256 212H164.071ZM172.826 212.18C172.096 212.18 171.446 212.015 170.876 211.685C170.306 211.345 169.861 210.88 169.541 210.29C169.221 209.7 169.061 209.02 169.061 208.25C169.061 207.48 169.216 206.8 169.526 206.21C169.846 205.62 170.291 205.16 170.861 204.83C171.431 204.49 172.076 204.32 172.796 204.32C173.536 204.32 174.186 204.49 174.746 204.83C175.316 205.16 175.756 205.62 176.066 206.21C176.386 206.8 176.546 207.48 176.546 208.25C176.546 209.02 176.386 209.7 176.066 210.29C175.756 210.88 175.321 211.345 174.761 211.685C174.201 212.015 173.556 212.18 172.826 212.18ZM172.826 211.04C173.316 211.04 173.746 210.925 174.116 210.695C174.486 210.455 174.776 210.125 174.986 209.705C175.196 209.285 175.301 208.8 175.301 208.25C175.301 207.7 175.191 207.215 174.971 206.795C174.761 206.375 174.466 206.05 174.086 205.82C173.716 205.58 173.286 205.46 172.796 205.46C172.306 205.46 171.876 205.58 171.506 205.82C171.136 206.05 170.841 206.375 170.621 206.795C170.411 207.215 170.306 207.7 170.306 208.25C170.306 208.8 170.411 209.285 170.621 209.705C170.841 210.125 171.141 210.455 171.521 210.695C171.901 210.925 172.336 211.04 172.826 211.04ZM183.385 212L183.31 210.62V204.5H184.51V212H183.385ZM178.045 208.79V204.5H179.245V208.34L178.045 208.79ZM179.245 208.34C179.245 209.08 179.33 209.645 179.5 210.035C179.67 210.425 179.905 210.695 180.205 210.845C180.515 210.985 180.86 211.055 181.24 211.055C181.89 211.055 182.395 210.82 182.755 210.35C183.125 209.88 183.31 209.225 183.31 208.385H183.895C183.895 209.175 183.78 209.855 183.55 210.425C183.32 210.995 182.985 211.43 182.545 211.73C182.115 212.03 181.59 212.18 180.97 212.18C180.06 212.18 179.34 211.9 178.81 211.34C178.29 210.78 178.035 209.93 178.045 208.79L179.245 208.34ZM187.265 207.935C187.265 207.125 187.42 206.47 187.73 205.97C188.04 205.46 188.435 205.085 188.915 204.845C189.405 204.595 189.92 204.47 190.46 204.47V205.595C190.02 205.595 189.595 205.67 189.185 205.82C188.785 205.96 188.455 206.195 188.195 206.525C187.935 206.855 187.805 207.305 187.805 207.875L187.265 207.935ZM186.605 212V204.5H187.805V212H186.605ZM195.379 212V201.305H196.579V212H195.379ZM200.659 212V208.16L201.859 207.71V212H200.659ZM200.659 208.16C200.659 207.42 200.569 206.855 200.389 206.465C200.219 206.075 199.984 205.81 199.684 205.67C199.384 205.52 199.044 205.445 198.664 205.445C198.004 205.445 197.489 205.68 197.119 206.15C196.759 206.61 196.579 207.265 196.579 208.115H195.994C195.994 207.325 196.109 206.645 196.339 206.075C196.569 205.505 196.904 205.07 197.344 204.77C197.784 204.47 198.314 204.32 198.934 204.32C199.834 204.32 200.549 204.6 201.079 205.16C201.609 205.72 201.869 206.57 201.859 207.71L200.659 208.16ZM207.103 212.18C206.373 212.18 205.723 212.015 205.153 211.685C204.583 211.345 204.138 210.88 203.818 210.29C203.498 209.7 203.338 209.02 203.338 208.25C203.338 207.48 203.493 206.8 203.803 206.21C204.123 205.62 204.568 205.16 205.138 204.83C205.708 204.49 206.353 204.32 207.073 204.32C207.813 204.32 208.463 204.49 209.023 204.83C209.593 205.16 210.033 205.62 210.343 206.21C210.663 206.8 210.823 207.48 210.823 208.25C210.823 209.02 210.663 209.7 210.343 210.29C210.033 210.88 209.598 211.345 209.038 211.685C208.478 212.015 207.833 212.18 207.103 212.18ZM207.103 211.04C207.593 211.04 208.023 210.925 208.393 210.695C208.763 210.455 209.053 210.125 209.263 209.705C209.473 209.285 209.578 208.8 209.578 208.25C209.578 207.7 209.468 207.215 209.248 206.795C209.038 206.375 208.743 206.05 208.363 205.82C207.993 205.58 207.563 205.46 207.073 205.46C206.583 205.46 206.153 205.58 205.783 205.82C205.413 206.05 205.118 206.375 204.898 206.795C204.688 207.215 204.583 207.7 204.583 208.25C204.583 208.8 204.688 209.285 204.898 209.705C205.118 210.125 205.418 210.455 205.798 210.695C206.178 210.925 206.613 211.04 207.103 211.04ZM212.518 212V204.5H213.643L213.718 205.88V212H212.518ZM217.783 212V208.16L218.983 207.71V212H217.783ZM223.063 212V208.16L224.263 207.71V212H223.063ZM217.783 208.16C217.783 207.42 217.698 206.855 217.528 206.465C217.358 206.075 217.123 205.81 216.823 205.67C216.523 205.52 216.183 205.445 215.803 205.445C215.143 205.445 214.628 205.68 214.258 206.15C213.898 206.61 213.718 207.265 213.718 208.115H213.133C213.133 207.325 213.248 206.645 213.478 206.075C213.708 205.505 214.038 205.07 214.468 204.77C214.908 204.47 215.438 204.32 216.058 204.32C216.968 204.32 217.683 204.6 218.203 205.16C218.733 205.72 218.993 206.57 218.983 207.71L217.783 208.16ZM223.063 208.16C223.063 207.42 222.973 206.855 222.793 206.465C222.623 206.075 222.388 205.81 222.088 205.67C221.788 205.52 221.448 205.445 221.068 205.445C220.408 205.445 219.893 205.68 219.523 206.15C219.163 206.61 218.983 207.265 218.983 208.115H218.398C218.398 207.325 218.513 206.645 218.743 206.075C218.973 205.505 219.308 205.07 219.748 204.77C220.188 204.47 220.718 204.32 221.338 204.32C222.238 204.32 222.948 204.6 223.468 205.16C223.998 205.72 224.263 206.57 224.263 207.71L223.063 208.16ZM229.47 212.18C228.74 212.18 228.095 212.015 227.535 211.685C226.985 211.345 226.55 210.88 226.23 210.29C225.91 209.7 225.75 209.02 225.75 208.25C225.75 207.48 225.905 206.8 226.215 206.21C226.535 205.62 226.975 205.16 227.535 204.83C228.095 204.49 228.73 204.32 229.44 204.32C230.14 204.32 230.745 204.495 231.255 204.845C231.765 205.185 232.16 205.665 232.44 206.285C232.72 206.905 232.86 207.635 232.86 208.475H231.66C231.66 207.835 231.575 207.29 231.405 206.84C231.235 206.38 230.985 206.025 230.655 205.775C230.325 205.525 229.915 205.4 229.425 205.4C228.935 205.4 228.505 205.52 228.135 205.76C227.775 205.99 227.495 206.32 227.295 206.75C227.095 207.18 226.995 207.685 226.995 208.265C226.995 208.835 227.105 209.33 227.325 209.75C227.545 210.16 227.845 210.485 228.225 210.725C228.605 210.955 229.04 211.07 229.53 211.07C230.06 211.07 230.505 210.945 230.865 210.695C231.225 210.445 231.505 210.12 231.705 209.72L232.77 210.245C232.57 210.635 232.31 210.975 231.99 211.265C231.68 211.555 231.315 211.78 230.895 211.94C230.475 212.1 230 212.18 229.47 212.18ZM226.56 208.475V207.44H232.125V208.475H226.56ZM234.927 212.21C234.697 212.21 234.497 212.13 234.327 211.97C234.167 211.8 234.087 211.605 234.087 211.385C234.087 211.155 234.167 210.96 234.327 210.8C234.497 210.63 234.697 210.545 234.927 210.545C235.157 210.545 235.352 210.63 235.512 210.8C235.672 210.96 235.752 211.155 235.752 211.385C235.752 211.605 235.672 211.8 235.512 211.97C235.352 212.13 235.157 212.21 234.927 212.21Z" fill="#263238"/>
<path d="M217.548 111L209.016 99.39L210.42 98.4L218.952 109.992L217.548 111ZM208.602 111V98.4H210.42L210.366 99.876V111H208.602ZM217.548 111V98.4H219.33V111H217.548ZM227.725 111L227.599 106.302C227.587 105.642 227.509 105.096 227.365 104.664C227.221 104.22 226.999 103.884 226.699 103.656C226.399 103.428 225.997 103.314 225.493 103.314C225.025 103.314 224.611 103.41 224.251 103.602C223.903 103.794 223.615 104.094 223.387 104.502L221.857 103.926C222.073 103.518 222.343 103.152 222.667 102.828C223.003 102.504 223.405 102.252 223.873 102.072C224.353 101.88 224.899 101.784 225.511 101.784C226.363 101.784 227.071 101.946 227.635 102.27C228.199 102.594 228.619 103.08 228.895 103.728C229.183 104.364 229.327 105.156 229.327 106.104V111H227.725ZM225.079 111.216C224.011 111.216 223.177 110.976 222.577 110.496C221.989 110.004 221.695 109.326 221.695 108.462C221.695 107.538 222.001 106.836 222.613 106.356C223.225 105.864 224.089 105.618 225.205 105.618H228.211L228.229 106.968H225.673C224.845 106.968 224.257 107.1 223.909 107.364C223.573 107.616 223.405 107.97 223.405 108.426C223.405 108.846 223.567 109.176 223.891 109.416C224.215 109.644 224.659 109.758 225.223 109.758C225.715 109.758 226.135 109.644 226.483 109.416C226.843 109.188 227.119 108.888 227.311 108.516C227.515 108.132 227.617 107.706 227.617 107.238H228.445C228.445 108.462 228.163 109.434 227.599 110.154C227.035 110.862 226.195 111.216 225.079 111.216ZM235.133 111.216C234.233 111.216 233.537 110.988 233.045 110.532C232.553 110.064 232.307 109.398 232.307 108.534V99.192H234.017V108.282C234.017 108.726 234.125 109.068 234.341 109.308C234.569 109.536 234.893 109.65 235.313 109.65C235.433 109.65 235.565 109.626 235.709 109.578C235.853 109.53 236.027 109.434 236.231 109.29L236.879 110.622C236.567 110.826 236.267 110.976 235.979 111.072C235.703 111.168 235.421 111.216 235.133 111.216ZM230.777 103.476V102H236.573V103.476H230.777ZM238.618 111L238.654 102H240.346L240.328 111H238.618ZM239.482 100.092C239.206 100.092 238.966 99.99 238.762 99.786C238.558 99.57 238.456 99.324 238.456 99.048C238.456 98.76 238.558 98.52 238.762 98.328C238.966 98.124 239.206 98.022 239.482 98.022C239.77 98.022 240.01 98.124 240.202 98.328C240.406 98.52 240.508 98.76 240.508 99.048C240.508 99.324 240.406 99.57 240.202 99.786C240.01 99.99 239.77 100.092 239.482 100.092ZM246.974 111.216C246.086 111.216 245.294 111.018 244.598 110.622C243.914 110.214 243.374 109.656 242.978 108.948C242.594 108.24 242.402 107.424 242.402 106.5C242.402 105.576 242.594 104.76 242.978 104.052C243.362 103.344 243.896 102.792 244.58 102.396C245.276 101.988 246.062 101.784 246.938 101.784C247.838 101.784 248.63 101.988 249.314 102.396C249.998 102.792 250.532 103.344 250.916 104.052C251.312 104.76 251.51 105.576 251.51 106.5C251.51 107.424 251.312 108.24 250.916 108.948C250.532 109.656 249.998 110.214 249.314 110.622C248.642 111.018 247.862 111.216 246.974 111.216ZM246.974 109.596C247.514 109.596 247.988 109.464 248.396 109.2C248.804 108.936 249.122 108.576 249.35 108.12C249.59 107.652 249.71 107.112 249.71 106.5C249.71 105.9 249.59 105.366 249.35 104.898C249.122 104.43 248.798 104.064 248.378 103.8C247.958 103.536 247.478 103.404 246.938 103.404C246.41 103.404 245.936 103.536 245.516 103.8C245.108 104.064 244.784 104.43 244.544 104.898C244.316 105.354 244.202 105.888 244.202 106.5C244.202 107.1 244.316 107.634 244.544 108.102C244.784 108.57 245.114 108.936 245.534 109.2C245.954 109.464 246.434 109.596 246.974 109.596ZM253.452 111V102H255.054L255.162 103.656V111H253.452ZM259.68 111V106.392L261.39 105.852V111H259.68ZM259.68 106.392C259.68 105.576 259.584 104.958 259.392 104.538C259.212 104.106 258.954 103.806 258.618 103.638C258.294 103.47 257.916 103.38 257.484 103.368C256.752 103.368 256.182 103.626 255.774 104.142C255.366 104.658 255.162 105.384 255.162 106.32H254.424C254.424 105.372 254.562 104.562 254.838 103.89C255.114 103.206 255.51 102.684 256.026 102.324C256.554 101.964 257.184 101.784 257.916 101.784C258.996 101.784 259.842 102.12 260.454 102.792C261.078 103.452 261.39 104.472 261.39 105.852L259.68 106.392ZM271.786 111L274.828 102H276.538L273.478 111H271.786ZM265.72 111L268.708 102H270.256L267.304 111H265.72ZM265.594 111L262.534 102H264.262L267.232 111H265.594ZM271.786 111L268.834 102H270.4L273.37 111H271.786ZM278.011 111L278.047 102H279.739L279.721 111H278.011ZM278.875 100.092C278.599 100.092 278.359 99.99 278.155 99.786C277.951 99.57 277.849 99.324 277.849 99.048C277.849 98.76 277.951 98.52 278.155 98.328C278.359 98.124 278.599 98.022 278.875 98.022C279.163 98.022 279.403 98.124 279.595 98.328C279.799 98.52 279.901 98.76 279.901 99.048C279.901 99.324 279.799 99.57 279.595 99.786C279.403 99.99 279.163 100.092 278.875 100.092ZM288.815 111L288.743 109.326V98.4H290.435V111H288.815ZM285.791 111.216C284.975 111.216 284.261 111.018 283.649 110.622C283.049 110.226 282.575 109.674 282.227 108.966C281.891 108.258 281.723 107.436 281.723 106.5C281.723 105.552 281.891 104.73 282.227 104.034C282.575 103.326 283.049 102.774 283.649 102.378C284.261 101.982 284.975 101.784 285.791 101.784C286.547 101.784 287.201 101.982 287.753 102.378C288.317 102.774 288.749 103.326 289.049 104.034C289.349 104.73 289.499 105.552 289.499 106.5C289.499 107.436 289.349 108.258 289.049 108.966C288.749 109.674 288.317 110.226 287.753 110.622C287.201 111.018 286.547 111.216 285.791 111.216ZM286.187 109.668C286.691 109.668 287.135 109.536 287.519 109.272C287.903 108.996 288.203 108.624 288.419 108.156C288.635 107.676 288.743 107.124 288.743 106.5C288.743 105.876 288.635 105.33 288.419 104.862C288.203 104.382 287.903 104.01 287.519 103.746C287.135 103.47 286.685 103.332 286.169 103.332C285.641 103.332 285.173 103.47 284.765 103.746C284.357 104.01 284.039 104.382 283.811 104.862C283.583 105.33 283.469 105.876 283.469 106.5C283.469 107.124 283.583 107.676 283.811 108.156C284.051 108.624 284.375 108.996 284.783 109.272C285.191 109.536 285.659 109.668 286.187 109.668ZM296.859 111.216C295.983 111.216 295.209 111.018 294.537 110.622C293.865 110.214 293.337 109.656 292.953 108.948C292.569 108.24 292.377 107.424 292.377 106.5C292.377 105.576 292.569 104.76 292.953 104.052C293.337 103.344 293.865 102.792 294.537 102.396C295.221 101.988 296.001 101.784 296.877 101.784C297.693 101.784 298.413 101.994 299.037 102.414C299.673 102.822 300.165 103.41 300.513 104.178C300.873 104.934 301.053 105.828 301.053 106.86H299.343C299.343 106.092 299.247 105.444 299.055 104.916C298.863 104.388 298.575 103.992 298.191 103.728C297.819 103.452 297.363 103.314 296.823 103.314C296.283 103.314 295.809 103.446 295.401 103.71C295.005 103.962 294.693 104.328 294.465 104.808C294.249 105.276 294.141 105.852 294.141 106.536C294.141 107.172 294.267 107.724 294.519 108.192C294.771 108.648 295.107 109.008 295.527 109.272C295.959 109.524 296.445 109.65 296.985 109.65C297.573 109.65 298.059 109.512 298.443 109.236C298.839 108.96 299.151 108.606 299.379 108.174L300.909 108.876C300.657 109.344 300.339 109.758 299.955 110.118C299.583 110.466 299.133 110.736 298.605 110.928C298.089 111.12 297.507 111.216 296.859 111.216ZM293.493 106.86L293.511 105.456H300.099V106.86H293.493ZM212.67 139.216C211.998 139.216 211.386 139.138 210.834 138.982C210.294 138.826 209.82 138.616 209.412 138.352C209.016 138.076 208.686 137.77 208.422 137.434C208.158 137.098 207.972 136.744 207.864 136.372L209.574 135.814C209.754 136.306 210.096 136.732 210.6 137.092C211.104 137.452 211.722 137.638 212.454 137.65C213.342 137.65 214.038 137.476 214.542 137.128C215.058 136.768 215.316 136.294 215.316 135.706C215.316 135.166 215.094 134.728 214.65 134.392C214.206 134.044 213.618 133.78 212.886 133.6L211.428 133.222C210.852 133.066 210.324 132.844 209.844 132.556C209.376 132.268 209.004 131.902 208.728 131.458C208.452 131.014 208.314 130.48 208.314 129.856C208.314 128.704 208.686 127.804 209.43 127.156C210.186 126.508 211.272 126.184 212.688 126.184C213.504 126.184 214.212 126.316 214.812 126.58C215.412 126.832 215.904 127.168 216.288 127.588C216.684 128.008 216.966 128.47 217.134 128.974L215.424 129.55C215.22 129.01 214.872 128.578 214.38 128.254C213.888 127.918 213.282 127.75 212.562 127.75C211.806 127.75 211.206 127.93 210.762 128.29C210.33 128.65 210.114 129.142 210.114 129.766C210.114 130.294 210.282 130.702 210.618 130.99C210.966 131.266 211.428 131.476 212.004 131.62L213.462 131.98C214.638 132.268 215.544 132.748 216.18 133.42C216.828 134.08 217.152 134.806 217.152 135.598C217.152 136.282 216.978 136.9 216.63 137.452C216.294 137.992 215.79 138.424 215.118 138.748C214.458 139.06 213.642 139.216 212.67 139.216ZM219.227 139L219.209 126.202H220.919V139H219.227ZM225.455 139V134.392L227.147 133.852V139H225.455ZM225.455 134.392C225.455 133.576 225.359 132.958 225.167 132.538C224.975 132.106 224.711 131.806 224.375 131.638C224.051 131.47 223.679 131.38 223.259 131.368C222.515 131.368 221.939 131.626 221.531 132.142C221.123 132.658 220.919 133.384 220.919 134.32H220.199C220.199 133.372 220.337 132.562 220.613 131.89C220.889 131.206 221.285 130.684 221.801 130.324C222.329 129.964 222.953 129.784 223.673 129.784C224.765 129.784 225.617 130.12 226.229 130.792C226.853 131.452 227.159 132.472 227.147 133.852L225.455 134.392ZM229.407 139L229.443 130H231.135L231.117 139H229.407ZM230.271 128.092C229.995 128.092 229.755 127.99 229.551 127.786C229.347 127.57 229.245 127.324 229.245 127.048C229.245 126.76 229.347 126.52 229.551 126.328C229.755 126.124 229.995 126.022 230.271 126.022C230.559 126.022 230.799 126.124 230.991 126.328C231.195 126.52 231.297 126.76 231.297 127.048C231.297 127.324 231.195 127.57 230.991 127.786C230.799 127.99 230.559 128.092 230.271 128.092ZM233.714 142.6V130H235.316L235.424 131.656V142.6H233.714ZM238.376 139.216C237.62 139.216 236.96 139.018 236.396 138.622C235.844 138.226 235.418 137.674 235.118 136.966C234.818 136.258 234.668 135.436 234.668 134.5C234.668 133.552 234.818 132.73 235.118 132.034C235.418 131.326 235.844 130.774 236.396 130.378C236.96 129.982 237.62 129.784 238.376 129.784C239.18 129.784 239.888 129.982 240.5 130.378C241.112 130.774 241.586 131.326 241.922 132.034C242.27 132.73 242.444 133.552 242.444 134.5C242.444 135.436 242.27 136.258 241.922 136.966C241.586 137.674 241.112 138.226 240.5 138.622C239.888 139.018 239.18 139.216 238.376 139.216ZM237.962 137.668C238.502 137.668 238.976 137.536 239.384 137.272C239.792 136.996 240.11 136.624 240.338 136.156C240.578 135.676 240.698 135.124 240.698 134.5C240.698 133.876 240.584 133.33 240.356 132.862C240.128 132.382 239.81 132.01 239.402 131.746C238.994 131.47 238.52 131.332 237.98 131.332C237.488 131.332 237.044 131.47 236.648 131.746C236.264 132.01 235.964 132.382 235.748 132.862C235.532 133.342 235.424 133.888 235.424 134.5C235.424 135.124 235.532 135.676 235.748 136.156C235.964 136.624 236.264 136.996 236.648 137.272C237.032 137.536 237.47 137.668 237.962 137.668ZM244.401 142.6V130H246.003L246.111 131.656V142.6H244.401ZM249.063 139.216C248.307 139.216 247.647 139.018 247.083 138.622C246.531 138.226 246.105 137.674 245.805 136.966C245.505 136.258 245.355 135.436 245.355 134.5C245.355 133.552 245.505 132.73 245.805 132.034C246.105 131.326 246.531 130.774 247.083 130.378C247.647 129.982 248.307 129.784 249.063 129.784C249.867 129.784 250.575 129.982 251.187 130.378C251.799 130.774 252.273 131.326 252.609 132.034C252.957 132.73 253.131 133.552 253.131 134.5C253.131 135.436 252.957 136.258 252.609 136.966C252.273 137.674 251.799 138.226 251.187 138.622C250.575 139.018 249.867 139.216 249.063 139.216ZM248.649 137.668C249.189 137.668 249.663 137.536 250.071 137.272C250.479 136.996 250.797 136.624 251.025 136.156C251.265 135.676 251.385 135.124 251.385 134.5C251.385 133.876 251.271 133.33 251.043 132.862C250.815 132.382 250.497 132.01 250.089 131.746C249.681 131.47 249.207 131.332 248.667 131.332C248.175 131.332 247.731 131.47 247.335 131.746C246.951 132.01 246.651 132.382 246.435 132.862C246.219 133.342 246.111 133.888 246.111 134.5C246.111 135.124 246.219 135.676 246.435 136.156C246.651 136.624 246.951 136.996 247.335 137.272C247.719 137.536 248.157 137.668 248.649 137.668ZM255.107 139L255.143 130H256.835L256.817 139H255.107ZM255.971 128.092C255.695 128.092 255.455 127.99 255.251 127.786C255.047 127.57 254.945 127.324 254.945 127.048C254.945 126.76 255.047 126.52 255.251 126.328C255.455 126.124 255.695 126.022 255.971 126.022C256.259 126.022 256.499 126.124 256.691 126.328C256.895 126.52 256.997 126.76 256.997 127.048C256.997 127.324 256.895 127.57 256.691 127.786C256.499 127.99 256.259 128.092 255.971 128.092ZM259.323 139V130H260.925L261.033 131.656V139H259.323ZM265.551 139V134.392L267.261 133.852V139H265.551ZM265.551 134.392C265.551 133.576 265.455 132.958 265.263 132.538C265.083 132.106 264.825 131.806 264.489 131.638C264.165 131.47 263.787 131.38 263.355 131.368C262.623 131.368 262.053 131.626 261.645 132.142C261.237 132.658 261.033 133.384 261.033 134.32H260.295C260.295 133.372 260.433 132.562 260.709 131.89C260.985 131.206 261.381 130.684 261.897 130.324C262.425 129.964 263.055 129.784 263.787 129.784C264.867 129.784 265.713 130.12 266.325 130.792C266.949 131.452 267.261 132.472 267.261 133.852L265.551 134.392ZM273.139 142.834C272.539 142.834 271.993 142.774 271.501 142.654C271.009 142.546 270.595 142.42 270.259 142.276C269.923 142.132 269.671 142.006 269.503 141.898L270.151 140.512C270.307 140.608 270.529 140.716 270.817 140.836C271.105 140.968 271.441 141.076 271.825 141.16C272.209 141.256 272.635 141.304 273.103 141.304C273.655 141.304 274.147 141.19 274.579 140.962C275.011 140.746 275.347 140.404 275.587 139.936C275.839 139.468 275.965 138.868 275.965 138.136V130H277.675V138.1C277.675 139.132 277.477 139.996 277.081 140.692C276.697 141.4 276.163 141.934 275.479 142.294C274.807 142.654 274.027 142.834 273.139 142.834ZM272.977 138.874C272.161 138.874 271.447 138.688 270.835 138.316C270.235 137.932 269.761 137.404 269.413 136.732C269.077 136.048 268.909 135.262 268.909 134.374C268.909 133.45 269.077 132.646 269.413 131.962C269.761 131.278 270.235 130.744 270.835 130.36C271.447 129.976 272.161 129.784 272.977 129.784C273.721 129.784 274.369 129.976 274.921 130.36C275.485 130.744 275.917 131.284 276.217 131.98C276.529 132.664 276.685 133.468 276.685 134.392C276.685 135.28 276.529 136.066 276.217 136.75C275.917 137.422 275.485 137.944 274.921 138.316C274.369 138.688 273.721 138.874 272.977 138.874ZM273.409 137.434C273.913 137.434 274.351 137.302 274.723 137.038C275.095 136.762 275.389 136.396 275.605 135.94C275.821 135.472 275.929 134.938 275.929 134.338C275.929 133.738 275.821 133.21 275.605 132.754C275.389 132.298 275.089 131.944 274.705 131.692C274.333 131.428 273.895 131.296 273.391 131.296C272.863 131.296 272.395 131.428 271.987 131.692C271.591 131.944 271.279 132.298 271.051 132.754C270.823 133.21 270.709 133.738 270.709 134.338C270.709 134.938 270.823 135.472 271.051 135.94C271.291 136.396 271.609 136.762 272.005 137.038C272.413 137.302 272.881 137.434 273.409 137.434Z" fill="#263238"/>
<path d="M185.637 119.203L177.949 106.454C177.326 105.411 176.442 104.547 175.382 103.946C174.323 103.345 173.125 103.028 171.906 103.026H160.821L162.875 93.6757C162.991 93.108 162.979 92.5217 162.839 91.9595C162.698 91.3972 162.434 90.8731 162.065 90.4253C161.696 89.9775 161.231 89.6172 160.704 89.3707C160.178 89.1241 159.603 88.9975 159.021 89H104.395C103.496 89.0064 102.626 89.3192 101.931 89.8865C101.236 90.4537 100.757 91.241 100.574 92.1171L99.7442 95.8913C99.6985 96.098 99.7371 96.3143 99.8516 96.4926C99.9661 96.6709 100.147 96.7967 100.355 96.8422C100.562 96.8877 100.78 96.8492 100.959 96.7352C101.138 96.6213 101.264 96.4412 101.31 96.2345L102.14 92.4478C102.248 91.927 102.53 91.4578 102.939 91.1157C103.348 90.7736 103.861 90.5785 104.395 90.5621H159.021C159.371 90.5633 159.716 90.6424 160.032 90.7938C160.347 90.9452 160.625 91.1649 160.844 91.4369C161.063 91.7088 161.219 92.0261 161.299 92.3656C161.379 92.705 161.381 93.058 161.307 93.3986L159.115 103.388C159.065 103.465 159.028 103.549 159.005 103.637L151.349 138.874H115.182C115.134 138.384 115.045 137.9 114.916 137.425V137.254C114.789 136.808 114.621 136.375 114.415 135.96L114.227 135.758C114.015 135.357 113.774 134.971 113.507 134.604L113.367 134.433C113.093 134.075 112.789 133.741 112.458 133.435L112.301 133.296C111.966 132.989 111.605 132.713 111.221 132.47L111.049 132.361C110.647 132.121 110.229 131.912 109.796 131.734H109.639C109.188 131.559 108.721 131.424 108.246 131.329H108.136C107.103 131.121 106.038 131.121 105.004 131.329H104.895C104.42 131.424 103.954 131.559 103.502 131.734H103.345C102.912 131.912 102.494 132.121 102.093 132.361L101.92 132.47C101.536 132.713 101.175 132.989 100.84 133.296L100.683 133.435C100.352 133.741 100.048 134.075 99.7743 134.433L99.6344 134.604C99.3672 134.971 99.1264 135.357 98.9141 135.758L98.8204 135.945C98.6146 136.36 98.447 136.793 98.3197 137.238V137.409C98.158 137.886 98.0375 138.375 97.9596 138.871H91.9945L94.8281 130.549C94.8775 130.449 94.9051 130.341 94.909 130.23C94.9128 130.119 94.8928 130.009 94.8503 129.906C94.8079 129.804 94.7439 129.711 94.6627 129.635C94.5814 129.559 94.4849 129.502 94.3794 129.466C94.274 129.43 94.162 129.417 94.0511 129.428C93.9402 129.438 93.8329 129.473 93.7364 129.528C93.6398 129.583 93.5562 129.659 93.4913 129.749C93.4263 129.839 93.3814 129.942 93.3595 130.05L91.4015 135.754H90.8224C90.1641 135.754 89.5222 135.96 88.9882 136.343C88.4541 136.726 88.055 137.267 87.8476 137.889L87 140.428H97.9596C97.9596 142.702 98.8668 144.882 100.482 146.489C102.097 148.097 104.287 149 106.571 149C108.855 149 111.045 148.097 112.66 146.489C114.275 144.882 115.182 142.702 115.182 140.428H157.455C157.455 142.702 158.363 144.882 159.978 146.489C161.593 148.097 163.783 149 166.067 149C168.351 149 170.541 148.097 172.156 146.489C173.771 144.882 174.678 142.702 174.678 140.428H184.071L184.259 139.852C184.514 139.077 184.454 138.233 184.091 137.502C183.728 136.77 183.092 136.21 182.318 135.94L186.17 125.14C186.527 124.173 186.664 123.139 186.572 122.112C186.48 121.085 186.161 120.092 185.637 119.203ZM106.571 146.663C105.177 146.663 103.815 146.251 102.657 145.481C101.498 144.71 100.595 143.615 100.062 142.333C99.5284 141.052 99.3889 139.642 99.6607 138.281C99.9326 136.921 100.604 135.671 101.589 134.69C102.574 133.71 103.83 133.042 105.196 132.771C106.563 132.501 107.98 132.639 109.267 133.17C110.555 133.701 111.655 134.6 112.429 135.753C113.203 136.906 113.616 138.262 113.616 139.649C113.616 141.509 112.874 143.293 111.553 144.608C110.232 145.924 108.439 146.663 106.571 146.663ZM166.066 146.663C164.673 146.663 163.31 146.251 162.152 145.481C160.993 144.71 160.09 143.615 159.557 142.333C159.024 141.052 158.884 139.642 159.156 138.281C159.428 136.921 160.099 135.671 161.084 134.69C162.069 133.71 163.325 133.042 164.692 132.771C166.058 132.501 167.475 132.639 168.762 133.17C170.05 133.701 171.15 134.6 171.924 135.753C172.698 136.906 173.112 138.262 173.112 139.649C173.112 141.509 172.369 143.293 171.048 144.608C169.727 145.924 167.935 146.663 166.066 146.663ZM184.698 124.61L179.61 138.871H174.678C174.631 138.381 174.542 137.896 174.414 137.421V137.249C174.284 136.805 174.116 136.372 173.913 135.956L173.725 135.753C173.509 135.354 173.269 134.969 173.005 134.6L172.865 134.429C172.591 134.071 172.287 133.737 171.956 133.431L171.799 133.275C171.46 132.978 171.099 132.707 170.719 132.465L170.547 132.356C170.149 132.11 169.73 131.901 169.294 131.729H169.137C168.686 131.555 168.219 131.419 167.744 131.324H167.63C166.597 131.114 165.532 131.114 164.499 131.324H164.389C163.914 131.419 163.447 131.555 162.995 131.729H162.839C162.403 131.901 161.984 132.11 161.586 132.356L161.414 132.465C161.034 132.707 160.673 132.978 160.334 133.275L160.177 133.431C159.846 133.737 159.542 134.071 159.268 134.429L159.128 134.6C158.864 134.969 158.624 135.354 158.408 135.753L158.314 135.941C158.111 136.357 157.943 136.79 157.814 137.234V137.405C157.652 137.881 157.531 138.37 157.453 138.867H152.913L160.444 104.581H171.875C172.823 104.582 173.755 104.828 174.578 105.295C175.402 105.762 176.089 106.434 176.573 107.246L184.213 119.994C184.63 120.68 184.889 121.449 184.973 122.247C185.057 123.044 184.963 123.85 184.699 124.607L184.698 124.61Z" fill="#263238" stroke="#263238" stroke-width="0.5"/>
<path d="M173.909 109.664C173.567 109.068 173.072 108.573 172.476 108.228C171.879 107.883 171.202 107.701 170.512 107.701H164.498C164.329 107.701 164.164 107.755 164.028 107.856C163.893 107.958 163.794 108.1 163.746 108.262L160.617 119.171C160.586 119.287 160.582 119.409 160.603 119.527C160.625 119.646 160.672 119.758 160.742 119.856C160.814 119.954 160.909 120.034 161.019 120.088C161.128 120.142 161.249 120.17 161.371 120.168H173.19C173.876 120.17 174.551 119.992 175.146 119.652C175.741 119.312 176.236 118.822 176.58 118.231C176.925 117.64 177.107 116.97 177.108 116.287C177.109 115.603 176.929 114.932 176.587 114.34L173.909 109.664ZM175.225 117.456C175.02 117.813 174.723 118.109 174.365 118.314C174.008 118.52 173.602 118.627 173.189 118.625H162.402L165.095 109.275H170.513C170.927 109.272 171.335 109.381 171.693 109.589C172.051 109.797 172.346 110.097 172.548 110.458L175.241 115.134C175.44 115.487 175.542 115.885 175.54 116.289C175.537 116.693 175.429 117.09 175.226 117.44L175.225 117.456Z" fill="#263238" stroke="#263238" stroke-width="0.5"/>
<path d="M106.572 135.753C105.798 135.753 105.041 135.982 104.397 136.41C103.753 136.838 103.251 137.447 102.954 138.16C102.658 138.872 102.58 139.656 102.731 140.412C102.883 141.168 103.256 141.862 103.803 142.408C104.351 142.953 105.049 143.324 105.808 143.474C106.568 143.625 107.355 143.548 108.071 143.253C108.787 142.958 109.398 142.458 109.829 141.817C110.259 141.176 110.489 140.422 110.489 139.651C110.489 138.617 110.076 137.626 109.342 136.895C108.607 136.164 107.611 135.753 106.572 135.753ZM106.572 141.987C106.108 141.987 105.654 141.85 105.267 141.593C104.881 141.336 104.58 140.971 104.402 140.544C104.224 140.117 104.177 139.647 104.268 139.193C104.358 138.74 104.582 138.323 104.911 137.996C105.239 137.669 105.658 137.447 106.114 137.356C106.569 137.266 107.042 137.313 107.471 137.49C107.9 137.667 108.267 137.967 108.524 138.352C108.782 138.737 108.92 139.189 108.919 139.651C108.919 140.271 108.671 140.864 108.231 141.302C107.791 141.74 107.195 141.986 106.572 141.987Z" fill="#263238" stroke="#263238" stroke-width="0.5"/>
<path d="M166.068 135.753C165.294 135.753 164.537 135.982 163.893 136.41C163.249 136.838 162.747 137.447 162.45 138.16C162.154 138.872 162.076 139.656 162.228 140.412C162.379 141.168 162.752 141.862 163.299 142.408C163.847 142.953 164.545 143.324 165.304 143.474C166.064 143.625 166.852 143.548 167.567 143.253C168.283 142.958 168.894 142.458 169.325 141.817C169.755 141.176 169.985 140.422 169.985 139.651C169.985 138.617 169.572 137.626 168.838 136.895C168.103 136.164 167.107 135.753 166.068 135.753ZM166.068 141.987C165.604 141.987 165.15 141.85 164.763 141.594C164.377 141.337 164.075 140.972 163.897 140.545C163.719 140.117 163.673 139.647 163.763 139.194C163.854 138.74 164.077 138.323 164.406 137.996C164.734 137.669 165.153 137.447 165.609 137.357C166.064 137.266 166.537 137.313 166.966 137.49C167.395 137.667 167.762 137.967 168.02 138.352C168.278 138.737 168.415 139.189 168.415 139.651C168.414 140.27 168.167 140.864 167.727 141.302C167.287 141.74 166.691 141.986 166.068 141.987Z" fill="#263238" stroke="#263238" stroke-width="0.5"/>
<path d="M91.6966 103.026H126.141C126.556 103.026 126.955 102.862 127.248 102.57C127.542 102.277 127.707 101.881 127.707 101.467C127.707 101.054 127.542 100.658 127.248 100.365C126.955 100.073 126.556 99.9089 126.141 99.9089H91.6966C91.2814 99.9089 90.8831 100.073 90.5895 100.365C90.2958 100.658 90.1309 101.054 90.1309 101.467C90.1309 101.881 90.2958 102.277 90.5895 102.57C90.8831 102.862 91.2814 103.026 91.6966 103.026Z" fill="#263238" stroke="#263238" stroke-width="0.5"/>
<path d="M121.445 117.052C121.445 116.639 121.28 116.242 120.987 115.95C120.693 115.658 120.295 115.494 119.879 115.494H93.263C92.8478 115.494 92.4495 115.658 92.1559 115.95C91.8622 116.242 91.6973 116.639 91.6973 117.052C91.6973 117.466 91.8622 117.862 92.1559 118.154C92.4495 118.447 92.8478 118.611 93.263 118.611H119.879C120.085 118.611 120.289 118.57 120.479 118.492C120.669 118.414 120.841 118.299 120.987 118.154C121.132 118.01 121.247 117.838 121.326 117.649C121.405 117.46 121.445 117.257 121.445 117.052Z" fill="#263238" stroke="#263238" stroke-width="0.5"/>
<path d="M124.577 109.259C124.577 108.846 124.412 108.449 124.119 108.157C123.825 107.865 123.427 107.701 123.012 107.701H94.8294C94.4142 107.701 94.0159 107.865 93.7223 108.157C93.4286 108.449 93.2637 108.846 93.2637 109.259C93.2637 109.673 93.4286 110.069 93.7223 110.361C94.0159 110.654 94.4142 110.818 94.8294 110.818H123.012C123.427 110.818 123.825 110.654 124.119 110.361C124.412 110.069 124.577 109.673 124.577 109.259Z" fill="#263238" stroke="#263238" stroke-width="0.5"/>
<path d="M90.4924 110.613C91.2648 110.613 91.891 109.99 91.891 109.221C91.891 108.452 91.2648 107.829 90.4924 107.829C89.7199 107.829 89.0938 108.452 89.0938 109.221C89.0938 109.99 89.7199 110.613 90.4924 110.613Z" fill="#263238" stroke="#263238" stroke-width="0.5"/>
<path d="M96.3939 123.286C95.9786 123.286 95.5804 123.45 95.2867 123.742C94.9931 124.034 94.8281 124.431 94.8281 124.844C94.8281 125.258 94.9931 125.654 95.2867 125.946C95.5804 126.239 95.9786 126.403 96.3939 126.403H116.747C117.163 126.403 117.561 126.239 117.854 125.946C118.148 125.654 118.313 125.258 118.313 124.844C118.313 124.431 118.148 124.034 117.854 123.742C117.561 123.45 117.163 123.286 116.747 123.286H96.3939Z" fill="#263238" stroke="#263238" stroke-width="0.5"/>
<path d="M91.8908 126.624C92.6632 126.624 93.2894 126 93.2894 125.232C93.2894 124.463 92.6632 123.839 91.8908 123.839C91.1184 123.839 90.4922 124.463 90.4922 125.232C90.4922 126 91.1184 126.624 91.8908 126.624Z" fill="#263238" stroke="#263238" stroke-width="0.5"/>
</svg>
